<svg width="25" height="24" viewBox="0 0 25 24" fill="none" xmlns="http://www.w3.org/2000/svg">
<path d="M12.8291 21.34C11.7391 21.34 10.6491 20.93 9.81906 20.1C8.15906 18.44 8.15906 15.75 9.81906 14.09L12.2991 11.62C12.5891 11.33 13.0691 11.33 13.3591 11.62C13.6491 11.91 13.6491 12.39 13.3591 12.68L10.8791 15.15C9.80906 16.22 9.80906 17.97 10.8791 19.04C11.9491 20.11 13.6991 20.11 14.7691 19.04L18.6591 15.15C19.8391 13.97 20.4891 12.4 20.4891 10.73C20.4891 9.05998 19.8391 7.48998 18.6591 6.30999C16.2191 3.86999 12.2591 3.86999 9.81906 6.30999L5.57906 10.55C4.58906 11.54 4.03906 12.86 4.03906 14.26C4.03906 15.66 4.58906 16.98 5.57906 17.97C5.86906 18.26 5.86906 18.74 5.57906 19.03C5.28906 19.32 4.80906 19.32 4.51906 19.03C3.24906 17.75 2.53906 16.06 2.53906 14.26C2.53906 12.46 3.23906 10.76 4.51906 9.48998L8.75906 5.24999C11.7791 2.22999 16.6991 2.22999 19.7191 5.24999C21.1791 6.70999 21.9891 8.65998 21.9891 10.73C21.9891 12.8 21.1791 14.75 19.7191 16.21L15.8291 20.1C14.9991 20.93 13.9191 21.34 12.8291 21.34Z" fill="#CB9975"/>
</svg>
