<svg width="32" height="33" viewBox="0 0 32 33" fill="none" xmlns="http://www.w3.org/2000/svg">
<path fill-rule="evenodd" clip-rule="evenodd" d="M8 3.7627C7.67856 3.7627 7.37671 3.91722 7.18876 4.17799C7.00081 4.43875 6.94967 4.77398 7.05132 5.07892L8.13962 8.34383C8.31295 8.86382 8.56606 9.34069 8.88263 9.7627H5C4.44772 9.7627 4 10.2104 4 10.7627V14.7627C4 15.315 4.44772 15.7627 5 15.7627H6V28.7627C6 29.315 6.44772 29.7627 7 29.7627H25C25.5523 29.7627 26 29.315 26 28.7627V15.7627H27C27.5523 15.7627 28 15.315 28 14.7627V10.7627C28 10.2104 27.5523 9.7627 27 9.7627H23.1174C23.4339 9.3407 23.687 8.86383 23.8604 8.34385L24.9487 5.07893C25.0503 4.77398 24.9992 4.43876 24.8112 4.17799C24.6233 3.91722 24.3214 3.7627 24 3.7627H20C18.3644 3.7627 16.9122 4.54803 16 5.76219C15.0878 4.54803 13.6356 3.7627 12 3.7627H8ZM17 11.7627H26V13.7627H17V11.7627ZM15 11.7627H6V13.7627H15V11.7627ZM15 15.7627H8V27.7627H15V15.7627ZM17 27.7627H24V15.7627H17V27.7627ZM15 8.75258C14.9945 7.10038 13.6535 5.7627 12 5.7627H9.38743L10.037 7.71138C10.4453 8.9364 11.5917 9.7627 12.883 9.7627H15L15 8.75258ZM21.963 7.71139C21.5547 8.93641 20.4082 9.7627 19.117 9.7627H17L17 8.75258C17.0054 7.10038 18.3465 5.7627 20 5.7627H22.6126L21.963 7.71139Z" fill="white"/>
</svg>
