<svg width="24" height="25" viewBox="0 0 24 25" fill="none" xmlns="http://www.w3.org/2000/svg">
<path d="M17.3767 0.5H6.62299C2.97108 0.5 0 3.47122 0 7.12313V17.8769C0 21.5289 2.97108 24.5 6.62299 24.5H17.3767C21.0289 24.5 24 21.5288 24 17.8769V7.12313C24.0001 3.47122 21.0289 0.5 17.3767 0.5ZM21.8707 17.8769C21.8707 20.3548 19.8548 22.3706 17.3769 22.3706H6.62299C4.14522 22.3707 2.1294 20.3548 2.1294 17.8769V7.12313C2.1294 4.64537 4.14522 2.6294 6.62299 2.6294H17.3767C19.8546 2.6294 21.8706 4.64537 21.8706 7.12313V17.8769H21.8707Z" fill="#451717"/>
<path d="M12.0006 6.3161C8.59058 6.3161 5.81641 9.09028 5.81641 12.5003C5.81641 15.9102 8.59058 18.6842 12.0006 18.6842C15.4106 18.6842 18.1848 15.9102 18.1848 12.5003C18.1848 9.09028 15.4106 6.3161 12.0006 6.3161ZM12.0006 16.5547C9.76488 16.5547 7.9458 14.7359 7.9458 12.5002C7.9458 10.2643 9.76473 8.44536 12.0006 8.44536C14.2365 8.44536 16.0554 10.2643 16.0554 12.5002C16.0554 14.7359 14.2363 16.5547 12.0006 16.5547Z" fill="#451717"/>
<path d="M18.4434 4.51051C18.0331 4.51051 17.6301 4.67661 17.3404 4.96762C17.0492 5.25722 16.8818 5.66039 16.8818 6.07207C16.8818 6.48248 17.0493 6.8855 17.3404 7.17652C17.63 7.46612 18.0331 7.63363 18.4434 7.63363C18.8551 7.63363 19.2568 7.46612 19.5478 7.17652C19.8389 6.8855 20.0049 6.48233 20.0049 6.07207C20.0049 5.66039 19.8389 5.25722 19.5478 4.96762C19.2582 4.67661 18.8551 4.51051 18.4434 4.51051Z" fill="#451717"/>
</svg>
