<svg width="148" height="142" viewBox="0 0 148 142" fill="none" xmlns="http://www.w3.org/2000/svg">
<g clip-path="url(#clip0_21_416)">
<path fill-rule="evenodd" clip-rule="evenodd" d="M39.1162 9.98447C14.0251 30.2156 -5.9587 74.1965 2.45203 102.638C9.81408 127.546 45.2805 143.903 67.3082 140.537C86.6774 137.569 97.1362 127.82 111.305 122.51C136.196 113.135 155.594 69.1767 144.113 44.6421C129.477 13.4004 68.5936 -13.7273 39.1454 9.98447" fill="#A7B33E"/>
<g clip-path="url(#clip1_21_416)">
<path d="M51.5773 75.8194C45.0819 72.4092 39.787 68.1871 36.8815 63.7717C38.0218 63.3237 39.7265 62.8688 41.9299 62.4603C44.6623 61.9538 48.1002 61.5295 52.0513 61.2689C59.9537 60.7478 69.8766 60.8838 80.2656 62.3117L80.3677 61.5687L80.4699 60.8257C70.0809 59.3978 60.4892 56.8515 53.0205 54.2177C49.2862 52.9008 46.0903 51.5647 43.5959 50.3397C41.5797 49.3497 40.0586 48.4497 39.0817 47.7098C43.042 44.2749 49.2065 41.6549 56.3033 40.1184C63.773 38.5011 72.1874 38.1036 79.9602 39.1719C89.9263 40.5417 96.8674 44.0505 101.103 48.6688C105.328 53.2751 106.922 59.0485 106.089 65.1041C105.257 71.1597 102.165 76.289 96.8537 79.5847C91.5291 82.8889 83.8987 84.3948 73.9327 83.025C66.224 81.9655 58.2965 79.3472 51.5773 75.8194Z" stroke="white" stroke-width="1.5"/>
<path d="M68.0218 60.2293L68.1162 59.5425C69.7216 59.9059 71.369 60.2503 73.053 60.5708C71.3451 60.4252 69.6659 60.3124 68.0218 60.2293Z" stroke="white" stroke-width="1.5"/>
<path d="M40.0698 56.0299C40.2679 54.5883 41.1572 53.0715 42.7226 51.5824C47.9245 54.1667 56.1414 57.2136 65.8985 59.58C55.8648 59.2261 47.1305 59.9431 41.4243 61.0281C40.3187 59.1719 39.8716 57.4714 40.0698 56.0299Z" stroke="white" stroke-width="1.5"/>
<path d="M67.9208 60.2172L68.0198 59.5004C69.6739 59.877 71.3719 60.2334 73.1076 60.5641C71.347 60.4146 69.6156 60.3003 67.9208 60.2172Z" stroke="white" stroke-width="1.5"/>
<mask id="path-6-inside-1_21_416" fill="white">
<path d="M104.072 64.8269C102.432 76.7583 91.0216 82.7329 74.3033 80.435C62.1132 78.7595 49.0577 72.9372 41.8157 65.9513L42.5851 65.149C49.6724 71.9818 62.481 77.6823 74.4411 79.3262C90.4837 81.5312 101.406 75.9142 102.951 64.6728L104.058 64.825L104.072 64.8269Z"/>
</mask>
<path d="M104.072 64.8269L105.558 65.0312L105.763 63.5452L104.277 63.3409L104.072 64.8269ZM41.8157 65.9513L40.7331 64.9132L39.698 65.9926L40.7743 67.0309L41.8157 65.9513ZM42.5851 65.149L43.6262 64.0691L42.5435 63.0252L41.5025 64.1108L42.5851 65.149ZM102.951 64.6728L103.155 63.1868L101.669 62.9825L101.465 64.4686L102.951 64.6728ZM102.586 64.6227C101.834 70.0979 98.8729 74.1609 94.1459 76.6384C89.3619 79.1457 82.6716 80.0711 74.5076 78.949L74.0991 81.9211C82.6534 83.0968 90.0276 82.1839 95.5385 79.2955C101.106 76.3773 104.671 71.4873 105.558 65.0312L102.586 64.6227ZM74.5076 78.949C62.5613 77.307 49.8233 71.5916 42.8572 64.8718L40.7743 67.0309C48.2921 74.2828 61.6652 80.2121 74.0991 81.9211L74.5076 78.949ZM42.8984 66.9895L43.6678 66.1872L41.5025 64.1108L40.7331 64.9132L42.8984 66.9895ZM41.544 66.2289C48.9078 73.3282 62.0343 79.135 74.2368 80.8122L74.6453 77.8402C62.9276 76.2296 50.437 70.6354 43.6262 64.0691L41.544 66.2289ZM74.2368 80.8122C82.449 81.941 89.528 81.0955 94.8184 78.3759C100.167 75.6264 103.596 70.999 104.437 64.8771L101.465 64.4686C100.761 69.588 97.9561 73.3898 93.4469 75.7078C88.8792 78.0559 82.4759 78.9164 74.6453 77.8402L74.2368 80.8122ZM102.747 66.1588L103.854 66.311L104.262 63.3389L103.155 63.1868L102.747 66.1588ZM103.854 66.311L103.868 66.313L104.277 63.3409L104.262 63.3389L103.854 66.311Z" fill="white" mask="url(#path-6-inside-1_21_416)"/>
</g>
<g clip-path="url(#clip2_21_416)">
<path d="M91.8326 67.656C99.0192 69.1299 105.278 71.717 109.294 75.1527C108.323 75.8995 106.812 76.8097 104.808 77.8135C102.324 79.0584 99.1385 80.42 95.4148 81.7667C87.9674 84.4602 78.3964 87.083 68.0192 88.594L68.1272 89.3362L68.2353 90.0783C78.6125 88.5674 88.5341 88.352 96.4403 88.8099C100.393 89.0389 103.835 89.4357 106.571 89.9204C108.783 90.3121 110.494 90.7546 111.638 91.1944C108.786 95.5933 103.591 99.821 97.1988 103.267C90.4713 106.893 82.4976 109.61 74.7336 110.74C64.7789 112.19 57.1367 110.745 51.7858 107.483C46.4488 104.23 43.3155 99.1258 42.4347 93.0771C41.554 87.0283 43.1016 81.2423 47.2894 76.6024C51.4881 71.9505 58.4009 68.3863 68.3557 66.9368C76.0557 65.8157 84.3983 66.1313 91.8326 67.656Z" fill="#A7B33E" stroke="white" stroke-width="1.5"/>
<path d="M80.36 87.1971L80.4599 87.8832C78.8167 87.9795 77.1385 88.1058 75.4316 88.2652C77.1129 87.9311 78.7574 87.5735 80.36 87.1971Z" stroke="white" stroke-width="1.5"/>
<path d="M108.38 83.4753C108.589 84.9152 108.156 86.6192 107.065 88.4842C101.35 87.4448 92.6107 86.7977 82.5801 87.2318C92.318 84.7875 100.51 81.675 105.691 79.0492C107.269 80.5257 108.17 82.0354 108.38 83.4753Z" stroke="white" stroke-width="1.5"/>
<path d="M80.4604 87.1807L80.5642 87.8969C78.8705 87.994 77.1404 88.1228 75.3811 88.2868C77.114 87.9418 78.8091 87.5712 80.4604 87.1807Z" stroke="white" stroke-width="1.5"/>
<mask id="path-12-inside-2_21_416" fill="white">
<path d="M44.4495 92.7837C42.7142 80.8659 52.0189 71.9595 68.7183 69.528C80.8946 67.7551 95.0531 69.7259 103.949 74.4279L103.433 75.4122C94.7276 70.8144 80.8402 68.892 68.8936 70.6315C52.8691 72.9647 43.9345 81.392 45.5695 92.6206L44.4638 92.7816L44.4495 92.7837Z"/>
</mask>
<path d="M44.4495 92.7837L42.9651 92.9998L43.1812 94.4842L44.6656 94.2681L44.4495 92.7837ZM103.949 74.4279L105.277 75.1249L105.972 73.8006L104.65 73.1018L103.949 74.4279ZM103.433 75.4122L102.732 76.7386L104.062 77.441L104.761 76.1092L103.433 75.4122ZM45.5695 92.6206L45.7856 94.105L47.2699 93.8889L47.0538 92.4045L45.5695 92.6206ZM45.9338 92.5676C45.1375 87.0985 46.8546 82.3735 50.7085 78.6816C54.6089 74.9453 60.7797 72.1997 68.9344 71.0123L68.5022 68.0436C59.9576 69.2878 53.1263 72.2111 48.6332 76.5153C44.0938 80.8639 42.0261 86.551 42.9651 92.9998L45.9338 92.5676ZM68.9344 71.0123C80.8672 69.2749 94.6909 71.2311 103.248 75.7541L104.65 73.1018C95.4152 68.2207 80.922 66.2352 68.5022 68.0436L68.9344 71.0123ZM102.621 73.7309L102.104 74.7153L104.761 76.1092L105.277 75.1249L102.621 73.7309ZM104.133 74.0859C95.0886 69.3087 80.8662 67.3724 68.6775 69.1472L69.1098 72.1159C80.8142 70.4116 94.3667 72.3201 102.732 76.7386L104.133 74.0859ZM68.6775 69.1472C60.4747 70.3415 53.9082 73.1181 49.5802 77.1989C45.2045 81.3248 43.1947 86.7217 44.0851 92.8368L47.0538 92.4045C46.3092 87.2909 47.9493 82.8599 51.6383 79.3817C55.375 75.8584 61.2881 73.2547 69.1098 72.1159L68.6775 69.1472ZM45.3533 91.1363L44.2477 91.2973L44.68 94.266L45.7856 94.105L45.3533 91.1363ZM44.2477 91.2973L44.2333 91.2994L44.6656 94.2681L44.68 94.266L44.2477 91.2973Z" fill="white" mask="url(#path-12-inside-2_21_416)"/>
</g>
</g>
<defs>
<clipPath id="clip0_21_416">
<rect width="148" height="141" fill="white" transform="translate(0 0.737305)"/>
</clipPath>
<clipPath id="clip1_21_416">
<rect width="46.8827" height="72" fill="white" transform="translate(32.8726 78.6951) rotate(-82.1738)"/>
</clipPath>
<clipPath id="clip2_21_416">
<rect width="46.8827" height="72" fill="white" transform="translate(109.005 59.703) rotate(81.7157)"/>
</clipPath>
</defs>
</svg>
