<svg width="56" height="51" viewBox="0 0 56 51" fill="none" xmlns="http://www.w3.org/2000/svg">
<g clip-path="url(#clip0_233_1670)">
<path fill-rule="evenodd" clip-rule="evenodd" d="M41.7776 1.56258C34.1817 0.141476 30.689 1.0922 23.5334 3.85435C15.8874 6.80665 13.2854 2.50331 4.30838 13.2817C-2.28677 21.2079 -0.45534 34.8886 5.07898 40.1927C9.94277 44.8563 15.2169 45.4568 19.7905 48.1189C27.8467 52.8026 46.0309 47.7986 51.6753 38.8216C58.871 27.3927 55.3982 4.11458 41.7676 1.56258" fill="#F8B0B8"/>
<path d="M38.762 31.9453V20.2853L28.5089 24.4149V36.085L38.762 31.9453ZM26.9299 24.4149L16.6769 20.2853V31.9453L26.9299 36.085V24.4149ZM37.5777 19.0606L27.7194 14.4655L17.8712 19.0606L27.7194 23.0384L37.5777 19.0606ZM27.4259 37.9777L15.5938 33.2105C15.2902 33.089 15.0979 32.7955 15.0979 32.4817V19.1112C15.0979 19.0201 15.1181 18.9493 15.1485 18.8683C15.1485 18.8481 15.1688 18.8278 15.1688 18.8177C15.1991 18.7266 15.2396 18.6558 15.3003 18.5849C15.3408 18.5343 15.3914 18.4938 15.4319 18.4634C15.4623 18.4432 15.4825 18.4331 15.523 18.423L15.5432 18.4027L27.3955 12.8764C27.6081 12.7853 27.851 12.7853 28.0635 12.8764L39.8956 18.3926L39.9158 18.4128C39.9158 18.4128 39.9664 18.4331 39.9968 18.4533C40.0474 18.4837 40.098 18.5242 40.1385 18.5748C40.1891 18.6456 40.2397 18.7266 40.2701 18.8076C40.2701 18.8278 40.2903 18.8481 40.2903 18.8582C40.3105 18.9392 40.3308 19.0201 40.3308 19.1011V32.4615C40.3308 32.7854 40.1385 33.0789 39.845 33.1902L28.0129 37.9575C28.0129 37.9575 27.9927 37.9575 27.9826 37.9575C27.8915 37.9878 27.8105 38.0081 27.7194 38.0081C27.6283 38.0081 27.5473 37.9878 27.4562 37.9575C27.4562 37.9575 27.436 37.9575 27.4259 37.9575V37.9777ZM37.9118 30.589C38.0737 30.9939 37.8814 31.4493 37.4765 31.6113L30.3814 34.4757C30.2903 34.5161 30.189 34.5263 30.0777 34.5263C29.9259 34.5263 29.7741 34.4757 29.6324 34.3947C29.4198 34.2429 29.2882 33.9999 29.2882 33.7368V25.4776C29.2882 25.0424 29.6425 24.6882 30.0777 24.6882C30.5129 24.6882 30.8672 25.0424 30.8672 25.4776V32.5222C30.8672 32.5222 30.9279 32.5425 30.9684 32.5425L36.8794 30.1538C37.2842 29.9918 37.7498 30.1841 37.9016 30.5991L37.9118 30.589ZM37.183 22.2691C37.6284 22.2691 37.9725 22.6133 37.9725 23.0586C37.9725 23.504 37.6284 23.8481 37.183 23.8481C36.7377 23.8481 36.3935 23.4938 36.3935 23.0586C36.3935 22.6234 36.7478 22.2691 37.183 22.2691ZM37.183 25.427C37.6284 25.427 37.9725 25.7712 37.9725 26.2165C37.9725 26.6619 37.6284 27.006 37.183 27.006C36.7377 27.006 36.3935 26.6517 36.3935 26.2165C36.3935 25.7813 36.7478 25.427 37.183 25.427ZM36.3935 27.7955C36.8389 27.7955 37.183 28.1396 37.183 28.5849C37.183 29.0303 36.8389 29.3744 36.3935 29.3744C35.9482 29.3744 35.6041 29.0202 35.6041 28.5849C35.6041 28.1497 35.9583 27.7955 36.3935 27.7955ZM34.8146 24.6376C35.2599 24.6376 35.6041 24.9817 35.6041 25.427C35.6041 25.8724 35.2599 26.2165 34.8146 26.2165C34.3692 26.2165 34.0251 25.8623 34.0251 25.427C34.0251 24.9918 34.3794 24.6376 34.8146 24.6376ZM33.2356 18.3319C33.681 18.3319 34.0251 18.676 34.0251 19.1213C34.0251 19.5667 33.681 19.9108 33.2356 19.9108C32.7903 19.9108 32.4461 19.5566 32.4461 19.1213C32.4461 18.6861 32.8004 18.3319 33.2356 18.3319ZM33.2356 28.5849C33.681 28.5849 34.0251 28.9291 34.0251 29.3744C34.0251 29.8198 33.681 30.1639 33.2356 30.1639C32.7903 30.1639 32.4461 29.8096 32.4461 29.3744C32.4461 28.9392 32.8004 28.5849 33.2356 28.5849ZM30.0777 16.7529C30.5231 16.7529 30.8672 17.097 30.8672 17.5424C30.8672 17.9877 30.5231 18.3319 30.0777 18.3319C29.6324 18.3319 29.2882 17.9776 29.2882 17.5424C29.2882 17.1072 29.6425 16.7529 30.0777 16.7529ZM29.2882 19.9108C29.7336 19.9108 30.0777 20.255 30.0777 20.7003C30.0777 21.1456 29.7336 21.4898 29.2882 21.4898C28.8429 21.4898 28.4988 21.1355 28.4988 20.7003C28.4988 20.2651 28.853 19.9108 29.2882 19.9108ZM25.6445 33.0182C26.0494 33.1801 26.2417 33.6457 26.0797 34.0506C25.9583 34.3542 25.6647 34.5364 25.351 34.5364C25.2599 34.5364 25.1587 34.5161 25.0575 34.4858L17.9623 31.6214C17.6586 31.4999 17.4663 31.2064 17.4663 30.8926V22.6133C17.4663 22.178 17.8206 21.8238 18.2558 21.8238C18.691 21.8238 19.0453 22.178 19.0453 22.6133V30.3461L22.2234 31.6214C22.2741 31.2368 22.5979 30.9331 22.9927 30.9331C23.438 30.9331 23.7821 31.2773 23.7821 31.7226C23.7821 31.8947 23.7214 32.0566 23.6202 32.1781L25.6647 32.9979L25.6445 33.0182ZM25.3409 26.2165C25.7862 26.2165 26.1303 26.5606 26.1303 27.006C26.1303 27.4513 25.7862 27.7955 25.3409 27.7955C24.8955 27.7955 24.5514 27.4412 24.5514 27.006C24.5514 26.5708 24.9056 26.2165 25.3409 26.2165ZM25.3409 29.3744C25.7862 29.3744 26.1303 29.7186 26.1303 30.1639C26.1303 30.6092 25.7862 30.9534 25.3409 30.9534C24.8955 30.9534 24.5514 30.5991 24.5514 30.1639C24.5514 29.7287 24.9056 29.3744 25.3409 29.3744ZM21.3935 28.5849C21.8388 28.5849 22.1829 28.9291 22.1829 29.3744C22.1829 29.8198 21.8388 30.1639 21.3935 30.1639C20.9481 30.1639 20.604 29.8096 20.604 29.3744C20.604 28.9392 20.9582 28.5849 21.3935 28.5849Z" fill="white" stroke="#F8B0B8" stroke-width="0.77"/>
</g>
<defs>
<clipPath id="clip0_233_1670">
<rect width="55.3" height="49.35" fill="white" transform="translate(0.0644531 0.824997)"/>
</clipPath>
</defs>
</svg>
