<svg width="158" height="142" viewBox="0 0 158 142" fill="none" xmlns="http://www.w3.org/2000/svg">
<g clip-path="url(#clip0_21_464)">
<path fill-rule="evenodd" clip-rule="evenodd" d="M119.181 2.84471C97.4782 -1.2156 87.499 1.50074 67.0544 9.39261C45.2088 17.8278 37.7745 5.5325 12.1259 36.328C-6.71741 58.9742 -1.48476 98.0618 14.3276 113.216C28.2241 126.541 43.293 128.257 56.3604 135.863C79.3783 149.245 131.333 134.948 147.46 109.299C168.019 76.6451 158.097 10.1361 119.152 2.84471" fill="#F8B0B8"/>
<path d="M110.565 89.6524V56.3382L81.2701 68.137V101.48L110.565 89.6524ZM76.7588 68.137L47.4643 56.3382V89.6524L76.7588 101.48V68.137ZM107.181 52.8391L79.0145 39.71L50.8767 52.8391L79.0145 64.204L107.181 52.8391ZM78.1758 106.888L44.37 93.2672C43.5024 92.9202 42.953 92.0815 42.953 91.1851V52.9836C42.953 52.7234 43.0108 52.5209 43.0976 52.2896C43.0976 52.2318 43.1555 52.1739 43.1555 52.145C43.2422 51.8847 43.3579 51.6823 43.5314 51.4799C43.6471 51.3353 43.7916 51.2196 43.9073 51.1329C43.994 51.075 44.0519 51.0461 44.1676 51.0172L44.2254 50.9593L78.089 35.1698C78.6963 34.9095 79.3904 34.9095 79.9977 35.1698L113.803 50.9304L113.861 50.9883C113.861 50.9883 114.006 51.0461 114.093 51.1039C114.237 51.1907 114.382 51.3064 114.498 51.451C114.642 51.6534 114.787 51.8847 114.873 52.1161C114.873 52.1739 114.931 52.2318 114.931 52.2607C114.989 52.492 115.047 52.7234 115.047 52.9547V91.1272C115.047 92.0526 114.498 92.8913 113.659 93.2094L79.8531 106.83C79.8531 106.83 79.7953 106.83 79.7664 106.83C79.5061 106.917 79.2747 106.975 79.0145 106.975C78.7542 106.975 78.5228 106.917 78.2625 106.83C78.2625 106.83 78.2047 106.83 78.1758 106.83V106.888ZM108.135 85.7773C108.598 86.934 108.049 88.2354 106.892 88.6981L86.6201 96.882C86.3598 96.9977 86.0705 97.0266 85.7524 97.0266C85.3187 97.0266 84.8849 96.882 84.48 96.6507C83.8727 96.2169 83.4968 95.5229 83.4968 94.771V71.1734C83.4968 69.9299 84.5089 68.9178 85.7524 68.9178C86.9959 68.9178 88.0081 69.9299 88.0081 71.1734V91.3007C88.0081 91.3007 88.1816 91.3586 88.2973 91.3586L105.186 84.5338C106.342 84.0711 107.673 84.6206 108.107 85.8062L108.135 85.7773ZM106.053 62.0062C107.326 62.0062 108.309 62.9895 108.309 64.2619C108.309 65.5343 107.326 66.5175 106.053 66.5175C104.781 66.5175 103.798 65.5054 103.798 64.2619C103.798 63.0184 104.81 62.0062 106.053 62.0062ZM106.053 71.0288C107.326 71.0288 108.309 72.0121 108.309 73.2845C108.309 74.5569 107.326 75.5401 106.053 75.5401C104.781 75.5401 103.798 74.528 103.798 73.2845C103.798 72.041 104.81 71.0288 106.053 71.0288ZM103.798 77.7958C105.07 77.7958 106.053 78.779 106.053 80.0514C106.053 81.3238 105.07 82.3071 103.798 82.3071C102.525 82.3071 101.542 81.2949 101.542 80.0514C101.542 78.8079 102.554 77.7958 103.798 77.7958ZM99.2864 68.7732C100.559 68.7732 101.542 69.7564 101.542 71.0288C101.542 72.3012 100.559 73.2845 99.2864 73.2845C98.014 73.2845 97.0308 72.2723 97.0308 71.0288C97.0308 69.7853 98.0429 68.7732 99.2864 68.7732ZM94.7751 50.7569C96.0475 50.7569 97.0308 51.7401 97.0308 53.0126C97.0308 54.285 96.0475 55.2682 94.7751 55.2682C93.5027 55.2682 92.5194 54.2561 92.5194 53.0126C92.5194 51.7691 93.5316 50.7569 94.7751 50.7569ZM94.7751 80.0514C96.0475 80.0514 97.0308 81.0347 97.0308 82.3071C97.0308 83.5795 96.0475 84.5627 94.7751 84.5627C93.5027 84.5627 92.5194 83.5506 92.5194 82.3071C92.5194 81.0636 93.5316 80.0514 94.7751 80.0514ZM85.7524 46.2456C87.0249 46.2456 88.0081 47.2289 88.0081 48.5013C88.0081 49.7737 87.0249 50.7569 85.7524 50.7569C84.48 50.7569 83.4968 49.7448 83.4968 48.5013C83.4968 47.2578 84.5089 46.2456 85.7524 46.2456ZM83.4968 55.2682C84.7692 55.2682 85.7524 56.2514 85.7524 57.5239C85.7524 58.7963 84.7692 59.7795 83.4968 59.7795C82.2244 59.7795 81.2412 58.7674 81.2412 57.5239C81.2412 56.2804 82.2533 55.2682 83.4968 55.2682ZM73.0862 92.7178C74.2429 93.1805 74.7924 94.5107 74.3297 95.6674C73.9826 96.535 73.144 97.0555 72.2475 97.0555C71.9873 97.0555 71.698 96.9977 71.4089 96.9109L51.1369 88.727C50.2694 88.38 49.7199 87.5413 49.7199 86.6449V62.9895C49.7199 61.746 50.7321 60.7338 51.9756 60.7338C53.2191 60.7338 54.2312 61.746 54.2312 62.9895V85.0833L63.3117 88.727C63.4563 87.6281 64.3816 86.7605 65.5094 86.7605C66.7819 86.7605 67.7651 87.7438 67.7651 89.0162C67.7651 89.5078 67.5917 89.9705 67.3025 90.3175L73.144 92.6599L73.0862 92.7178ZM72.2186 73.2845C73.491 73.2845 74.4742 74.2677 74.4742 75.5401C74.4742 76.8125 73.491 77.7958 72.2186 77.7958C70.9462 77.7958 69.9629 76.7836 69.9629 75.5401C69.9629 74.2966 70.9751 73.2845 72.2186 73.2845ZM72.2186 82.3071C73.491 82.3071 74.4742 83.2903 74.4742 84.5627C74.4742 85.8351 73.491 86.8184 72.2186 86.8184C70.9462 86.8184 69.9629 85.8062 69.9629 84.5627C69.9629 83.3192 70.9751 82.3071 72.2186 82.3071ZM60.9404 80.0514C62.2128 80.0514 63.196 81.0347 63.196 82.3071C63.196 83.5795 62.2128 84.5627 60.9404 84.5627C59.6679 84.5627 58.6847 83.5506 58.6847 82.3071C58.6847 81.0636 59.6969 80.0514 60.9404 80.0514Z" fill="white" stroke="#F8B0B8" stroke-width="2.2"/>
</g>
<defs>
<clipPath id="clip0_21_464">
<rect width="158" height="141" fill="white" transform="translate(0 0.737305)"/>
</clipPath>
</defs>
</svg>
