<svg width="56" height="51" viewBox="0 0 56 51" fill="none" xmlns="http://www.w3.org/2000/svg">
<g clip-path="url(#clip0_233_1719)">
<path fill-rule="evenodd" clip-rule="evenodd" d="M16.8909 49.4494C24.4546 49.97 27.7551 48.6341 34.415 45.1273C41.5366 41.375 44.5522 45.2649 52.0765 33.7328C57.6068 25.2556 54.2474 12.1224 48.2456 7.58424C42.9707 3.59615 37.7646 3.61577 32.9907 1.54314C24.6019 -2.10116 7.45112 4.86329 2.97188 14.2638C-2.73522 26.2281 3.31568 48.5261 16.9007 49.4494" fill="#CB9975"/>
<path d="M39.4528 17.6476C41.1655 20.4569 41.343 23.4855 39.9645 26.1694C39.7974 26.4723 39.6825 26.6811 39.5781 26.8482C39.5572 26.89 39.5363 26.9213 39.5259 26.9422C39.5468 26.9945 39.5781 27.0675 39.6199 27.1406C39.7139 27.3286 39.8288 27.5688 39.975 27.903C40.2047 28.4148 40.1003 29.0623 39.693 29.6993C39.0873 30.6288 38.0221 31.2345 36.7793 31.4225C36.8002 31.6627 36.7271 31.9133 36.5391 32.0804C34.0326 34.3988 31.6933 35.4432 28.696 35.5581C28.5707 35.5581 28.4454 35.5581 28.3201 35.5581C23.7354 35.5581 18.4406 32.3833 16.1117 28.2059C15.0152 26.2321 14.6288 24.1643 14.9316 22.1487C14.8481 21.8772 14.9003 21.5952 15.0778 21.3863C15.318 20.4046 15.7149 19.4438 16.2788 18.5039C15.976 18.0966 15.6313 17.564 15.6522 16.457C15.6522 15.6633 16.2266 14.9636 16.7905 14.6294C17.083 14.4519 17.3962 14.3579 17.6887 14.3474C19.5476 11.7679 22.5449 10.3581 26.2105 10.3581H26.2314C31.3174 10.3581 36.8733 13.4284 39.4423 17.658L39.4528 17.6476ZM38.6591 25.1042C38.9724 24.4254 39.1395 23.757 39.2126 23.1304C37.6356 22.4829 36.3929 21.6996 35.4007 20.6762C35.0874 20.3524 35.0874 19.8407 35.4216 19.517C35.7454 19.2037 36.2571 19.2141 36.5704 19.5378C37.291 20.2689 38.1056 20.8433 39.1708 21.3446C38.9828 20.248 38.5442 19.2768 38.0743 18.5039C35.8185 14.807 30.743 12.0081 26.2627 11.9872C27.6308 13.8879 28.9154 15.256 30.6594 16.1228C31.0667 16.3213 31.2338 16.8121 31.0249 17.209C30.8892 17.5014 30.5968 17.6685 30.3043 17.6685C30.179 17.6685 30.0641 17.6476 29.9388 17.5849C27.4115 16.3213 25.751 14.1281 24.3934 12.1543C23.3803 12.3214 22.4613 12.6243 21.6363 13.0629C22.2003 14.2117 23.1297 15.4962 24.2263 16.1646C24.6127 16.4048 24.7276 16.8957 24.4978 17.2821C24.3411 17.5327 24.0801 17.6685 23.8085 17.6685C23.6623 17.6685 23.5161 17.6267 23.3803 17.5431C22.0123 16.7077 20.947 15.2456 20.2891 13.9715C19.84 14.3475 19.4536 14.7861 19.0985 15.256C23.2028 21.8876 29.8239 26.6498 36.1109 27.4331C36.56 27.4853 36.8733 27.8926 36.821 28.3312C36.7688 28.7489 36.4242 29.0518 36.0169 29.0518C35.9856 29.0518 35.9542 29.0518 35.9125 29.0518C29.1242 28.2059 22.0018 23.1095 17.6573 16.0184C17.5216 16.1228 17.3232 16.363 17.3232 16.4884C17.3232 17.1254 17.438 17.2821 17.6887 17.6162C17.7827 17.7416 17.8871 17.8878 17.9811 18.0444C19.9862 21.2401 23.1924 24.4358 26.8058 26.796C30.0433 28.9265 32.8839 29.8664 36.0064 29.8664C37.667 29.8664 38.4502 28.8638 38.492 28.5087C38.3667 28.2372 38.2622 28.0179 38.1787 27.8612C37.9072 27.3077 37.8236 26.9944 37.9385 26.5871C35.808 25.8352 33.6149 24.5402 32.1737 23.1304C31.85 22.8171 31.85 22.3054 32.1528 21.9816C32.4661 21.6683 32.9779 21.6579 33.3121 21.9607C34.6175 23.2348 36.7062 24.4567 38.6695 25.1042H38.6591ZM32.1528 33.1561C33.051 32.7592 33.9073 32.1848 34.795 31.4433C31.7977 31.2345 28.9989 30.2006 25.8972 28.1537C22.5031 25.9292 19.4432 23.0051 17.3232 19.9973C16.989 20.6553 16.7592 21.3028 16.6234 21.9189C18.0333 24.5716 19.6625 26.3678 21.7303 27.5271C22.1271 27.7359 22.2629 28.2372 22.0436 28.6236C21.8974 28.8952 21.6154 29.0518 21.3334 29.0518C21.1977 29.0518 21.0619 29.0205 20.9366 28.9474C19.2656 28.0179 17.8558 26.7334 16.6234 25.0311C16.8219 25.9292 17.1561 26.7438 17.532 27.4331C19.652 31.2449 24.5396 34.0855 28.6229 33.9393C28.7587 33.9393 28.8945 33.9184 29.0198 33.908C27.7457 33.4589 26.4716 32.8741 25.6466 32.0908C25.3333 31.7775 25.3124 31.2658 25.6257 30.9421C25.939 30.6183 26.4507 30.6079 26.7745 30.9212C27.8815 31.9864 30.4714 32.707 32.017 33.1352L32.1111 33.1665H32.1319L32.1528 33.1561Z" fill="white" stroke="#CB9975" stroke-width="0.7"/>
<g clip-path="url(#clip1_233_1719)">
<path d="M39.5529 32.7869L38.146 33.2215L36.3373 33.7768C35.9795 33.8852 35.3729 33.7782 34.8546 33.7336C34.169 33.4826 33.1295 33.2675 32.1662 33.0707C30.8354 32.8027 30.7165 32.7727 29.4041 32.3412C28.9684 32.1942 28.49 32.0355 28.0062 31.8862C26.6925 31.4788 25.3443 31.1761 24.7867 31.5069C24.752 31.5246 24.7266 31.5475 24.7013 31.5705C24.676 31.5934 24.6506 31.6164 24.6347 31.6446C24.6293 31.6541 24.6187 31.6729 24.6134 31.6823C24.4743 32.2995 26.0192 32.8004 27.4903 33.1478C27.5999 33.1725 27.7188 33.2025 27.8284 33.2271C28.3522 33.3494 28.8439 33.441 29.2353 33.5133C28.904 33.4875 28.6423 33.5135 28.541 33.6053C28.541 33.6053 28.5357 33.6147 28.5303 33.6241C28.5197 33.6429 28.5184 33.6671 28.5265 33.6965C28.5305 33.7112 28.5345 33.7259 28.5479 33.7459C28.682 34.033 29.0483 34.2153 29.5587 34.3175C29.6496 34.3316 29.7498 34.351 29.85 34.3704C30.6155 34.4802 31.5851 34.4694 32.5079 34.4321C32.938 34.4143 33.3587 34.3913 33.7406 34.3712C33.4322 34.4577 33.1292 34.5349 32.8168 34.6068C32.2014 34.7558 31.5725 34.8848 30.945 34.9897L30.7941 35.0162C30.5511 35.0528 30.3081 35.0893 30.0557 35.1206C29.4278 35.0513 28.7721 35.0532 28.1256 35.0605C28.0295 35.0558 27.8999 35.0446 27.7516 35.0229C27.2586 34.9554 26.5438 34.7996 26.1084 34.8268C25.7049 34.7104 25.2971 34.4922 24.8359 34.2811C24.0218 33.9077 23.0006 33.442 21.4215 33.22C21.1583 33.183 20.5409 33.0078 19.8193 32.7985C19.1441 32.4416 18.3873 31.9887 17.6171 31.5159C16.05 30.5301 13.4783 28.7651 12.6386 28.9612C12.5798 28.9777 12.5332 29.0383 12.5346 29.1013C12.5361 29.1643 12.5469 29.2325 12.5724 29.2966C12.8345 30.1656 14.4967 31.2672 15.3953 31.8624C15.4421 31.8889 15.5264 31.9365 15.5906 31.9977C15.6496 32.1554 15.7287 32.2995 15.8225 32.4395C15.1183 32.2649 14.2684 32.0204 13.6774 31.7111C13.4903 31.6052 12.9179 31.2194 12.4099 30.9818C11.7469 30.669 11.2528 30.7126 12.0515 31.4626C12.8918 32.2485 14.0855 32.8242 15.1946 33.091C16.0097 33.2661 16.2441 33.6597 14.9251 33.2617C14.2397 33.0977 13.463 32.7455 12.7854 32.5239C12.3778 32.3928 10.6913 31.8366 11.2909 32.5237C11.6269 32.9125 11.921 33.0913 12.2954 33.303C13.119 33.7688 14.7694 34.2797 15.3214 34.5049C13.9116 34.0928 10.7754 33.9595 10.5725 34.7768C10.6305 35.0457 11.3555 34.9213 12.0138 34.8711C12.8565 34.8009 13.5202 34.7413 14.3833 34.9188C14.5169 34.9446 14.8375 34.9892 15.1715 35.0539C14.5521 35.1882 13.9489 35.4684 13.5045 35.6645C13.0842 35.8617 12.8266 35.9894 12.6841 36.2195C12.5171 36.908 14.3933 35.9931 14.6949 35.853C15.9866 35.229 17.7085 35.3951 19.2411 35.7647C19.7315 35.8805 20.9193 36.1173 22.1831 36.2853C20.8236 36.3739 19.1012 36.6674 17.7434 36.906C16.2199 37.1753 12.5873 38.0288 12.2942 39.0933C12.5315 39.6128 13.6188 38.9353 15.0257 38.5007C16.3499 38.0814 17.9588 37.8356 18.4301 37.7666L22.5452 37.0866C23.09 36.997 23.8218 36.9262 24.3117 36.7807C24.4145 36.7519 24.8113 36.8147 25.208 36.8776C24.6405 36.9419 23.8194 37.0615 23.1198 37.25C22.5378 37.4055 22.0494 37.6139 21.8722 37.8616C21.8669 37.8711 21.8562 37.8899 21.8562 37.8899C21.96 38.3835 24.1918 37.6698 24.4455 37.6144C24.7138 37.5549 25.3146 37.41 25.8766 37.2681C24.1053 37.8446 22.1944 38.7771 21.0652 39.1575C19.2339 39.7746 17.6242 41.0265 17.1191 42.3564C17.1422 42.5558 17.3988 42.6264 17.6615 42.4021C18.0002 42.109 18.6082 41.5581 19.231 41.0902C20.3861 40.2273 22.3105 39.4019 24.0575 38.7372C23.1946 39.3676 22.4492 40.052 22.2806 40.5905C22.2647 40.6187 22.2727 40.6481 22.2861 40.6681C22.8127 41.55 27.1536 38.8105 27.6019 38.5421C27.7513 38.4526 27.9514 38.3172 28.1822 38.1495C28.6783 37.7963 29.3359 37.3107 29.9641 36.8334C30.0709 36.8192 30.183 36.7957 30.2992 36.7868C29.8511 37.1423 29.2551 37.6502 28.7805 38.1399C28.7085 38.2235 28.6419 38.2976 28.5752 38.3718C28.2714 38.7343 28.061 39.0627 28.0374 39.3227C28.0321 39.3322 28.0361 39.3469 28.0548 39.3575C28.2328 39.5451 28.7678 39.189 29.2865 38.774C29.7706 38.3768 30.2386 37.9206 30.3252 37.8329C30.4932 37.667 30.8011 37.3192 31.1196 36.9525C31.2276 36.8272 31.3355 36.7018 31.4381 36.5859C31.9014 36.4875 32.35 36.3932 32.7518 36.2725C32.2982 36.5503 31.8714 36.8682 31.5314 37.1854L31.5101 37.2231C31.3128 37.3973 30.7302 38.0123 30.5174 38.476C30.4456 38.6466 30.4151 38.7661 30.4595 38.9279C30.4635 38.9426 30.4863 38.9679 30.505 38.9785C30.7696 39.0784 31.2285 38.7912 31.7299 38.3415C31.7299 38.3415 31.7486 38.3521 31.758 38.3574C31.786 38.3733 31.8194 38.3797 31.8528 38.3862C31.5143 38.7664 31.1532 39.2084 30.8308 39.6474C30.1553 40.5578 29.5748 41.497 29.5184 42.0989C29.5853 42.8326 30.9092 41.6055 31.1773 41.3718C31.2839 41.2706 31.6412 40.901 32.1223 40.3778C32.6035 39.8546 33.2033 39.1872 33.8057 38.4716C34.1348 38.0861 34.4694 37.6912 34.7798 37.2952L34.8277 37.2104C35.1209 36.8667 35.3848 36.5313 35.6139 36.2135C35.9523 35.7462 36.2306 35.3196 36.4076 34.9847C37.4862 34.6502 38.6368 34.3193 39.5807 34.0701C39.869 33.9971 40.1333 33.9229 40.363 33.8663C40.4375 33.7345 40.4625 33.5374 40.4448 33.3285C40.4188 33.0032 40.2913 32.6825 40.1283 32.6649L39.5744 32.8363L39.5529 32.7869ZM27.0713 32.6001C26.8615 32.556 26.6758 32.5131 26.49 32.4702C26.3564 32.4444 26.2335 32.3997 26.1145 32.3697C25.9675 32.3239 25.8352 32.2739 25.7123 32.2292C25.227 32.0169 25.0465 31.8775 25.1412 31.8193C25.1665 31.7963 25.2199 31.7892 25.2827 31.7874C25.3695 31.7868 25.5044 31.7886 25.6621 31.8156C26.0308 31.8626 26.4758 32.0148 26.989 32.1559C27.6932 32.3305 28.5148 32.4721 29.2298 32.7149C29.3862 32.766 29.5426 32.8172 29.7042 32.8589C30.1038 32.9606 30.4993 33.0476 30.7184 33.0969C31.9264 33.4073 34.0131 33.6927 34.9713 33.986C34.2499 33.8638 32.9699 33.6371 31.8372 33.5432C31.3976 33.4686 30.9674 33.3993 30.5425 33.3206C29.3775 33.1091 28.2431 32.8652 27.0659 32.6095L27.0713 32.6001ZM31.9232 33.828L31.5238 33.8134C31.5238 33.8134 31.4517 33.8099 31.4129 33.8128C31.2499 33.7952 31.0295 33.77 30.7957 33.7247C30.9734 33.7382 31.1604 33.757 31.3568 33.7811L31.9178 33.8374L31.9232 33.828ZM32.0828 34.1792C30.9261 34.1713 29.7614 34.1339 29.1893 33.9222C28.6694 33.7276 28.9111 33.7152 29.3186 33.7592C29.9705 33.8297 31.0447 34.0271 31.4922 34.044C31.6217 34.0552 31.7473 34.0516 31.8728 34.048C32.6582 34.0572 33.4635 34.0529 34.1863 34.151C33.9592 34.1593 33.7135 34.157 33.4571 34.1735C33.0283 34.1672 32.5555 34.1732 32.0974 34.1751L32.0828 34.1792ZM26.3466 35.0609C26.8596 35.1149 27.704 35.2818 28.0606 35.2847C28.114 35.2776 28.1715 35.2852 28.2342 35.2834C28.9047 35.2774 29.6018 35.2242 30.2097 35.307C30.0254 35.3271 29.8371 35.3324 29.6287 35.3513C29.2615 35.3673 28.8555 35.3862 28.4548 35.3958C27.5614 35.4248 26.6798 35.4109 26.2414 35.2251C25.8364 35.0458 26.03 35.031 26.3466 35.0609ZM13.5257 29.8606C13.5257 29.8606 13.4656 29.8142 13.4428 29.7889C12.8635 29.2624 13.1348 29.3288 13.9129 29.744C15.3527 30.4962 16.1976 30.9243 17.4614 31.813C16.9147 31.5784 16.5031 31.4326 16.1797 31.3491C15.8376 31.2551 15.5691 31.2275 15.3087 31.2293C14.7082 30.8276 14.1144 30.3924 13.5391 29.8806L13.5257 29.8606ZM16.4865 32.5541C16.2123 32.3617 15.3881 31.5476 16.2998 31.9887C16.507 32.081 16.7609 32.1998 17.0777 32.3168C17.5508 32.4849 18.2952 32.7195 19.0355 32.9394C19.9937 33.2327 20.9438 33.4967 21.2819 33.576C21.8725 33.7112 22.3948 33.7705 22.7516 33.8604C23.7604 34.1078 24.8513 34.6253 25.183 34.9124C24.7086 34.7683 24.6097 34.7248 24.1434 34.6102L20.72 33.805L20.4956 33.7651C19.2397 33.5395 17.4708 33.2599 16.5012 32.5499L16.4865 32.5541ZM23.2602 35.8878C21.2417 35.6783 19.2549 35.2381 17.2338 35.0769C18.2646 34.9142 21.6212 35.0728 23.5373 35.4853C24.2428 35.6357 24.748 35.8345 24.8713 36.0533L24.4638 36.0093L23.2602 35.8878ZM30.0031 36.2838C29.2094 36.7918 28.4344 37.3104 27.6366 37.8036C27.5165 37.8849 27.3871 37.9608 27.263 38.0273C26.9495 38.2104 24.2347 39.931 23.0402 40.3614C22.5437 40.5404 22.6314 40.3415 22.9767 40.0148C23.8487 39.2156 25.6634 38.2784 27.1499 37.5284L27.6156 37.2947C28.3388 36.9332 29.0406 36.5224 29.7745 36.1421C30.3149 35.8636 30.8646 35.5905 31.4599 35.3679L31.5827 35.3255L31.488 35.3838C30.9757 35.6781 30.4967 35.9789 30.0178 36.2797L30.0031 36.2838ZM34.8999 35.7724C34.5624 36.0414 34.2197 36.3198 33.861 36.6264L33.785 36.6953L33.689 36.7777C33.269 37.149 32.917 37.5092 32.6143 37.7606C32.3156 38.0266 32.0715 38.1743 31.8858 38.1314C31.8801 37.9667 32.0213 37.7607 32.2212 37.5382C32.5851 37.1351 33.1426 36.7172 33.3187 36.5807L33.42 36.4888L33.5054 36.4253C33.8534 36.1375 34.2202 35.8602 34.6004 35.603C35.0406 35.3052 35.5222 35.0432 36.02 34.8401C35.6307 35.1791 35.2532 35.4752 34.8905 35.7671L34.8999 35.7724ZM40.0396 33.0621C40.0906 33.1904 40.0509 33.3916 39.9227 33.4434C39.8961 33.4905 39.5277 33.6177 39.0725 33.7455C38.3236 33.9557 37.3317 34.2025 37.1834 34.1808C36.2149 34.0804 35.3228 34.8061 34.4951 35.0464C34.3043 35.1 34.0893 35.1524 33.8797 35.1955C33.4552 35.2909 33.0159 35.3904 32.6035 35.53C32.0242 35.7243 32.3075 35.1141 31.792 35.1083C32.2791 34.924 32.7585 34.8845 33.2152 34.8196C33.521 34.7813 33.8134 34.723 34.0709 34.5952C34.3725 34.4551 34.7223 34.4044 34.9879 34.3061C35.2282 34.2307 35.5737 33.9912 35.7957 34.1665C35.8425 34.1929 35.9923 34.2776 35.976 34.1317C36.0812 33.9675 36.4123 33.9062 36.7834 33.8179C37.1893 33.7119 37.6351 33.5788 37.9354 33.4628C38.0729 33.4163 38.201 33.3644 38.3238 33.322C38.8056 33.1472 39.2434 32.9847 39.8056 32.9298L39.8443 32.9268C39.9365 32.9168 39.9913 32.9727 40.0302 33.0568L40.0396 33.0621Z" fill="white"/>
</g>
</g>
<defs>
<clipPath id="clip0_233_1719">
<rect width="54.6" height="50.05" fill="white" transform="translate(0.557129 0.475006)"/>
</clipPath>
<clipPath id="clip1_233_1719">
<rect width="25.7012" height="26.5579" fill="white" transform="translate(7.90723 37.1963) rotate(-60.51)"/>
</clipPath>
</defs>
</svg>
