<svg width="146" height="142" viewBox="0 0 146 142" fill="none" xmlns="http://www.w3.org/2000/svg">
<g clip-path="url(#clip0_21_426)">
<path fill-rule="evenodd" clip-rule="evenodd" d="M4.64675 85.0104C14.7252 102.833 22.6024 108.297 40.4254 118.084C59.4684 128.56 55.1718 141.158 92.3561 140.973C119.674 140.84 144.313 113.761 145.613 93.4711C146.753 75.6481 138.982 63.9252 136.569 50.107C132.325 25.7595 91.1361 -2.53979 63.3142 1.33247C27.8538 6.2391 -13.415 52.998 4.67327 85.0104" fill="#FFD160"/>
<path d="M94.386 123.425C94.3097 123.459 94.2306 123.464 94.1486 123.44C94.0299 123.401 93.9347 123.301 93.9195 123.176L92.7985 117.034C92.7786 116.921 92.8125 116.814 92.8953 116.727L127.764 81.9219C127.842 81.8465 127.956 81.8059 128.067 81.8275C128.178 81.849 128.27 81.9196 128.316 82.0213L130.422 86.7499C130.478 86.877 130.455 87.0296 130.355 87.1248L94.4933 123.347C94.4933 123.347 94.4246 123.398 94.3907 123.413L94.386 123.425ZM93.5022 117.086L94.4728 122.412L129.713 86.8221L127.901 82.7544L93.5106 117.082L93.5022 117.086Z" fill="#451717" stroke="#451717" stroke-width="0.8"/>
<path d="M93.2735 117.279C93.1549 117.332 93.0145 117.313 92.9146 117.226L77.6855 103.759C77.6053 103.693 77.5685 103.588 77.5647 103.488L77.8007 98.2035C77.809 98.017 77.969 97.8747 78.1555 97.883C78.342 97.8913 78.4929 98.0476 78.476 98.2379L78.2512 103.365L92.6377 116.08L91.7008 110.556C91.6677 110.368 91.7957 110.199 91.984 110.166C92.1724 110.133 92.3411 110.261 92.3742 110.449L93.4804 116.923C93.5032 117.065 93.4345 117.207 93.3112 117.272C93.3027 117.276 93.2942 117.28 93.2858 117.284L93.2735 117.279Z" fill="#451717" stroke="#451717" stroke-width="0.8"/>
<path d="M92.9365 110.595C92.7331 110.685 92.5109 110.734 92.2829 110.724C91.3495 110.703 90.5905 109.842 90.5632 109.804C90.1711 109.471 80.099 100.856 78.7754 99.3437C77.2782 97.624 79.474 95.4173 79.6133 95.274C79.8485 95.027 84.2813 90.4326 85.231 89.5323C86.2898 88.5124 89.0455 89.2957 89.3574 89.3802C89.3941 89.3943 89.4346 89.4169 89.4751 89.4395C89.8804 89.7566 99.4515 97.2231 100.527 98.8866C101.51 100.409 101.052 101.364 100.714 102.063C100.65 102.194 100.59 102.311 100.547 102.442C100.331 103.006 97.968 105.612 93.5107 110.197C93.3366 110.376 93.1521 110.509 92.9572 110.596L92.9365 110.595ZM85.9471 89.8633C85.8454 89.9086 85.7597 89.9671 85.6948 90.0265C84.7536 90.923 80.142 95.7087 80.0987 95.7483C80.0987 95.7483 80.0987 95.7483 80.0902 95.7521C80.0686 95.7719 78.1872 97.6355 79.2855 98.8931C80.5733 100.371 90.9291 109.234 91.0375 109.318C91.0771 109.362 91.6663 110.023 92.3012 110.035C92.5583 110.042 92.7872 109.94 93.013 109.718C97.8882 104.703 99.7703 102.545 99.9019 102.202C99.9536 102.067 100.022 101.925 100.087 101.774C100.398 101.127 100.711 100.46 99.9419 99.2591C99.1422 98.0108 92.5276 92.6904 89.0922 90.0162C88.1821 89.7513 86.6843 89.535 85.9471 89.8633Z" fill="#451717" stroke="#451717" stroke-width="0.8"/>
<path d="M105.281 104.975C105.153 105.032 105.001 105.008 104.902 104.9L100.529 100.531C100.398 100.397 100.395 100.185 100.529 100.054C100.664 99.9226 100.876 99.9196 101.007 100.054L104.084 103.132L102.483 99.5388C102.408 99.3693 102.479 99.1649 102.657 99.0856C102.835 99.0063 103.031 99.0815 103.111 99.2595L105.458 104.53C105.526 104.683 105.473 104.859 105.34 104.949C105.323 104.956 105.306 104.964 105.281 104.975Z" fill="#451717" stroke="#451717" stroke-width="0.8"/>
<path d="M116.276 94.3199C116.148 94.3765 115.992 94.3446 115.885 94.2401L111.856 89.9821C111.725 89.8475 111.73 89.6318 111.865 89.5008C111.999 89.3698 112.215 89.3752 112.346 89.5098L115.419 92.7617L114.15 88.2698C114.1 88.089 114.212 87.9071 114.389 87.8486C114.569 87.7985 114.76 87.9067 114.81 88.0875L116.46 93.9128C116.507 94.0644 116.438 94.2274 116.297 94.3001C116.289 94.3039 116.28 94.3076 116.263 94.3152L116.276 94.3199Z" fill="#451717" stroke="#451717" stroke-width="0.8"/>
<path d="M128.142 82.4743C128.015 82.5309 127.85 82.5028 127.751 82.3945L123.324 77.5623C123.201 77.4239 123.207 77.2082 123.345 77.0857C123.483 76.9631 123.699 76.9686 123.822 77.1069L128.249 81.9392C128.371 82.0776 128.366 82.2933 128.227 82.4158C128.197 82.4394 128.167 82.463 128.133 82.4781L128.142 82.4743Z" fill="#451717" stroke="#451717" stroke-width="0.8"/>
<path d="M105.022 98.3067C104.793 98.4086 104.541 98.4804 104.253 98.5173C103.368 98.6066 102.459 98.2296 101.554 97.3835C99.0544 95.0543 91.934 88.507 91.934 88.507L92.3923 88.0084C92.3923 88.0084 99.5211 94.5519 102.012 96.8849C102.766 97.5954 103.495 97.9104 104.175 97.8411C105.059 97.7518 105.581 97.0318 105.586 97.0196C105.647 96.9517 108.706 93.6498 110.838 91.573C111.419 91.0093 111.717 90.3997 111.72 89.7686C111.728 88.7391 110.957 87.9654 110.954 87.957C110.882 87.8873 103.311 80.6472 101.111 78.5805C99.1057 76.7011 97.3462 77.8808 97.3331 77.8968C97.3199 77.9129 91.415 83.7621 90.1813 85.256C89.2591 86.3776 90.3938 89.518 90.9127 90.6375C90.9882 90.807 90.9168 91.0114 90.7473 91.0869C90.5778 91.1624 90.3819 91.0872 90.2979 90.9215C90.0979 90.4724 88.3079 86.4763 89.6648 84.826C90.9248 83.3 96.6688 77.6139 96.9078 77.3754C96.9766 77.3244 99.1898 75.8411 101.59 78.0828C103.79 80.1495 111.361 87.3896 111.436 87.4677C111.476 87.511 112.414 88.4541 112.409 89.7662C112.41 90.5884 112.043 91.3611 111.318 92.0596C109.2 94.1203 106.154 97.4062 106.12 97.4421C106.12 97.4421 105.725 97.9934 105.022 98.3067Z" fill="#451717" stroke="#451717" stroke-width="0.8"/>
<path d="M116.716 86.7814C116.462 86.8946 116.155 86.9806 115.805 86.9941C114.877 87.0315 113.927 86.5613 112.986 85.5891C110.533 83.046 104.331 77.2374 104.267 77.1847C104.127 77.0539 104.116 76.8458 104.246 76.7063C104.377 76.5668 104.585 76.5553 104.725 76.6861C104.793 76.7473 111.007 82.5605 113.468 85.1206C114.265 85.9535 115.041 86.3495 115.769 86.3197C116.597 86.2861 117.084 85.6932 117.093 85.6894C117.193 85.5942 122.417 81.2262 123.459 79.3708C124.38 77.7217 121.821 75.8757 121.796 75.8663C121.693 75.7703 114.86 69.3896 112.697 67.2249C110.737 65.2644 108.915 66.4621 108.893 66.4819C108.88 66.4979 103.801 71.0552 101.85 73.3559C100.01 75.5162 100.796 77.5322 100.807 77.5577C100.883 77.7271 100.807 77.9438 100.617 77.9977C100.448 78.0732 100.244 77.981 100.177 77.8078C100.136 77.7145 99.2391 75.3821 101.339 72.9136C103.324 70.577 108.273 66.1386 108.481 65.9444C108.541 65.8973 110.822 64.3837 113.184 66.7441C115.343 68.9003 122.163 75.2764 122.231 75.3375C122.32 75.3996 125.269 77.5288 124.054 79.7047C122.953 81.6779 117.794 85.9865 117.582 86.1723C117.582 86.1723 117.279 86.5408 116.72 86.7899L116.716 86.7814Z" fill="#451717" stroke="#451717" stroke-width="0.8"/>
<path d="M91.9017 106.059C91.7661 106.12 91.6117 106.138 91.4506 106.118C90.3654 105.962 88.9575 103.918 88.899 103.832C88.8481 103.764 88.865 103.665 88.9422 103.61C89.0109 103.559 89.1136 103.584 89.1645 103.653C89.5464 104.214 90.7099 105.686 91.5021 105.801C91.6547 105.824 91.7809 105.788 91.8845 105.702C93.1044 104.701 95.9946 101.728 95.8688 101.012C95.8518 100.929 95.9054 100.844 96.0015 100.831C96.0853 100.814 96.1739 100.876 96.1824 100.964C96.3641 102.01 92.8223 105.345 92.0853 105.947C92.025 105.994 91.9695 106.029 91.9102 106.056L91.9017 106.059Z" fill="#451717" stroke="#451717" stroke-width="0.8"/>
<path d="M93.1514 96.4849C93.0921 96.5113 93.0139 96.4954 92.9705 96.4436C91.8854 95.2614 88.8463 92.1772 87.7876 92.1714C86.5376 92.1696 85.0796 94.5962 85.0617 94.6245C85.0128 94.697 84.9243 94.7263 84.8433 94.6811C84.7707 94.6322 84.7414 94.5437 84.7866 94.4627C84.8496 94.3534 86.3565 91.8542 87.7892 91.8559C89.1719 91.8595 92.7882 95.7835 93.2002 96.2296C93.2596 96.2946 93.2549 96.3982 93.19 96.4576C93.173 96.4651 93.1561 96.4727 93.1476 96.4764L93.1514 96.4849Z" fill="#451717" stroke="#451717" stroke-width="0.8"/>
<path d="M103.848 93.6196C103.103 93.9517 101.486 92.1228 100.989 91.5317C100.93 91.4668 100.943 91.3594 101.011 91.3085C101.076 91.2491 101.184 91.2622 101.235 91.3309C102.189 92.4699 103.416 93.538 103.733 93.3154C104.36 92.8534 107.539 89.752 107.577 89.7246C107.642 89.6652 107.742 89.6614 107.801 89.7263C107.861 89.7913 107.865 89.8911 107.8 89.9505C107.665 90.0815 104.561 93.0991 103.921 93.5771C103.895 93.5884 103.865 93.612 103.84 93.6233L103.848 93.6196Z" fill="#451717" stroke="#451717" stroke-width="0.8"/>
<path d="M106.488 87.1428C106.437 87.1654 106.363 87.1579 106.315 87.1184C105.316 86.2432 100.309 81.8419 100.12 81.4182C100.063 81.2911 99.9305 81.1979 99.7618 81.1613C99.4821 81.1031 98.8736 81.1507 97.8806 82.0906C96.4717 83.4189 96.1897 84.2451 96.185 84.2574C96.1606 84.3393 96.0712 84.3893 95.9854 84.3564C95.9035 84.332 95.8535 84.2426 95.8864 84.1568C95.9005 84.1201 96.1842 83.2524 97.6667 81.8609C98.7114 80.8777 99.4224 80.7641 99.8379 80.8532C100.105 80.9067 100.331 81.0704 100.425 81.2823C100.598 81.6015 104.272 84.8802 106.538 86.8667C106.606 86.9279 106.609 87.0277 106.557 87.0918C106.544 87.1079 106.522 87.1277 106.505 87.1352L106.488 87.1428Z" fill="#451717" stroke="#451717" stroke-width="0.8"/>
<path d="M115.302 82.3744C115.242 82.4008 115.168 82.3934 115.121 82.3331C115.061 82.2682 115.066 82.1646 115.131 82.1052C115.166 82.0694 118.534 78.8934 119.017 77.856C119.279 77.2821 118.738 76.7513 117.844 75.9307C117.417 75.542 116.939 75.1053 116.545 74.6102C115.449 73.2199 111.03 69.775 110.995 69.7402C110.93 69.6875 110.914 69.583 110.967 69.5189C111.02 69.4548 111.124 69.4387 111.188 69.4914C111.373 69.6325 115.683 72.9936 116.795 74.4179C117.168 74.8913 117.615 75.3017 118.054 75.695C118.928 76.494 119.678 77.1754 119.31 77.9895C118.809 79.0759 115.5 82.2047 115.353 82.3311C115.336 82.3386 115.319 82.3462 115.303 82.3537L115.302 82.3744Z" fill="#451717" stroke="#451717" stroke-width="0.8"/>
<path d="M112.935 80.8692C112.876 80.8956 112.81 80.8844 112.758 80.8364L108.687 76.8713C108.628 76.8064 108.615 76.7103 108.689 76.6472C108.754 76.5878 108.85 76.5754 108.913 76.6489L112.984 80.6139C113.043 80.6789 113.056 80.7749 112.982 80.8381C112.965 80.8456 112.952 80.8617 112.935 80.8692Z" fill="#451717" stroke="#451717" stroke-width="0.8"/>
<path d="M77.0821 103.226C76.9635 103.278 76.8231 103.26 76.7232 103.172L60.4394 88.7739C60.3592 88.708 60.3224 88.6026 60.3186 88.5027L60.5546 83.2184C60.5629 83.0319 60.7229 82.8896 60.9094 82.8979C61.0959 82.9062 61.2468 83.0625 61.23 83.2528L61.0051 88.3798L76.2861 101.894L74.4529 95.6124C74.4028 95.4316 74.5072 95.2327 74.6833 95.1949C74.8641 95.1449 75.0507 95.2446 75.1008 95.4254L77.2655 102.839C77.309 102.982 77.2479 103.142 77.1198 103.219C77.1029 103.227 77.0859 103.234 77.0774 103.238L77.0821 103.226Z" fill="#451717" stroke="#451717" stroke-width="0.8"/>
<path d="M75.6869 95.6012C75.4835 95.6918 75.2613 95.74 75.0333 95.7298C74.0999 95.7089 73.341 94.8486 73.3136 94.81C72.9215 94.4769 62.8494 85.8626 61.5258 84.35C60.0287 82.6303 62.2244 80.4236 62.3637 80.2803C62.599 80.0333 67.0317 75.4389 67.9814 74.5387C69.0525 73.5234 71.7959 74.302 72.1078 74.3866C72.1445 74.4007 72.185 74.4232 72.2256 74.4458C72.6308 74.7629 82.2019 82.2294 83.2779 83.8929C84.2606 85.4152 83.8026 86.3707 83.4641 87.0698C83.4002 87.1999 83.3447 87.3261 83.2977 87.4486C83.0815 88.012 80.7184 90.6183 76.2612 95.2033C76.0871 95.3824 75.9025 95.5153 75.7076 95.6022L75.6869 95.6012ZM68.6975 74.8697C68.5958 74.9149 68.5186 74.9696 68.4452 75.0328C67.504 75.9293 62.8924 80.715 62.8491 80.7546C62.8491 80.7546 62.8491 80.7546 62.8407 80.7584C62.819 80.7782 60.9376 82.6419 62.0359 83.8994C63.3238 85.3772 73.6796 94.2408 73.7879 94.3246C73.8275 94.3679 74.4168 95.0295 75.0516 95.0413C75.3088 95.0486 75.5376 94.9467 75.7635 94.7242C81.9007 88.4161 82.5912 87.3672 82.6523 87.208C82.704 87.0732 82.7726 86.931 82.8375 86.7802C83.1488 86.1338 83.4609 85.4667 82.6923 84.2654C81.8926 83.0171 75.2781 77.6968 71.8427 75.0226C70.9326 74.7577 69.4348 74.5413 68.6975 74.8697Z" fill="#451717" stroke="#451717" stroke-width="0.8"/>
<path d="M87.765 89.7037C87.6379 89.7603 87.4853 89.7369 87.3863 89.6287L83.2876 85.5337C83.1566 85.3991 83.1536 85.1872 83.2882 85.0561C83.4228 84.9251 83.6347 84.9221 83.7658 85.0567L86.6559 87.9432L85.2347 84.5243C85.1592 84.3548 85.2137 84.1579 85.4209 84.0758C85.5903 84.0003 85.7901 84.084 85.8694 84.2619L87.9427 89.259C88.0069 89.4031 87.9533 89.5793 87.8206 89.6688C87.8036 89.6764 87.7867 89.6839 87.7697 89.6915L87.765 89.7037Z" fill="#451717" stroke="#451717" stroke-width="0.8"/>
<path d="M98.0335 77.5542C97.9064 77.6108 97.7623 77.5836 97.6586 77.4876L94.5432 74.5287C94.4037 74.3979 94.4007 74.186 94.5315 74.0465C94.6623 73.907 94.8743 73.904 95.0138 74.0348L97.1611 76.0742L96.1215 72.8509C96.0629 72.6738 96.1673 72.475 96.3359 72.4203C96.5129 72.3617 96.708 72.4576 96.7665 72.6347L98.2187 77.1264C98.2659 77.278 98.2048 77.4373 98.0768 77.5146C98.0599 77.5222 98.0429 77.5297 98.0344 77.5335L98.0335 77.5542Z" fill="#451717" stroke="#451717" stroke-width="0.8"/>
<path d="M109.641 66.1083C109.514 66.1649 109.349 66.1368 109.25 66.0286L106.082 62.5648C105.96 62.4265 105.965 62.2108 106.104 62.0882C106.242 61.9657 106.458 61.9711 106.58 62.1095L109.748 65.5732C109.87 65.7116 109.865 65.9273 109.727 66.0499C109.696 66.0734 109.666 66.097 109.632 66.1121L109.641 66.1083Z" fill="#451717" stroke="#451717" stroke-width="0.8"/>
<path d="M87.7806 83.3091C87.5518 83.411 87.2994 83.4828 87.0112 83.5198C86.1268 83.609 85.2176 83.232 84.3127 82.386C81.8129 80.0567 74.6925 73.5095 74.6925 73.5095L75.1508 73.0109C75.1508 73.0109 82.2797 79.5543 84.771 81.8873C85.5242 82.5979 86.2534 82.9128 86.9335 82.8435C87.8178 82.7543 88.34 82.0343 88.3447 82.022C88.4059 81.9541 91.4645 78.6522 93.5963 76.5755C94.1779 76.0118 94.4751 75.4021 94.4784 74.771C94.487 73.7415 93.7159 72.9679 93.7121 72.9594C93.6404 72.8898 86.0693 65.6496 83.8692 63.5829C81.8841 61.7252 80.1603 62.8484 80.0916 62.8993C80.0784 62.9153 74.182 68.7608 72.9399 70.2585C72.0177 71.3801 73.1523 74.5204 73.6713 75.64C73.7468 75.8094 73.6753 76.0139 73.5059 76.0894C73.3364 76.1649 73.1404 76.0897 73.0564 75.924C72.8564 75.4748 71.0664 71.4788 72.4234 69.8284C73.6834 68.3025 79.4273 62.6163 79.6664 62.3778C79.7351 62.3269 81.9484 60.8435 84.3482 63.0852C86.5483 65.1519 94.1233 72.4005 94.1949 72.4702C94.2345 72.5135 95.1724 73.4565 95.1678 74.7686C95.1685 75.5909 94.8017 76.3635 94.077 77.0621C91.9584 79.1228 88.913 82.4087 88.8782 82.4445C88.8782 82.4445 88.484 82.9958 87.7806 83.3091Z" fill="#451717" stroke="#451717" stroke-width="0.8"/>
<path d="M99.4663 71.7878C99.212 71.901 98.905 71.987 98.5556 72.0004C97.6278 72.0379 96.6771 71.5677 95.7363 70.5955C93.2834 68.0524 87.081 62.2438 87.0169 62.1911C86.8774 62.0603 86.866 61.8521 86.9968 61.7126C87.1276 61.5731 87.3357 61.5617 87.4753 61.6925C87.5431 61.7536 93.7577 67.5669 96.2182 70.1269C97.0119 70.9514 97.7827 71.3596 98.5108 71.3298C99.3302 71.3 99.8346 70.6996 99.8431 70.6958C99.9466 70.6091 105.167 66.2326 106.201 64.3809C107.122 62.7318 104.563 60.8858 104.538 60.8764C104.435 60.7804 97.6016 54.3997 95.4391 52.235C93.4709 50.2783 91.6483 51.476 91.6351 51.492C91.6219 51.5081 86.543 56.0653 84.5922 58.366C82.7648 60.5103 83.5114 62.4831 83.5406 62.5716C83.6161 62.7411 83.5494 62.9333 83.3507 63.0116C83.1812 63.0871 82.9777 62.9949 82.9107 62.8217C82.8692 62.7285 81.9725 60.3961 84.072 57.9275C86.0575 55.591 91.0066 51.1525 91.2146 50.9583C91.2664 50.9149 93.5559 49.3976 95.9173 51.758C98.0759 53.9142 104.897 60.2903 104.965 60.3514C105.053 60.4135 108.011 62.539 106.788 64.7186C105.686 66.6918 100.531 71.0089 100.315 71.1862C100.315 71.1862 100.012 71.5547 99.4531 71.8038L99.4663 71.7878Z" fill="#451717" stroke="#451717" stroke-width="0.8"/>
<path d="M59.6577 87.5888C59.5391 87.6416 59.3987 87.6229 59.2988 87.5354L43.5541 73.6179C43.474 73.552 43.4372 73.4466 43.4333 73.3467L43.6693 68.0624C43.6777 67.8759 43.8377 67.7336 44.0242 67.7419C44.2107 67.7502 44.3615 67.9065 44.3447 68.0967L44.1199 73.2237L58.9456 86.3319L57.5686 80.4357C57.527 80.2511 57.6389 80.0692 57.8235 80.0276C58.0081 79.986 58.19 80.098 58.2315 80.2825L59.8571 87.2156C59.8921 87.3625 59.8272 87.5133 59.6992 87.5906C59.6907 87.5944 59.6738 87.6019 59.6653 87.6057L59.6577 87.5888Z" fill="#451717" stroke="#451717" stroke-width="0.8"/>
<path d="M58.7976 80.4366C58.5942 80.5272 58.3719 80.5754 58.144 80.5652C57.2105 80.5443 56.4516 79.684 56.4243 79.6454C56.0322 79.3122 45.9601 70.698 44.6364 69.1854C43.1393 67.4657 45.335 65.2589 45.4743 65.1157C45.7096 64.8687 50.1424 60.2743 51.0921 59.374C52.1594 58.3503 54.9066 59.1374 55.2184 59.2219C55.2552 59.236 55.2957 59.2586 55.3362 59.2812C55.7415 59.5983 65.3125 67.0647 66.3886 68.7282C67.3713 70.2505 66.9133 71.206 66.5748 71.9052C66.5108 72.0352 66.4553 72.1615 66.4083 72.2839C66.1922 72.8474 63.8291 75.4536 59.3718 80.0386C59.1977 80.2177 59.0132 80.3507 58.8183 80.4375L58.7976 80.4366ZM51.8082 59.705C51.7065 59.7503 51.6293 59.805 51.5559 59.8681C50.6147 60.7647 46.0031 65.5504 45.9598 65.59C45.9598 65.59 45.9598 65.59 45.9513 65.5938C45.9297 65.6136 44.0483 67.4772 45.1466 68.7347C46.4344 70.2125 56.7902 79.0762 56.8986 79.1599C56.9382 79.2032 57.5274 79.8649 58.1623 79.8766C58.4194 79.884 58.6482 79.7821 58.8741 79.5596C65.0113 73.2515 65.7018 72.2026 65.7629 72.0433C65.8146 71.9086 65.8833 71.7663 65.9482 71.6156C66.2594 70.9692 66.5716 70.302 65.803 69.1008C65.0033 67.8524 58.3887 62.5321 54.9533 59.8579C54.0432 59.593 52.5454 59.3766 51.8082 59.705Z" fill="#451717" stroke="#451717" stroke-width="0.8"/>
<path d="M70.8757 74.5391C70.7486 74.5957 70.596 74.5723 70.497 74.464L66.3983 70.369C66.2673 70.2344 66.2643 70.0225 66.3989 69.8915C66.5335 69.7604 66.7454 69.7574 66.8764 69.892L69.7666 72.7786L68.3454 69.3596C68.2699 69.1901 68.3536 68.9904 68.5231 68.9149C68.6925 68.8394 68.8923 68.9231 68.9716 69.101L71.0449 74.0981C71.1091 74.2422 71.0555 74.4184 70.9228 74.508C70.9058 74.5155 70.8889 74.523 70.8719 74.5306L70.8757 74.5391Z" fill="#451717" stroke="#451717" stroke-width="0.8"/>
<path d="M81.148 62.3981C81.0209 62.4547 80.8768 62.4275 80.7731 62.3315L77.6577 59.3726C77.5182 59.2418 77.5152 59.0299 77.646 58.8904C77.7768 58.7509 77.9888 58.7479 78.1283 58.8787L80.2756 60.9181L79.236 57.6948C79.1774 57.5177 79.2856 57.3274 79.4504 57.2641C79.6274 57.2056 79.8225 57.3015 79.881 57.4785L81.3332 61.9703C81.3804 62.1219 81.3194 62.2812 81.1913 62.3585C81.1744 62.366 81.1574 62.3736 81.1489 62.3774L81.148 62.3981Z" fill="#451717" stroke="#451717" stroke-width="0.8"/>
<path d="M92.7556 50.9523C92.6285 51.0089 92.4636 50.9808 92.3647 50.8726L89.1971 47.4088C89.0745 47.2705 89.08 47.0548 89.2184 46.9322C89.3567 46.8097 89.5724 46.8151 89.695 46.9535L92.8626 50.4172C92.9851 50.5556 92.9796 50.7713 92.8413 50.8938C92.8112 50.9174 92.781 50.941 92.7471 50.9561L92.7556 50.9523Z" fill="#451717" stroke="#451717" stroke-width="0.8"/>
<path d="M70.8914 68.1444C70.6626 68.2463 70.4103 68.3181 70.1221 68.355C69.2377 68.4443 68.3284 68.0673 67.4235 67.2212C64.9237 64.892 57.8033 58.3447 57.8033 58.3447L58.2617 57.8461C58.2617 57.8461 65.3905 64.3896 67.8818 66.7226C68.6312 67.4247 69.3643 67.7481 70.0443 67.6788C70.9287 67.5895 71.4593 66.8657 71.4556 66.8573C71.5167 66.7894 74.5753 63.4875 76.7071 61.4107C77.2888 60.847 77.5859 60.2374 77.5892 59.6063C77.5978 58.5768 76.8267 57.8031 76.8229 57.7947C76.7513 57.725 69.1801 50.4849 66.98 48.4182C64.9949 46.5604 63.2712 47.6836 63.2024 47.7345C63.1893 47.7506 57.2928 53.596 56.0507 55.0937C55.1285 56.2153 56.2632 59.3557 56.7783 60.4667C56.8538 60.6362 56.7824 60.8407 56.6129 60.9162C56.4434 60.9916 56.2475 60.9164 56.1635 60.7507C55.9635 60.3016 54.1735 56.3056 55.5304 54.6552C56.7904 53.1292 62.5344 47.4431 62.7734 47.2046C62.8422 47.1537 65.0554 45.6703 67.4553 47.912C69.6554 49.9787 77.2303 57.2273 77.302 57.2969C77.3415 57.3402 78.2795 58.2833 78.2749 59.5954C78.2755 60.4177 77.9088 61.1903 77.1841 61.8889C75.0655 63.9495 72.0201 67.2355 71.9852 67.2713C71.9852 67.2713 71.591 67.8226 70.8877 68.1359L70.8914 68.1444Z" fill="#451717" stroke="#451717" stroke-width="0.8"/>
<path d="M82.5771 56.623C82.3229 56.7362 82.0159 56.8222 81.6664 56.8356C80.7387 56.8731 79.7879 56.4029 78.8471 55.4307C76.3942 52.8876 70.1919 47.079 70.1278 47.0263C69.9883 46.8955 69.9768 46.6873 70.1076 46.5478C70.2384 46.4083 70.4466 46.3969 70.5861 46.5277C70.654 46.5888 76.8686 52.4021 79.329 54.9621C80.1227 55.7866 80.8936 56.1948 81.6216 56.165C82.4411 56.1352 82.9455 55.5348 82.9539 55.531C83.0575 55.4443 88.2778 51.0678 89.3115 49.2161C90.2324 47.567 87.6736 45.721 87.6491 45.7116C87.5454 45.6156 80.7124 39.2349 78.55 37.0702C76.5779 35.1051 74.7591 36.3112 74.746 36.3272C74.7328 36.3433 69.6538 40.9005 67.7031 43.2012C65.8756 45.3455 66.6222 47.3183 66.6515 47.4068C66.727 47.5763 66.6602 47.7685 66.4616 47.8468C66.2921 47.9223 66.0886 47.8301 66.0215 47.6569C65.98 47.5637 65.0834 45.2313 67.1828 42.7627C69.1684 40.4262 74.1174 35.9877 74.3254 35.7935C74.3772 35.7501 76.6667 34.2328 79.0281 36.5932C81.1868 38.7494 88.0075 45.1255 88.0754 45.1867C88.164 45.2487 91.1214 47.3742 89.8986 49.5538C88.7972 51.527 83.6418 55.8441 83.4262 56.0214C83.4262 56.0214 83.1232 56.3899 82.5639 56.639L82.5771 56.623Z" fill="#451717" stroke="#451717" stroke-width="0.8"/>
<path d="M42.499 72.2294C42.3803 72.2823 42.24 72.2636 42.1401 72.176L26.3831 58.2539C26.303 58.188 26.2662 58.0826 26.2623 57.9827L26.4983 52.6984C26.5066 52.5119 26.6666 52.3696 26.8531 52.3779C27.0397 52.3862 27.1905 52.5425 27.1737 52.7327L26.9573 57.856L41.7831 70.9641L40.406 65.0679C40.3644 64.8833 40.4764 64.7014 40.6609 64.6598C40.8455 64.6182 41.0274 64.7302 41.069 64.9147L42.6861 71.8516C42.7211 71.9985 42.6562 72.1493 42.5282 72.2266C42.5197 72.2304 42.5027 72.2379 42.4943 72.2417L42.499 72.2294Z" fill="#451717" stroke="#451717" stroke-width="0.8"/>
<path d="M41.6343 65.0896C41.4309 65.1802 41.2171 65.2247 40.9807 65.2182C40.0473 65.1973 39.2883 64.337 39.261 64.2984C38.8689 63.9653 28.7968 55.351 27.4732 53.8384C25.976 52.1187 28.1718 49.912 28.3111 49.7687C28.5463 49.5217 32.9791 44.9273 33.9288 44.0271C34.9999 43.0118 37.7433 43.7905 38.0552 43.875C38.0919 43.8891 38.1324 43.9116 38.173 43.9342C38.5782 44.2513 48.1493 51.7178 49.2253 53.3813C50.208 54.9036 49.75 55.8591 49.4115 56.5582C49.3475 56.6883 49.2883 56.806 49.2451 56.937C49.1652 57.1452 48.9208 57.7822 42.2302 64.6719C42.0429 64.867 41.8499 65.0037 41.6466 65.0943L41.6343 65.0896ZM34.6534 44.3543C34.5517 44.3996 34.4745 44.4543 34.4011 44.5174C33.4599 45.4139 28.8483 50.1997 28.805 50.2393C28.805 50.2393 28.805 50.2393 28.7965 50.243C28.7749 50.2628 26.8935 52.1265 27.9918 53.384C29.2796 54.8618 39.6354 63.7254 39.7438 63.8092C39.7834 63.8525 40.3726 64.5142 41.0075 64.5259C41.2646 64.5332 41.4934 64.4313 41.7193 64.2089C47.8527 57.8923 48.547 56.8518 48.6081 56.6926C48.6598 56.5579 48.7285 56.4156 48.7934 56.2648C49.1046 55.6184 49.4168 54.9513 48.6482 53.75C47.8485 52.5017 41.2339 47.1814 37.7985 44.5072C36.8884 44.2423 35.3906 44.0259 34.6534 44.3543Z" fill="#451717" stroke="#451717" stroke-width="0.8"/>
<path d="M53.7124 59.1919C53.5853 59.2485 53.4327 59.2251 53.3337 59.1168L49.235 55.0218C49.104 54.8873 49.101 54.6753 49.2356 54.5443C49.3701 54.4133 49.5821 54.4103 49.7131 54.5449L52.6033 57.4314L51.1821 54.0125C51.1066 53.843 51.1903 53.6432 51.3597 53.5677C51.5292 53.4922 51.729 53.5759 51.8082 53.7539L53.8816 58.751C53.9457 58.895 53.8922 59.0712 53.7595 59.1608C53.7425 59.1683 53.7256 59.1759 53.7086 59.1834L53.7124 59.1919Z" fill="#451717" stroke="#451717" stroke-width="0.8"/>
<path d="M63.981 47.0425C63.8539 47.0991 63.7098 47.0719 63.6061 46.9759L60.4907 44.017C60.3512 43.8862 60.3482 43.6743 60.479 43.5348C60.6099 43.3953 60.8218 43.3923 60.9613 43.5231L63.1086 45.5625L62.069 42.3392C62.0104 42.1621 62.1186 41.9718 62.2834 41.9085C62.4604 41.85 62.6555 41.9459 62.714 42.123L64.1662 46.6147C64.2135 46.7663 64.1524 46.9256 64.0243 47.0029C64.0074 47.0104 63.9904 47.018 63.9819 47.0218L63.981 47.0425Z" fill="#451717" stroke="#451717" stroke-width="0.8"/>
<path d="M53.7242 52.7888C53.4954 52.8908 53.243 52.9625 52.9548 52.9995C52.0704 53.0887 51.1612 52.7118 50.2563 51.8657C47.7565 49.5364 40.6361 42.9892 40.6361 42.9892L41.0944 42.4906C41.0944 42.4906 48.2233 49.034 50.7146 51.3671C51.464 52.0691 52.1971 52.3926 52.8771 52.3233C53.7614 52.234 54.2836 51.514 54.2883 51.5017C54.3495 51.4339 57.4081 48.1319 59.5399 46.0552C60.1215 45.4915 60.4187 44.8818 60.422 44.2508C60.4306 43.2212 59.6595 42.4476 59.6557 42.4391C59.584 42.3695 52.0129 35.1294 49.8128 33.0627C47.8079 31.1833 46.0484 32.363 46.0352 32.379C46.022 32.395 40.1171 38.2443 38.8835 39.7382C37.9613 40.8598 39.0959 44.0002 39.6149 45.1197C39.6904 45.2892 39.619 45.4936 39.4495 45.5691C39.28 45.6446 39.084 45.5694 39 45.4037C38.8 44.9546 37.01 40.9585 38.367 39.3081C39.627 37.7822 45.3709 32.096 45.61 31.8575C45.6787 31.8066 47.892 30.3232 50.2919 32.565C52.4919 34.6317 60.0669 41.8803 60.1385 41.9499C60.1781 41.9932 61.116 42.9362 61.1114 44.2483C61.1121 45.0706 60.7454 45.8433 60.0206 46.5418C57.902 48.6025 54.8566 51.8884 54.8218 51.9242C54.8218 51.9242 54.4276 52.4756 53.7242 52.7888Z" fill="#451717" stroke="#451717" stroke-width="0.8"/>
<path d="M65.4182 41.2638C65.1639 41.377 64.8569 41.463 64.5075 41.4764C63.5798 41.5139 62.629 41.0437 61.6882 40.0714C59.2353 37.5283 53.0329 31.7198 52.9688 31.6671C52.8293 31.5363 52.8179 31.3281 52.9572 31.1848C53.088 31.0453 53.2961 31.0339 53.4356 31.1647C53.5035 31.2259 59.7181 37.0391 62.1786 39.5992C62.9723 40.4236 63.7431 40.8318 64.4712 40.802C65.2906 40.7722 65.7988 40.1803 65.8035 40.168C65.907 40.0813 71.1274 35.7048 72.1696 33.8493C73.0904 32.2003 70.5316 30.3543 70.5071 30.3449C70.4034 30.2489 63.5705 23.8681 61.408 21.7035C59.4558 19.76 57.6812 20.9058 57.604 20.9605C57.5908 20.9765 52.5119 25.5337 50.5611 27.8345C48.7336 29.9788 49.4802 31.9515 49.5095 32.04C49.585 32.2095 49.5183 32.4017 49.3196 32.48C49.1501 32.5555 48.9466 32.4634 48.8796 32.2901C48.838 32.1969 47.9414 29.8645 50.0408 27.396C52.0142 25.0547 56.9717 20.6125 57.1797 20.4183C57.2315 20.3749 59.521 18.8576 61.8823 21.218C64.041 23.3742 70.8618 29.7502 70.9296 29.8114C71.0182 29.8735 73.9671 32.0027 72.7529 34.1785C71.6514 36.1518 66.496 40.4689 66.2805 40.6461C66.2805 40.6461 65.9775 41.0147 65.4182 41.2638Z" fill="#451717" stroke="#451717" stroke-width="0.8"/>
<path d="M43.9092 73.6629C43.782 73.7195 43.6294 73.6961 43.5305 73.5878L42.1117 72.1582C41.9807 72.0236 41.9777 71.8117 42.1123 71.6806C42.2469 71.5496 42.4588 71.5466 42.5899 71.6812L44.0086 73.1108C44.1396 73.2454 44.1426 73.4573 44.008 73.5884C43.9817 73.6204 43.9393 73.6393 43.9054 73.6544L43.9092 73.6629Z" fill="#451717" stroke="#451717" stroke-width="0.8"/>
<path d="M60.7982 88.8275C60.6711 88.8841 60.5062 88.856 60.4072 88.7477L59.2665 87.5091C59.144 87.3707 59.1495 87.155 59.2878 87.0324C59.4262 86.9099 59.6419 86.9154 59.7645 87.0537L60.9052 88.2924C61.0277 88.4307 61.0222 88.6464 60.8839 88.769C60.8537 88.7926 60.8236 88.8161 60.7897 88.8312L60.7982 88.8275Z" fill="#451717" stroke="#451717" stroke-width="0.8"/>
<path d="M78.0482 103.821C77.9465 103.867 77.8306 103.857 77.7336 103.799L76.7799 103.208C76.6225 103.106 76.5696 102.896 76.6721 102.738C76.7709 102.572 76.9847 102.528 77.1421 102.63L78.0957 103.221C78.2531 103.324 78.306 103.534 78.2035 103.691C78.1677 103.748 78.1075 103.795 78.0482 103.821Z" fill="#451717" stroke="#451717" stroke-width="0.8"/>
<path d="M94.3859 123.425C94.2672 123.478 94.1269 123.459 94.0232 123.363L30.0704 66.5331C30.0704 66.5331 30.011 66.4682 29.9883 66.4173L26.3008 58.138C26.2253 57.9685 26.2967 57.7641 26.4747 57.6848C26.6526 57.6055 26.8486 57.6807 26.9279 57.8587L30.589 66.0787L94.4777 122.856C94.6134 122.979 94.6287 123.195 94.5101 123.34C94.4753 123.375 94.4367 123.403 94.3943 123.422L94.3859 123.425Z" fill="#451717" stroke="#451717" stroke-width="0.8"/>
<path d="M75.6498 35.8943C75.5227 35.9509 75.3578 35.9228 75.2588 35.8145L72.3222 32.5729C72.1997 32.4345 72.2051 32.2188 72.3435 32.0963C72.4819 31.9737 72.6976 31.9792 72.8201 32.1176L75.7567 35.3592C75.8793 35.4975 75.8738 35.7132 75.7355 35.8358C75.7053 35.8594 75.6752 35.8829 75.6498 35.8943Z" fill="#451717" stroke="#451717" stroke-width="0.8"/>
<path d="M76.074 90.8385C75.9384 90.8989 75.7831 90.9376 75.6211 90.9387C74.4475 90.9943 72.9996 89.6588 72.9356 89.6061L66.4946 83.4672C66.4267 83.406 66.4229 83.3061 66.4878 83.2468C66.549 83.1789 66.6488 83.175 66.7082 83.24L73.1492 89.379C73.1492 89.379 74.5612 90.6796 75.602 90.6222C75.8685 90.6051 76.0804 90.5107 76.2554 90.3109C77.2925 89.128 79.2415 87.0514 79.2594 87.0231C79.3243 86.9637 79.4204 86.9514 79.4798 87.0163C79.5476 87.0775 79.5515 87.1774 79.4866 87.2367C79.4649 87.2565 77.5243 89.3293 76.4873 90.5123C76.3649 90.648 76.2275 90.7498 76.0665 90.8215L76.074 90.8385Z" fill="#451717" stroke="#451717" stroke-width="0.8"/>
<path d="M79.3096 83.9441C79.2587 83.9667 79.1966 83.9639 79.1447 83.916L71.8259 77.8125C71.6422 77.742 70.3524 77.3314 69.673 78.1316C68.8703 79.0883 68.062 80.1693 68.0573 80.1816C68.0084 80.2542 67.9039 80.2702 67.8398 80.2176C67.7672 80.1686 67.7511 80.0641 67.8038 80C67.8123 79.9962 68.6215 78.8945 69.4326 77.934C70.3059 76.885 71.902 77.5045 71.9717 77.5242C71.984 77.5289 72 77.5421 72.0122 77.5468L79.3593 83.6681C79.4271 83.7292 79.431 83.8291 79.3783 83.8932C79.3651 83.9092 79.3435 83.929 79.318 83.9403L79.3096 83.9441Z" fill="#451717" stroke="#451717" stroke-width="0.8"/>
<path d="M86.912 79.786C86.8357 79.8199 86.7434 79.8407 86.6521 79.8408C85.8006 79.8443 84.4195 78.408 84.2649 78.2433L78.8929 73.0906C78.825 73.0295 78.8212 72.9296 78.8861 72.8702C78.9511 72.8108 79.0471 72.7985 79.1065 72.8635L84.4871 78.0124C84.8877 78.4331 86.0396 79.5144 86.6499 79.5168C86.7413 79.5167 86.8129 79.495 86.8656 79.4309C87.4895 78.7569 90.6807 75.1827 90.7155 75.1469C90.7767 75.079 90.8765 75.0751 90.9444 75.1363C91.0123 75.1975 91.0161 75.2973 90.9549 75.3652C90.9201 75.401 87.7289 78.9753 87.105 79.6492C87.0485 79.7049 86.9883 79.752 86.9205 79.7822L86.912 79.786Z" fill="#451717" stroke="#451717" stroke-width="0.8"/>
<path d="M89.356 71.9341C89.2967 71.9605 89.2307 71.9492 89.1789 71.9012C89.127 71.8532 84.1346 66.7549 82.6449 66.0779C81.2655 65.4432 79.5046 68.5124 79.4783 68.5444C79.4331 68.6255 79.3408 68.6463 79.2598 68.6011C79.1788 68.556 79.158 68.4637 79.2031 68.3826C79.284 68.2451 81.1342 65.0345 82.7784 65.7848C84.3124 66.4929 89.1983 71.4661 89.4047 71.6788C89.4641 71.7437 89.468 71.8436 89.403 71.903C89.3861 71.9105 89.3729 71.9265 89.356 71.9341Z" fill="#451717" stroke="#451717" stroke-width="0.8"/>
<path d="M98.1612 68.6522C98.1612 68.6522 98.1357 68.6636 98.1273 68.6673C97.5556 68.8204 95.2063 66.1905 94.2192 65.046C94.1598 64.981 94.1645 64.8774 94.2332 64.8265C94.2981 64.7671 94.4017 64.7717 94.4526 64.8404C95.8706 66.4735 97.59 68.2364 98.0083 68.3547C98.2874 67.4992 102.141 64.3408 102.921 63.6987C102.986 63.6393 103.094 63.6524 103.145 63.7211C103.196 63.7899 103.191 63.8935 103.122 63.9444C101.312 65.4209 98.4045 67.9447 98.307 68.4553C98.2863 68.5457 98.2374 68.6183 98.1612 68.6522Z" fill="#451717" stroke="#451717" stroke-width="0.8"/>
<path d="M98.1451 57.9454C98.0857 57.9718 98.0113 57.9643 97.9642 57.9041C96.1108 55.8861 93.8967 53.9475 93.3967 54.1702C92.5512 54.5976 89.8211 57.611 89.791 57.6346C89.7298 57.7025 89.63 57.7063 89.5621 57.6451C89.4942 57.584 89.4904 57.4841 89.5516 57.4163C89.6692 57.2928 92.3513 54.3312 93.2561 53.8774C93.2561 53.8774 93.2646 53.8736 93.2731 53.8698C94.2391 53.4396 97.5537 56.9597 98.207 57.6741C98.2664 57.739 98.2618 57.8426 98.1968 57.902C98.1799 57.9096 98.1629 57.9171 98.1544 57.9209L98.1451 57.9454Z" fill="#451717" stroke="#451717" stroke-width="0.8"/>
<path d="M58.8964 75.6195C57.7355 76.1366 56.7394 75.5647 56.7319 75.5478L51.241 70.2652C51.1732 70.204 51.1693 70.1042 51.2343 70.0448C51.2992 69.9854 51.3953 69.9731 51.4547 70.038L56.9172 75.3027C56.9172 75.3027 58.2252 76.0505 59.5438 74.793C60.9453 73.4477 62.1912 71.9585 62.2043 71.9425C62.2655 71.8746 62.3653 71.8708 62.4294 71.9235C62.4973 71.9847 62.5012 72.0845 62.4485 72.1486C62.4315 72.1561 61.1847 73.6661 59.7663 75.0188C59.4755 75.3007 59.1846 75.4912 58.8964 75.6195Z" fill="#451717" stroke="#451717" stroke-width="0.8"/>
<path d="M61.5505 68.3543C61.4911 68.3808 61.4252 68.3695 61.3771 68.33C59.2553 66.3706 54.9563 62.5781 53.9181 62.2992C52.909 62.0174 51.0497 64.4095 50.426 65.3575C50.3771 65.4301 50.2763 65.4547 50.2037 65.4057C50.1312 65.3568 50.1066 65.256 50.1555 65.1835C50.4001 64.8206 52.5743 61.608 53.9979 61.9996C55.364 62.3762 61.3353 67.8713 61.5823 68.1066C61.6501 68.1678 61.654 68.2676 61.5928 68.3355C61.5759 68.343 61.5542 68.3628 61.5373 68.3704L61.5505 68.3543Z" fill="#451717" stroke="#451717" stroke-width="0.8"/>
<path d="M69.3629 64.8951C69.312 64.9177 69.2489 64.9356 69.166 64.9319C68.0922 64.8923 65.0384 61.1139 64.6877 60.6912C64.6367 60.6225 64.6414 60.5189 64.7101 60.468C64.7788 60.4171 64.8739 60.4255 64.9333 60.4904C66.1958 62.0709 68.4753 64.5896 69.1677 64.6164C69.2214 64.623 69.2392 64.5947 69.2477 64.5909C69.9244 63.8529 73.5382 59.9279 73.5382 59.9279L73.7738 60.1377C73.7738 60.1377 70.16 64.0627 69.4834 64.8008C69.457 64.8328 69.4099 64.8639 69.3591 64.8866L69.3629 64.8951Z" fill="#451717" stroke="#451717" stroke-width="0.8"/>
<path d="M70.0492 54.9215C69.9899 54.948 69.9155 54.9405 69.8683 54.8802C67.734 52.5507 65.1776 50.0943 64.7613 50.2086C64.2784 50.5151 61.9689 52.9452 60.817 54.1895C60.7558 54.2573 60.6559 54.2612 60.5881 54.2C60.5202 54.1388 60.5164 54.039 60.5775 53.9711C60.7131 53.8194 63.9411 50.3506 64.5906 49.9394C65.2572 49.5206 68.6688 53.0991 70.098 54.6662C70.1574 54.7312 70.1527 54.8348 70.0878 54.8942C70.0709 54.9017 70.0539 54.9093 70.0454 54.9131L70.0492 54.9215Z" fill="#451717" stroke="#451717" stroke-width="0.8"/>
<path d="M79.267 51.8821C79.2077 51.9085 79.1418 51.8973 79.0899 51.8493L75.0158 47.7637C74.9564 47.6987 74.9525 47.5989 75.0175 47.5395C75.0824 47.4801 75.1822 47.4763 75.2416 47.5412L79.3158 51.6268C79.3752 51.6918 79.3791 51.7916 79.3141 51.851C79.2972 51.8586 79.284 51.8746 79.267 51.8821Z" fill="#451717" stroke="#451717" stroke-width="0.8"/>
<path d="M83.7629 50.5299C83.7036 50.5564 83.6377 50.5451 83.5858 50.4971C83.5264 50.4322 83.5226 50.3323 83.5875 50.2729C84.6774 49.2087 85.2117 48.2192 85.13 47.4432C85.0674 46.8008 84.6197 46.5026 84.5952 46.4932C84.5038 46.4019 78.561 40.0817 77.0533 39.3416C75.6597 38.6523 74.0628 41.7703 74.0449 41.7986C74.0082 41.8759 73.9112 41.9089 73.834 41.8722C73.7567 41.8356 73.7237 41.7386 73.7603 41.6613C73.829 41.519 75.5162 38.2389 77.1944 39.0655C78.7388 39.8197 84.4044 45.8368 84.7891 46.2444C84.8937 46.3196 85.3715 46.6857 85.4512 47.4118C85.548 48.3132 84.995 49.3516 83.8176 50.5158C83.8006 50.5233 83.7874 50.5393 83.7705 50.5469L83.7629 50.5299Z" fill="#451717" stroke="#451717" stroke-width="0.8"/>
<path d="M52.7338 48.6501C51.7593 49.0841 49.4853 46.3497 49.0327 45.7896C48.9818 45.7209 48.9864 45.6173 49.0551 45.5664C49.1201 45.507 49.219 45.5238 49.2784 45.5888C50.3372 46.8944 52.0509 48.5988 52.6017 48.3535C52.6017 48.3535 52.6187 48.3459 52.6272 48.3422C53.2966 47.9526 55.6086 45.1863 56.7388 43.7791C56.7915 43.715 56.896 43.6989 56.9601 43.7516C57.0242 43.8043 57.0318 43.9126 56.9876 43.9729C56.8511 44.1454 53.681 48.0861 52.7941 48.6029C52.7771 48.6105 52.7602 48.618 52.7432 48.6256L52.7338 48.6501Z" fill="#451717" stroke="#451717" stroke-width="0.8"/>
<path d="M52.8309 39.1318C52.7716 39.1583 52.7056 39.147 52.6576 39.1075C51.6876 38.2295 48.9439 35.9682 47.9098 36.0632C47.793 36.0746 47.7205 36.1171 47.6594 36.1849C46.8379 37.282 44.2374 39.8112 44.133 39.9186C44.068 39.978 43.9682 39.9819 43.9088 39.9169C43.8494 39.852 43.8456 39.7522 43.9105 39.6928C43.9406 39.6692 46.6023 37.0721 47.4021 35.9949C47.5084 35.846 47.6741 35.762 47.8785 35.7421C49.263 35.6129 52.7241 38.7326 52.8637 38.8634C52.9315 38.9245 52.9354 39.0244 52.8742 39.0923C52.861 39.1083 52.8356 39.1196 52.8187 39.1271L52.8309 39.1318Z" fill="#451717" stroke="#451717" stroke-width="0.8"/>
<path d="M65.269 35.7753C65.1928 35.8093 65.107 35.7764 65.0684 35.7124C65.0344 35.6361 65.0513 35.5372 65.1238 35.4947C66.2187 34.875 68.9752 33.038 68.5034 31.9787C67.8919 30.6059 62.51 26.0466 62.4581 25.9986C61.7993 25.4086 59.9227 23.9086 59.0874 24.0167C58.9621 24.0319 58.8727 24.0818 58.8106 24.1704C58.0993 25.2184 55.8072 27.072 55.7084 27.1465C55.6397 27.1974 55.536 27.1928 55.4851 27.1241C55.4342 27.0554 55.4388 26.9517 55.5076 26.9008C55.533 26.8895 57.8514 25.0038 58.5448 23.9841C58.6643 23.8192 58.8224 23.7183 59.0438 23.6908C60.1919 23.5552 62.5605 25.6585 62.6642 25.7545C62.8886 25.9389 68.1498 30.4098 68.7877 31.8419C69.4596 33.3503 65.704 35.5206 65.2737 35.7631C65.2737 35.7631 65.2653 35.7668 65.2568 35.7706L65.269 35.7753Z" fill="#451717" stroke="#451717" stroke-width="0.8"/>
<path d="M40.8093 60.5924C40.7246 60.6301 40.6323 60.6509 40.524 60.6585C39.2638 60.7019 36.8107 57.9761 36.708 57.8594C36.6486 57.7944 36.6532 57.6908 36.7182 57.6314C36.7831 57.572 36.8867 57.5766 36.9461 57.6416C37.6305 58.403 39.5941 60.372 40.5134 60.3383C40.6462 60.34 40.7441 60.2863 40.8232 60.1901C41.6785 59.078 44.9155 56.245 45.0538 56.1224C45.1188 56.0631 45.2224 56.0677 45.2733 56.1364C45.3327 56.2013 45.3281 56.305 45.2593 56.3559C45.2207 56.3832 41.9179 59.2963 41.0804 60.3802C41.0099 60.4726 40.9195 60.5433 40.8178 60.5886L40.8093 60.5924Z" fill="#451717" stroke="#451717" stroke-width="0.8"/>
<path d="M42.0765 51.4672C42.0171 51.4936 41.9389 51.4777 41.8956 51.4259C40.2504 49.4878 37.3772 46.5937 36.6118 47.0869C35.4953 47.8178 33.1769 51.0033 33.1506 51.0354C33.1016 51.1079 32.9971 51.124 32.933 51.0713C32.8604 51.0224 32.8443 50.9179 32.897 50.8538C32.9902 50.7209 35.2728 47.5919 36.4364 46.8299C37.6517 46.0246 41.3993 50.3572 42.1413 51.2251C42.2006 51.29 42.1875 51.3974 42.1188 51.4483C42.1019 51.4559 42.0934 51.4597 42.0765 51.4672Z" fill="#451717" stroke="#451717" stroke-width="0.8"/>
</g>
<defs>
<clipPath id="clip0_21_426">
<rect width="146" height="141" fill="white" transform="translate(0 0.737305)"/>
</clipPath>
</defs>
</svg>
