<svg width="150" height="142" viewBox="0 0 150 142" fill="none" xmlns="http://www.w3.org/2000/svg">
<g clip-path="url(#clip0_21_421)">
<path fill-rule="evenodd" clip-rule="evenodd" d="M1.65491 68.5993C11.6049 97.7711 48.1206 133.731 80.9024 140.064C109.616 145.593 141.634 124.923 147.645 105.882C152.914 89.1653 147.445 76.402 148.072 62.7344C149.183 38.6804 112.436 3.20659 82.3267 1.11382C43.9848 -1.54736 -9.99578 34.4174 1.65491 68.5993Z" fill="#D55258"/>
<mask id="path-2-inside-1_21_421" fill="white">
<path d="M83.6592 98.2749C81.2784 101.813 77.4279 104.548 73.6218 104.79C69.8157 105.031 66.7088 103.521 64.4661 101.029C62.0935 103.785 58.8586 105.727 55.658 105.931C49.3433 106.332 43.8848 101.525 43.4836 95.2106C43.2803 92.01 44.8267 88.5534 47.2318 85.853C44.476 83.9436 42.5715 80.8511 42.3425 77.2468C42.1136 73.6425 44.0184 69.9027 46.8523 67.1171C46.3753 65.9894 46.0389 64.7947 45.9565 63.4972C45.5554 57.1825 52.063 49.792 58.3777 49.3909C59.1274 49.3433 59.9115 49.3803 60.6722 49.5057C62.9605 45.4231 67.2356 42.0827 71.4455 41.8153C72.4258 41.753 73.3883 41.8655 74.3275 42.0664L73.808 39.8124C73.5384 38.7584 74.1068 37.68 75.0922 37.241C76.0776 36.8021 77.2547 37.1037 77.8342 38.0223L83.1587 45.7323L87.4649 37.4105C87.8535 36.691 88.5756 36.2108 89.3867 36.2172C90.2229 36.1641 91.0037 36.6067 91.3973 37.3344L96.7251 46.4628C99.6249 41.0675 104.651 36.782 108.828 35.098C109.985 34.6193 111.294 35.173 111.744 36.3314C112.223 37.488 111.669 38.797 110.511 39.2469C107.378 40.5171 102.256 44.6639 99.9872 49.9613L111.382 52.9721C112.295 53.2037 112.953 54.0014 113.071 54.9493C113.13 55.872 112.637 56.7718 111.794 57.1727L104.459 60.6496L110.529 64.6066C111.406 65.1878 111.764 66.2652 111.42 67.2424C111.048 68.2214 110.103 68.8315 109.054 68.7244L106.752 68.4942C107.041 69.4023 107.275 70.3428 107.339 71.352C107.604 75.533 104.803 80.1983 101.072 82.983C101.263 83.7236 101.426 84.466 101.476 85.2445C101.877 91.5592 95.3692 98.9497 89.0544 99.3508C87.1225 99.4736 85.3019 99.0681 83.6322 98.3056L83.6592 98.2749ZM55.3741 101.461C57.8827 101.302 60.7189 99.0084 62.3166 96.3593C57.3672 95.921 53.2579 92.3026 52.1969 87.4483C49.7712 89.3684 47.8549 92.4721 48.0143 94.9807C48.2579 98.8156 51.541 101.734 55.4048 101.488L55.3741 101.461ZM67.0212 97.0448C68.3427 99.1611 70.6851 100.489 73.3379 100.32C75.7023 100.17 78.3514 98.12 79.9908 95.6708C78.717 94.3042 77.7457 92.6868 77.2788 90.8057C76.1414 90.6753 75.1047 90.3068 74.1202 89.8483C72.479 92.2686 70.1778 94.3255 67.645 95.4707C67.4762 96.0026 67.2766 96.5074 67.0483 97.0141L67.0212 97.0448ZM81.8868 90.4261C82.9583 93.1662 85.7104 95.018 88.7669 94.8238C92.6018 94.5802 97.2482 89.3345 97.0046 85.4995C96.9954 85.3554 96.9286 85.2148 96.9176 85.0418C96.2635 85.2281 95.577 85.3586 94.9427 85.3989C93.0108 85.5217 91.1901 85.1162 89.5204 84.3537C87.6128 87.1383 84.8361 89.4571 81.8849 90.3973L81.8868 90.4261ZM56.4084 85.3859C56.6521 89.2208 59.964 92.1372 63.799 91.8935C66.1634 91.7434 68.8124 89.6933 70.4518 87.2442C68.7432 85.413 67.5801 83.055 67.381 80.3753C64.6957 80.4879 62.2095 79.6326 60.1787 78.1982C57.9567 80.1343 56.2583 83.0215 56.4084 85.3859ZM71.8375 79.8895C72.0811 83.7245 75.393 86.6408 79.2279 86.3972C81.5923 86.247 84.2414 84.1969 85.8808 81.7478C84.1722 79.9166 83.0091 77.5586 82.8099 74.8789C80.1247 74.9915 77.6385 74.1362 75.6077 72.7019C73.3857 74.6379 71.6873 77.5251 71.8375 79.8895ZM50.8891 82.8124C51.3628 82.5218 51.8672 82.2582 52.3446 82.0252C53.1601 79.3678 54.9093 76.8249 57.1025 74.8906C56.9418 74.6403 56.7542 74.4206 56.6223 74.1684C53.8304 73.9694 51.3241 72.7969 49.4406 70.9479C47.8186 72.759 46.7198 75.058 46.8425 76.9899C47.011 79.6427 48.6263 81.8271 50.891 82.8413L50.8891 82.8124ZM87.2664 74.3931C87.5101 78.2281 90.7932 81.1462 94.657 80.9008C98.5208 80.6553 103.138 75.4114 102.895 71.5765C102.651 67.7415 99.3391 64.8252 95.5041 65.0688C95.2158 65.0871 94.9618 65.1902 94.6482 65.268C93.3595 68.6792 90.5512 71.8684 87.3305 73.5784C87.2911 73.8704 87.25 74.1336 87.2683 74.422L87.2664 74.3931ZM67.2682 75.8661C67.5277 75.8496 67.8124 75.7736 68.0971 75.6976C68.9904 73.3538 70.585 71.1102 72.5315 69.3943C72.0133 68.5297 71.5492 67.6038 71.2526 66.5804L71.1949 66.5841C67.8213 66.7984 64.7291 65.5183 62.4758 63.3164C60.8538 65.1275 59.755 67.4265 59.8777 69.3584C60.1213 73.1934 63.4044 76.1116 67.2682 75.8661ZM75.3356 63.8602C75.5792 67.6952 78.8911 70.6115 82.7261 70.3679C86.561 70.1243 91.2073 64.8786 90.9637 61.0436C90.7201 57.2086 87.4082 54.2923 83.5732 54.5359C79.7383 54.7795 75.092 60.0252 75.3374 63.889L75.3356 63.8602ZM55.3919 69.3829C55.2893 65.9442 57.1653 62.2062 59.9164 59.4838C59.4394 58.3561 59.1029 57.1615 59.0205 55.864C58.9784 55.2008 59.0228 54.5321 59.1248 53.8598C58.9807 53.8689 58.8328 53.8204 58.6887 53.8295C54.8249 54.075 50.2074 59.3189 50.4528 63.1827C50.6433 66.1815 52.6769 68.571 55.3631 69.3847L55.3919 69.3829ZM97.7146 60.6726C97.646 60.5033 97.6331 60.3015 97.678 60.096C97.715 59.312 98.2189 58.5851 98.9485 58.2203L104.344 55.6484L96.5107 53.5694C96.2457 53.4994 96.0059 53.3698 95.7949 53.2385C95.7335 53.1845 95.6722 53.1305 95.6397 53.0747C95.4864 52.9396 95.3618 52.8028 95.2643 52.6353C95.2607 52.5776 95.203 52.5812 95.1705 52.5254L89.6459 43.0331L85.9315 50.1882C90.995 51.0536 94.9967 55.2578 95.4202 60.5578C96.1987 60.5084 96.9846 60.5743 97.7146 60.6726ZM70.9092 62.0858L70.9669 62.0822C71.6221 57.8138 74.9375 53.4922 78.9129 51.3578C78.0501 48.257 75.13 46.0397 71.7852 46.2521C67.9214 46.4976 63.3039 51.7414 63.5494 55.6052C63.7948 59.469 67.0761 62.3583 70.9399 62.1129L70.9092 62.0858Z"/>
</mask>
<path d="M83.6592 98.2749C81.2784 101.813 77.4279 104.548 73.6218 104.79C69.8157 105.031 66.7088 103.521 64.4661 101.029C62.0935 103.785 58.8586 105.727 55.658 105.931C49.3433 106.332 43.8848 101.525 43.4836 95.2106C43.2803 92.01 44.8267 88.5534 47.2318 85.853C44.476 83.9436 42.5715 80.8511 42.3425 77.2468C42.1136 73.6425 44.0184 69.9027 46.8523 67.1171C46.3753 65.9894 46.0389 64.7947 45.9565 63.4972C45.5554 57.1825 52.063 49.792 58.3777 49.3909C59.1274 49.3433 59.9115 49.3803 60.6722 49.5057C62.9605 45.4231 67.2356 42.0827 71.4455 41.8153C72.4258 41.753 73.3883 41.8655 74.3275 42.0664L73.808 39.8124C73.5384 38.7584 74.1068 37.68 75.0922 37.241C76.0776 36.8021 77.2547 37.1037 77.8342 38.0223L83.1587 45.7323L87.4649 37.4105C87.8535 36.691 88.5756 36.2108 89.3867 36.2172C90.2229 36.1641 91.0037 36.6067 91.3973 37.3344L96.7251 46.4628C99.6249 41.0675 104.651 36.782 108.828 35.098C109.985 34.6193 111.294 35.173 111.744 36.3314C112.223 37.488 111.669 38.797 110.511 39.2469C107.378 40.5171 102.256 44.6639 99.9872 49.9613L111.382 52.9721C112.295 53.2037 112.953 54.0014 113.071 54.9493C113.13 55.872 112.637 56.7718 111.794 57.1727L104.459 60.6496L110.529 64.6066C111.406 65.1878 111.764 66.2652 111.42 67.2424C111.048 68.2214 110.103 68.8315 109.054 68.7244L106.752 68.4942C107.041 69.4023 107.275 70.3428 107.339 71.352C107.604 75.533 104.803 80.1983 101.072 82.983C101.263 83.7236 101.426 84.466 101.476 85.2445C101.877 91.5592 95.3692 98.9497 89.0544 99.3508C87.1225 99.4736 85.3019 99.0681 83.6322 98.3056L83.6592 98.2749ZM55.3741 101.461C57.8827 101.302 60.7189 99.0084 62.3166 96.3593C57.3672 95.921 53.2579 92.3026 52.1969 87.4483C49.7712 89.3684 47.8549 92.4721 48.0143 94.9807C48.2579 98.8156 51.541 101.734 55.4048 101.488L55.3741 101.461ZM67.0212 97.0448C68.3427 99.1611 70.6851 100.489 73.3379 100.32C75.7023 100.17 78.3514 98.12 79.9908 95.6708C78.717 94.3042 77.7457 92.6868 77.2788 90.8057C76.1414 90.6753 75.1047 90.3068 74.1202 89.8483C72.479 92.2686 70.1778 94.3255 67.645 95.4707C67.4762 96.0026 67.2766 96.5074 67.0483 97.0141L67.0212 97.0448ZM81.8868 90.4261C82.9583 93.1662 85.7104 95.018 88.7669 94.8238C92.6018 94.5802 97.2482 89.3345 97.0046 85.4995C96.9954 85.3554 96.9286 85.2148 96.9176 85.0418C96.2635 85.2281 95.577 85.3586 94.9427 85.3989C93.0108 85.5217 91.1901 85.1162 89.5204 84.3537C87.6128 87.1383 84.8361 89.4571 81.8849 90.3973L81.8868 90.4261ZM56.4084 85.3859C56.6521 89.2208 59.964 92.1372 63.799 91.8935C66.1634 91.7434 68.8124 89.6933 70.4518 87.2442C68.7432 85.413 67.5801 83.055 67.381 80.3753C64.6957 80.4879 62.2095 79.6326 60.1787 78.1982C57.9567 80.1343 56.2583 83.0215 56.4084 85.3859ZM71.8375 79.8895C72.0811 83.7245 75.393 86.6408 79.2279 86.3972C81.5923 86.247 84.2414 84.1969 85.8808 81.7478C84.1722 79.9166 83.0091 77.5586 82.8099 74.8789C80.1247 74.9915 77.6385 74.1362 75.6077 72.7019C73.3857 74.6379 71.6873 77.5251 71.8375 79.8895ZM50.8891 82.8124C51.3628 82.5218 51.8672 82.2582 52.3446 82.0252C53.1601 79.3678 54.9093 76.8249 57.1025 74.8906C56.9418 74.6403 56.7542 74.4206 56.6223 74.1684C53.8304 73.9694 51.3241 72.7969 49.4406 70.9479C47.8186 72.759 46.7198 75.058 46.8425 76.9899C47.011 79.6427 48.6263 81.8271 50.891 82.8413L50.8891 82.8124ZM87.2664 74.3931C87.5101 78.2281 90.7932 81.1462 94.657 80.9008C98.5208 80.6553 103.138 75.4114 102.895 71.5765C102.651 67.7415 99.3391 64.8252 95.5041 65.0688C95.2158 65.0871 94.9618 65.1902 94.6482 65.268C93.3595 68.6792 90.5512 71.8684 87.3305 73.5784C87.2911 73.8704 87.25 74.1336 87.2683 74.422L87.2664 74.3931ZM67.2682 75.8661C67.5277 75.8496 67.8124 75.7736 68.0971 75.6976C68.9904 73.3538 70.585 71.1102 72.5315 69.3943C72.0133 68.5297 71.5492 67.6038 71.2526 66.5804L71.1949 66.5841C67.8213 66.7984 64.7291 65.5183 62.4758 63.3164C60.8538 65.1275 59.755 67.4265 59.8777 69.3584C60.1213 73.1934 63.4044 76.1116 67.2682 75.8661ZM75.3356 63.8602C75.5792 67.6952 78.8911 70.6115 82.7261 70.3679C86.561 70.1243 91.2073 64.8786 90.9637 61.0436C90.7201 57.2086 87.4082 54.2923 83.5732 54.5359C79.7383 54.7795 75.092 60.0252 75.3374 63.889L75.3356 63.8602ZM55.3919 69.3829C55.2893 65.9442 57.1653 62.2062 59.9164 59.4838C59.4394 58.3561 59.1029 57.1615 59.0205 55.864C58.9784 55.2008 59.0228 54.5321 59.1248 53.8598C58.9807 53.8689 58.8328 53.8204 58.6887 53.8295C54.8249 54.075 50.2074 59.3189 50.4528 63.1827C50.6433 66.1815 52.6769 68.571 55.3631 69.3847L55.3919 69.3829ZM97.7146 60.6726C97.646 60.5033 97.6331 60.3015 97.678 60.096C97.715 59.312 98.2189 58.5851 98.9485 58.2203L104.344 55.6484L96.5107 53.5694C96.2457 53.4994 96.0059 53.3698 95.7949 53.2385C95.7335 53.1845 95.6722 53.1305 95.6397 53.0747C95.4864 52.9396 95.3618 52.8028 95.2643 52.6353C95.2607 52.5776 95.203 52.5812 95.1705 52.5254L89.6459 43.0331L85.9315 50.1882C90.995 51.0536 94.9967 55.2578 95.4202 60.5578C96.1987 60.5084 96.9846 60.5743 97.7146 60.6726ZM70.9092 62.0858L70.9669 62.0822C71.6221 57.8138 74.9375 53.4922 78.9129 51.3578C78.0501 48.257 75.13 46.0397 71.7852 46.2521C67.9214 46.4976 63.3039 51.7414 63.5494 55.6052C63.7948 59.469 67.0761 62.3583 70.9399 62.1129L70.9092 62.0858Z" fill="white" stroke="#D55258" stroke-width="2.4" mask="url(#path-2-inside-1_21_421)"/>
</g>
<defs>
<clipPath id="clip0_21_421">
<rect width="150" height="141" fill="white" transform="translate(0 0.737305)"/>
</clipPath>
</defs>
</svg>
