<svg width="52" height="51" viewBox="0 0 52 51" fill="none" xmlns="http://www.w3.org/2000/svg">
<g clip-path="url(#clip0_233_1728)">
<path fill-rule="evenodd" clip-rule="evenodd" d="M2.50518 30.3206C6.03265 36.5586 8.78965 38.4709 15.0277 41.8963C21.6928 45.563 20.1889 49.9723 33.2035 49.9073C42.7648 49.8609 51.3885 40.3832 51.8434 33.2818C52.2425 27.0438 49.5226 22.9407 48.6779 18.1044C47.1927 9.58278 32.7765 -0.32199 23.0388 1.0333C10.6276 2.75062 -3.81642 19.1162 2.51447 30.3206" fill="#FFD160"/>
<path d="M33.9139 43.7658C33.8872 43.7777 33.8596 43.7794 33.8309 43.7709C33.7893 43.7574 33.756 43.7225 33.7507 43.6786L33.3583 41.5288C33.3514 41.4893 33.3632 41.452 33.3922 41.4213L45.5961 29.2396C45.6235 29.2132 45.6633 29.199 45.7022 29.2066C45.7411 29.2141 45.7735 29.2388 45.7893 29.2744L46.5265 30.9294C46.5463 30.9739 46.5381 31.0273 46.5032 31.0606L33.9515 43.7385C33.9515 43.7385 33.9274 43.7563 33.9156 43.7616L33.9139 43.7658ZM33.6046 41.5471L33.9443 43.4111L46.2782 30.9547L45.6441 29.531L33.6076 41.5458L33.6046 41.5471Z" fill="#451717" stroke="#451717" stroke-width="0.28"/>
<path d="M33.5246 41.6146C33.483 41.6331 33.4339 41.6266 33.399 41.5959L28.0688 36.8826C28.0407 36.8596 28.0278 36.8226 28.0265 36.7877L28.1091 34.9382C28.112 34.8729 28.168 34.8231 28.2333 34.826C28.2986 34.8289 28.3513 34.8836 28.3455 34.9502L28.2668 36.7447L33.302 41.1948L32.9741 39.2616C32.9625 39.1956 33.0073 39.1366 33.0733 39.125C33.1392 39.1134 33.1982 39.1582 33.2098 39.2241L33.597 41.49C33.605 41.5397 33.5809 41.5895 33.5378 41.6123C33.5348 41.6136 33.5318 41.615 33.5289 41.6163L33.5246 41.6146Z" fill="#451717" stroke="#451717" stroke-width="0.28"/>
<path d="M33.4062 39.2752C33.335 39.3069 33.2572 39.3237 33.1774 39.3202C32.8507 39.3129 32.5851 39.0117 32.5755 38.9982C32.4383 38.8816 28.9131 35.8666 28.4498 35.3372C27.9258 34.7353 28.6943 33.963 28.7431 33.9128C28.8254 33.8264 30.3769 32.2184 30.7093 31.9033C31.0799 31.5463 32.0444 31.8204 32.1535 31.85C32.1664 31.855 32.1805 31.8629 32.1947 31.8708C32.3366 31.9818 35.6864 34.595 36.063 35.1772C36.407 35.71 36.2467 36.0445 36.1282 36.2892C36.1058 36.3347 36.0851 36.3759 36.07 36.4217C35.9943 36.6189 35.1672 37.5311 33.6072 39.1359C33.5462 39.1986 33.4817 39.2451 33.4135 39.2755L33.4062 39.2752ZM30.9599 32.0191C30.9243 32.035 30.8943 32.0554 30.8716 32.0762C30.5422 32.39 28.9281 34.065 28.913 34.0789C28.913 34.0789 28.913 34.0789 28.91 34.0802C28.9024 34.0871 28.2439 34.7394 28.6284 35.1795C29.0791 35.6967 32.7036 38.799 32.7416 38.8283C32.7554 38.8435 32.9616 39.0751 33.1838 39.0792C33.2738 39.0817 33.3539 39.0461 33.433 38.9682C35.1393 37.213 35.798 36.4576 35.8441 36.3375C35.8622 36.2904 35.8862 36.2406 35.9089 36.1878C36.0178 35.9616 36.1271 35.7281 35.8581 35.3076C35.5782 34.8707 33.2631 33.0086 32.0607 32.0726C31.7422 31.9799 31.2179 31.9042 30.9599 32.0191Z" fill="#451717" stroke="#451717" stroke-width="0.28"/>
<path d="M37.727 37.3082C37.6825 37.3281 37.6291 37.3199 37.5945 37.282L36.0639 35.7529C36.0181 35.7058 36.017 35.6316 36.0641 35.5857C36.1112 35.5399 36.1854 35.5388 36.2313 35.5859L37.3082 36.6631L36.748 35.4055C36.7216 35.3462 36.7466 35.2746 36.8089 35.2469C36.8712 35.2191 36.9398 35.2455 36.9675 35.3078L37.7892 37.1526C37.813 37.206 37.7942 37.2676 37.7478 37.299C37.7418 37.3016 37.7359 37.3043 37.727 37.3082Z" fill="#451717" stroke="#451717" stroke-width="0.28"/>
<path d="M41.5748 33.5789C41.5304 33.5987 41.4756 33.5876 41.438 33.551L40.0278 32.0607C39.982 32.0136 39.9839 31.9381 40.031 31.8922C40.0781 31.8464 40.1536 31.8483 40.1994 31.8954L41.2751 33.0336L40.8308 31.4614C40.8132 31.3981 40.8524 31.3344 40.9144 31.314C40.9777 31.2964 41.0443 31.3343 41.0618 31.3976L41.6393 33.4365C41.6559 33.4895 41.6315 33.5466 41.5824 33.572C41.5795 33.5733 41.5765 33.5746 41.5706 33.5773L41.5748 33.5789Z" fill="#451717" stroke="#451717" stroke-width="0.28"/>
<path d="M45.7281 29.433C45.6837 29.4528 45.626 29.4429 45.5913 29.405L44.0418 27.7138C43.9989 27.6653 44.0009 27.5898 44.0493 27.5469C44.0977 27.504 44.1732 27.506 44.2161 27.5544L45.7656 29.2457C45.8085 29.2941 45.8066 29.3696 45.7581 29.4125C45.7476 29.4207 45.737 29.429 45.7252 29.4343L45.7281 29.433Z" fill="#451717" stroke="#451717" stroke-width="0.28"/>
<path d="M37.6362 34.9743C37.5561 35.0099 37.4678 35.0351 37.3669 35.048C37.0574 35.0792 36.7391 34.9473 36.4224 34.6512C35.5475 33.8359 33.0553 31.5444 33.0553 31.5444L33.2157 31.3699C33.2157 31.3699 35.7108 33.6601 36.5828 34.4766C36.8464 34.7253 37.1017 34.8356 37.3397 34.8113C37.6492 34.7801 37.832 34.5281 37.8336 34.5238C37.855 34.5 38.9255 33.3443 39.6717 32.6175C39.8752 32.4202 39.9792 32.2068 39.9804 31.9859C39.9834 31.6256 39.7135 31.3548 39.7122 31.3519C39.6871 31.3275 37.0372 28.7934 36.2672 28.0701C35.5655 27.4123 34.9496 27.8252 34.945 27.8308C34.9404 27.8364 32.8737 29.8837 32.4419 30.4065C32.1191 30.7991 32.5163 31.8982 32.6979 32.2901C32.7243 32.3494 32.6993 32.4209 32.64 32.4474C32.5807 32.4738 32.5121 32.4475 32.4827 32.3895C32.4127 32.2323 31.7862 30.8336 32.2611 30.256C32.7021 29.7219 34.7125 27.7318 34.7962 27.6483C34.8202 27.6305 35.5949 27.1113 36.4348 27.8959C37.2049 28.6192 39.8548 31.1533 39.8812 31.1806C39.895 31.1958 40.2233 31.5258 40.2217 31.9851C40.2219 32.2729 40.0936 32.5433 39.8399 32.7878C39.0984 33.509 38.0325 34.6591 38.0203 34.6716C38.0203 34.6716 37.8823 34.8646 37.6362 34.9743Z" fill="#451717" stroke="#451717" stroke-width="0.28"/>
<path d="M41.7295 30.9404C41.6405 30.9801 41.5331 31.0101 41.4108 31.0149C41.0861 31.028 40.7533 30.8634 40.424 30.5231C39.5655 29.633 37.3947 27.6 37.3723 27.5816C37.3234 27.5358 37.3194 27.463 37.3652 27.4141C37.411 27.3653 37.4838 27.3613 37.5327 27.4071C37.5564 27.4285 39.7315 29.4631 40.5927 30.3591C40.8718 30.6507 41.1432 30.7893 41.3981 30.7788C41.6878 30.7671 41.8584 30.5596 41.8614 30.5582C41.8963 30.5249 43.7248 28.9961 44.0895 28.3467C44.4118 27.7695 43.5163 27.1234 43.5077 27.1201C43.4714 27.0865 41.0799 24.8533 40.323 24.0956C39.6371 23.4095 38.9992 23.8287 38.9916 23.8356C38.987 23.8412 37.2093 25.4362 36.5266 26.2415C35.8823 26.9976 36.1575 27.7032 36.1615 27.7121C36.1879 27.7714 36.1613 27.8473 36.095 27.8661C36.0357 27.8925 35.9645 27.8603 35.941 27.7997C35.9265 27.767 35.6126 26.9507 36.3474 26.0867C37.0424 25.2689 38.7746 23.7154 38.8474 23.6475C38.8685 23.631 39.6668 23.1012 40.4933 23.9274C41.2488 24.6821 43.6361 26.9137 43.6598 26.9351C43.6909 26.9568 44.723 27.702 44.298 28.4636C43.9125 29.1542 42.1068 30.6622 42.0326 30.7272C42.0326 30.7272 41.9266 30.8562 41.7308 30.9434L41.7295 30.9404Z" fill="#451717" stroke="#451717" stroke-width="0.28"/>
<path d="M33.0443 37.6878C32.9968 37.7089 32.9428 37.7152 32.8864 37.7083C32.5066 37.6536 32.0138 36.9383 31.9933 36.9083C31.9755 36.8842 31.9814 36.8496 32.0084 36.8305C32.0325 36.8126 32.0684 36.8215 32.0863 36.8456C32.2199 37.0419 32.6272 37.5572 32.9044 37.5972C32.9578 37.6054 33.002 37.5929 33.0383 37.5625C33.4652 37.2124 34.4768 36.1718 34.4328 35.9213C34.4268 35.892 34.4456 35.8623 34.4792 35.858C34.5085 35.852 34.5395 35.8737 34.5425 35.9044C34.6061 36.2706 33.3665 37.4376 33.1085 37.6485C33.0875 37.665 33.068 37.6772 33.0473 37.6865L33.0443 37.6878Z" fill="#451717" stroke="#451717" stroke-width="0.28"/>
<path d="M33.4815 34.3367C33.4607 34.3459 33.4334 34.3403 33.4182 34.3222C33.0384 33.9085 31.9747 32.829 31.6041 32.827C31.1667 32.8263 30.6564 33.6756 30.6501 33.6855C30.633 33.7109 30.602 33.7212 30.5736 33.7054C30.5482 33.6882 30.538 33.6573 30.5538 33.6289C30.5758 33.5906 31.1033 32.7159 31.6047 32.7165C32.0887 32.7178 33.3544 34.0912 33.4986 34.2473C33.5193 34.2701 33.5177 34.3063 33.495 34.3271C33.4891 34.3297 33.4831 34.3324 33.4802 34.3337L33.4815 34.3367Z" fill="#451717" stroke="#451717" stroke-width="0.28"/>
<path d="M37.2257 33.3338C36.9647 33.45 36.3988 32.8099 36.2249 32.603C36.2041 32.5803 36.2087 32.5427 36.2328 32.5249C36.2555 32.5041 36.2931 32.5087 36.3109 32.5328C36.6449 32.9314 37.0744 33.3052 37.1854 33.2273C37.4049 33.0656 38.5173 31.9801 38.5308 31.9706C38.5535 31.9498 38.5885 31.9484 38.6093 31.9712C38.63 31.9939 38.6314 32.0288 38.6087 32.0496C38.5616 32.0955 37.4751 33.1516 37.2511 33.3189C37.2422 33.3229 37.2317 33.3311 37.2228 33.3351L37.2257 33.3338Z" fill="#451717" stroke="#451717" stroke-width="0.28"/>
<path d="M38.1494 31.0669C38.1317 31.0748 38.1056 31.0722 38.0888 31.0584C37.7391 30.7521 35.9867 29.2116 35.9206 29.0633C35.9008 29.0188 35.8543 28.9862 35.7953 28.9734C35.6973 28.953 35.4844 28.9697 35.1369 29.2986C34.6437 29.7635 34.545 30.0527 34.5434 30.057C34.5348 30.0857 34.5035 30.1032 34.4735 30.0917C34.4448 30.0831 34.4273 30.0518 34.4389 30.0218C34.4438 30.009 34.5431 29.7053 35.062 29.2183C35.4276 28.8741 35.6765 28.8344 35.8219 28.8656C35.9155 28.8843 35.9944 28.9416 36.0274 29.0157C36.0878 29.1274 37.3738 30.275 38.1668 30.9703C38.1906 30.9917 38.1919 31.0266 38.1735 31.0491C38.1689 31.0547 38.1613 31.0616 38.1554 31.0643L38.1494 31.0669Z" fill="#451717" stroke="#451717" stroke-width="0.28"/>
<path d="M41.2341 29.398C41.2133 29.4072 41.1873 29.4046 41.1708 29.3835C41.15 29.3608 41.1516 29.3246 41.1743 29.3038C41.1865 29.2912 42.3655 28.1796 42.5344 27.8165C42.6262 27.6157 42.4368 27.4299 42.1241 27.1427C41.9746 27.0067 41.807 26.8538 41.6694 26.6805C41.2856 26.1939 39.7392 24.9882 39.7266 24.976C39.7042 24.9576 39.6986 24.921 39.717 24.8986C39.7355 24.8761 39.772 24.8705 39.7945 24.8889C39.8591 24.9383 41.3676 26.1147 41.7567 26.6132C41.8874 26.7789 42.0438 26.9225 42.1975 27.0602C42.5033 27.3399 42.7659 27.5783 42.6369 27.8633C42.4615 28.2435 41.3036 29.3386 41.2522 29.3828C41.2463 29.3855 41.2403 29.3881 41.2344 29.3907L41.2341 29.398Z" fill="#451717" stroke="#451717" stroke-width="0.28"/>
<path d="M40.406 28.8712C40.3852 28.8804 40.3622 28.8765 40.344 28.8597L38.9191 27.4719C38.8983 27.4492 38.894 27.4156 38.9197 27.3935C38.9424 27.3727 38.976 27.3684 38.9981 27.3941L40.4231 28.7818C40.4439 28.8046 40.4482 28.8382 40.4225 28.8603C40.4165 28.8629 40.4119 28.8686 40.406 28.8712Z" fill="#451717" stroke="#451717" stroke-width="0.28"/>
<path d="M27.8576 36.6959C27.8161 36.7144 27.7669 36.7078 27.732 36.6772L22.0326 31.6378C22.0046 31.6147 21.9917 31.5778 21.9903 31.5429L22.0729 29.6934C22.0759 29.6281 22.1319 29.5783 22.1971 29.5812C22.2624 29.5841 22.3152 29.6388 22.3093 29.7054L22.2306 31.4998L27.579 36.23L26.9374 34.0313C26.9198 33.968 26.9564 33.8984 27.018 33.8852C27.0813 33.8676 27.1466 33.9025 27.1641 33.9658L27.9218 36.5607C27.937 36.6108 27.9156 36.6665 27.8708 36.6936C27.8648 36.6962 27.8589 36.6989 27.856 36.7002L27.8576 36.6959Z" fill="#451717" stroke="#451717" stroke-width="0.28"/>
<path d="M27.3692 34.0274C27.298 34.0591 27.2202 34.076 27.1405 34.0724C26.8137 34.0651 26.5481 33.764 26.5386 33.7505C26.4013 33.6339 22.8761 30.6189 22.4128 30.0895C21.8888 29.4876 22.6573 28.7152 22.7061 28.6651C22.7884 28.5786 24.3399 26.9706 24.6723 26.6555C25.0472 26.3001 26.0074 26.5727 26.1165 26.6022C26.1294 26.6072 26.1436 26.6151 26.1577 26.623C26.2996 26.734 29.6494 29.3472 30.0261 29.9295C30.37 30.4623 30.2097 30.7967 30.0912 31.0414C30.0688 31.0869 30.0494 31.1311 30.033 31.174C29.9573 31.3712 29.1302 32.2833 27.5702 33.8881C27.5093 33.9508 27.4447 33.9973 27.3765 34.0277L27.3692 34.0274ZM24.9229 26.7713C24.8873 26.7872 24.8603 26.8063 24.8346 26.8284C24.5052 27.1422 22.8911 28.8172 22.876 28.8311C22.876 28.8311 22.876 28.8311 22.873 28.8324C22.8654 28.8393 22.207 29.4916 22.5914 29.9317C23.0421 30.449 26.6666 33.5512 26.7046 33.5805C26.7184 33.5957 26.9247 33.8273 27.1469 33.8314C27.2369 33.834 27.3169 33.7983 27.396 33.7204C29.544 31.5126 29.7857 31.1455 29.8071 31.0897C29.8252 31.0426 29.8492 30.9928 29.8719 30.94C29.9809 30.7138 30.0901 30.4803 29.8211 30.0598C29.5412 29.6229 27.2261 27.7608 26.0237 26.8248C25.7052 26.7321 25.181 26.6564 24.9229 26.7713Z" fill="#451717" stroke="#451717" stroke-width="0.28"/>
<path d="M31.5963 31.9632C31.5518 31.9831 31.4984 31.9749 31.4637 31.937L30.0292 30.5037C29.9833 30.4566 29.9823 30.3824 30.0294 30.3366C30.0765 30.2907 30.1507 30.2897 30.1965 30.3368L31.2081 31.3471L30.7106 30.1504C30.6842 30.0911 30.7033 30.0222 30.7758 29.9935C30.8351 29.967 30.905 29.9963 30.9328 30.0586L31.6584 31.8076C31.6809 31.858 31.6622 31.9197 31.6157 31.951C31.6098 31.9537 31.6038 31.9563 31.5979 31.959L31.5963 31.9632Z" fill="#451717" stroke="#451717" stroke-width="0.28"/>
<path d="M35.1905 27.7109C35.146 27.7307 35.0955 27.7212 35.0592 27.6876L33.9689 26.652C33.92 26.6062 33.919 26.532 33.9648 26.4832C34.0106 26.4344 34.0847 26.4333 34.1336 26.4791L34.8851 27.1929L34.5213 26.0647C34.5008 26.0028 34.5373 25.9332 34.5963 25.914C34.6583 25.8935 34.7265 25.9271 34.747 25.9891L35.2553 27.5612C35.2718 27.6142 35.2504 27.67 35.2056 27.697C35.1997 27.6997 35.1938 27.7023 35.1908 27.7036L35.1905 27.7109Z" fill="#451717" stroke="#451717" stroke-width="0.28"/>
<path d="M39.2531 23.7049C39.2087 23.7247 39.151 23.7148 39.1163 23.6769L38.0077 22.4646C37.9648 22.4162 37.9667 22.3407 38.0151 22.2978C38.0635 22.2549 38.139 22.2568 38.1819 22.3053L39.2906 23.5176C39.3335 23.566 39.3316 23.6415 39.2831 23.6844C39.2726 23.6926 39.262 23.7009 39.2502 23.7062L39.2531 23.7049Z" fill="#451717" stroke="#451717" stroke-width="0.28"/>
<path d="M31.602 29.7251C31.5219 29.7608 31.4336 29.7859 31.3327 29.7989C31.0232 29.8301 30.7049 29.6982 30.3882 29.402C29.5133 28.5868 27.0212 26.2953 27.0212 26.2953L27.1816 26.1208C27.1816 26.1208 29.6767 28.411 30.5486 29.2275C30.8122 29.4762 31.0675 29.5864 31.3055 29.5622C31.615 29.531 31.7978 29.2789 31.7994 29.2747C31.8208 29.2509 32.8913 28.0952 33.6375 27.3684C33.8411 27.1711 33.9451 26.9577 33.9462 26.7368C33.9492 26.3765 33.6793 26.1057 33.678 26.1027C33.6529 26.0784 31.003 23.5443 30.233 22.821C29.5382 22.1708 28.9349 22.5639 28.9108 22.5817C28.9062 22.5873 26.8425 24.6332 26.4077 25.1574C26.085 25.55 26.4821 26.6491 26.6637 27.0409C26.6901 27.1003 26.6651 27.1718 26.6058 27.1982C26.5465 27.2247 26.4779 27.1983 26.4485 27.1403C26.3785 26.9831 25.752 25.5845 26.227 25.0069C26.668 24.4728 28.6783 22.4827 28.762 22.3992C28.7861 22.3814 29.5607 21.8622 30.4007 22.6468C31.1707 23.3701 33.8219 25.9071 33.847 25.9315C33.8608 25.9467 34.1891 26.2767 34.1875 26.736C34.1877 27.0238 34.0594 27.2942 33.8057 27.5387C33.0642 28.2599 31.9983 29.41 31.9861 29.4225C31.9861 29.4225 31.8482 29.6155 31.602 29.7251Z" fill="#451717" stroke="#451717" stroke-width="0.28"/>
<path d="M35.692 25.6927C35.603 25.7323 35.4956 25.7624 35.3733 25.7671C35.0485 25.7802 34.7158 25.6156 34.3865 25.2753C33.528 24.3853 31.3572 22.3523 31.3347 22.3338C31.2859 22.288 31.2819 22.2152 31.3277 22.1664C31.3735 22.1175 31.4463 22.1135 31.4951 22.1593C31.5189 22.1807 33.694 24.2153 34.5552 25.1114C34.833 25.3999 35.1028 25.5428 35.3576 25.5324C35.6444 25.5219 35.8209 25.3118 35.8239 25.3105C35.8601 25.2801 37.6873 23.7483 38.049 23.1003C38.3713 22.5231 37.4758 21.877 37.4672 21.8737C37.4309 21.8401 35.0394 19.6068 34.2825 18.8492C33.5936 18.1644 32.9557 18.5835 32.9511 18.5891C32.9465 18.5948 31.1689 20.1898 30.4861 20.995C29.8465 21.7456 30.1078 22.436 30.118 22.467C30.1444 22.5263 30.1211 22.5936 30.0516 22.621C29.9922 22.6474 29.921 22.6152 29.8975 22.5545C29.883 22.5219 29.5692 21.7056 30.304 20.8416C30.9989 20.0238 32.7311 18.4703 32.8039 18.4023C32.822 18.3872 33.6234 17.8561 34.4498 18.6822C35.2054 19.4369 37.5926 21.6685 37.6164 21.6899C37.6474 21.7117 38.6825 22.4556 38.2545 23.2184C37.869 23.9091 36.0646 25.4201 35.9892 25.4821C35.9892 25.4821 35.8831 25.6111 35.6874 25.6983L35.692 25.6927Z" fill="#451717" stroke="#451717" stroke-width="0.28"/>
<path d="M21.7587 31.223C21.7172 31.2415 21.6681 31.2349 21.6331 31.2043L16.1225 26.3332C16.0944 26.3102 16.0815 26.2732 16.0802 26.2383L16.1628 24.3888C16.1657 24.3235 16.2217 24.2737 16.287 24.2766C16.3523 24.2795 16.4051 24.3342 16.3992 24.4008L16.3205 26.1952L21.5095 30.7831L21.0275 28.7194C21.013 28.6548 21.0521 28.5912 21.1167 28.5766C21.1814 28.562 21.245 28.6012 21.2596 28.6658L21.8285 31.0924C21.8408 31.1438 21.8181 31.1966 21.7732 31.2236C21.7703 31.225 21.7643 31.2276 21.7614 31.2289L21.7587 31.223Z" fill="#451717" stroke="#451717" stroke-width="0.28"/>
<path d="M21.458 28.7198C21.3868 28.7515 21.309 28.7683 21.2292 28.7648C20.9025 28.7574 20.6369 28.4563 20.6273 28.4428C20.4901 28.3262 16.9648 25.3112 16.5016 24.7818C15.9776 24.1799 16.7461 23.4076 16.7948 23.3574C16.8772 23.271 18.4286 21.663 18.761 21.3479C19.1346 20.9895 20.0961 21.265 20.2053 21.2946C20.2181 21.2996 20.2323 21.3075 20.2465 21.3154C20.3883 21.4263 23.7382 24.0396 24.1148 24.6218C24.4587 25.1546 24.2985 25.4891 24.18 25.7338C24.1576 25.7793 24.1382 25.8235 24.1217 25.8663C24.0461 26.0635 23.219 26.9757 21.6589 28.5805C21.598 28.6432 21.5334 28.6897 21.4652 28.7201L21.458 28.7198ZM19.0117 21.4637C18.9761 21.4796 18.9491 21.4987 18.9234 21.5208C18.5939 21.8346 16.9799 23.5096 16.9647 23.5234C16.9647 23.5234 16.9647 23.5234 16.9618 23.5248C16.9542 23.5317 16.2957 24.184 16.6801 24.6241C17.1308 25.1413 20.7554 28.2436 20.7933 28.2729C20.8072 28.2881 21.0134 28.5197 21.2356 28.5238C21.3256 28.5263 21.4057 28.4907 21.4847 28.4128C23.6328 26.205 23.8744 25.8378 23.8958 25.7821C23.9139 25.735 23.938 25.6852 23.9607 25.6324C24.0696 25.4062 24.1789 25.1727 23.9099 24.7522C23.6299 24.3153 21.3149 22.4532 20.1125 21.5172C19.7939 21.4245 19.2697 21.3488 19.0117 21.4637Z" fill="#451717" stroke="#451717" stroke-width="0.28"/>
<path d="M25.6851 26.6556C25.6406 26.6754 25.5872 26.6672 25.5525 26.6294L24.118 25.1961C24.0721 25.149 24.0711 25.0748 24.1182 25.029C24.1653 24.9831 24.2395 24.9821 24.2853 25.0292L25.2969 26.0395L24.7995 24.8428C24.773 24.7835 24.8023 24.7136 24.8616 24.6872C24.921 24.6608 24.9909 24.69 25.0186 24.7523L25.7443 26.5013C25.7667 26.5517 25.748 26.6134 25.7015 26.6447C25.6956 26.6474 25.6897 26.65 25.6837 26.6527L25.6851 26.6556Z" fill="#451717" stroke="#451717" stroke-width="0.28"/>
<path d="M29.2801 22.4063C29.2357 22.4261 29.1852 22.4166 29.1489 22.383L28.0585 21.3474C28.0097 21.3016 28.0087 21.2274 28.0545 21.1786C28.1002 21.1298 28.1744 21.1287 28.2232 21.1745L28.9748 21.8883L28.6109 20.7601C28.5904 20.6982 28.6283 20.6315 28.686 20.6094C28.7479 20.5889 28.8162 20.6225 28.8367 20.6845L29.345 22.2566C29.3615 22.3096 29.3401 22.3654 29.2953 22.3924C29.2894 22.3951 29.2834 22.3977 29.2805 22.399L29.2801 22.4063Z" fill="#451717" stroke="#451717" stroke-width="0.28"/>
<path d="M33.343 18.4003C33.2985 18.4201 33.2408 18.4102 33.2062 18.3723L32.0975 17.16C32.0546 17.1116 32.0565 17.0361 32.105 16.9932C32.1534 16.9503 32.2289 16.9522 32.2718 17.0007L33.3804 18.213C33.4233 18.2614 33.4214 18.3369 33.373 18.3798C33.3624 18.388 33.3519 18.3963 33.34 18.4016L33.343 18.4003Z" fill="#451717" stroke="#451717" stroke-width="0.28"/>
<path d="M25.6907 24.4175C25.6106 24.4531 25.5223 24.4782 25.4214 24.4912C25.1119 24.5224 24.7937 24.3905 24.4769 24.0944C23.602 23.2791 21.1099 20.9876 21.1099 20.9876L21.2703 20.8131C21.2703 20.8131 23.7654 23.1033 24.6374 23.9198C24.8996 24.1656 25.1562 24.2788 25.3942 24.2545C25.7037 24.2233 25.8895 23.9699 25.8882 23.967C25.9096 23.9432 26.9801 22.7875 27.7262 22.0607C27.9298 21.8634 28.0338 21.65 28.0349 21.4291C28.0379 21.0688 27.7681 20.798 27.7667 20.7951C27.7417 20.7707 25.0917 18.2366 24.3217 17.5133C23.6269 16.8631 23.0236 17.2562 22.9996 17.274C22.995 17.2796 20.9312 19.3255 20.4965 19.8497C20.1737 20.2423 20.5708 21.3414 20.7511 21.7303C20.7776 21.7896 20.7526 21.8612 20.6932 21.8876C20.6339 21.914 20.5653 21.8877 20.5359 21.8297C20.4659 21.6725 19.8394 20.2739 20.3144 19.6962C20.7554 19.1622 22.7657 17.172 22.8494 17.0885C22.8735 17.0707 23.6481 16.5515 24.4881 17.3361C25.2581 18.0595 27.9093 20.5965 27.9344 20.6209C27.9483 20.636 28.2765 20.9661 28.2749 21.4253C28.2752 21.7131 28.1468 21.9835 27.8931 22.228C27.1516 22.9493 26.0857 24.0993 26.0735 24.1119C26.0735 24.1119 25.9356 24.3048 25.6894 24.4145L25.6907 24.4175Z" fill="#451717" stroke="#451717" stroke-width="0.28"/>
<path d="M29.7809 20.385C29.6919 20.4246 29.5844 20.4547 29.4621 20.4594C29.1374 20.4725 28.8046 20.308 28.4754 19.9677C27.6169 19.0776 25.446 17.0446 25.4236 17.0262C25.3748 16.9804 25.3708 16.9075 25.4165 16.8587C25.4623 16.8099 25.5352 16.8059 25.584 16.8516C25.6078 16.873 27.7829 18.9077 28.644 19.8037C28.9218 20.0923 29.1916 20.2351 29.4464 20.2247C29.7333 20.2143 29.9098 20.0041 29.9128 20.0028C29.949 19.9724 31.7761 18.4407 32.1379 17.7926C32.4602 17.2154 31.5646 16.5693 31.5561 16.566C31.5198 16.5324 29.1282 14.2992 28.3714 13.5415C27.6812 12.8537 27.0446 13.2759 27.04 13.2815C27.0354 13.2871 25.2577 14.8821 24.575 15.6874C23.9353 16.4379 24.1967 17.1283 24.2069 17.1593C24.2333 17.2186 24.21 17.2859 24.1404 17.3133C24.0811 17.3397 24.0099 17.3075 23.9864 17.2469C23.9719 17.2142 23.6581 16.3979 24.3929 15.5339C25.0878 14.7161 26.82 13.1626 26.8928 13.0947C26.9109 13.0795 27.7122 12.5484 28.5387 13.3746C29.2943 14.1293 31.6815 16.3609 31.7053 16.3823C31.7363 16.404 32.7714 17.1479 32.3434 17.9108C31.9579 18.6014 30.1535 20.1124 30.0781 20.1744C30.0781 20.1744 29.972 20.3034 29.7762 20.3906L29.7809 20.385Z" fill="#451717" stroke="#451717" stroke-width="0.28"/>
<path d="M15.7533 25.8473C15.7117 25.8657 15.6626 25.8592 15.6276 25.8286L10.1127 20.9558C10.0847 20.9328 10.0718 20.8958 10.0704 20.8609L10.153 19.0114C10.1559 18.9461 10.2119 18.8963 10.2772 18.8992C10.3425 18.9021 10.3953 18.9568 10.3894 19.0234L10.3137 20.8165L15.5027 25.4044L15.0207 23.3407C15.0062 23.2761 15.0453 23.2124 15.11 23.1979C15.1746 23.1833 15.2382 23.2225 15.2528 23.2871L15.8188 25.715C15.831 25.7664 15.8083 25.8192 15.7635 25.8463C15.7605 25.8476 15.7546 25.8502 15.7516 25.8515L15.7533 25.8473Z" fill="#451717" stroke="#451717" stroke-width="0.28"/>
<path d="M15.4508 23.3483C15.3796 23.38 15.3047 23.3956 15.222 23.3933C14.8953 23.386 14.6297 23.0849 14.6201 23.0714C14.4829 22.9548 10.9576 19.9398 10.4944 19.4104C9.97036 18.8085 10.7389 18.0361 10.7876 17.986C10.87 17.8996 12.4214 16.2915 12.7538 15.9764C13.1287 15.6211 14.0889 15.8936 14.1981 15.9232C14.2109 15.9281 14.2251 15.936 14.2393 15.9439C14.3811 16.0549 17.731 18.6682 18.1076 19.2504C18.4515 19.7832 18.2913 20.1176 18.1728 20.3623C18.1504 20.4078 18.1297 20.4491 18.1145 20.4949C18.0866 20.5678 18.001 20.7907 15.6593 23.2021C15.5938 23.2704 15.5262 23.3183 15.455 23.35L15.4508 23.3483ZM13.0074 16.0909C12.9718 16.1068 12.9448 16.1259 12.9191 16.148C12.5897 16.4618 10.9757 18.1368 10.9605 18.1507C10.9605 18.1507 10.9605 18.1507 10.9575 18.152C10.95 18.1589 10.2915 18.8112 10.6759 19.2513C11.1266 19.7686 14.7511 22.8708 14.7891 22.9002C14.8029 22.9153 15.0092 23.1469 15.2314 23.151C15.3214 23.1536 15.4015 23.1179 15.4805 23.04C17.6272 20.8292 17.8702 20.4651 17.8916 20.4094C17.9097 20.3622 17.9337 20.3124 17.9564 20.2596C18.0654 20.0334 18.1746 19.7999 17.9056 19.3795C17.6257 18.9425 15.3106 17.0804 14.1082 16.1445C13.7897 16.0517 13.2655 15.976 13.0074 16.0909Z" fill="#451717" stroke="#451717" stroke-width="0.28"/>
<path d="M19.6782 21.2841C19.6337 21.3039 19.5803 21.2957 19.5457 21.2578L18.1111 19.8246C18.0653 19.7775 18.0642 19.7033 18.1113 19.6574C18.1585 19.6116 18.2326 19.6105 18.2785 19.6576L19.2901 20.6679L18.7926 19.4713C18.7662 19.412 18.7955 19.3421 18.8548 19.3156C18.9141 19.2892 18.984 19.3185 19.0118 19.3808L19.7375 21.1298C19.7599 21.1802 19.7412 21.2419 19.6947 21.2732C19.6888 21.2759 19.6828 21.2785 19.6769 21.2811L19.6782 21.2841Z" fill="#451717" stroke="#451717" stroke-width="0.28"/>
<path d="M23.2718 17.0318C23.2274 17.0517 23.1769 17.0421 23.1406 17.0085L22.0502 15.9729C22.0014 15.9271 22.0004 15.853 22.0461 15.8041C22.0919 15.7553 22.1661 15.7543 22.2149 15.8L22.9665 16.5138L22.6026 15.3857C22.5821 15.3237 22.62 15.2571 22.6777 15.235C22.7396 15.2145 22.8079 15.248 22.8284 15.31L23.3367 16.8821C23.3532 16.9352 23.3318 16.9909 23.287 17.018C23.2811 17.0206 23.2751 17.0233 23.2722 17.0246L23.2718 17.0318Z" fill="#451717" stroke="#451717" stroke-width="0.28"/>
<path d="M19.6821 19.0431C19.602 19.0787 19.5137 19.1039 19.4128 19.1168C19.1033 19.148 18.785 19.0161 18.4683 18.72C17.5934 17.9047 15.1012 15.6132 15.1012 15.6132L15.2616 15.4387C15.2616 15.4387 17.7567 17.7289 18.6287 18.5454C18.891 18.7912 19.1476 18.9044 19.3856 18.8801C19.6951 18.8489 19.8779 18.5969 19.8795 18.5926C19.9009 18.5688 20.9714 17.4131 21.7176 16.6863C21.9211 16.489 22.0251 16.2756 22.0263 16.0547C22.0293 15.6944 21.7594 15.4236 21.7581 15.4207C21.733 15.3963 19.0831 12.8622 18.3131 12.1389C17.6114 11.4811 16.9955 11.894 16.9909 11.8996C16.9863 11.9052 14.9196 13.9525 14.4878 14.4753C14.165 14.8679 14.5622 15.967 14.7438 16.3589C14.7702 16.4182 14.7452 16.4897 14.6859 16.5162C14.6266 16.5426 14.558 16.5163 14.5286 16.4583C14.4586 16.3011 13.8321 14.9024 14.307 14.3248C14.748 13.7907 16.7584 11.8006 16.8421 11.7171C16.8661 11.6993 17.6408 11.1801 18.4807 11.9647C19.2508 12.688 21.902 15.2251 21.9271 15.2494C21.9409 15.2646 22.2692 15.5947 22.2676 16.0539C22.2678 16.3417 22.1395 16.6121 21.8858 16.8566C21.1443 17.5778 20.0784 18.7279 20.0662 18.7404C20.0662 18.7404 19.9282 18.9334 19.6821 19.0431Z" fill="#451717" stroke="#451717" stroke-width="0.28"/>
<path d="M23.7753 15.0093C23.6863 15.0489 23.5788 15.079 23.4565 15.0837C23.1318 15.0968 22.7991 14.9322 22.4698 14.5919C21.6113 13.7019 19.4404 11.6689 19.418 11.6504C19.3692 11.6046 19.3652 11.5318 19.4139 11.4816C19.4597 11.4328 19.5326 11.4288 19.5814 11.4746C19.6051 11.496 21.7803 13.5306 22.6414 14.4266C22.9192 14.7152 23.189 14.8581 23.4438 14.8477C23.7306 14.8372 23.9085 14.63 23.9101 14.6257C23.9464 14.5954 25.7735 13.0636 26.1383 12.4142C26.4605 11.837 25.565 11.1909 25.5564 11.1876C25.5201 11.154 23.1286 8.92078 22.3717 8.16315C21.6884 7.48292 21.0673 7.88396 21.0403 7.9031C21.0357 7.90871 19.2581 9.50374 18.5753 10.309C17.9357 11.0595 18.197 11.75 18.2072 11.7809C18.2337 11.8403 18.2103 11.9075 18.1408 11.9349C18.0814 11.9614 18.0102 11.9291 17.9868 11.8685C17.9722 11.8358 17.6584 11.0195 18.3932 10.1555C19.0839 9.33608 20.819 7.7813 20.8918 7.71333C20.9099 7.69815 21.7113 7.16708 22.5377 7.99324C23.2933 8.74791 25.6805 10.9795 25.7043 11.0009C25.7353 11.0227 26.7674 11.7679 26.3424 12.5294C25.9569 13.2201 24.1525 14.731 24.0771 14.7931C24.0771 14.7931 23.971 14.9221 23.7753 15.0093Z" fill="#451717" stroke="#451717" stroke-width="0.28"/>
<path d="M16.2467 26.3489C16.2022 26.3688 16.1488 26.3606 16.1142 26.3227L15.6176 25.8223C15.5718 25.7752 15.5707 25.701 15.6178 25.6552C15.6649 25.6093 15.7391 25.6083 15.785 25.6554L16.2815 26.1557C16.3274 26.2028 16.3284 26.277 16.2813 26.3229C16.2721 26.3341 16.2573 26.3407 16.2454 26.346L16.2467 26.3489Z" fill="#451717" stroke="#451717" stroke-width="0.28"/>
<path d="M22.158 31.6565C22.1135 31.6764 22.0558 31.6665 22.0212 31.6286L21.6219 31.1951C21.579 31.1467 21.5809 31.0712 21.6294 31.0283C21.6778 30.9854 21.7533 30.9873 21.7962 31.0357L22.1954 31.4693C22.2383 31.5177 22.2364 31.5932 22.188 31.6361C22.1774 31.6443 22.1669 31.6526 22.155 31.6579L22.158 31.6565Z" fill="#451717" stroke="#451717" stroke-width="0.28"/>
<path d="M28.1955 36.9044C28.1599 36.9202 28.1193 36.917 28.0853 36.8966L27.7516 36.6898C27.6965 36.6539 27.678 36.5804 27.7138 36.5253C27.7484 36.4673 27.8232 36.4517 27.8783 36.4876L28.2121 36.6944C28.2672 36.7303 28.2857 36.8038 28.2498 36.8588C28.2373 36.8786 28.2162 36.8951 28.1955 36.9044Z" fill="#451717" stroke="#451717" stroke-width="0.28"/>
<path d="M33.9138 43.7658C33.8723 43.7843 33.8232 43.7778 33.7869 43.7442L11.4034 23.8535C11.4034 23.8535 11.3826 23.8308 11.3747 23.813L10.084 20.9153C10.0576 20.8559 10.0826 20.7844 10.1449 20.7566C10.2072 20.7289 10.2758 20.7552 10.3035 20.8175L11.5849 23.6945L33.946 43.5667C33.9935 43.6095 33.9988 43.6853 33.9573 43.7358C33.9451 43.7483 33.9316 43.7579 33.9168 43.7645L33.9138 43.7658Z" fill="#451717" stroke="#451717" stroke-width="0.28"/>
<path d="M27.3564 13.13C27.3119 13.1498 27.2542 13.1399 27.2196 13.102L26.1917 11.9675C26.1489 11.9191 26.1508 11.8436 26.1992 11.8007C26.2476 11.7578 26.3231 11.7597 26.366 11.8081L27.3938 12.9427C27.4367 12.9911 27.4348 13.0666 27.3864 13.1095C27.3758 13.1177 27.3653 13.126 27.3564 13.13Z" fill="#451717" stroke="#451717" stroke-width="0.28"/>
<path d="M27.5047 32.3604C27.4573 32.3816 27.4029 32.3951 27.3462 32.3955C26.9354 32.4149 26.4287 31.9475 26.4063 31.9291L24.1519 29.7804C24.1282 29.759 24.1268 29.7241 24.1496 29.7033C24.171 29.6796 24.2059 29.6782 24.2267 29.7009L26.481 31.8496C26.481 31.8496 26.9752 32.3048 27.3395 32.2847C27.4328 32.2787 27.5069 32.2457 27.5682 32.1758C27.9312 31.7617 28.6133 31.0349 28.6196 31.025C28.6423 31.0042 28.6759 30.9999 28.6967 31.0227C28.7205 31.0441 28.7218 31.079 28.6991 31.0998C28.6915 31.1067 28.0123 31.8322 27.6494 32.2462C27.6065 32.2937 27.5584 32.3294 27.5021 32.3545L27.5047 32.3604Z" fill="#451717" stroke="#451717" stroke-width="0.28"/>
<path d="M28.637 29.9474C28.6192 29.9553 28.5975 29.9543 28.5793 29.9375L26.0177 27.8013C25.9534 27.7767 25.502 27.633 25.2642 27.913C24.9833 28.2479 24.7004 28.6262 24.6987 28.6305C24.6816 28.6559 24.645 28.6615 24.6226 28.6431C24.5972 28.626 24.5916 28.5894 24.61 28.567C24.613 28.5656 24.8962 28.18 25.1801 27.8439C25.4857 27.4767 26.0444 27.6935 26.0688 27.7004C26.073 27.7021 26.0786 27.7067 26.0829 27.7083L28.6544 29.8508C28.6782 29.8722 28.6795 29.9071 28.6611 29.9296C28.6564 29.9352 28.6489 29.9421 28.64 29.9461L28.637 29.9474Z" fill="#451717" stroke="#451717" stroke-width="0.28"/>
<path d="M31.2979 28.492C31.2712 28.5039 31.2389 28.5112 31.2069 28.5112C30.9089 28.5125 30.4255 28.0098 30.3714 27.9521L28.4912 26.1487C28.4674 26.1273 28.4661 26.0923 28.4888 26.0715C28.5116 26.0508 28.5452 26.0464 28.566 26.0692L30.4492 27.8713C30.5894 28.0185 30.9925 28.397 31.2062 28.3978C31.2381 28.3978 31.2632 28.3902 31.2816 28.3678C31.5 28.1319 32.6169 26.8809 32.6291 26.8684C32.6505 26.8446 32.6855 26.8433 32.7092 26.8647C32.733 26.8861 32.7343 26.921 32.7129 26.9448C32.7007 26.9573 31.5838 28.2083 31.3654 28.4442C31.3457 28.4637 31.3246 28.4802 31.3008 28.4907L31.2979 28.492Z" fill="#451717" stroke="#451717" stroke-width="0.28"/>
<path d="M32.1533 25.7439C32.1325 25.7531 32.1094 25.7492 32.0913 25.7324C32.0731 25.7156 30.3258 23.9312 29.8044 23.6942C29.3216 23.4721 28.7053 24.5463 28.6961 24.5575C28.6803 24.5859 28.648 24.5932 28.6196 24.5774C28.5912 24.5616 28.584 24.5293 28.5998 24.5009C28.6281 24.4527 29.2756 23.329 29.8511 23.5917C30.388 23.8395 32.0981 25.5801 32.1703 25.6545C32.1911 25.6773 32.1925 25.7122 32.1697 25.733C32.1638 25.7356 32.1592 25.7413 32.1533 25.7439Z" fill="#451717" stroke="#451717" stroke-width="0.28"/>
<path d="M35.2354 24.5952C35.2354 24.5952 35.2265 24.5992 35.2235 24.6005C35.0234 24.6541 34.2012 23.7336 33.8557 23.333C33.8349 23.3103 33.8365 23.274 33.8606 23.2562C33.8833 23.2354 33.9196 23.2371 33.9374 23.2611C34.4337 23.8327 35.0355 24.4497 35.1819 24.4911C35.2796 24.1917 36.6283 23.0862 36.9015 22.8615C36.9242 22.8407 36.9618 22.8453 36.9796 22.8694C36.9974 22.8934 36.9958 22.9297 36.9718 22.9475C36.3382 23.4643 35.3206 24.3476 35.2864 24.5263C35.2792 24.5579 35.2621 24.5833 35.2354 24.5952Z" fill="#451717" stroke="#451717" stroke-width="0.28"/>
<path d="M35.2295 20.8478C35.2088 20.8571 35.1827 20.8545 35.1662 20.8334C34.5175 20.1271 33.7426 19.4486 33.5676 19.5265C33.2717 19.6761 32.3162 20.7308 32.3056 20.7391C32.2842 20.7628 32.2493 20.7642 32.2255 20.7427C32.2018 20.7213 32.2004 20.6864 32.2218 20.6626C32.263 20.6194 33.2017 19.5829 33.5184 19.424C33.5184 19.424 33.5214 19.4227 33.5244 19.4214C33.8625 19.2708 35.0226 20.5028 35.2512 20.7529C35.272 20.7756 35.2704 20.8119 35.2477 20.8327C35.2417 20.8353 35.2358 20.8379 35.2328 20.8393L35.2295 20.8478Z" fill="#451717" stroke="#451717" stroke-width="0.28"/>
<path d="M21.4924 27.0338C21.086 27.2147 20.7374 27.0146 20.7348 27.0086L18.813 25.1597C18.7892 25.1383 18.7879 25.1034 18.8106 25.0826C18.8333 25.0618 18.867 25.0575 18.8878 25.0802L20.7996 26.9229C20.7996 26.9229 21.2574 27.1846 21.7189 26.7445C22.2095 26.2736 22.6455 25.7524 22.6501 25.7468C22.6715 25.7231 22.7065 25.7217 22.7289 25.7401C22.7527 25.7616 22.754 25.7965 22.7356 25.8189C22.7296 25.8216 22.2932 26.3501 21.7968 26.8235C21.695 26.9222 21.5932 26.9888 21.4924 27.0338Z" fill="#451717" stroke="#451717" stroke-width="0.28"/>
<path d="M22.4215 24.491C22.4007 24.5002 22.3776 24.4963 22.3608 24.4824C21.6182 23.7967 20.1135 22.4693 19.7501 22.3717C19.397 22.273 18.7462 23.1103 18.5279 23.4421C18.5108 23.4675 18.4755 23.4761 18.4501 23.459C18.4247 23.4418 18.4161 23.4066 18.4333 23.3812C18.5189 23.2542 19.2798 22.1297 19.7781 22.2668C20.2562 22.3986 22.3462 24.3219 22.4326 24.4043C22.4564 24.4257 22.4577 24.4606 22.4363 24.4844C22.4304 24.487 22.4228 24.4939 22.4169 24.4966L22.4215 24.491Z" fill="#451717" stroke="#451717" stroke-width="0.28"/>
<path d="M25.1557 23.2802C25.1379 23.2881 25.1158 23.2944 25.0868 23.2931C24.711 23.2792 23.6421 21.9568 23.5194 21.8089C23.5015 21.7848 23.5032 21.7486 23.5272 21.7307C23.5513 21.7129 23.5846 21.7159 23.6054 21.7386C24.0472 22.2917 24.8451 23.1733 25.0874 23.1827C25.1062 23.185 25.1124 23.1751 25.1154 23.1738C25.3522 22.9154 26.6171 21.5417 26.6171 21.5417L26.6995 21.6151C26.6995 21.6151 25.4347 22.9889 25.1979 23.2472C25.1886 23.2584 25.1722 23.2693 25.1544 23.2772L25.1557 23.2802Z" fill="#451717" stroke="#451717" stroke-width="0.28"/>
<path d="M25.3959 19.7895C25.3752 19.7987 25.3491 19.7961 25.3326 19.775C24.5856 18.9597 23.6909 18.1 23.5452 18.14C23.3761 18.2472 22.5678 19.0978 22.1646 19.5333C22.1432 19.557 22.1083 19.5584 22.0845 19.5369C22.0608 19.5155 22.0594 19.4806 22.0808 19.4568C22.1283 19.4037 23.2581 18.1896 23.4854 18.0457C23.7187 17.8992 24.9128 19.1516 25.413 19.7001C25.4338 19.7229 25.4322 19.7591 25.4094 19.7799C25.4035 19.7826 25.3976 19.7852 25.3946 19.7865L25.3959 19.7895Z" fill="#451717" stroke="#451717" stroke-width="0.28"/>
<path d="M28.6223 18.7257C28.6015 18.7349 28.5785 18.731 28.5603 18.7142L27.1344 17.2842C27.1136 17.2615 27.1122 17.2266 27.135 17.2058C27.1577 17.185 27.1926 17.1836 27.2134 17.2064L28.6394 18.6363C28.6602 18.6591 28.6615 18.694 28.6388 18.7148C28.6329 18.7174 28.6282 18.723 28.6223 18.7257Z" fill="#451717" stroke="#451717" stroke-width="0.28"/>
<path d="M30.1954 18.2524C30.1746 18.2617 30.1515 18.2577 30.1334 18.2409C30.1126 18.2182 30.1112 18.1833 30.134 18.1625C30.5154 17.79 30.7024 17.4437 30.6738 17.172C30.6519 16.9472 30.4952 16.8429 30.4867 16.8396C30.4547 16.8076 28.3747 14.5955 27.847 14.3365C27.3592 14.0952 26.8003 15.1866 26.7941 15.1965C26.7812 15.2235 26.7473 15.2351 26.7202 15.2222C26.6932 15.2094 26.6816 15.1754 26.6945 15.1484C26.7185 15.0986 27.309 13.9506 27.8964 14.2399C28.4369 14.5038 30.4199 16.6098 30.5545 16.7525C30.5911 16.7788 30.7584 16.9069 30.7863 17.1611C30.8201 17.4765 30.6266 17.84 30.2145 18.2475C30.2086 18.2501 30.2039 18.2557 30.198 18.2584L30.1954 18.2524Z" fill="#451717" stroke="#451717" stroke-width="0.28"/>
<path d="M19.3357 17.5945C18.9946 17.7464 18.1987 16.7893 18.0403 16.5933C18.0225 16.5693 18.0241 16.533 18.0482 16.5152C18.0709 16.4944 18.1055 16.5003 18.1263 16.523C18.4969 16.98 19.0967 17.5765 19.2895 17.4907C19.2895 17.4907 19.2954 17.488 19.2984 17.4867C19.5327 17.3504 20.3419 16.3821 20.7374 15.8896C20.7559 15.8672 20.7925 15.8616 20.8149 15.88C20.8373 15.8985 20.84 15.9364 20.8245 15.9575C20.7768 16.0178 19.6672 17.3971 19.3568 17.578C19.3509 17.5806 19.345 17.5833 19.339 17.5859L19.3357 17.5945Z" fill="#451717" stroke="#451717" stroke-width="0.28"/>
<path d="M19.3695 14.2631C19.3487 14.2723 19.3257 14.2684 19.3088 14.2546C18.9694 13.9472 18.0091 13.1558 17.6471 13.1891C17.6062 13.1931 17.5809 13.2079 17.5595 13.2317C17.272 13.6156 16.3618 14.5009 16.3252 14.5385C16.3025 14.5593 16.2676 14.5606 16.2468 14.5379C16.226 14.5151 16.2246 14.4802 16.2474 14.4594C16.2579 14.4512 17.1895 13.5422 17.4694 13.1651C17.5066 13.113 17.5646 13.0836 17.6362 13.0767C18.1207 13.0314 19.3321 14.1233 19.381 14.1691C19.4047 14.1905 19.4061 14.2255 19.3847 14.2492C19.3801 14.2548 19.3712 14.2588 19.3652 14.2614L19.3695 14.2631Z" fill="#451717" stroke="#451717" stroke-width="0.28"/>
<path d="M23.7228 13.0883C23.6961 13.1002 23.6661 13.0887 23.6526 13.0663C23.6407 13.0396 23.6466 13.005 23.672 12.9901C24.0552 12.7732 25.02 12.1302 24.8548 11.7595C24.6408 11.279 22.7572 9.68326 22.739 9.66646C22.5084 9.45995 21.8516 8.93497 21.5592 8.97279C21.5154 8.9781 21.4841 8.99559 21.4624 9.0266C21.2134 9.39339 20.4112 10.0422 20.3766 10.0682C20.3525 10.086 20.3163 10.0844 20.2985 10.0604C20.2806 10.0363 20.2823 10.0001 20.3063 9.98224C20.3152 9.97828 21.1267 9.31829 21.3693 8.9614C21.4112 8.90368 21.4665 8.86836 21.544 8.85873C21.9458 8.81127 22.7749 9.54743 22.8111 9.58102C22.8897 9.64558 24.7311 11.2104 24.9544 11.7116C25.1895 12.2396 23.8751 12.9992 23.7245 13.084C23.7245 13.084 23.7215 13.0853 23.7185 13.0867L23.7228 13.0883Z" fill="#451717" stroke="#451717" stroke-width="0.28"/>
<path d="M15.1621 21.7743C15.1325 21.7875 15.1002 21.7948 15.0623 21.7974C14.6212 21.8126 13.7626 20.8586 13.7266 20.8177C13.7059 20.795 13.7075 20.7587 13.7302 20.738C13.7529 20.7172 13.7892 20.7188 13.81 20.7415C14.0495 21.008 14.7368 21.6972 15.0585 21.6854C15.105 21.686 15.1393 21.6672 15.167 21.6335C15.4663 21.2443 16.5993 20.2527 16.6477 20.2098C16.6704 20.189 16.7067 20.1907 16.7245 20.2147C16.7453 20.2374 16.7437 20.2737 16.7196 20.2915C16.7061 20.3011 15.5501 21.3207 15.257 21.7C15.2323 21.7324 15.2007 21.7571 15.1651 21.773L15.1621 21.7743Z" fill="#451717" stroke="#451717" stroke-width="0.28"/>
<path d="M15.6056 18.5805C15.5849 18.5897 15.5575 18.5841 15.5423 18.566C14.9665 17.8877 13.9609 16.8747 13.693 17.0474C13.3022 17.3032 12.4908 18.4181 12.4816 18.4293C12.4645 18.4547 12.4279 18.4603 12.4054 18.4419C12.38 18.4248 12.3744 18.3882 12.3929 18.3657C12.4255 18.3192 13.2244 17.2241 13.6316 16.9574C14.057 16.6755 15.3686 18.192 15.6283 18.4957C15.6491 18.5184 15.6445 18.556 15.6205 18.5738C15.6145 18.5765 15.6116 18.5778 15.6056 18.5805Z" fill="#451717" stroke="#451717" stroke-width="0.28"/>
</g>
<defs>
<clipPath id="clip0_233_1728">
<rect width="51.1" height="49.35" fill="white" transform="translate(0.878906 0.824997)"/>
</clipPath>
</defs>
</svg>
