<svg width="166" height="142" viewBox="0 0 166 142" fill="none" xmlns="http://www.w3.org/2000/svg">
<g clip-path="url(#clip0_21_280)">
<path fill-rule="evenodd" clip-rule="evenodd" d="M98.5423 1.37583C75.6272 4.53919 66.6772 10.1201 49.1372 23.648C30.3885 38.076 18.7895 29.3832 4.05286 65.0803C-6.77459 91.3131 11.9998 124.747 32.9603 133.363C51.3747 140.95 66.9086 137.735 82.5197 140.461C110.013 145.219 156.512 116.08 163.61 87.9954C172.637 52.1954 139.692 -4.33366 98.5423 1.37583Z" fill="#886239"/>
<path d="M93.1917 95.3146H71.9721C71.6029 95.3146 71.2817 95.0677 71.1856 94.715L64.1317 68.6868C64.066 68.4424 64.1166 68.1829 64.2708 67.9814C64.4251 67.7824 64.6629 67.6639 64.9183 67.6639H99.4084C99.6588 67.6639 99.894 67.7773 100.048 67.9738C100.203 68.1703 100.258 68.4248 100.2 68.6667L96.4973 83.7983C96.3911 84.2342 95.951 84.5012 95.5135 84.3929C95.0759 84.2871 94.8079 83.8487 94.9166 83.4128L98.374 69.2839H65.9831L72.5968 93.6896H92.5493L94.0719 87.3104C94.1629 86.9274 94.517 86.6629 94.9141 86.6881C95.0228 86.6956 105.86 87.2625 108.936 80.7548C109.968 78.5705 109.968 76.298 108.936 74.6805C108.258 73.6173 107.203 73.0076 106.042 73.0076C104.335 73.0076 101.333 73.5947 100.41 77.5275C100.309 77.9633 99.8712 78.2329 99.4311 78.1321C98.9936 78.0314 98.7205 77.5955 98.8241 77.1571C100.079 71.7983 104.666 71.3826 106.04 71.3826C107.77 71.3826 109.328 72.2669 110.309 73.8088C111.642 75.8999 111.677 78.7544 110.408 81.4427C107.315 87.9931 98.1236 88.3635 95.5034 88.3282L93.9834 94.6872C93.8974 95.0526 93.5686 95.3095 93.1917 95.3095V95.3146Z" fill="white" stroke="white" stroke-width="0.6"/>
<path d="M84.15 106.975C54.1416 106.975 48.1576 97.6101 47.9173 97.2121C47.7656 96.9626 47.7631 96.6502 47.9072 96.3958C48.0514 96.1413 48.322 95.9851 48.6154 95.9851H107.438C107.889 95.9851 108.253 96.3479 108.253 96.7964C108.253 97.2448 107.889 97.6076 107.438 97.6076H50.4718C53.2665 100.067 61.8732 105.355 84.15 105.355C108.673 105.355 116.688 96.3605 116.766 96.2698C117.057 95.9297 117.57 95.8894 117.912 96.1791C118.253 96.4688 118.296 96.9778 118.008 97.3179C117.674 97.7134 109.528 106.975 84.15 106.975Z" fill="white" stroke="white" stroke-width="0.6"/>
<path d="M81.5374 65.7468C81.0872 65.7468 80.723 65.384 80.723 64.9356C80.723 63.1417 81.6664 62.202 82.4226 61.4487C83.1055 60.7659 83.6467 60.2293 83.6467 59.1056C83.6467 57.982 83.1055 57.4453 82.4226 56.7626C81.6664 56.0067 80.723 55.067 80.723 53.2757C80.723 51.4844 81.6664 50.5421 82.4226 49.7863C83.1055 49.106 83.6467 48.5669 83.6467 47.4457C83.6467 46.3246 83.1055 45.7854 82.4226 45.1027C81.6664 44.3469 80.723 43.4071 80.723 41.6133C80.723 39.8195 81.6664 38.8797 82.4226 38.1264C83.1055 37.4436 83.6467 36.907 83.6467 35.7859C83.6467 35.3374 84.0109 34.9746 84.4611 34.9746C84.9113 34.9746 85.2755 35.3374 85.2755 35.7859C85.2755 37.5797 84.3321 38.5194 83.5759 39.2727C82.893 39.9555 82.3518 40.4921 82.3518 41.6133C82.3518 42.7344 82.893 43.2736 83.5759 43.9563C84.3321 44.7122 85.2755 45.6519 85.2755 47.4457C85.2755 49.2396 84.3321 50.1793 83.5759 50.9326C82.893 51.6154 82.3518 52.152 82.3518 53.2757C82.3518 54.3993 82.893 54.936 83.5759 55.6162C84.3321 56.372 85.2755 57.3118 85.2755 59.1056C85.2755 60.8994 84.3321 61.8392 83.5759 62.595C82.893 63.2778 82.3518 63.8144 82.3518 64.9356C82.3518 65.384 81.9876 65.7468 81.5374 65.7468Z" fill="white" stroke="white" stroke-width="0.6"/>
<path d="M75.1791 65.747C74.7289 65.747 74.3647 65.3842 74.3647 64.9357C74.3647 63.1419 75.3081 62.2021 76.0643 61.4488C76.7472 60.7661 77.2884 60.2294 77.2884 59.1058C77.2884 57.9821 76.7472 57.4455 76.0643 56.7627C75.3055 56.0069 74.3647 55.0671 74.3647 53.2758C74.3647 51.4845 75.3081 50.5423 76.0643 49.7864C76.7472 49.1062 77.2884 48.567 77.2884 47.4459C77.2884 46.9974 77.6526 46.6346 78.1028 46.6346C78.553 46.6346 78.9172 46.9974 78.9172 47.4459C78.9172 49.2397 77.9738 50.1795 77.2176 50.9328C76.5347 51.6155 75.9935 52.1522 75.9935 53.2758C75.9935 54.3995 76.5347 54.9361 77.2176 55.6164C77.9763 56.3722 78.9172 57.3119 78.9172 59.1058C78.9172 60.8996 77.9738 61.8393 77.2176 62.5952C76.5347 63.2779 75.9935 63.8146 75.9935 64.9357C75.9935 65.3842 75.6293 65.747 75.1791 65.747Z" fill="white" stroke="white" stroke-width="0.6"/>
<path d="M87.8982 65.747C87.448 65.747 87.0838 65.3842 87.0838 64.9357C87.0838 63.1419 88.0272 62.2021 88.7834 61.4488C89.4663 60.7661 90.0075 60.2294 90.0075 59.1058C90.0075 57.9821 89.4663 57.4455 88.7834 56.7627C88.0272 56.0069 87.0838 55.0671 87.0838 53.2758C87.0838 51.4845 88.0272 50.5423 88.7834 49.7864C89.4663 49.1062 90.0075 48.567 90.0075 47.4459C90.0075 46.9974 90.3717 46.6346 90.8219 46.6346C91.2721 46.6346 91.6363 46.9974 91.6363 47.4459C91.6363 49.2397 90.6929 50.1795 89.9367 50.9328C89.2538 51.6155 88.7126 52.1522 88.7126 53.2758C88.7126 54.3995 89.2513 54.9361 89.9367 55.6164C90.6954 56.3722 91.6363 57.3119 91.6363 59.1058C91.6363 60.8996 90.6929 61.8393 89.9367 62.5952C89.2538 63.2779 88.7126 63.8146 88.7126 64.9357C88.7126 65.3842 88.3484 65.747 87.8982 65.747Z" fill="white" stroke="white" stroke-width="0.6"/>
</g>
<defs>
<clipPath id="clip0_21_280">
<rect width="166" height="141" fill="white" transform="translate(0 0.737305)"/>
</clipPath>
</defs>
</svg>
