<svg width="51" height="51" viewBox="0 0 51 51" fill="none" xmlns="http://www.w3.org/2000/svg">
<g clip-path="url(#clip0_233_1676)">
<path fill-rule="evenodd" clip-rule="evenodd" d="M1.29044 31.0391C4.1531 36.7644 6.53449 38.5982 11.9528 41.9338C17.7362 45.5017 16.2011 49.3767 27.8177 49.8994C36.3559 50.2894 49.315 37.3535 50.0452 31.0391C50.6841 25.4881 48.4355 21.7044 47.9045 17.3482C46.9585 9.67293 34.5371 0.180555 25.7749 0.952226C14.6147 1.93134 -3.84574 20.7585 1.29874 31.0391" fill="#FECE05"/>
<path d="M19.041 34.5842C21.6791 34.5941 24.4288 34.0718 26.7569 32.7844C28.5958 31.7667 30.1965 30.3224 31.417 28.6043C32.6108 26.926 33.5016 24.9545 33.7133 22.8845C33.9304 20.753 33.4031 18.6249 32.1241 16.8965C30.7004 14.972 28.5067 13.6665 26.1451 13.3339C23.8345 13.0091 21.446 13.587 19.4171 14.7023C17.3548 15.8362 15.5452 17.4484 14.2118 19.3988C13.5295 20.3968 12.9856 21.4816 12.3516 22.5096C11.7027 23.5615 10.963 24.4874 10.066 25.3341C9.1259 26.2225 8.20228 27.2442 8.10271 28.6079C8.00793 29.9049 8.58475 31.0476 9.51965 31.9137C10.4346 32.7611 11.6302 33.2572 12.8054 33.6139C14.1352 34.0168 15.4916 34.3169 16.8722 34.4663C17.5937 34.5442 18.3161 34.5759 19.041 34.5842C19.4921 34.5885 19.8195 34.0649 19.7721 33.656C19.7145 33.1592 19.3002 32.924 18.848 32.9198C17.6021 32.9069 16.353 32.7495 15.1333 32.4955C13.9982 32.2599 12.848 31.9569 11.8009 31.4457C10.9428 31.026 10.0944 30.3753 9.81756 29.4445C9.72713 29.1413 9.7266 28.7228 9.82824 28.3848C9.98528 27.8589 10.3279 27.4311 10.6998 27.0397C11.1051 26.613 11.5565 26.2323 11.9654 25.8094C12.3603 25.4007 12.7155 24.9556 13.0434 24.4907C13.7322 23.5129 14.3036 22.4585 14.9048 21.4269C15.94 19.6485 17.3026 18.1122 18.9858 16.93C20.6555 15.7577 22.5824 14.9952 24.6156 14.9242C26.604 14.8542 28.6358 15.6351 30.0764 17.0668C31.3897 18.3715 32.0603 19.9994 32.1024 21.802C32.1078 22.0195 32.1074 22.0521 32.0904 22.31C32.0752 22.5394 32.0517 22.7687 32.0187 22.997C31.9609 23.3981 31.8413 23.9501 31.7521 24.2426C31.4853 25.1264 31.1013 25.9796 30.6319 26.7715C29.7228 28.3056 28.426 29.6895 26.9253 30.7278C26.5506 30.9863 26.2313 31.1838 25.8881 31.3631C25.4061 31.6151 24.9032 31.8297 24.393 32.0179C23.2156 32.4523 21.9899 32.7129 20.7421 32.8366C20.112 32.8991 19.4796 32.9242 18.8462 32.9221C18.3955 32.9208 18.0674 33.4382 18.1151 33.8502C18.1724 34.3439 18.5874 34.5853 19.0392 34.5865L19.041 34.5842Z" fill="#451717"/>
<path d="M19.041 34.5842C21.6791 34.5941 24.4288 34.0718 26.7569 32.7844C28.5958 31.7667 30.1965 30.3224 31.417 28.6043C32.6108 26.926 33.5016 24.9545 33.7133 22.8845C33.9304 20.753 33.4031 18.6249 32.1241 16.8965C30.7004 14.972 28.5067 13.6665 26.1451 13.3339C23.8345 13.0091 21.446 13.587 19.4171 14.7023C17.3548 15.8362 15.5452 17.4484 14.2118 19.3988C13.5295 20.3968 12.9856 21.4816 12.3516 22.5096C11.7027 23.5615 10.963 24.4874 10.066 25.3341C9.1259 26.2225 8.20228 27.2442 8.10271 28.6079C8.00793 29.9049 8.58475 31.0476 9.51965 31.9137C10.4346 32.7611 11.6302 33.2572 12.8054 33.6139C14.1352 34.0168 15.4916 34.3169 16.8722 34.4663C17.5937 34.5442 18.3161 34.5759 19.041 34.5842ZM19.041 34.5842C19.4921 34.5885 19.8195 34.0649 19.7721 33.656C19.7145 33.1592 19.3002 32.924 18.848 32.9198C17.6021 32.9069 16.353 32.7495 15.1333 32.4955C13.9982 32.2599 12.848 31.9569 11.8009 31.4457C10.9428 31.026 10.0944 30.3753 9.81756 29.4445C9.72713 29.1413 9.7266 28.7228 9.82824 28.3848C9.98528 27.8589 10.3279 27.4311 10.6998 27.0397C11.1051 26.613 11.5565 26.2323 11.9654 25.8094C12.3603 25.4007 12.7155 24.9556 13.0434 24.4907C13.7322 23.5129 14.3036 22.4585 14.9048 21.4269C15.94 19.6485 17.3026 18.1122 18.9858 16.93C20.6555 15.7577 22.5824 14.9952 24.6156 14.9242C26.604 14.8542 28.6358 15.6351 30.0764 17.0668C31.3897 18.3715 32.0603 19.9994 32.1024 21.802C32.1078 22.0195 32.1074 22.0521 32.0904 22.31C32.0752 22.5394 32.0517 22.7687 32.0187 22.997C31.9609 23.3981 31.8413 23.9501 31.7521 24.2426C31.4853 25.1264 31.1013 25.9796 30.6319 26.7715C29.7228 28.3056 28.426 29.6895 26.9253 30.7278C26.5506 30.9863 26.2313 31.1838 25.8881 31.3631C25.4061 31.6151 24.9032 31.8297 24.393 32.0179C23.2156 32.4523 21.9899 32.7129 20.7421 32.8366C20.112 32.8991 19.4796 32.9242 18.8462 32.9221C18.3955 32.9208 18.0674 33.4382 18.1152 33.8502C18.1724 34.3439 18.5874 34.5853 19.0392 34.5865L19.041 34.5842Z" stroke="#FECE05" stroke-width="0.7"/>
<path d="M31.7434 11.4513C31.7034 11.6374 31.6592 11.823 31.6095 12.006C31.5978 12.0493 31.5851 12.0927 31.5735 12.1361C31.5414 12.2552 31.6155 12.0042 31.5769 12.121C31.5492 12.206 31.5238 12.2929 31.4961 12.3779C31.3765 12.7411 31.2375 13.0981 31.0809 13.4477C30.9284 13.7885 30.7594 14.1207 30.5736 14.4443C30.5511 14.4836 30.5275 14.5231 30.5049 14.5624C30.5404 14.4996 30.5559 14.4799 30.5091 14.5535C30.4617 14.6304 30.4132 14.7073 30.3638 14.7844C30.2523 14.9567 30.1361 15.1244 30.0166 15.2904C29.7605 15.6452 29.7782 16.1939 30.1531 16.4672C30.5063 16.7252 31.0502 16.7105 31.3234 16.3316C32.3238 14.9463 33.0271 13.3826 33.3901 11.7094C33.4834 11.2811 33.1219 10.7995 32.693 10.7527C32.2207 10.7005 31.8415 10.9931 31.7425 11.4525L31.7434 11.4513Z" fill="#451717"/>
<path d="M36.4698 13.2996C35.0456 13.0615 32.96 13.3134 32.0953 13.4691C32.6002 14.4971 34.1774 16.6307 36.4472 16.9414C38.7171 17.2522 41.0079 16.884 41.8696 16.6611C40.6631 15.6398 37.8939 13.5376 36.4698 13.2996Z" fill="#451717" stroke="#FECE05" stroke-width="0.7"/>
<path d="M42.8542 30.9433C42.8542 36.6278 38.2457 41.2386 32.559 41.2386C26.8722 41.2386 22.2637 36.6301 22.2637 30.9433C22.2637 25.2566 26.8722 20.6481 32.559 20.6481C38.2458 20.6481 42.8542 25.2566 42.8542 30.9433Z" fill="#FECE05" stroke="#451717" stroke-width="0.63"/>
<path d="M41.8574 30.9433C41.8574 36.0771 37.6951 40.2394 32.5613 40.2394C27.4275 40.2394 23.2652 36.0771 23.2652 30.9433C23.2652 25.8095 27.4275 21.6472 32.5613 21.6472C37.6951 21.6472 41.8574 25.8095 41.8574 30.9433Z" fill="#FECE05" stroke="#451717" stroke-width="0.525"/>
<path d="M41.0923 30.9433C41.0923 35.6556 37.2713 39.4765 32.5591 39.4765C27.8469 39.4765 24.0259 35.6556 24.0259 30.9433C24.0259 26.2311 27.8469 22.4101 32.5591 22.4101C37.2713 22.4101 41.0923 26.2311 41.0923 30.9433Z" fill="#FECE05" stroke="#451717" stroke-width="0.525"/>
<path d="M27.1417 27.8821L27.1026 27.8522C26.9888 27.7516 26.8918 27.6009 26.8127 27.4097C26.7256 27.1991 26.6678 26.9579 26.6303 26.7241C26.593 26.4915 26.577 26.274 26.5705 26.1141C26.5696 26.0927 26.5689 26.0723 26.5683 26.0531C26.5869 26.0486 26.6066 26.0438 26.6275 26.039C26.7831 26.0026 26.9969 25.9599 27.2308 25.9337C27.4659 25.9074 27.7137 25.8987 27.9398 25.9264C28.1681 25.9544 28.354 26.017 28.4847 26.1164C28.7987 26.355 28.9418 26.6286 28.9713 26.8895C29.0012 27.1535 28.9182 27.4351 28.7233 27.6914C28.5287 27.9474 28.279 28.1026 28.016 28.1443C27.7561 28.1855 27.4543 28.1205 27.1417 27.8821ZM26.3816 26.1033C26.3815 26.1033 26.3815 26.1033 26.3816 26.1033L26.3816 26.1033Z" fill="#FECE05" stroke="#451717" stroke-width="0.525"/>
<path d="M27.563 27.6323C27.2751 27.4131 27.2195 27.0027 27.4387 26.7148C27.6579 26.4269 28.0683 26.3713 28.3562 26.5905C28.6441 26.8097 28.6997 27.2201 28.4805 27.508C28.2613 27.7959 27.8509 27.8514 27.563 27.6323Z" fill="#FECE05" stroke="#451717" stroke-width="0.525"/>
<path d="M25.7618 30.4721C25.7476 30.4561 25.7342 30.4409 25.7216 30.4265C25.733 30.4112 25.7452 30.395 25.7582 30.378C25.8554 30.251 25.9934 30.0822 26.1575 29.9134C26.3224 29.7437 26.5082 29.5796 26.7005 29.4574C26.8946 29.334 27.078 29.2643 27.2421 29.2582C27.6364 29.2433 27.921 29.3638 28.1098 29.5467C28.3008 29.7317 28.4154 30.0017 28.4271 30.3228L28.4271 30.3236C28.4397 30.6459 28.3456 30.9242 28.1691 31.123C27.9946 31.3196 27.7198 31.4612 27.3254 31.476L27.3254 31.4761C27.1618 31.4817 26.9743 31.426 26.7722 31.3182C26.571 31.211 26.3731 31.0615 26.1956 30.9049C26.019 30.749 25.8685 30.5913 25.7618 30.4721Z" fill="#FECE05" stroke="#451717" stroke-width="0.525"/>
<path d="M27.4954 31.0155C27.1331 31.0286 26.8295 30.7468 26.8164 30.3862C26.8033 30.0239 27.0851 29.7203 27.4457 29.7072C27.808 29.6941 28.1116 29.9759 28.1247 30.3365C28.1378 30.6988 27.856 31.0024 27.4954 31.0155Z" fill="#FECE05" stroke="#451717" stroke-width="0.525"/>
<path d="M26.5272 34.564C26.534 34.5461 26.5412 34.527 26.549 34.507C26.6068 34.3579 26.6921 34.1572 26.8025 33.9492C26.9135 33.7401 27.0461 33.5305 27.1966 33.3593C27.3485 33.1864 27.5053 33.0681 27.6612 33.0161C28.0357 32.8912 28.3424 32.9271 28.5746 33.0496C28.8095 33.1736 28.9956 33.401 29.098 33.7072C29.2003 34.0131 29.188 34.3068 29.0744 34.547C28.9622 34.7844 28.7383 34.9968 28.3641 35.1206L28.3175 35.136C28.1693 35.1745 27.9886 35.17 27.7841 35.1271C27.5612 35.0803 27.3295 34.992 27.1156 34.8912C26.9027 34.7909 26.7142 34.6814 26.5787 34.5966C26.5605 34.5853 26.5434 34.5744 26.5272 34.564Z" fill="#FECE05" stroke="#451717" stroke-width="0.525"/>
<path d="M28.3911 34.6328C28.0483 34.747 27.6786 34.5612 27.5638 34.2189C27.4497 33.8761 27.6355 33.5065 27.9777 33.3918C28.3204 33.2776 28.6901 33.4635 28.8048 33.8056C28.9193 34.1492 28.7347 34.5182 28.3911 34.6328Z" fill="#FECE05" stroke="#451717" stroke-width="0.525"/>
<path d="M29.7484 38.1204C29.7269 38.1194 29.7066 38.1183 29.6875 38.1171C29.6846 38.0982 29.6816 38.078 29.6787 38.0568C29.6564 37.8984 29.633 37.6816 29.6278 37.4461C29.6226 37.2095 29.6361 36.9618 29.6838 36.739C29.732 36.5141 29.8109 36.3345 29.9213 36.2133C30.1867 35.9222 30.4721 35.8038 30.7349 35.7975C31.0008 35.791 31.274 35.8987 31.5115 36.1157C31.7493 36.333 31.8816 36.5954 31.8998 36.8606C31.9178 37.1228 31.8264 37.4175 31.561 37.7086L31.5295 37.7432C31.4191 37.849 31.2593 37.9332 31.0598 37.9954C30.8424 38.0633 30.5971 38.0992 30.3611 38.1156C30.1262 38.1319 29.9081 38.1283 29.7484 38.1204Z" fill="#FECE05" stroke="#451717" stroke-width="0.525"/>
<path d="M31.3055 36.3428C31.5718 36.5865 31.5916 37.0002 31.3479 37.2688C31.1042 37.5351 30.6905 37.5549 30.4219 37.3111C30.1556 37.0674 30.1359 36.6538 30.3796 36.3852C30.6233 36.1189 31.037 36.0991 31.3055 36.3428Z" fill="#FECE05" stroke="#451717" stroke-width="0.525"/>
<path d="M35.3494 38.2748C35.3328 38.2651 35.3153 38.2548 35.2969 38.2438C35.1594 38.1619 34.9757 38.0441 34.7889 37.9005C34.6012 37.7561 34.4166 37.5903 34.2729 37.4134C34.1278 37.2348 34.0374 37.0608 34.0122 36.8989C33.9518 36.5099 34.0385 36.2132 34.1984 36.0041C34.3603 35.7926 34.6157 35.6467 34.9343 35.5971C35.2526 35.5474 35.5398 35.6089 35.7578 35.7613C35.9698 35.9095 36.14 36.1602 36.203 36.5386V36.5402L36.2061 36.5602C36.2313 36.7221 36.1978 36.9152 36.1137 37.1292C36.0304 37.3411 35.9048 37.5548 35.7697 37.749C35.6353 37.9423 35.496 38.11 35.3899 38.2296C35.3757 38.2455 35.3622 38.2606 35.3494 38.2748Z" fill="#FECE05" stroke="#451717" stroke-width="0.525"/>
<path d="M35.7273 36.4504C35.7828 36.8063 35.5375 37.142 35.181 37.1977C34.8251 37.2532 34.4894 37.0079 34.4337 36.6515C34.3781 36.2934 34.6232 35.9597 34.98 35.9041L34.9396 35.6447L34.9798 35.9041C35.3379 35.8485 35.6716 36.0936 35.7273 36.4504Z" fill="#FECE05" stroke="#451717" stroke-width="0.525"/>
<path d="M34.1727 33.357C34.2855 33.5941 34.309 33.9014 34.1702 34.2688L34.1694 34.2687C34.1114 34.4218 33.9869 34.5733 33.8079 34.7179C33.6307 34.8611 33.4157 34.985 33.2021 35.0872C32.9895 35.1889 32.7854 35.2659 32.6339 35.3176C32.6136 35.3245 32.5943 35.3309 32.5761 35.3369C32.5665 35.3204 32.5564 35.3029 32.5459 35.2844C32.467 35.1453 32.3656 34.9523 32.2743 34.7353C32.1826 34.5172 32.1041 34.282 32.0666 34.0573C32.0288 33.8304 32.0361 33.6343 32.0942 33.481C32.2338 33.1128 32.4557 32.8977 32.698 32.7952C32.9431 32.6915 33.2369 32.6912 33.5376 32.8061C33.8388 32.9211 34.0583 33.1167 34.1727 33.357ZM32.6771 35.5021C32.6771 35.5021 32.6771 35.5021 32.6771 35.5021L32.6771 35.5021Z" fill="#FECE05" stroke="#451717" stroke-width="0.525"/>
<path d="M33.8102 33.9309L33.7969 33.9654C33.6565 34.2835 33.2918 34.4385 32.9644 34.3135C32.6262 34.1844 32.4569 33.807 32.5846 33.4673C32.714 33.1293 33.0915 32.9603 33.4312 33.0883C33.7692 33.2157 33.939 33.5949 33.8102 33.9309Z" fill="#FECE05" stroke="#451717" stroke-width="0.525"/>
<path d="M31.844 30.973L31.8442 30.9733C32.0246 31.2404 32.0918 31.5265 32.0473 31.7886C32.0033 32.0475 31.8453 32.3127 31.5185 32.5335C31.3824 32.6255 31.1932 32.6776 30.9636 32.6928C30.7363 32.7079 30.4893 32.6853 30.256 32.646C30.0238 32.6068 29.8127 32.5522 29.6592 32.5072C29.6387 32.5011 29.6192 32.4953 29.6009 32.4897C29.6025 32.4706 29.6044 32.4503 29.6064 32.4289C29.6218 32.2696 29.6499 32.0533 29.7001 31.8232C29.7505 31.5919 29.8217 31.3542 29.9204 31.1488C30.0201 30.9414 30.139 30.7853 30.275 30.6934C30.602 30.4724 30.9073 30.4243 31.164 30.4799C31.4236 30.5361 31.6638 30.7051 31.844 30.973Z" fill="#FECE05" stroke="#451717" stroke-width="0.525"/>
<path d="M31.451 32.0306L31.4152 32.0549C31.1163 32.2574 30.7093 32.1793 30.5063 31.878L30.5059 31.8775C30.3033 31.5785 30.3815 31.1715 30.6827 30.9685L30.6827 30.9685L30.6833 30.9682C30.9822 30.7656 31.3892 30.8437 31.5922 31.145L31.5926 31.1455C31.7875 31.4332 31.7225 31.8208 31.451 32.0306Z" fill="#FECE05" stroke="#451717" stroke-width="0.525"/>
<path d="M30.6996 29.3122L30.699 29.3121C30.5388 29.2775 30.3704 29.1769 30.2008 29.0215C30.0328 28.8675 29.8783 28.6734 29.7454 28.4774C29.6131 28.2823 29.5066 28.0919 29.433 27.9497C29.4231 27.9307 29.4139 27.9126 29.4053 27.8955C29.4202 27.8836 29.436 27.871 29.4528 27.8578C29.5787 27.759 29.7546 27.63 29.9557 27.5074C30.1579 27.3841 30.3789 27.2715 30.5957 27.2009C30.8146 27.1297 31.0097 27.1077 31.1701 27.1423C31.5553 27.2255 31.8006 27.4127 31.9379 27.6368C32.0768 27.8637 32.1209 28.1547 32.0527 28.4707C31.9845 28.7852 31.8241 29.0315 31.6036 29.1804C31.3857 29.3276 31.0847 29.3963 30.6996 29.3122Z" fill="#FECE05" stroke="#451717" stroke-width="0.525"/>
<path d="M30.9744 28.9066C30.621 28.8297 30.3971 28.4814 30.4739 28.1283C30.5508 27.775 30.8991 27.5511 31.2522 27.6279C31.6056 27.7048 31.8295 28.0531 31.7526 28.4062C31.6757 28.7596 31.3275 28.9834 30.9744 28.9066Z" fill="#FECE05" stroke="#451717" stroke-width="0.525"/>
<path d="M29.874 24.995L29.8407 24.94C29.7764 24.8063 29.7438 24.6352 29.7408 24.435C29.7373 24.2072 29.7724 23.9617 29.8236 23.7307C29.8746 23.5008 29.9399 23.2928 29.9927 23.1418C29.9998 23.1216 30.0066 23.1025 30.0131 23.0845C30.0321 23.0871 30.0523 23.09 30.0735 23.0932C30.2318 23.1168 30.4464 23.1559 30.6738 23.2177C30.9023 23.2799 31.136 23.363 31.3363 23.472C31.5383 23.5819 31.6882 23.7083 31.7731 23.8483C31.9771 24.1861 32.0095 24.4932 31.941 24.7466C31.8717 25.0031 31.6909 25.2343 31.4152 25.4009C31.1395 25.5675 30.8506 25.6199 30.5913 25.5619C30.3349 25.5045 30.0781 25.3328 29.874 24.995Z" fill="#FECE05" stroke="#451717" stroke-width="0.525"/>
<path d="M30.3551 24.9171C30.1688 24.6079 30.2667 24.2057 30.5778 24.0174C30.8869 23.831 31.2891 23.929 31.4775 24.24C31.6634 24.5484 31.5644 24.9514 31.2541 25.1401C30.9463 25.3274 30.5441 25.2291 30.3551 24.9171Z" fill="#FECE05" stroke="#451717" stroke-width="0.525"/>
<path d="M34.6641 23.6073C34.6821 23.5957 34.6992 23.5847 34.7154 23.5745C34.7288 23.5882 34.7429 23.6028 34.7577 23.6182C34.8682 23.7338 35.0138 23.8962 35.1554 24.0843C35.2977 24.2733 35.4313 24.4822 35.5225 24.6909C35.6147 24.9016 35.6554 25.0934 35.6365 25.2561C35.591 25.6471 35.4282 25.9099 35.2183 26.0686C35.006 26.229 34.7213 26.301 34.4023 26.263L34.4015 26.2629C34.0824 26.226 33.8218 26.0903 33.6523 25.8853C33.4848 25.6828 33.3872 25.3898 33.4337 24.999L33.4405 24.9423C33.4702 24.7953 33.5499 24.6377 33.6724 24.4748C33.8093 24.2928 33.9874 24.1203 34.1695 23.9692C34.3507 23.8187 34.5299 23.6943 34.6641 23.6073ZM34.5772 23.4391C34.5771 23.4391 34.5771 23.4391 34.5772 23.4391L34.5772 23.4391Z" fill="#FECE05" stroke="#451717" stroke-width="0.525"/>
<path d="M33.8621 25.2349L33.8621 25.2348C33.9047 24.8742 34.2306 24.6181 34.5878 24.6605L34.5879 24.6605C34.9488 24.7031 35.2047 25.027 35.1622 25.3863C35.1197 25.7439 34.7942 26.0011 34.4359 25.9605C34.0756 25.9176 33.8197 25.5919 33.8621 25.2349Z" fill="#FECE05" stroke="#451717" stroke-width="0.525"/>
<path d="M36.1644 27.2977C36.1745 27.0515 36.2833 26.7872 36.54 26.5405L36.5956 26.4914C36.7183 26.3832 36.899 26.3073 37.1247 26.2629C37.3483 26.2189 37.5962 26.2095 37.8329 26.2187C38.0684 26.2278 38.2849 26.2548 38.4431 26.2797C38.4642 26.2831 38.4843 26.2863 38.5032 26.2895C38.504 26.3087 38.5047 26.329 38.5054 26.3504C38.5104 26.5104 38.5101 26.7287 38.4896 26.9634C38.469 27.1994 38.4287 27.4442 38.3569 27.6605C38.2844 27.879 38.1863 28.0489 38.0631 28.1572L38.0628 28.1575C37.7678 28.4178 37.4714 28.5046 37.2092 28.4823C36.9439 28.4597 36.6834 28.3227 36.4701 28.0802L36.4698 28.0798C36.2565 27.8383 36.1535 27.5633 36.1644 27.2977Z" fill="#FECE05" stroke="#451717" stroke-width="0.525"/>
<path d="M36.758 26.9545C37.0296 26.7156 37.4434 26.742 37.682 27.0132C37.9209 27.2849 37.8945 27.6987 37.6233 27.9373C37.3516 28.1762 36.9378 28.1498 36.6992 27.8785C36.4603 27.6069 36.4867 27.1931 36.758 26.9545Z" fill="#FECE05" stroke="#451717" stroke-width="0.525"/>
<path d="M39.4229 34.8615C39.4132 34.8451 39.4029 34.8276 39.3919 34.8093C39.3095 34.6721 39.1912 34.4887 39.047 34.3023C38.9021 34.115 38.7358 33.9309 38.5585 33.7877C38.3795 33.643 38.2053 33.553 38.0434 33.5283C37.6542 33.4689 37.3581 33.556 37.1498 33.7161C36.9391 33.878 36.7943 34.1333 36.7456 34.4518C36.6969 34.7703 36.7588 35.0576 36.9115 35.2755C37.0624 35.4908 37.3189 35.6626 37.7078 35.722L39.4229 34.8615ZM39.4229 34.8615C39.4088 34.8743 39.3938 34.8879 39.3779 34.902C39.2585 35.0084 39.091 35.148 38.8979 35.2828C38.7038 35.4183 38.4901 35.5444 38.2781 35.6282C38.064 35.7128 37.8705 35.7467 37.7079 35.722L39.4229 34.8615Z" fill="#FECE05" stroke="#451717" stroke-width="0.525"/>
<path d="M37.7928 33.9497L37.7941 33.9499C38.1508 34.0037 38.3954 34.3381 38.3413 34.6958L38.3412 34.696C38.2875 35.0527 37.9531 35.2973 37.5953 35.2431C37.2402 35.1894 36.994 34.8544 37.048 34.4972L37.0481 34.497C37.102 34.1393 37.437 33.8942 37.7928 33.9497Z" fill="#FECE05" stroke="#451717" stroke-width="0.525"/>
<path d="M39.4229 31.1843C39.4132 31.1678 39.4029 31.1504 39.3919 31.1321C39.3095 30.9948 39.1912 30.8115 39.047 30.6251C38.9021 30.4378 38.7358 30.2536 38.5585 30.1104C38.3795 29.9657 38.2053 29.8757 38.0434 29.851C37.6542 29.7916 37.3581 29.8787 37.1498 30.0388C36.9391 30.2007 36.7943 30.456 36.7456 30.7745C36.6969 31.093 36.7588 31.3804 36.9115 31.5983C37.0624 31.8136 37.3189 31.9853 37.7078 32.0447L39.4229 31.1843ZM39.4229 31.1843C39.4088 31.1971 39.3938 31.2106 39.3779 31.2247C39.2585 31.3311 39.091 31.4708 38.8979 31.6056C38.7038 31.741 38.4901 31.8671 38.2781 31.9509C38.064 32.0355 37.8705 32.0695 37.7079 32.0448L39.4229 31.1843Z" fill="#FECE05" stroke="#451717" stroke-width="0.525"/>
<path d="M37.7419 30.2646L37.793 30.2725C38.1516 30.3282 38.3953 30.6618 38.3413 31.0186C38.2875 31.3736 37.9525 31.6199 37.5953 31.5658C37.2402 31.5121 36.994 31.1771 37.048 30.8199L37.0481 30.8197C37.0993 30.4796 37.4051 30.2406 37.7419 30.2646Z" fill="#FECE05" stroke="#451717" stroke-width="0.525"/>
<path d="M33.4411 30.9365L33.4406 30.9361C33.1874 30.7375 33.0359 30.4856 32.9983 30.222C32.961 29.9615 33.0306 29.6604 33.2741 29.3505C33.3756 29.2214 33.5398 29.1139 33.7537 29.0292C33.9656 28.9454 34.2075 28.8912 34.4417 28.8573C34.6747 28.8235 34.8923 28.8108 35.0522 28.8067C35.0735 28.8061 35.0937 28.8057 35.1128 28.8054C35.1171 28.8241 35.1215 28.8439 35.1261 28.8648C35.16 29.0212 35.1994 29.2358 35.2219 29.4703C35.2445 29.706 35.2493 29.954 35.2181 30.1797C35.1865 30.4076 35.121 30.5926 35.0196 30.7215C34.7758 31.0318 34.4998 31.1712 34.2385 31.197C33.9742 31.2231 33.6941 31.1361 33.4411 30.9365Z" fill="#FECE05" stroke="#451717" stroke-width="0.525"/>
<path d="M33.5198 29.7761C33.7414 29.4926 34.1533 29.4425 34.4386 29.6652C34.7232 29.8896 34.7721 30.2999 34.5496 30.5846C34.328 30.8681 33.9161 30.9182 33.6308 30.6955C33.3462 30.4711 33.2973 30.0608 33.5198 29.7761Z" fill="#FECE05" stroke="#451717" stroke-width="0.525"/>
</g>
<defs>
<clipPath id="clip0_233_1676">
<rect width="50.4" height="49.35" fill="white" transform="translate(0.0856934 0.824997)"/>
</clipPath>
</defs>
</svg>
