<svg width="53" height="51" viewBox="0 0 53 51" fill="none" xmlns="http://www.w3.org/2000/svg">
<g clip-path="url(#clip0_233_1647)">
<path fill-rule="evenodd" clip-rule="evenodd" d="M14.3621 4.0615C5.58021 11.1424 -1.41411 26.5357 1.52965 36.4901C4.10636 45.2081 16.5196 50.9328 24.2293 49.7547C31.0085 48.7162 34.6691 45.3041 39.6283 43.4453C48.34 40.164 55.1295 24.7788 51.111 16.1917C45.9882 5.25706 24.6792 -4.23763 14.3723 4.0615" fill="#A7B33E"/>
<g clip-path="url(#clip1_233_1647)">
<path d="M18.7236 27.1038C16.4502 25.9102 14.597 24.4324 13.5801 22.887C13.9792 22.7303 14.5759 22.571 15.347 22.4281C16.3034 22.2508 17.5066 22.1023 18.8895 22.0111C21.6554 21.8287 25.1284 21.8763 28.7645 22.3761L28.8003 22.116L28.836 21.856C25.1999 21.3562 21.8428 20.465 19.2287 19.5431C17.9217 19.0822 16.8032 18.6146 15.9301 18.1859C15.2245 17.8393 14.6921 17.5244 14.3502 17.2654C15.7363 16.0632 17.8938 15.1462 20.3777 14.6084C22.9921 14.0423 25.9372 13.9032 28.6576 14.2771C32.1458 14.7566 34.5751 15.9846 36.0576 17.601C37.5363 19.2132 38.0941 21.2339 37.8028 23.3534C37.5115 25.4729 36.4292 27.2681 34.5704 28.4216C32.7068 29.5781 30.0361 30.1052 26.548 29.6257C23.8499 29.2549 21.0753 28.3385 18.7236 27.1038Z" stroke="white" stroke-width="0.525"/>
<path d="M24.4792 21.6472L24.5123 21.4068C25.0742 21.534 25.6507 21.6545 26.2402 21.7667C25.6424 21.7158 25.0547 21.6763 24.4792 21.6472Z" stroke="white" stroke-width="0.525"/>
<path d="M14.6958 20.1774C14.7652 19.6729 15.0764 19.142 15.6243 18.6208C17.445 19.5253 20.3209 20.5917 23.7359 21.4199C20.2241 21.2961 17.1671 21.547 15.1699 21.9268C14.783 21.2771 14.6265 20.6819 14.6958 20.1774Z" stroke="white" stroke-width="0.525"/>
<path d="M24.4438 21.643L24.4785 21.3921C25.0574 21.5239 25.6517 21.6486 26.2592 21.7644C25.643 21.7121 25.037 21.672 24.4438 21.643Z" stroke="white" stroke-width="0.525"/>
<mask id="path-6-inside-1_233_1647" fill="white">
<path d="M37.0968 23.2564C36.5228 27.4323 32.529 29.5235 26.6777 28.7192C22.4111 28.1328 17.8417 26.095 15.307 23.6499L15.5763 23.3691C18.0568 25.7606 22.5398 27.7557 26.7259 28.3311C32.3408 29.1029 36.1636 27.1369 36.7044 23.2024L37.0918 23.2557L37.0968 23.2564Z"/>
</mask>
<path d="M37.0968 23.2564L37.6169 23.3278L37.6884 22.8077L37.1683 22.7362L37.0968 23.2564ZM15.307 23.6499L14.9281 23.2865L14.5658 23.6643L14.9425 24.0278L15.307 23.6499ZM15.5763 23.3691L15.9407 22.9911L15.5617 22.6258L15.1973 23.0057L15.5763 23.3691ZM36.7044 23.2024L36.7758 22.6823L36.2557 22.6108L36.1842 23.1309L36.7044 23.2024ZM36.5767 23.1849C36.3133 25.1012 35.277 26.5232 33.6225 27.3904C31.9482 28.2679 29.6065 28.5918 26.7491 28.1991L26.6062 29.2393C29.6002 29.6508 32.1811 29.3313 34.11 28.3204C36.0587 27.299 37.3063 25.5875 37.6169 23.3278L36.5767 23.1849ZM26.7491 28.1991C22.5679 27.6244 18.1097 25.624 15.6715 23.2721L14.9425 24.0278C17.5737 26.5659 22.2543 28.6412 26.6062 29.2393L26.7491 28.1991ZM15.6859 24.0133L15.9552 23.7324L15.1973 23.0057L14.9281 23.2865L15.6859 24.0133ZM15.2119 23.747C17.7892 26.2318 22.3835 28.2642 26.6544 28.8512L26.7974 27.811C22.6962 27.2473 18.3244 25.2893 15.9407 22.9911L15.2119 23.747ZM26.6544 28.8512C29.5286 29.2463 32.0063 28.9504 33.8579 27.9985C35.73 27.0362 36.93 25.4166 37.2245 23.2739L36.1842 23.1309C35.938 24.9227 34.9561 26.2534 33.3779 27.0647C31.7792 27.8865 29.538 28.1877 26.7974 27.811L26.6544 28.8512ZM36.6329 23.7225L37.0203 23.7758L37.1633 22.7356L36.7758 22.6823L36.6329 23.7225ZM37.0203 23.7758L37.0253 23.7765L37.1683 22.7362L37.1633 22.7356L37.0203 23.7758Z" fill="white" mask="url(#path-6-inside-1_233_1647)"/>
</g>
<g clip-path="url(#clip2_233_1647)">
<path d="M32.8131 24.2465C35.3284 24.7624 37.5189 25.6679 38.9247 26.8704C38.5848 27.1318 38.0557 27.4503 37.3545 27.8017C36.4849 28.2374 35.3701 28.7139 34.0668 29.1853C31.4602 30.128 28.1104 31.046 24.4783 31.5748L24.5162 31.8346L24.554 32.0944C28.186 31.5655 31.6586 31.4901 34.4257 31.6504C35.8093 31.7305 37.0137 31.8694 37.9715 32.0391C38.7456 32.1762 39.3445 32.331 39.7448 32.485C38.7467 34.0246 36.9283 35.5043 34.6912 36.7102C32.3366 37.9795 29.5458 38.9304 26.8284 39.3261C23.3442 39.8334 20.6695 39.3276 18.7967 38.1861C16.9287 37.0475 15.832 35.261 15.5238 33.1439C15.2155 31.0268 15.7572 29.0017 17.2229 27.3778C18.6925 25.7496 21.1119 24.5021 24.5961 23.9948C27.2911 23.6024 30.2111 23.7129 32.8131 24.2465Z" fill="#A7B33E" stroke="white" stroke-width="0.525"/>
<path d="M28.7976 31.0859L28.8325 31.3261C28.2574 31.3598 27.67 31.404 27.0726 31.4598C27.6611 31.3428 28.2367 31.2177 28.7976 31.0859Z" stroke="white" stroke-width="0.525"/>
<path d="M38.6045 29.7833C38.6779 30.2872 38.5261 30.8837 38.1444 31.5364C36.1442 31.1726 33.0853 30.9461 29.5746 31.0981C32.9829 30.2425 35.8502 29.1532 37.6636 28.2342C38.2156 28.7509 38.5311 29.2793 38.6045 29.7833Z" stroke="white" stroke-width="0.525"/>
<path d="M28.8327 31.0802L28.869 31.3308C28.2762 31.3648 27.6707 31.4099 27.0549 31.4673C27.6614 31.3466 28.2547 31.2169 28.8327 31.0802Z" stroke="white" stroke-width="0.525"/>
<mask id="path-12-inside-2_233_1647" fill="white">
<path d="M16.2289 33.0412C15.6215 28.87 18.8782 25.7528 24.7229 24.9017C28.9847 24.2812 33.9401 24.971 37.0537 26.6167L36.873 26.9612C33.8262 25.352 28.9656 24.6792 24.7843 25.288C19.1757 26.1046 16.0486 29.0541 16.6209 32.9842L16.2339 33.0405L16.2289 33.0412Z"/>
</mask>
<path d="M16.2289 33.0412L15.7093 33.1169L15.785 33.6364L16.3045 33.5608L16.2289 33.0412ZM37.0537 26.6167L37.5186 26.8607L37.7618 26.3972L37.2991 26.1526L37.0537 26.6167ZM36.873 26.9612L36.6278 27.4255L37.0932 27.6713L37.3378 27.2052L36.873 26.9612ZM16.6209 32.9842L16.6965 33.5037L17.216 33.428L17.1404 32.9085L16.6209 32.9842ZM16.7484 32.9656C16.4697 31.0514 17.0707 29.3977 18.4195 28.1055C19.7847 26.7978 21.9444 25.8368 24.7986 25.4213L24.6473 24.3822C21.6567 24.8177 19.2657 25.8408 17.6932 27.3473C16.1044 28.8693 15.3807 30.8598 15.7093 33.1169L16.7484 32.9656ZM24.7986 25.4213C28.9751 24.8131 33.8134 25.4978 36.8084 27.0809L37.2991 26.1526C34.0669 24.4442 28.9942 23.7493 24.6473 24.3822L24.7986 25.4213ZM36.5889 26.3728L36.4081 26.7173L37.3378 27.2052L37.5186 26.8607L36.5889 26.3728ZM37.1182 26.497C33.9526 24.825 28.9747 24.1473 24.7087 24.7685L24.86 25.8075C28.9565 25.211 33.6999 25.879 36.6278 27.4255L37.1182 26.497ZM24.7087 24.7685C21.8377 25.1865 19.5394 26.1583 18.0246 27.5866C16.4931 29.0306 15.7897 30.9196 16.1013 33.0598L17.1404 32.9085C16.8798 31.1188 17.4538 29.5679 18.745 28.3505C20.0528 27.1174 22.1224 26.2061 24.86 25.8075L24.7087 24.7685ZM16.5452 32.4646L16.1582 32.521L16.3095 33.56L16.6965 33.5037L16.5452 32.4646ZM16.1582 32.521L16.1532 32.5217L16.3045 33.5608L16.3095 33.56L16.1582 32.521Z" fill="white" mask="url(#path-12-inside-2_233_1647)"/>
</g>
</g>
<defs>
<clipPath id="clip0_233_1647">
<rect width="51.8" height="49.35" fill="white" transform="translate(0.671631 0.824997)"/>
</clipPath>
<clipPath id="clip1_233_1647">
<rect width="16.4089" height="25.2" fill="white" transform="translate(12.177 28.1102) rotate(-82.1738)"/>
</clipPath>
<clipPath id="clip2_233_1647">
<rect width="16.4089" height="25.2" fill="white" transform="translate(38.8232 21.463) rotate(81.7157)"/>
</clipPath>
</defs>
</svg>
