<svg width="60" height="51" viewBox="0 0 60 51" fill="none" xmlns="http://www.w3.org/2000/svg">
<g clip-path="url(#clip0_233_1636)">
<path fill-rule="evenodd" clip-rule="evenodd" d="M35.4398 1.04848C27.4196 2.15565 24.2871 4.10897 18.1481 8.84372C11.586 13.8935 7.52638 10.851 2.36856 23.345C-1.42105 32.5265 5.15 44.2284 12.4862 47.2439C18.9312 49.8993 24.3681 48.7741 29.8319 49.7283C39.4545 51.3935 55.7291 41.1949 58.2135 31.3653C61.373 18.8353 49.8422 -0.949842 35.4398 1.04848Z" fill="#886239"/>
<path d="M33.5671 33.927H26.1402C26.011 33.927 25.8986 33.8406 25.8649 33.7172L23.3961 24.6073C23.3731 24.5218 23.3908 24.431 23.4448 24.3604C23.4988 24.2908 23.582 24.2493 23.6714 24.2493H35.7429C35.8305 24.2493 35.9129 24.289 35.9669 24.3578C36.0209 24.4266 36.0403 24.5156 36.02 24.6003L34.724 29.8963C34.6869 30.0489 34.5328 30.1424 34.3797 30.1044C34.2266 30.0674 34.1327 29.914 34.1708 29.7614L35.3809 24.8163H24.0441L26.3589 33.3583H33.3422L33.8751 31.1256C33.907 30.9915 34.0309 30.8989 34.1699 30.9078C34.208 30.9104 38.0011 31.1088 39.0775 28.8311C39.4386 28.0666 39.4386 27.2712 39.0775 26.7051C38.8402 26.333 38.4711 26.1196 38.0648 26.1196C37.4673 26.1196 36.4166 26.3251 36.0935 27.7016C36.058 27.8541 35.9049 27.9485 35.7509 27.9132C35.5977 27.8779 35.5021 27.7254 35.5384 27.5719C35.9775 25.6963 37.5833 25.5508 38.0639 25.5508C38.6694 25.5508 39.2147 25.8604 39.5581 26.4C40.0246 27.1319 40.037 28.131 39.5927 29.0719C38.5101 31.3645 35.2932 31.4942 34.3762 31.4818L33.8442 33.7075C33.8141 33.8353 33.699 33.9253 33.5671 33.9253V33.927Z" fill="white" stroke="white" stroke-width="0.21"/>
<path d="M30.4025 38.0081C19.8995 38.0081 17.8051 34.7305 17.721 34.5911C17.6679 34.5038 17.667 34.3945 17.7175 34.3054C17.768 34.2164 17.8627 34.1617 17.9654 34.1617H38.5534C38.711 34.1617 38.8385 34.2887 38.8385 34.4457C38.8385 34.6026 38.711 34.7296 38.5534 34.7296H18.6151C19.5933 35.5902 22.6056 37.4411 30.4025 37.4411C38.9854 37.4411 41.7906 34.2931 41.8181 34.2614C41.9199 34.1423 42.0996 34.1282 42.2191 34.2296C42.3386 34.331 42.3536 34.5091 42.2527 34.6282C42.1359 34.7666 39.2846 38.0081 30.4025 38.0081Z" fill="white" stroke="white" stroke-width="0.21"/>
<path d="M29.4882 23.5783C29.3306 23.5783 29.2031 23.4514 29.2031 23.2944C29.2031 22.6666 29.5333 22.3376 29.798 22.074C30.037 21.835 30.2264 21.6472 30.2264 21.2539C30.2264 20.8606 30.037 20.6728 29.798 20.4338C29.5333 20.1693 29.2031 19.8404 29.2031 19.2134C29.2031 18.5865 29.5333 18.2567 29.798 17.9921C30.037 17.7541 30.2264 17.5654 30.2264 17.173C30.2264 16.7806 30.037 16.5919 29.798 16.3529C29.5333 16.0883 29.2031 15.7594 29.2031 15.1316C29.2031 14.5038 29.5333 14.1748 29.798 13.9112C30.037 13.6722 30.2264 13.4844 30.2264 13.092C30.2264 12.935 30.3539 12.8081 30.5115 12.8081C30.669 12.8081 30.7965 12.935 30.7965 13.092C30.7965 13.7198 30.4663 14.0487 30.2016 14.3124C29.9626 14.5514 29.7732 14.7392 29.7732 15.1316C29.7732 15.524 29.9626 15.7127 30.2016 15.9517C30.4663 16.2162 30.7965 16.5451 30.7965 17.173C30.7965 17.8008 30.4663 18.1297 30.2016 18.3934C29.9626 18.6323 29.7732 18.8202 29.7732 19.2134C29.7732 19.6067 29.9626 19.7945 30.2016 20.0326C30.4663 20.2972 30.7965 20.6261 30.7965 21.2539C30.7965 21.8818 30.4663 22.2107 30.2016 22.4752C29.9626 22.7142 29.7732 22.902 29.7732 23.2944C29.7732 23.4514 29.6457 23.5783 29.4882 23.5783Z" fill="white" stroke="white" stroke-width="0.21"/>
<path d="M27.2626 23.5784C27.105 23.5784 26.9775 23.4514 26.9775 23.2944C26.9775 22.6666 27.3077 22.3377 27.5724 22.074C27.8114 21.8351 28.0008 21.6472 28.0008 21.2539C28.0008 20.8607 27.8114 20.6728 27.5724 20.4339C27.3068 20.1693 26.9775 19.8404 26.9775 19.2135C26.9775 18.5865 27.3077 18.2567 27.5724 17.9922C27.8114 17.7541 28.0008 17.5654 28.0008 17.173C28.0008 17.016 28.1283 16.8891 28.2859 16.8891C28.4434 16.8891 28.5709 17.016 28.5709 17.173C28.5709 17.8008 28.2407 18.1297 27.976 18.3934C27.737 18.6324 27.5476 18.8202 27.5476 19.2135C27.5476 19.6068 27.737 19.7946 27.976 20.0327C28.2416 20.2972 28.5709 20.6261 28.5709 21.2539C28.5709 21.8818 28.2407 22.2107 27.976 22.4752C27.737 22.7142 27.5476 22.902 27.5476 23.2944C27.5476 23.4514 27.4201 23.5784 27.2626 23.5784Z" fill="white" stroke="white" stroke-width="0.21"/>
<path d="M31.7142 23.5784C31.5567 23.5784 31.4292 23.4514 31.4292 23.2944C31.4292 22.6666 31.7594 22.3377 32.0241 22.074C32.2631 21.8351 32.4525 21.6472 32.4525 21.2539C32.4525 20.8607 32.2631 20.6728 32.0241 20.4339C31.7594 20.1693 31.4292 19.8404 31.4292 19.2135C31.4292 18.5865 31.7594 18.2567 32.0241 17.9922C32.2631 17.7541 32.4525 17.5654 32.4525 17.173C32.4525 17.016 32.58 16.8891 32.7375 16.8891C32.8951 16.8891 33.0226 17.016 33.0226 17.173C33.0226 17.8008 32.6924 18.1297 32.4277 18.3934C32.1887 18.6324 31.9993 18.8202 31.9993 19.2135C31.9993 19.6068 32.1878 19.7946 32.4277 20.0327C32.6933 20.2972 33.0226 20.6261 33.0226 21.2539C33.0226 21.8818 32.6924 22.2107 32.4277 22.4752C32.1887 22.7142 31.9993 22.902 31.9993 23.2944C31.9993 23.4514 31.8718 23.5784 31.7142 23.5784Z" fill="white" stroke="white" stroke-width="0.21"/>
</g>
<defs>
<clipPath id="clip0_233_1636">
<rect width="58.1" height="49.35" fill="white" transform="translate(0.949951 0.824997)"/>
</clipPath>
</defs>
</svg>
