<svg width="54" height="51" viewBox="0 0 54 51" fill="none" xmlns="http://www.w3.org/2000/svg">
<g clip-path="url(#clip0_233_1664)">
<path fill-rule="evenodd" clip-rule="evenodd" d="M1.47211 24.5767C4.95459 34.7868 17.7351 47.3728 29.2087 49.5892C39.2585 51.5244 50.4648 44.2901 52.5685 37.6255C54.413 31.7748 52.4987 27.3076 52.718 22.524C53.1069 14.1051 40.2455 1.68924 29.7072 0.956773C16.2876 0.0253599 -2.60563 12.613 1.47211 24.5767Z" fill="#D55258"/>
<mask id="path-2-inside-1_233_1664" fill="white">
<path d="M30.1735 34.9632C29.3403 36.2016 27.9926 37.1587 26.6605 37.2433C25.3283 37.3279 24.2409 36.7992 23.456 35.927C22.6256 36.8916 21.4934 37.5715 20.3731 37.6427C18.163 37.7831 16.2525 36.1008 16.1121 33.8907C16.0409 32.7704 16.5822 31.5606 17.424 30.6155C16.4594 29.9472 15.7928 28.8648 15.7127 27.6033C15.6326 26.3418 16.2993 25.0329 17.2911 24.0579C17.1242 23.6632 17.0065 23.2451 16.9776 22.791C16.8372 20.5808 19.1149 17.9942 21.325 17.8538C21.5874 17.8371 21.8618 17.8501 22.1281 17.894C22.929 16.465 24.4253 15.2959 25.8987 15.2023C26.2419 15.1805 26.5787 15.2199 26.9075 15.2902L26.7256 14.5013C26.6313 14.1324 26.8302 13.7549 27.1751 13.6013C27.52 13.4477 27.932 13.5532 28.1348 13.8747L29.9984 16.5733L31.5055 13.6606C31.6415 13.4088 31.8943 13.2407 32.1782 13.243C32.4708 13.2244 32.7441 13.3793 32.8819 13.634L34.7466 16.8289C35.7615 14.9406 37.5205 13.4406 38.9828 12.8513C39.3876 12.6837 39.8457 12.8775 40.0032 13.2829C40.1708 13.6877 39.9769 14.1459 39.5715 14.3034C38.475 14.7479 36.6825 16.1993 35.8883 18.0534L39.8767 19.1072C40.1959 19.1882 40.4264 19.4674 40.4678 19.7992C40.4883 20.1221 40.3158 20.4371 40.0207 20.5774L37.4533 21.7943L39.578 23.1793C39.8848 23.3827 40.0101 23.7598 39.8899 24.1018C39.7597 24.4444 39.4288 24.658 39.0616 24.6205L38.256 24.5399C38.3572 24.8578 38.439 25.1869 38.4614 25.5402C38.5543 27.0035 37.5739 28.6364 36.2679 29.611C36.335 29.8702 36.392 30.13 36.4093 30.4025C36.5497 32.6127 34.272 35.1994 32.0619 35.3397C31.3857 35.3827 30.7485 35.2408 30.1641 34.9739L30.1735 34.9632ZM20.2738 36.0784C21.1518 36.0226 22.1445 35.2199 22.7036 34.2927C20.9713 34.1393 19.5331 32.8728 19.1617 31.1739C18.3127 31.8459 17.642 32.9322 17.6978 33.8102C17.7831 35.1524 18.9322 36.1738 20.2845 36.0879L20.2738 36.0784ZM24.3503 34.5326C24.8128 35.2733 25.6326 35.738 26.5611 35.679C27.3886 35.6265 28.3158 34.9089 28.8896 34.0517C28.4438 33.5734 28.1038 33.0073 27.9404 32.3489C27.5423 32.3033 27.1795 32.1743 26.8349 32.0138C26.2605 32.8609 25.4551 33.5809 24.5686 33.9817C24.5095 34.1679 24.4397 34.3445 24.3597 34.5219L24.3503 34.5326ZM29.5532 32.2161C29.9282 33.1751 30.8915 33.8232 31.9612 33.7553C33.3035 33.67 34.9297 31.834 34.8444 30.4918C34.8412 30.4413 34.8178 30.3921 34.814 30.3316C34.5851 30.3968 34.3448 30.4425 34.1228 30.4566C33.4466 30.4995 32.8094 30.3576 32.225 30.0907C31.5573 31.0654 30.5855 31.8769 29.5526 32.206L29.5532 32.2161ZM20.6358 30.452C20.721 31.7942 21.8802 32.815 23.2225 32.7297C24.05 32.6771 24.9772 31.9596 25.551 31.1024C24.9529 30.4615 24.5459 29.6362 24.4762 28.6983C23.5363 28.7377 22.6662 28.4383 21.9554 27.9363C21.1777 28.614 20.5832 29.6245 20.6358 30.452ZM26.0359 28.5283C26.1212 29.8705 27.2804 30.8912 28.6226 30.806C29.4502 30.7534 30.3773 30.0359 30.9511 29.1787C30.3531 28.5378 29.946 27.7125 29.8763 26.7746C28.9365 26.814 28.0663 26.5146 27.3555 26.0126C26.5778 26.6902 25.9834 27.7007 26.0359 28.5283ZM18.704 29.5513C18.8698 29.4496 19.0463 29.3573 19.2134 29.2758C19.4989 28.3457 20.1111 27.4557 20.8787 26.7787C20.8225 26.691 20.7568 26.6141 20.7106 26.5259C19.7335 26.4562 18.8563 26.0459 18.197 25.3987C17.6294 26.0326 17.2448 26.8372 17.2877 27.5134C17.3467 28.4419 17.912 29.2064 18.7047 29.5614L18.704 29.5513ZM31.4361 26.6045C31.5213 27.9468 32.6704 28.9681 34.0228 28.8822C35.3751 28.7963 36.9912 26.961 36.9059 25.6187C36.8207 24.2765 35.6615 23.2558 34.3193 23.341C34.2183 23.3474 34.1294 23.3835 34.0197 23.4107C33.5686 24.6047 32.5857 25.7209 31.4585 26.3194C31.4447 26.4216 31.4303 26.5137 31.4367 26.6146L31.4361 26.6045ZM24.4367 27.1201C24.5275 27.1143 24.6272 27.0877 24.7268 27.0611C25.0395 26.2408 25.5976 25.4555 26.2788 24.8549C26.0975 24.5523 25.9351 24.2283 25.8312 23.8701L25.811 23.8714C24.6303 23.9464 23.548 23.4984 22.7594 22.7277C22.1917 23.3616 21.8071 24.1662 21.85 24.8424C21.9353 26.1846 23.0844 27.206 24.4367 27.1201ZM27.2603 22.918C27.3455 24.2603 28.5047 25.281 29.847 25.1957C31.1892 25.1105 32.8154 23.2744 32.7301 21.9322C32.6449 20.59 31.4857 19.5693 30.1435 19.6545C28.8012 19.7398 27.175 21.5758 27.2609 22.9281L27.2603 22.918ZM20.28 24.8509C20.2441 23.6474 20.9007 22.3391 21.8636 21.3863C21.6966 20.9916 21.5789 20.5735 21.55 20.1193C21.5353 19.8872 21.5508 19.6532 21.5865 19.4179C21.5361 19.4211 21.4843 19.4041 21.4339 19.4073C20.0815 19.4932 18.4654 21.3286 18.5513 22.6809C18.618 23.7305 19.3297 24.5668 20.2699 24.8516L20.28 24.8509ZM35.0929 21.8024C35.0689 21.7431 35.0644 21.6725 35.0801 21.6005C35.0931 21.3261 35.2695 21.0717 35.5248 20.944L37.4131 20.0439L34.6716 19.3162C34.5788 19.2917 34.4949 19.2464 34.421 19.2004C34.3996 19.1815 34.3781 19.1626 34.3667 19.1431C34.3131 19.0958 34.2695 19.0479 34.2353 18.9893C34.2341 18.9691 34.2139 18.9704 34.2025 18.9508L32.2689 15.6285L30.9689 18.1328C32.7411 18.4357 34.1417 19.9072 34.2899 21.7622C34.5624 21.7449 34.8374 21.7679 35.0929 21.8024ZM25.711 22.297L25.7312 22.2957C25.9606 20.8018 27.121 19.2892 28.5123 18.5422C28.2104 17.4569 27.1883 16.6808 26.0177 16.7552C24.6653 16.8411 23.0492 18.6764 23.1351 20.0288C23.221 21.3811 24.3695 22.3924 25.7218 22.3065L25.711 22.297Z"/>
</mask>
<path d="M30.1735 34.9632C29.3403 36.2016 27.9926 37.1587 26.6605 37.2433C25.3283 37.3279 24.2409 36.7992 23.456 35.927C22.6256 36.8916 21.4934 37.5715 20.3731 37.6427C18.163 37.7831 16.2525 36.1008 16.1121 33.8907C16.0409 32.7704 16.5822 31.5606 17.424 30.6155C16.4594 29.9472 15.7928 28.8648 15.7127 27.6033C15.6326 26.3418 16.2993 25.0329 17.2911 24.0579C17.1242 23.6632 17.0065 23.2451 16.9776 22.791C16.8372 20.5808 19.1149 17.9942 21.325 17.8538C21.5874 17.8371 21.8618 17.8501 22.1281 17.894C22.929 16.465 24.4253 15.2959 25.8987 15.2023C26.2419 15.1805 26.5787 15.2199 26.9075 15.2902L26.7256 14.5013C26.6313 14.1324 26.8302 13.7549 27.1751 13.6013C27.52 13.4477 27.932 13.5532 28.1348 13.8747L29.9984 16.5733L31.5055 13.6606C31.6415 13.4088 31.8943 13.2407 32.1782 13.243C32.4708 13.2244 32.7441 13.3793 32.8819 13.634L34.7466 16.8289C35.7615 14.9406 37.5205 13.4406 38.9828 12.8513C39.3876 12.6837 39.8457 12.8775 40.0032 13.2829C40.1708 13.6877 39.9769 14.1459 39.5715 14.3034C38.475 14.7479 36.6825 16.1993 35.8883 18.0534L39.8767 19.1072C40.1959 19.1882 40.4264 19.4674 40.4678 19.7992C40.4883 20.1221 40.3158 20.4371 40.0207 20.5774L37.4533 21.7943L39.578 23.1793C39.8848 23.3827 40.0101 23.7598 39.8899 24.1018C39.7597 24.4444 39.4288 24.658 39.0616 24.6205L38.256 24.5399C38.3572 24.8578 38.439 25.1869 38.4614 25.5402C38.5543 27.0035 37.5739 28.6364 36.2679 29.611C36.335 29.8702 36.392 30.13 36.4093 30.4025C36.5497 32.6127 34.272 35.1994 32.0619 35.3397C31.3857 35.3827 30.7485 35.2408 30.1641 34.9739L30.1735 34.9632ZM20.2738 36.0784C21.1518 36.0226 22.1445 35.2199 22.7036 34.2927C20.9713 34.1393 19.5331 32.8728 19.1617 31.1739C18.3127 31.8459 17.642 32.9322 17.6978 33.8102C17.7831 35.1524 18.9322 36.1738 20.2845 36.0879L20.2738 36.0784ZM24.3503 34.5326C24.8128 35.2733 25.6326 35.738 26.5611 35.679C27.3886 35.6265 28.3158 34.9089 28.8896 34.0517C28.4438 33.5734 28.1038 33.0073 27.9404 32.3489C27.5423 32.3033 27.1795 32.1743 26.8349 32.0138C26.2605 32.8609 25.4551 33.5809 24.5686 33.9817C24.5095 34.1679 24.4397 34.3445 24.3597 34.5219L24.3503 34.5326ZM29.5532 32.2161C29.9282 33.1751 30.8915 33.8232 31.9612 33.7553C33.3035 33.67 34.9297 31.834 34.8444 30.4918C34.8412 30.4413 34.8178 30.3921 34.814 30.3316C34.5851 30.3968 34.3448 30.4425 34.1228 30.4566C33.4466 30.4995 32.8094 30.3576 32.225 30.0907C31.5573 31.0654 30.5855 31.8769 29.5526 32.206L29.5532 32.2161ZM20.6358 30.452C20.721 31.7942 21.8802 32.815 23.2225 32.7297C24.05 32.6771 24.9772 31.9596 25.551 31.1024C24.9529 30.4615 24.5459 29.6362 24.4762 28.6983C23.5363 28.7377 22.6662 28.4383 21.9554 27.9363C21.1777 28.614 20.5832 29.6245 20.6358 30.452ZM26.0359 28.5283C26.1212 29.8705 27.2804 30.8912 28.6226 30.806C29.4502 30.7534 30.3773 30.0359 30.9511 29.1787C30.3531 28.5378 29.946 27.7125 29.8763 26.7746C28.9365 26.814 28.0663 26.5146 27.3555 26.0126C26.5778 26.6902 25.9834 27.7007 26.0359 28.5283ZM18.704 29.5513C18.8698 29.4496 19.0463 29.3573 19.2134 29.2758C19.4989 28.3457 20.1111 27.4557 20.8787 26.7787C20.8225 26.691 20.7568 26.6141 20.7106 26.5259C19.7335 26.4562 18.8563 26.0459 18.197 25.3987C17.6294 26.0326 17.2448 26.8372 17.2877 27.5134C17.3467 28.4419 17.912 29.2064 18.7047 29.5614L18.704 29.5513ZM31.4361 26.6045C31.5213 27.9468 32.6704 28.9681 34.0228 28.8822C35.3751 28.7963 36.9912 26.961 36.9059 25.6187C36.8207 24.2765 35.6615 23.2558 34.3193 23.341C34.2183 23.3474 34.1294 23.3835 34.0197 23.4107C33.5686 24.6047 32.5857 25.7209 31.4585 26.3194C31.4447 26.4216 31.4303 26.5137 31.4367 26.6146L31.4361 26.6045ZM24.4367 27.1201C24.5275 27.1143 24.6272 27.0877 24.7268 27.0611C25.0395 26.2408 25.5976 25.4555 26.2788 24.8549C26.0975 24.5523 25.9351 24.2283 25.8312 23.8701L25.811 23.8714C24.6303 23.9464 23.548 23.4984 22.7594 22.7277C22.1917 23.3616 21.8071 24.1662 21.85 24.8424C21.9353 26.1846 23.0844 27.206 24.4367 27.1201ZM27.2603 22.918C27.3455 24.2603 28.5047 25.281 29.847 25.1957C31.1892 25.1105 32.8154 23.2744 32.7301 21.9322C32.6449 20.59 31.4857 19.5693 30.1435 19.6545C28.8012 19.7398 27.175 21.5758 27.2609 22.9281L27.2603 22.918ZM20.28 24.8509C20.2441 23.6474 20.9007 22.3391 21.8636 21.3863C21.6966 20.9916 21.5789 20.5735 21.55 20.1193C21.5353 19.8872 21.5508 19.6532 21.5865 19.4179C21.5361 19.4211 21.4843 19.4041 21.4339 19.4073C20.0815 19.4932 18.4654 21.3286 18.5513 22.6809C18.618 23.7305 19.3297 24.5668 20.2699 24.8516L20.28 24.8509ZM35.0929 21.8024C35.0689 21.7431 35.0644 21.6725 35.0801 21.6005C35.0931 21.3261 35.2695 21.0717 35.5248 20.944L37.4131 20.0439L34.6716 19.3162C34.5788 19.2917 34.4949 19.2464 34.421 19.2004C34.3996 19.1815 34.3781 19.1626 34.3667 19.1431C34.3131 19.0958 34.2695 19.0479 34.2353 18.9893C34.2341 18.9691 34.2139 18.9704 34.2025 18.9508L32.2689 15.6285L30.9689 18.1328C32.7411 18.4357 34.1417 19.9072 34.2899 21.7622C34.5624 21.7449 34.8374 21.7679 35.0929 21.8024ZM25.711 22.297L25.7312 22.2957C25.9606 20.8018 27.121 19.2892 28.5123 18.5422C28.2104 17.4569 27.1883 16.6808 26.0177 16.7552C24.6653 16.8411 23.0492 18.6764 23.1351 20.0288C23.221 21.3811 24.3695 22.3924 25.7218 22.3065L25.711 22.297Z" fill="white" stroke="#D55258" stroke-width="0.84" mask="url(#path-2-inside-1_233_1664)"/>
</g>
<defs>
<clipPath id="clip0_233_1664">
<rect width="52.5" height="49.35" fill="white" transform="translate(0.892822 0.824997)"/>
</clipPath>
</defs>
</svg>
