<svg width="144" height="142" viewBox="0 0 144 142" fill="none" xmlns="http://www.w3.org/2000/svg">
<g clip-path="url(#clip0_21_469)">
<path fill-rule="evenodd" clip-rule="evenodd" d="M3.44219 87.0634C11.6212 103.421 18.4252 108.661 33.906 118.191C50.43 128.385 46.0442 139.456 79.2343 140.95C103.629 142.064 140.655 105.105 142.742 87.0634C144.567 71.2032 138.142 60.3927 136.625 47.9464C133.922 26.0171 98.4326 -1.10395 73.3978 1.10083C41.5115 3.89828 -11.2326 57.69 3.4659 87.0634" fill="#FECE05"/>
<path d="M54.158 97.1921C61.6956 97.2204 69.5516 95.7283 76.2036 92.05C81.4576 89.1422 86.0309 85.0156 89.5181 80.1067C92.929 75.3116 95.474 69.6788 96.0789 63.7644C96.6991 57.6744 95.1926 51.5941 91.5385 46.656C87.4707 41.1573 81.2028 37.4273 74.4555 36.4771C67.8537 35.5491 61.0294 37.2003 55.2325 40.3869C49.3404 43.6264 44.17 48.2328 40.3604 53.8055C38.411 56.6569 36.8569 59.7562 35.0456 62.6935C33.1915 65.6987 31.0781 68.3443 28.5153 70.7633C25.8292 73.3015 23.1903 76.2209 22.9058 80.1171C22.635 83.8229 24.2831 87.0875 26.9542 89.5621C29.5685 91.9834 32.9843 93.4007 36.3421 94.4201C40.1414 95.5711 44.0168 96.4286 47.9616 96.8554C50.023 97.078 52.0869 97.1684 54.158 97.1921C55.447 97.2045 56.3822 95.7084 56.2468 94.5403C56.0823 93.1208 54.8987 92.4488 53.6068 92.4367C50.0469 92.3998 46.478 91.9503 42.9933 91.2244C39.7502 90.5514 36.4639 89.6856 33.4722 88.2251C31.0204 87.0258 28.5965 85.1669 27.8054 82.5073C27.547 81.6411 27.5455 80.4454 27.8359 79.4797C28.2846 77.9771 29.2635 76.7547 30.326 75.6365C31.4841 74.4173 32.7737 73.3297 33.942 72.1213C35.0703 70.9536 36.0852 69.682 37.022 68.3536C38.99 65.56 40.6227 62.5475 42.3405 59.6C45.2981 54.5188 49.1912 50.1294 54.0003 46.7516C58.771 43.4023 64.2765 41.2236 70.0855 41.0208C75.7667 40.8208 81.5717 43.052 85.6878 47.1424C89.4401 50.8703 91.3562 55.5215 91.4763 60.6715C91.4917 61.2931 91.4906 61.3861 91.4419 62.1231C91.3987 62.7785 91.3316 63.4336 91.2373 64.0859C91.0721 65.2319 90.7304 66.8091 90.4756 67.6448C89.7133 70.1698 88.616 72.6077 87.2748 74.8702C84.6774 79.2533 80.9723 83.2073 76.6847 86.1739C75.614 86.9125 74.7018 87.4768 73.7211 87.9891C72.3442 88.7091 70.9072 89.3223 69.4496 89.8599C66.0856 91.101 62.5836 91.8456 59.0183 92.199C57.2181 92.3777 55.4113 92.4493 53.6016 92.4433C52.3137 92.4397 51.3763 93.9181 51.5128 95.0951C51.6763 96.5057 52.862 97.1955 54.1528 97.1987L54.158 97.1921Z" fill="#451717"/>
<path d="M54.158 97.1921C61.6956 97.2204 69.5516 95.7283 76.2036 92.05C81.4576 89.1422 86.0309 85.0156 89.5181 80.1067C92.929 75.3116 95.474 69.6788 96.0789 63.7644C96.6991 57.6744 95.1926 51.5941 91.5385 46.656C87.4707 41.1573 81.2028 37.4273 74.4555 36.4771C67.8537 35.5491 61.0294 37.2003 55.2325 40.3869C49.3404 43.6264 44.17 48.2328 40.3604 53.8055C38.411 56.6569 36.8569 59.7562 35.0456 62.6935C33.1915 65.6987 31.0781 68.3443 28.5153 70.7633C25.8292 73.3015 23.1903 76.2209 22.9058 80.1171C22.635 83.8229 24.2831 87.0875 26.9542 89.5621C29.5685 91.9834 32.9843 93.4007 36.3421 94.4201C40.1414 95.5711 44.0168 96.4286 47.9616 96.8554C50.023 97.078 52.0869 97.1684 54.158 97.1921ZM54.158 97.1921C55.447 97.2045 56.3822 95.7084 56.2468 94.5403C56.0823 93.1208 54.8987 92.4488 53.6068 92.4367C50.0469 92.3998 46.478 91.9503 42.9933 91.2244C39.7502 90.5514 36.4638 89.6856 33.4722 88.2251C31.0204 87.0258 28.5965 85.1669 27.8054 82.5073C27.547 81.6411 27.5455 80.4454 27.8359 79.4797C28.2846 77.9771 29.2635 76.7547 30.326 75.6365C31.4841 74.4173 32.7737 73.3297 33.942 72.1213C35.0703 70.9536 36.0852 69.682 37.022 68.3536C38.99 65.56 40.6227 62.5475 42.3405 59.6C45.2981 54.5188 49.1912 50.1294 54.0003 46.7516C58.771 43.4023 64.2765 41.2236 70.0855 41.0208C75.7666 40.8208 81.5717 43.052 85.6878 47.1424C89.4401 50.8703 91.3562 55.5215 91.4763 60.6715C91.4917 61.2931 91.4906 61.3861 91.4419 62.1231C91.3987 62.7785 91.3316 63.4336 91.2373 64.0859C91.0721 65.2319 90.7304 66.8091 90.4756 67.6448C89.7133 70.1698 88.616 72.6077 87.2748 74.8702C84.6774 79.2533 80.9723 83.2073 76.6847 86.1739C75.614 86.9125 74.7018 87.4768 73.7211 87.9891C72.3442 88.7091 70.9072 89.3223 69.4496 89.8599C66.0856 91.101 62.5836 91.8456 59.0183 92.199C57.2181 92.3777 55.4113 92.4493 53.6016 92.4433C52.3137 92.4397 51.3763 93.9181 51.5128 95.0951C51.6763 96.5057 52.862 97.1955 54.1528 97.1987L54.158 97.1921Z" stroke="#FECE05" stroke-width="2"/>
<path d="M90.4503 31.0982C90.3361 31.6299 90.2098 32.1601 90.0678 32.683C90.0344 32.8068 89.9982 32.9309 89.9648 33.0546C89.8731 33.3949 90.0851 32.678 89.9747 33.0115C89.8956 33.2545 89.823 33.5026 89.7439 33.7456C89.4022 34.7832 89.0049 35.8033 88.5574 36.8023C88.1219 37.7759 87.6388 38.725 87.1082 39.6496C87.0438 39.762 86.9764 39.8747 86.9119 39.9871C87.0133 39.8075 87.0574 39.7514 86.9239 39.9617C86.7884 40.1812 86.6499 40.4011 86.5086 40.6213C86.1901 41.1137 85.8582 41.5928 85.5168 42.0669C84.7849 43.0809 84.8355 44.6485 85.9066 45.4294C86.9159 46.1666 88.4697 46.1243 89.2503 45.0418C92.1086 41.084 94.118 36.6162 95.1553 31.8355C95.4218 30.6118 94.389 29.236 93.1635 29.1023C91.814 28.953 90.7307 29.7889 90.4477 31.1015L90.4503 31.0982Z" fill="#451717"/>
<path d="M103.955 36.3789C99.8856 35.6988 93.9268 36.4185 91.4561 36.8633C92.8987 39.8003 97.4051 45.8964 103.89 46.7842C110.376 47.672 116.921 46.6201 119.383 45.9832C115.936 43.0651 108.024 37.059 103.955 36.3789Z" fill="#451717" stroke="#FECE05" stroke-width="2"/>
<path d="M122.196 86.7896C122.196 103.031 109.029 116.205 92.7812 116.205C76.5334 116.205 63.3662 103.037 63.3662 86.7896C63.3662 70.5417 76.5334 57.3746 92.7812 57.3746C109.029 57.3746 122.196 70.5417 122.196 86.7896Z" fill="#FECE05" stroke="#451717" stroke-width="1.8"/>
<path d="M119.348 86.7896C119.348 101.458 107.456 113.35 92.7877 113.35C78.1197 113.35 66.2274 101.458 66.2274 86.7896C66.2274 72.1216 78.1197 60.2292 92.7877 60.2292C107.456 60.2292 119.348 72.1216 119.348 86.7896Z" fill="#FECE05" stroke="#451717" stroke-width="1.5"/>
<path d="M117.162 86.7897C117.162 100.253 106.245 111.17 92.7813 111.17C79.3177 111.17 68.4008 100.253 68.4008 86.7897C68.4008 73.3262 79.3177 62.4092 92.7813 62.4092C106.245 62.4092 117.162 73.3262 117.162 86.7897Z" fill="#FECE05" stroke="#451717" stroke-width="1.5"/>
<path d="M77.3027 78.0433L77.1908 77.9579C76.8658 77.6704 76.5888 77.2399 76.3627 76.6936C76.1138 76.0919 75.9485 75.4027 75.8415 74.7348C75.7349 74.0702 75.6893 73.4486 75.6706 72.9919C75.6681 72.9306 75.666 72.8724 75.6644 72.8176C75.7175 72.8046 75.7739 72.791 75.8334 72.7771C76.2782 72.6732 76.8889 72.5512 77.5573 72.4764C78.229 72.4012 78.9369 72.3764 79.5829 72.4555C80.2351 72.5354 80.7665 72.7144 81.1399 72.9983C82.0369 73.6802 82.4457 74.4617 82.5301 75.2072C82.6156 75.9616 82.3784 76.7662 81.8216 77.4983C81.2654 78.2298 80.5519 78.6733 79.8006 78.7924C79.0582 78.9101 78.1958 78.7244 77.3027 78.0433ZM75.1308 72.961C75.1307 72.961 75.1307 72.961 75.1308 72.9609L75.1308 72.961Z" fill="#FECE05" stroke="#451717" stroke-width="1.5"/>
<path d="M78.5068 77.3294C77.6842 76.7032 77.5254 75.5307 78.1517 74.7081C78.7779 73.8856 79.9504 73.7267 80.773 74.353C81.5955 74.9793 81.7543 76.1518 81.1281 76.9743C80.5018 77.7969 79.3293 77.9557 78.5068 77.3294Z" fill="#FECE05" stroke="#451717" stroke-width="1.5"/>
<path d="M73.3605 85.4433C73.3198 85.3977 73.2814 85.3543 73.2454 85.3131C73.2781 85.2694 73.313 85.2231 73.3501 85.1746C73.6277 84.8117 74.022 84.3294 74.4908 83.847C74.962 83.3622 75.4931 82.8934 76.0424 82.5443C76.597 82.1917 77.121 81.9926 77.5898 81.9749C78.7162 81.9325 79.5296 82.2769 80.0689 82.7993C80.6145 83.3278 80.942 84.0993 80.9754 85.0167L80.9754 85.0189C81.0116 85.94 80.7428 86.735 80.2385 87.3032C79.7399 87.8649 78.9545 88.2692 77.8279 88.3117L77.8279 88.3119C77.3604 88.3279 76.8246 88.1689 76.2471 87.8609C75.6724 87.5544 75.1068 87.1273 74.5998 86.6798C74.0953 86.2346 73.6651 85.7838 73.3605 85.4433Z" fill="#FECE05" stroke="#451717" stroke-width="1.5"/>
<path d="M78.3133 86.9958C77.2781 87.0333 76.4106 86.2282 76.3733 85.198C76.3359 84.1627 77.141 83.2953 78.1712 83.258C79.2065 83.2205 80.0739 84.0256 80.1112 85.0559C80.1487 86.0911 79.3436 86.9585 78.3133 86.9958Z" fill="#FECE05" stroke="#451717" stroke-width="1.5"/>
<path d="M75.5474 97.1346C75.5666 97.0833 75.5873 97.0289 75.6094 96.9717C75.7746 96.5456 76.0184 95.9723 76.3338 95.3779C76.6508 94.7805 77.0298 94.1816 77.4597 93.6925C77.8939 93.1986 78.3417 92.8604 78.7871 92.7119C79.8573 92.3552 80.7334 92.4575 81.3969 92.8077C82.0682 93.162 82.5998 93.8116 82.8923 94.6865C83.1846 95.5606 83.1495 96.3996 82.8249 97.086C82.5042 97.7643 81.8646 98.3711 80.7955 98.7247L80.6623 98.7687C80.2388 98.8787 79.7225 98.8658 79.1383 98.7432C78.5014 98.6096 77.8396 98.3575 77.2283 98.0693C76.62 97.7826 76.0816 97.4698 75.6944 97.2277C75.6425 97.1953 75.5934 97.1642 75.5474 97.1346Z" fill="#FECE05" stroke="#451717" stroke-width="1.5"/>
<path d="M80.8724 97.3309C79.8928 97.6574 78.8364 97.1264 78.5086 96.1485C78.1824 95.1691 78.7134 94.113 79.691 93.7852C80.6704 93.4591 81.7266 93.9901 82.0544 94.9678C82.3812 95.9493 81.8539 97.0037 80.8724 97.3309Z" fill="#FECE05" stroke="#451717" stroke-width="1.5"/>
<path d="M84.7503 107.296C84.6891 107.293 84.631 107.29 84.5763 107.286C84.5681 107.232 84.5596 107.175 84.5511 107.114C84.4874 106.661 84.4205 106.042 84.4058 105.369C84.391 104.693 84.4295 103.985 84.5659 103.349C84.7036 102.706 84.929 102.193 85.2445 101.847C86.0027 101.015 86.8181 100.677 87.569 100.659C88.3287 100.64 89.1093 100.948 89.7878 101.568C90.4672 102.189 90.8454 102.938 90.8973 103.696C90.9486 104.445 90.6875 105.287 89.9293 106.119L89.8391 106.218C89.5239 106.52 89.0673 106.761 88.4972 106.939C87.8761 107.132 87.1753 107.235 86.5008 107.282C85.8297 107.328 85.2067 107.318 84.7503 107.296Z" fill="#FECE05" stroke="#451717" stroke-width="1.5"/>
<path d="M89.3204 104.862C88.6241 105.623 87.4422 105.68 86.6748 104.983C85.9139 104.287 85.8574 103.105 86.5538 102.338C87.2501 101.577 88.432 101.52 89.1994 102.217C89.9602 102.913 90.0168 104.095 89.3204 104.862Z" fill="#FECE05" stroke="#451717" stroke-width="1.5"/>
<path d="M100.753 107.737C100.706 107.709 100.656 107.68 100.603 107.648C100.211 107.414 99.6856 107.078 99.152 106.667C98.6157 106.255 98.0883 105.781 97.6777 105.276C97.2631 104.765 97.0046 104.268 96.9328 103.806C96.7603 102.694 97.0078 101.846 97.4648 101.249C97.9273 100.645 98.6572 100.228 99.5672 100.086C100.477 99.9442 101.297 100.12 101.92 100.555C102.526 100.979 103.012 101.695 103.192 102.776V102.781L103.201 102.838C103.273 103.3 103.177 103.852 102.937 104.464C102.699 105.069 102.34 105.68 101.954 106.235C101.57 106.787 101.172 107.266 100.869 107.608C100.829 107.653 100.79 107.696 100.753 107.737Z" fill="#FECE05" stroke="#451717" stroke-width="1.5"/>
<path d="M101.833 102.524C101.992 103.541 101.291 104.5 100.272 104.659C99.2554 104.818 98.2962 104.117 98.1372 103.099C97.9786 102.076 98.6787 101.122 99.6979 100.963C100.721 100.805 101.674 101.505 101.833 102.524Z" fill="#FECE05" stroke="#451717" stroke-width="1.5"/>
<path d="M97.3917 93.6859C97.7141 94.3632 97.781 95.2412 97.3846 96.291L97.3823 96.2906C97.2164 96.7283 96.8607 97.161 96.3493 97.5742C95.843 97.9834 95.2288 98.3372 94.6185 98.6293C94.0112 98.9199 93.4278 99.14 92.995 99.2875C92.937 99.3073 92.8819 99.3257 92.8299 99.3427C92.8025 99.2957 92.7737 99.2456 92.7437 99.1927C92.5183 98.7954 92.2286 98.244 91.9678 97.624C91.7057 97.0008 91.4815 96.3288 91.3744 95.6868C91.2662 95.0385 91.2871 94.4783 91.4532 94.0402C91.852 92.9881 92.4861 92.3735 93.1782 92.0806C93.8785 91.7843 94.718 91.7837 95.5772 92.1119C96.4377 92.4404 97.0648 92.9992 97.3917 93.6859ZM93.1186 99.8148C93.1186 99.8148 93.1186 99.8148 93.1186 99.8148L93.1186 99.8148Z" fill="#FECE05" stroke="#451717" stroke-width="1.5"/>
<path d="M96.3555 95.3256L96.3177 95.4241C95.9166 96.333 94.8745 96.7757 93.9389 96.4187C92.9726 96.0499 92.4892 94.9716 92.854 94.001C93.2235 93.0352 94.3021 92.5525 95.2727 92.9182C96.2386 93.2821 96.7237 94.3655 96.3555 95.3256Z" fill="#FECE05" stroke="#451717" stroke-width="1.5"/>
<path d="M90.7384 86.8744L90.7391 86.8754C91.2543 87.6385 91.4465 88.4558 91.3193 89.2047C91.1936 89.9446 90.742 90.7021 89.8083 91.3331C89.4196 91.5958 88.8789 91.7448 88.2231 91.7882C87.5734 91.8312 86.8679 91.7669 86.2012 91.6543C85.5378 91.5424 84.9347 91.3864 84.4963 91.2578C84.4375 91.2406 84.3818 91.2239 84.3295 91.2079C84.3342 91.1532 84.3394 91.0952 84.3453 91.0341C84.3894 90.5792 84.4695 89.9611 84.6129 89.3035C84.757 88.6427 84.9603 87.9637 85.2424 87.3769C85.5272 86.7843 85.867 86.3382 86.2557 86.0756C87.19 85.4443 88.062 85.3067 88.7954 85.4655C89.5373 85.6261 90.2235 86.109 90.7384 86.8744Z" fill="#FECE05" stroke="#451717" stroke-width="1.5"/>
<path d="M89.6153 89.896L89.5129 89.9654C88.6588 90.5441 87.496 90.3209 86.916 89.4602L86.916 89.4602L86.9149 89.4586C86.3362 88.6045 86.5594 87.4417 87.4201 86.8616L87.4201 86.8616L87.4217 86.8606C88.2757 86.2818 89.4386 86.5051 90.0187 87.3658L90.0197 87.3674C90.5766 88.1891 90.3909 89.2967 89.6153 89.896Z" fill="#FECE05" stroke="#451717" stroke-width="1.5"/>
<path d="M87.4688 82.1293L87.467 82.1289C87.0092 82.03 86.5282 81.7427 86.0434 81.2986C85.5634 80.8588 85.122 80.3041 84.7423 79.7441C84.3645 79.1868 84.06 78.6427 83.8497 78.2366C83.8216 78.1822 83.7952 78.1305 83.7706 78.0816C83.8131 78.0475 83.8585 78.0114 83.9064 77.9738C84.2661 77.6917 84.7685 77.323 85.3433 76.9726C85.9209 76.6206 86.5525 76.2987 87.1719 76.097C87.7973 75.8934 88.3548 75.8306 88.8131 75.9296C89.9134 76.1672 90.6145 76.702 91.0067 77.3425C91.4035 77.9906 91.5296 78.822 91.3347 79.7246C91.1399 80.6235 90.6815 81.3273 90.0515 81.7528C89.429 82.1731 88.5688 82.3696 87.4688 82.1293ZM83.3466 78.4373C83.3466 78.4373 83.3466 78.4373 83.3466 78.4373L83.3466 78.4373Z" fill="#FECE05" stroke="#451717" stroke-width="1.5"/>
<path d="M88.2536 80.9705C87.244 80.7508 86.6044 79.7557 86.8239 78.7468C87.0436 77.7373 88.0387 77.0976 89.0475 77.3171C90.0571 77.5368 90.6968 78.5319 90.4773 79.5408C90.2576 80.5503 89.2625 81.19 88.2536 80.9705Z" fill="#FECE05" stroke="#451717" stroke-width="1.5"/>
<path d="M85.1096 69.7944L85.0146 69.6372C84.8307 69.2552 84.7377 68.7663 84.729 68.1944C84.7191 67.5435 84.8194 66.8421 84.9658 66.1821C85.1115 65.5253 85.298 64.931 85.4488 64.4997C85.469 64.442 85.4885 64.3873 85.5071 64.336C85.5614 64.3434 85.6191 64.3516 85.6797 64.3607C86.132 64.4281 86.7452 64.5398 87.3948 64.7165C88.0476 64.8941 88.7155 65.1317 89.2875 65.4429C89.865 65.757 90.2931 66.1183 90.5356 66.5183C91.1186 67.4835 91.2112 68.3607 91.0155 69.0847C90.8175 69.8175 90.3009 70.4781 89.513 70.9542C88.7253 71.4302 87.9001 71.5799 87.159 71.4141C86.4266 71.2502 85.6927 70.7596 85.1096 69.7944ZM84.958 64.2724C84.958 64.2724 84.958 64.2724 84.958 64.2724L84.958 64.2724Z" fill="#FECE05" stroke="#451717" stroke-width="1.5"/>
<path d="M86.4842 69.5717C85.9518 68.6885 86.2317 67.5394 87.1204 67.0011C88.0036 66.4688 89.1527 66.7486 89.6909 67.6373C90.2221 68.5184 89.9393 69.6697 89.0528 70.2091C88.1734 70.7442 87.0243 70.4634 86.4842 69.5717Z" fill="#FECE05" stroke="#451717" stroke-width="1.5"/>
<path d="M98.7957 65.8297C98.8471 65.7964 98.896 65.7651 98.9423 65.7359C98.9805 65.7749 99.0208 65.8166 99.0631 65.8608C99.3789 66.191 99.7947 66.6549 100.199 67.1924C100.606 67.7325 100.988 68.3293 101.248 68.9256C101.512 69.5276 101.628 70.0756 101.574 70.5405C101.444 71.6576 100.979 72.4085 100.379 72.8617C99.7724 73.3202 98.959 73.5258 98.0477 73.4174L98.0454 73.4171C97.1335 73.3115 96.3891 72.9238 95.9047 72.3381C95.4262 71.7595 95.1474 70.9226 95.2803 69.806L95.2996 69.6439C95.3845 69.224 95.6123 68.7735 95.9622 68.3081C96.3533 67.7881 96.8623 67.2953 97.3826 66.8635C97.9003 66.4337 98.4121 66.0782 98.7957 65.8297ZM98.5472 65.3491C98.5472 65.349 98.5472 65.349 98.5472 65.3491L98.5472 65.3491Z" fill="#FECE05" stroke="#451717" stroke-width="1.5"/>
<path d="M96.5044 70.48L96.5045 70.4796C96.6262 69.4493 97.5572 68.7175 98.5777 68.8386L98.5781 68.8387C99.6092 68.9605 100.34 69.8858 100.219 70.9123C100.098 71.934 99.1677 72.6691 98.1439 72.553C97.1144 72.4306 96.3833 71.5 96.5044 70.48Z" fill="#FECE05" stroke="#451717" stroke-width="1.5"/>
<path d="M103.082 76.3735C103.111 75.6701 103.422 74.915 104.155 74.2103L104.314 74.0699C104.665 73.7606 105.181 73.5439 105.826 73.417C106.465 73.2912 107.173 73.2646 107.849 73.2907C108.522 73.3167 109.141 73.3939 109.593 73.4651C109.653 73.4746 109.71 73.484 109.764 73.4932C109.767 73.5478 109.769 73.6059 109.771 73.6671C109.785 74.1242 109.784 74.7478 109.726 75.4186C109.667 76.0927 109.552 76.7922 109.346 77.4103C109.139 78.0344 108.859 78.5198 108.507 78.8294L108.506 78.8303C107.663 79.574 106.816 79.822 106.067 79.7581C105.309 79.6935 104.565 79.3022 103.956 78.6092L103.955 78.6081C103.345 77.9182 103.051 77.1326 103.082 76.3735Z" fill="#FECE05" stroke="#451717" stroke-width="1.5"/>
<path d="M104.778 75.3931C105.554 74.7104 106.736 74.7858 107.418 75.5609C108.101 76.3371 108.025 77.5193 107.25 78.2009C106.474 78.8836 105.292 78.8082 104.61 78.0331C103.927 77.2569 104.003 76.0747 104.778 75.3931Z" fill="#FECE05" stroke="#451717" stroke-width="1.5"/>
<path d="M112.304 97.8353C112.335 97.8876 112.364 97.9374 112.392 97.9845C112.352 98.0211 112.309 98.0597 112.264 98.1001C111.922 98.404 111.444 98.803 110.892 99.1882C110.338 99.5753 109.727 99.9355 109.121 100.175C108.51 100.417 107.957 100.514 107.492 100.443C106.381 100.273 105.648 99.7825 105.217 99.1673C104.78 98.5448 104.603 97.7238 104.743 96.8137C104.882 95.9037 105.296 95.1744 105.898 94.7117C106.493 94.2544 107.339 94.0055 108.451 94.1752C108.913 94.2458 109.411 94.503 109.922 94.9163C110.429 95.3255 110.904 95.8517 111.318 96.3868C111.73 96.9193 112.068 97.4433 112.304 97.8353Z" fill="#FECE05" stroke="#451717" stroke-width="1.5"/>
<path d="M107.735 95.3795L107.739 95.38C108.758 95.5336 109.456 96.489 109.302 97.5112L109.302 97.5117C109.148 98.5306 108.193 99.2296 107.17 99.0748C106.156 98.9212 105.452 97.9641 105.607 96.9436L105.607 96.9431C105.761 95.9209 106.718 95.2209 107.735 95.3795Z" fill="#FECE05" stroke="#451717" stroke-width="1.5"/>
<path d="M112.304 87.329C112.335 87.3813 112.364 87.4311 112.392 87.4782C112.352 87.5148 112.309 87.5534 112.264 87.5938C111.922 87.8976 111.444 88.2967 110.892 88.6819C110.338 89.0689 109.727 89.4292 109.121 89.6686C108.51 89.9102 107.957 90.0073 107.492 89.9367C106.381 89.767 105.648 89.2761 105.217 88.661C104.78 88.0385 104.603 87.2174 104.743 86.3074C104.882 85.3974 105.296 84.668 105.898 84.2054C106.493 83.748 107.339 83.4991 108.451 83.6689C108.913 83.7395 109.411 83.9966 109.922 84.4099C110.429 84.8192 110.904 85.3453 111.318 85.8805C111.73 86.413 112.068 86.9369 112.304 87.329Z" fill="#FECE05" stroke="#451717" stroke-width="1.5"/>
<path d="M107.589 84.8504L107.735 84.873C108.76 85.0321 109.456 85.9854 109.302 87.0047C109.148 88.0192 108.191 88.7228 107.17 88.5683C106.156 88.4148 105.452 87.4576 105.607 86.4371L105.607 86.4366C105.753 85.4647 106.627 84.7819 107.589 84.8504Z" fill="#FECE05" stroke="#451717" stroke-width="1.5"/>
<path d="M95.301 86.7702L95.2996 86.7691C94.5763 86.2016 94.1435 85.4817 94.0359 84.7286C93.9295 83.9844 94.1283 83.124 94.8241 82.2387C95.114 81.87 95.5831 81.5628 96.1943 81.3208C96.7996 81.0812 97.491 80.9264 98.16 80.8295C98.8258 80.733 99.4475 80.6967 99.9042 80.6849C99.9651 80.6833 100.023 80.6822 100.077 80.6814C100.09 80.7347 100.102 80.7913 100.115 80.8511C100.212 81.2979 100.325 81.911 100.389 82.581C100.454 83.2543 100.467 83.9629 100.378 84.6079C100.288 85.2591 100.101 85.7875 99.8112 86.156C99.1145 87.0423 98.3261 87.4407 97.5793 87.5145C96.8242 87.5891 96.0241 87.3403 95.301 86.7702Z" fill="#FECE05" stroke="#451717" stroke-width="1.5"/>
<path d="M95.5258 83.4547C96.1588 82.6448 97.3358 82.5017 98.1508 83.1378C98.9641 83.779 99.1038 84.9514 98.468 85.7648C97.835 86.5747 96.658 86.7178 95.8429 86.0817C95.0297 85.4405 94.89 84.2681 95.5258 83.4547Z" fill="#FECE05" stroke="#451717" stroke-width="1.5"/>
</g>
<defs>
<clipPath id="clip0_21_469">
<rect width="144" height="141" fill="white" transform="translate(0 0.737305)"/>
</clipPath>
</defs>
</svg>
