<svg width="156" height="144" viewBox="0 0 156 144" fill="none" xmlns="http://www.w3.org/2000/svg">
<g clip-path="url(#clip0_21_474)">
<path fill-rule="evenodd" clip-rule="evenodd" d="M46.6678 140.664C68.2782 142.152 77.7081 138.335 96.7365 128.315C117.084 117.594 125.7 128.708 147.198 95.7595C162.999 71.5391 153.401 34.0156 136.253 21.0494C121.181 9.65486 106.307 9.71092 92.667 3.78912C68.6992 -6.62315 19.6969 13.2753 6.8991 40.1339C-9.40691 74.3175 7.88139 138.026 46.6959 140.664" fill="#CB9975"/>
<path d="M111.13 49.8018C116.024 57.8283 116.531 66.4814 112.592 74.1499C112.115 75.0152 111.787 75.612 111.488 76.0894C111.429 76.2087 111.369 76.2983 111.339 76.358C111.399 76.5071 111.488 76.716 111.608 76.9248C111.876 77.4619 112.205 78.1483 112.622 79.1031C113.279 80.5652 112.98 82.4151 111.817 84.2353C110.086 86.8909 107.043 88.6215 103.492 89.1586C103.552 89.8449 103.343 90.561 102.806 91.0384C95.6443 97.6625 88.9605 100.646 80.3969 100.975C80.0388 100.975 79.6808 100.975 79.3227 100.975C66.2237 100.975 51.0956 91.9037 44.4417 79.9684C41.3087 74.3289 40.2046 68.4209 41.0699 62.6621C40.8312 61.8863 40.9804 61.0807 41.4876 60.4839C42.1739 57.6791 43.3078 54.934 44.9191 52.2485C44.0538 51.0849 43.0691 49.5631 43.1288 46.4002C43.1288 44.1325 44.7699 42.1333 46.3812 41.1785C47.2166 40.6712 48.1117 40.4027 48.9472 40.3728C54.2584 33.0028 62.8221 28.9746 73.2953 28.9746H73.3551C87.8864 28.9746 103.76 37.7471 111.101 49.8316L111.13 49.8018ZM108.863 71.1064C109.758 69.1669 110.235 67.2572 110.444 65.4669C105.939 63.6169 102.388 61.3791 99.5532 58.4549C98.658 57.5299 98.658 56.0679 99.6128 55.1429C100.538 54.2477 102 54.2775 102.895 55.2025C104.954 57.2912 107.281 58.9323 110.325 60.3646C109.788 57.2316 108.534 54.4566 107.192 52.2485C100.747 41.6858 86.2452 33.6891 73.4446 33.6294C77.3534 39.06 81.0235 42.9688 86.0065 45.4454C87.1702 46.0123 87.6476 47.4147 87.0509 48.5486C86.663 49.384 85.8275 49.8615 84.992 49.8615C84.634 49.8615 84.3057 49.8018 83.9477 49.6228C76.7268 46.0123 71.9825 39.7463 68.1035 34.1068C65.2092 34.5842 62.5834 35.4495 60.2262 36.7027C61.8375 39.985 64.493 43.6551 67.6261 45.5647C68.7301 46.251 69.0583 47.6534 68.4019 48.7575C67.9543 49.4736 67.2083 49.8615 66.4325 49.8615C66.0148 49.8615 65.5971 49.7421 65.2092 49.5034C61.3003 47.1164 58.2568 42.939 56.377 39.2987C55.094 40.3729 53.9899 41.6261 52.9754 42.9688C64.7019 61.9162 83.6194 75.5225 101.582 77.7604C102.865 77.9096 103.76 79.0732 103.611 80.3265C103.462 81.52 102.477 82.3853 101.314 82.3853C101.224 82.3853 101.135 82.3853 101.015 82.3853C81.6203 79.9684 61.2705 65.4073 48.8577 45.147C48.4698 45.4454 47.9029 46.1317 47.9029 46.4897C47.9029 48.3099 48.2311 48.7574 48.9472 49.7123C49.2158 50.0703 49.5142 50.4881 49.7828 50.9356C55.5117 60.0662 64.6721 69.1967 74.9961 75.9402C84.246 82.0272 92.3621 84.7127 101.284 84.7127C106.028 84.7127 108.266 81.8482 108.385 80.8337C108.027 80.0579 107.729 79.4313 107.49 78.9837C106.714 77.4023 106.476 76.5071 106.804 75.3434C100.717 73.1951 94.4508 69.4951 90.3331 65.4669C89.4081 64.5718 89.4081 63.1097 90.2734 62.1847C91.1685 61.2896 92.6306 61.2597 93.5855 62.125C97.3153 65.7653 103.283 69.2564 108.893 71.1064H108.863ZM90.2734 94.1118C92.8395 92.9779 95.2862 91.3368 97.8225 89.2183C89.2589 88.6215 81.2622 85.6675 72.4002 79.8192C62.7027 73.4636 53.9601 65.1089 47.9029 56.5154C46.9481 58.3952 46.2916 60.2452 45.9037 62.0057C49.9319 69.5846 54.5867 74.7168 60.4947 78.0289C61.6286 78.6257 62.0165 80.0579 61.3899 81.1619C60.9721 81.9377 60.1665 82.3853 59.3609 82.3853C58.973 82.3853 58.5851 82.2958 58.227 82.0869C53.4529 79.4313 49.4247 75.7612 45.9037 70.8975C46.4707 73.4636 47.4255 75.791 48.4997 77.7604C54.5568 88.6514 68.5212 96.7674 80.188 96.3497C80.5759 96.3497 80.9638 96.29 81.3219 96.2601C77.6816 94.9771 74.0414 93.3061 71.6841 91.0682C70.789 90.1731 70.7292 88.711 71.6244 87.7861C72.5195 86.8611 73.9816 86.8312 74.9066 87.7264C78.0695 90.7699 85.4694 92.8287 89.8855 94.0521L90.1541 94.1416H90.2137L90.2734 94.1118Z" fill="white" stroke="#CB9975" stroke-width="2"/>
<g clip-path="url(#clip1_21_474)">
<path d="M111.416 93.057L107.397 94.2987L102.229 95.8853C101.207 96.1949 99.4738 95.8894 97.9929 95.762C96.0339 95.0447 93.0639 94.4302 90.3115 93.8678C86.5093 93.1022 86.1696 93.0166 82.4199 91.7836C81.1751 91.3637 79.8081 90.9102 78.4259 90.4835C74.6726 89.3195 70.8206 88.4548 69.2273 89.3999C69.1282 89.4504 69.0558 89.516 68.9834 89.5816C68.911 89.6472 68.8386 89.7127 68.793 89.7934C68.7778 89.8203 68.7473 89.8741 68.7321 89.901C68.3347 91.6646 72.7487 93.0958 76.952 94.0882C77.2651 94.1587 77.6049 94.2443 77.9179 94.3149C79.4144 94.6641 80.8192 94.926 81.9377 95.1325C80.9912 95.0588 80.2434 95.133 79.9539 95.3953C79.9539 95.3953 79.9386 95.4222 79.9234 95.4491C79.893 95.5029 79.8893 95.5718 79.9124 95.6559C79.9239 95.6979 79.9354 95.7399 79.9737 95.7971C80.3568 96.6173 81.4034 97.1382 82.8616 97.4303C83.1212 97.4706 83.4075 97.526 83.6938 97.5814C85.881 97.8952 88.6514 97.8642 91.288 97.7576C92.5167 97.7068 93.7186 97.641 94.8099 97.5835C93.9289 97.8309 93.063 98.0513 92.1705 98.2567C90.4121 98.6824 88.6154 99.0511 86.8224 99.3508L86.3914 99.4265C85.6971 99.5309 85.0027 99.6354 84.2817 99.7246C82.4878 99.5268 80.6141 99.5323 78.7672 99.5529C78.4924 99.5396 78.1222 99.5077 77.6985 99.4456C76.29 99.2527 74.2476 98.8077 73.0037 98.8854C71.8507 98.5528 70.6856 97.9295 69.368 97.3263C67.042 96.2594 64.1241 94.9287 59.6124 94.2945C58.8604 94.1888 57.0965 93.6883 55.0347 93.0903C53.1057 92.0704 50.9434 90.7765 48.7429 89.4255C44.2652 86.6092 36.9176 81.5661 34.5184 82.1266C34.3506 82.1737 34.2173 82.3469 34.2215 82.5268C34.2256 82.7066 34.2565 82.9016 34.3294 83.0849C35.0781 85.5676 39.8273 88.7151 42.3948 90.4157C42.5286 90.4913 42.7692 90.6274 42.9527 90.8022C43.1215 91.2527 43.3474 91.6645 43.6152 92.0645C41.6033 91.5658 39.175 90.8671 37.4866 89.9832C36.9518 89.6808 35.3165 88.5784 33.8652 87.8996C31.9707 87.0058 30.559 87.1306 32.8412 89.2734C35.2418 91.5187 38.6526 93.1636 41.8214 93.926C44.1501 94.4263 44.82 95.5508 41.0514 94.4137C39.0929 93.9452 36.8739 92.9388 34.938 92.3055C33.7734 91.9309 28.9547 90.3419 30.6679 92.305C31.6278 93.4159 32.4683 93.9267 33.5379 94.5317C35.891 95.8625 40.6066 97.3221 42.1838 97.9655C38.1557 96.7882 29.1949 96.4072 28.6154 98.7424C28.7809 99.5106 30.8524 99.1554 32.7334 99.012C35.141 98.8113 37.0372 98.641 39.5033 99.1481C39.885 99.2219 40.8011 99.3494 41.7555 99.5341C39.9856 99.9179 38.2622 100.719 36.9925 101.279C35.7915 101.842 35.0557 102.207 34.6486 102.865C34.1715 104.832 39.5319 102.218 40.3936 101.817C44.0842 100.034 49.0039 100.509 53.3829 101.565C54.784 101.896 58.1777 102.573 61.7886 103.052C57.9043 103.306 52.9832 104.144 49.1036 104.826C44.7509 105.595 34.372 108.034 33.5344 111.075C34.2126 112.56 37.319 110.624 41.3388 109.382C45.1221 108.184 49.7191 107.482 51.0658 107.285L62.8231 105.342C64.3796 105.086 66.4704 104.884 67.8701 104.468C68.1638 104.386 69.2975 104.565 70.4312 104.745C68.8097 104.928 66.4635 105.27 64.4649 105.809C62.802 106.253 61.4064 106.848 60.9002 107.556C60.885 107.583 60.8545 107.637 60.8545 107.637C61.151 109.047 67.5276 107.008 68.2524 106.85C69.0191 106.68 70.7355 106.266 72.3413 105.86C67.2805 107.508 61.8209 110.172 58.5946 111.259C53.3623 113.022 48.763 116.599 47.32 120.398C47.3859 120.968 48.119 121.17 48.8695 120.529C49.8372 119.692 51.5744 118.118 53.354 116.781C56.6541 114.315 62.1524 111.957 67.1441 110.058C64.6784 111.859 62.5489 113.815 62.0671 115.353C62.0215 115.434 62.0446 115.518 62.0828 115.575C63.5872 118.094 75.99 110.267 77.2708 109.5C77.6977 109.245 78.2694 108.858 78.9286 108.379C80.3463 107.37 82.225 105.982 84.0198 104.618C84.3251 104.578 84.6455 104.511 84.9774 104.485C83.6971 105.501 81.9941 106.952 80.6382 108.351C80.4325 108.59 80.2421 108.802 80.0517 109.014C79.1836 110.05 78.5824 110.988 78.5151 111.731C78.4999 111.758 78.5114 111.8 78.5649 111.83C79.0734 112.366 80.6018 111.349 82.084 110.163C83.4671 109.028 84.8041 107.725 85.0517 107.474C85.5316 107 86.4113 106.006 87.3213 104.959C87.6298 104.601 87.9382 104.242 88.2314 103.911C89.5551 103.63 90.8367 103.361 91.9847 103.016C90.6888 103.81 89.4693 104.718 88.4979 105.624L88.4371 105.732C87.8732 106.23 86.2089 107.987 85.6008 109.312C85.3956 109.799 85.3085 110.14 85.4353 110.603C85.4468 110.645 85.5118 110.717 85.5653 110.747C86.3214 111.033 87.6326 110.212 89.065 108.927C89.065 108.927 89.1185 108.958 89.1453 108.973C89.2255 109.018 89.3209 109.037 89.4163 109.055C88.4491 110.141 87.4173 111.404 86.4962 112.658C84.5663 115.26 82.9075 117.943 82.7466 119.663C82.9375 121.759 86.7203 118.253 87.4861 117.585C87.7908 117.296 88.8115 116.24 90.1863 114.745C91.5611 113.251 93.2748 111.344 94.9958 109.299C95.9363 108.198 96.8921 107.069 97.7791 105.938L97.916 105.696C98.7537 104.714 99.5075 103.755 100.162 102.847C101.129 101.512 101.924 100.293 102.43 99.3366C105.512 98.3809 108.799 97.4353 111.496 96.7234C112.32 96.5148 113.075 96.3028 113.731 96.1412C113.944 95.7646 114.015 95.2014 113.965 94.6046C113.89 93.675 113.526 92.7589 113.061 92.7086L111.478 93.1982L111.416 93.057ZM75.7547 92.5234C75.1553 92.3975 74.6247 92.2749 74.094 92.1523C73.7123 92.0784 73.361 91.9508 73.0212 91.8651C72.6012 91.7341 72.2231 91.5913 71.8718 91.4636C70.4855 90.8571 69.9696 90.4588 70.2402 90.2923C70.3126 90.2268 70.4652 90.2065 70.6445 90.2015C70.8926 90.1997 71.278 90.2047 71.7284 90.2819C72.7819 90.4161 74.0534 90.8511 75.5195 91.2542C77.5315 91.753 79.8791 92.1575 81.922 92.8513C82.3687 92.9974 82.8155 93.1435 83.2775 93.2628C84.419 93.5533 85.549 93.8018 86.1751 93.9429C89.6264 94.8296 95.5886 95.645 98.3262 96.4832C96.2649 96.134 92.608 95.4861 89.3715 95.218C88.1156 95.0048 86.8865 94.8067 85.6726 94.5818C82.3439 93.9775 79.1028 93.2807 75.7395 92.5503L75.7547 92.5234ZM89.6172 96.0316L88.4762 95.9898C88.4762 95.9898 88.2701 95.9798 88.1594 95.9882C87.6938 95.9379 87.064 95.8658 86.3959 95.7365C86.9036 95.7751 87.4379 95.8287 87.999 95.8975L89.602 96.0585L89.6172 96.0316ZM90.0732 97.035C86.7685 97.0124 83.4407 96.9057 81.8063 96.3009C80.3208 95.7449 81.0115 95.7094 82.1756 95.8351C84.0382 96.0364 87.1073 96.6004 88.3858 96.6488C88.756 96.6807 89.1147 96.6705 89.4734 96.6603C91.7173 96.6866 94.0183 96.6743 96.0833 96.9545C95.4346 96.9782 94.7325 96.9716 93.9999 97.0189C92.7749 97.0007 91.424 97.0179 90.1152 97.0233L90.0732 97.035ZM73.6842 99.5543C75.1499 99.7086 77.5625 100.185 78.5814 100.193C78.734 100.173 78.8981 100.195 79.0775 100.19C80.9931 100.173 82.9848 100.021 84.7215 100.257C84.195 100.315 83.657 100.33 83.0618 100.384C82.0124 100.43 80.8525 100.484 79.7077 100.511C77.1549 100.594 74.6363 100.554 73.3836 100.023C72.2264 99.511 72.7797 99.4688 73.6842 99.5543ZM37.0532 84.6963C37.0532 84.6963 36.8812 84.5635 36.8162 84.4913C35.1611 82.9871 35.9361 83.1769 38.1592 84.3632C42.2731 86.5122 44.6871 87.7354 48.298 90.2746C46.736 89.6042 45.5599 89.1876 44.6359 88.9492C43.6585 88.6804 42.8914 88.6016 42.1473 88.6069C40.4317 87.4591 38.7351 86.2156 37.0915 84.7535L37.0532 84.6963ZM45.5124 92.3918C44.7291 91.8423 42.3741 89.5163 44.979 90.7764C45.5709 91.0402 46.2966 91.3796 47.2017 91.7139C48.5534 92.1943 50.6802 92.8645 52.7954 93.4927C55.5331 94.3309 58.2477 95.085 59.2136 95.3116C60.901 95.6979 62.3934 95.8673 63.4127 96.1242C66.2951 96.8312 69.4118 98.3097 70.3597 99.1298C69.0042 98.7183 68.7216 98.594 67.3892 98.2665L57.6083 95.966L56.9669 95.8519C53.3787 95.2073 48.3248 94.4084 45.5544 92.38L45.5124 92.3918ZM64.866 101.917C59.0988 101.318 53.4221 100.061 47.6476 99.5998C50.5927 99.1351 60.1832 99.5881 65.6576 100.767C67.6732 101.197 69.1168 101.764 69.469 102.39L68.3049 102.264L64.866 101.917ZM84.1314 103.048C81.8636 104.5 79.6492 105.981 77.3699 107.391C77.0268 107.623 76.6571 107.84 76.3026 108.03C75.4068 108.553 67.6503 113.469 64.2372 114.698C62.8186 115.21 63.0694 114.642 64.0561 113.708C66.5475 111.425 71.7323 108.747 75.9794 106.604L77.3099 105.936C79.3763 104.904 81.3813 103.73 83.4781 102.643C85.0221 101.848 86.5929 101.067 88.2936 100.431L88.6445 100.31L88.3738 100.477C86.9101 101.318 85.5417 102.177 84.1734 103.036L84.1314 103.048ZM98.1221 101.587C97.158 102.356 96.1788 103.151 95.1539 104.027L94.9368 104.224L94.6625 104.459C93.4624 105.52 92.4569 106.549 91.592 107.267C90.7386 108.028 90.041 108.45 89.5104 108.327C89.4942 107.856 89.8977 107.268 90.4689 106.632C91.5085 105.481 93.1014 104.287 93.6044 103.896L93.8939 103.634L94.1378 103.452C95.1322 102.63 96.1802 101.838 97.2664 101.103C98.5241 100.252 99.9003 99.5037 101.323 98.9233C100.21 99.8919 99.1317 100.738 98.0953 101.572L98.1221 101.587ZM112.807 93.8434C112.953 94.2098 112.839 94.7848 112.473 94.9328C112.397 95.0673 111.345 95.4307 110.044 95.7959C107.904 96.3966 105.07 97.1017 104.647 97.0396C101.879 96.7529 99.3304 98.8263 96.9658 99.5129C96.4203 99.666 95.8062 99.8158 95.2074 99.9386C93.9944 100.211 92.7394 100.496 91.561 100.894C89.9059 101.45 90.7155 99.7061 89.2424 99.6897C90.6343 99.1632 92.0041 99.0502 93.3088 98.8649C94.1825 98.7554 95.0179 98.5888 95.7537 98.2238C96.6153 97.8234 97.6149 97.6786 98.3737 97.3977C99.0602 97.1823 100.047 96.4978 100.682 96.9986C100.815 97.0742 101.243 97.3162 101.197 96.8993C101.497 96.4302 102.443 96.2551 103.504 96.0027C104.663 95.6998 105.937 95.3195 106.795 94.9881C107.188 94.8552 107.554 94.7072 107.905 94.586C109.281 94.0864 110.532 93.6221 112.138 93.4653L112.249 93.4569C112.512 93.4282 112.669 93.5879 112.78 93.8283L112.807 93.8434Z" fill="white"/>
</g>
</g>
<defs>
<clipPath id="clip0_21_474">
<rect width="156" height="143" fill="white" transform="translate(0 0.737305)"/>
</clipPath>
<clipPath id="clip1_21_474">
<rect width="73.4319" height="75.8796" fill="white" transform="translate(21 105.655) rotate(-60.51)"/>
</clipPath>
</defs>
</svg>
