<svg width="82" height="46" viewBox="0 0 82 46" fill="none" xmlns="http://www.w3.org/2000/svg">
<path d="M81.2396 16.8369V28.056H77.2654V20.1882H73.4381V28.056H69.4639V16.8369H81.2396Z" fill="#1C1637"/>
<path d="M67.5789 23.0855C67.5789 26.3525 64.8455 28.5078 61.1653 28.5078C57.3577 28.5078 54.582 26.2259 54.582 21.0539C54.582 16.6163 57.4285 12.9583 61.643 12.8879C63.4888 12.8879 67.4546 12.8008 67.4546 12.8008L65.6681 16.0648C65.6681 16.0648 62.5079 16.0705 62.0895 16.0705C60.272 16.0705 58.6184 17.4325 58.3867 19.2952C59.3533 18.3947 60.6367 17.8714 62.1941 17.8714C65.5608 17.8714 67.5789 19.9228 67.5789 23.0855ZM63.5 23.0855C63.5 21.6194 62.5532 20.7612 61.185 20.7612C59.7745 20.7612 58.8305 21.6392 58.8305 23.1051C58.8305 24.4868 59.7773 25.4913 61.185 25.4913C62.6578 25.4942 63.5 24.4052 63.5 23.0855Z" fill="#1C1637"/>
<path d="M51.4304 24.6658C51.4304 24.6658 50.4694 25.2033 49.0363 25.3074C47.3856 25.3524 45.9186 24.3421 45.9186 22.5412C45.9186 20.7853 47.216 19.7781 48.994 19.7781C50.0849 19.7781 51.5294 20.5152 51.5294 20.5152C51.5294 20.5152 52.5865 18.6271 53.1322 17.6872C52.1315 16.9473 50.7945 16.542 49.2427 16.542C45.325 16.542 42.2891 19.0296 42.2891 22.5216C42.2891 26.0585 45.1412 28.487 49.2427 28.4138C50.3903 28.3717 51.9704 27.9805 52.9342 27.3784L51.4304 24.6658Z" fill="#1C1637"/>
<path d="M0.759766 9.93164L6.25479 19.6733V25.6135L0.771094 35.3354L0.759766 9.93164Z" fill="#5B57A2"/>
<path d="M21.8457 16.1268L26.9902 12.9978L37.5196 12.9893L21.8457 22.5199V16.1268Z" fill="#D90751"/>
<path d="M21.818 9.87509L21.8461 22.7711L16.3428 19.4142V0.13623L21.818 9.87509Z" fill="#FAB718"/>
<path d="M37.5199 12.9901L26.9906 12.9985L21.818 9.87509L16.3428 0.13623L37.5199 12.9901Z" fill="#ED6F26"/>
<path d="M21.8461 35.3889V29.1308L16.3428 25.8413V45.1362L21.8461 35.3889Z" fill="#63B22F"/>
<path d="M26.9769 32.288L6.25479 19.6733L0.759766 9.93164L37.4977 32.2767L26.9769 32.288Z" fill="#1487C9"/>
<path d="M16.3428 45.1358L21.8461 35.3884L26.9765 32.2876L37.4974 32.2764L16.3428 45.1358Z" fill="#017F36"/>
<path d="M0.772461 35.3336L16.3869 25.8396L11.1349 22.6431L6.25616 25.6117L0.772461 35.3336Z" fill="#984995"/>
</svg>
