<svg width="46" height="46" viewBox="0 0 46 46" fill="none" xmlns="http://www.w3.org/2000/svg">
<path d="M1.30078 0.63623H28.3376L35.3589 7.65748V44.6362H1.30078V0.63623Z" fill="#F7F7F8" stroke="#EDEDED"/>
<path d="M28.5439 0.13623V7.45039H35.8581L28.5439 0.13623Z" fill="#CCCCCC"/>
<path d="M29.5346 10.0039H5.90723V12.2601H29.5346V10.0039Z" fill="#D55258"/>
<path d="M29.5346 14.1938H5.90723V16.4501H29.5346V14.1938Z" fill="#D55258"/>
<path d="M29.5346 18.3594H5.90723V20.6156H29.5346V18.3594Z" fill="#D55258"/>
<path d="M29.5346 22.5239H5.90723V24.7802H29.5346V22.5239Z" fill="#D55258"/>
<path d="M24.006 26.7144H5.90723V28.9706H24.006V26.7144Z" fill="#D55258"/>
<path d="M38.0227 18.8794L43.1843 23.7819L29.7815 37.8515L24.6201 32.9489L38.0227 18.8794Z" fill="#D55258"/>
<path d="M24.6275 32.9375L29.7845 37.8466L24.6275 40.1277L22.6191 38.2188L24.6275 32.9375Z" fill="#FECE05"/>
<path d="M27.1805 35.3921L29.7839 37.8467L24.6269 40.1277L23.6104 39.1608L27.2054 35.3921H27.1805Z" fill="#FECE05"/>
<path d="M42.0564 17.1685L44.759 19.7222C45.4533 20.3917 45.3045 21.6561 44.4616 22.5734L43.2714 23.8131L43.2466 23.838L38.04 18.8793L38.0649 18.8545L39.2551 17.6147C40.1228 16.7223 41.3872 16.4991 42.0814 17.1684L42.0564 17.1685Z" fill="#F8B0B8"/>
<path d="M43.397 18.4336L44.7606 19.7229C45.4548 20.3924 45.3061 21.6568 44.4632 22.5741L43.273 23.8138L43.2482 23.8387L40.6201 21.3592L43.397 18.4584V18.4336Z" fill="#D55258"/>
<path d="M24.6277 40.1279L21.0078 41.8882L22.5945 38.2188L24.6028 40.1277H24.6277V40.1279Z" fill="#9D9E9E"/>
<path d="M24.6277 40.1276L21.0078 41.8879L23.6112 39.1606L24.6277 40.1276Z" fill="#727271"/>
</svg>
