<svg width="46" height="38" viewBox="0 0 46 38" fill="none" xmlns="http://www.w3.org/2000/svg">
<path d="M3.94733 0.154297H38.8384C40.7429 0.154297 42.2857 1.69716 42.2857 3.60163V33.6713C42.2857 35.5757 40.7429 37.1186 38.8384 37.1186H3.94733C2.04286 37.1186 0.5 35.5757 0.5 33.6713V3.60163C0.5 1.69716 2.04286 0.154297 3.94733 0.154297Z" fill="#F8B0B8"/>
<path d="M43.2262 10.6006H26.8815C25.6256 10.6006 24.6074 11.6188 24.6074 12.8747V24.3979C24.6074 25.6539 25.6256 26.672 26.8815 26.672H43.2262C44.4822 26.672 45.5003 25.6539 45.5003 24.3979V12.8747C45.5003 11.6188 44.4822 10.6006 43.2262 10.6006Z" fill="#D55258"/>
<path d="M31.5658 21.6017C29.9345 21.6017 28.6006 20.2759 28.6006 18.6366C28.6006 16.9973 29.9345 15.6714 31.5658 15.6714C33.2051 15.6714 34.5309 16.9973 34.5309 18.6366C34.5309 20.2759 33.2051 21.6017 31.5658 21.6017Z" fill="white"/>
</svg>
