<svg width="64" height="46" viewBox="0 0 64 46" fill="none" xmlns="http://www.w3.org/2000/svg">
<g clip-path="url(#clip0_368_1248)">
<path d="M41.1636 0.680664C28.8841 0.680664 19.0166 10.6143 19.0166 22.7555C19.0166 34.9968 28.9812 44.8304 41.1606 44.8304C53.3401 44.8304 63.3135 34.8967 63.3135 22.7555C63.3135 10.6143 53.343 0.680664 41.1636 0.680664ZM41.1636 30.9836C36.6338 30.9836 32.9105 27.2706 32.9105 22.7555C32.9105 18.2405 36.6338 14.5275 41.1636 14.5275C45.6933 14.5275 49.4181 18.2405 49.4181 22.7555C49.3165 27.2706 45.6933 30.9836 41.1636 30.9836Z" fill="#8B3FFD"/>
<path d="M19.0165 7.09424V39.2029H11.1697L1.10352 7.09424H19.0165Z" fill="#8B3FFD"/>
</g>
<defs>
<clipPath id="clip0_368_1248">
<rect width="62.7907" height="45" fill="white" transform="translate(0.604492 0.63623)"/>
</clipPath>
</defs>
</svg>
