<svg width="52" height="46" viewBox="0 0 52 46" fill="none" xmlns="http://www.w3.org/2000/svg">
<path d="M50.591 21.7319L51.2151 19.6099L49.0307 19.6723C48.8434 19.6723 47.5327 19.6099 46.2221 18.6737H46.5341C47.8448 18.6737 49.1555 17.8623 49.6548 16.7389L50.591 14.6792C49.4051 14.6792 48.3441 14.5544 48.3441 14.5544C48.3441 14.5544 47.4703 14.4296 46.5341 13.431C45.8476 12.7444 44.9738 12.3699 44.0376 12.3699C43.6007 12.3699 43.2886 12.4323 42.9766 12.5572C43.039 12.3699 43.1014 12.2451 43.1014 12.0579C43.4135 10.1231 42.1652 8.62513 42.1652 8.62513L40.5424 6.62791L39.5438 8.99961C39.5438 8.99961 39.2942 9.56133 38.8573 9.81099C38.7325 9.12444 38.358 8.31307 37.6714 7.56411C36.2983 6.1286 34.6756 5.94136 33.8018 5.94136C33.4273 5.94136 33.1153 6.00378 33.0528 6.00378L31.0556 6.37826C31.1804 5.94136 31.4301 5.1924 31.867 4.50586L32.928 2.8207L30.1194 3.13276L29.2456 1.26036L27.5605 2.13415L26.0001 0.63623L24.5022 2.19656L22.8171 1.32278L21.9433 3.19518L19.1971 2.88311L20.2581 4.56827C20.695 5.25482 20.9447 6.00378 21.0695 6.44067L19.1971 6.06619H19.1347C19.0098 6.06619 18.7602 6.00378 18.3233 6.00378C17.4495 6.00378 15.8268 6.19102 14.4537 7.62652C13.7047 8.37548 13.3926 9.18686 13.2678 9.8734C12.8309 9.62375 12.5813 9.06203 12.5813 9.06203L11.5827 6.69032L9.8975 8.74996C9.71026 8.99961 8.71165 10.3727 8.9613 12.1203C8.9613 12.3075 9.02372 12.4323 9.08613 12.6196C8.77406 12.4948 8.39958 12.4323 8.0251 12.4323C7.0889 12.4323 6.21512 12.8068 5.52857 13.4934C4.52996 14.492 3.71858 14.6168 3.71858 14.6168C3.71858 14.6168 2.8448 14.8041 1.4717 14.7416L2.4079 16.8013C2.90721 17.9247 4.21789 18.7361 5.52857 18.7361H5.84064C4.52996 19.6723 3.21928 19.7347 3.03204 19.7347L0.785156 19.6099L1.4717 21.7319C1.78377 22.793 2.90721 24.6029 5.09168 24.7902C4.84202 25.7888 4.34272 26.8498 3.21928 27.3491L1.59653 28.0357L2.47032 29.596C2.96962 30.4074 4.15548 31.406 5.84064 31.406C6.21512 31.406 6.5896 31.3436 6.90166 31.2812C6.96408 31.6556 7.0889 32.0301 7.21373 32.4046C7.71304 33.9025 7.27614 34.9636 7.27614 34.9636L6.46477 36.6487L8.27476 37.148C8.27476 37.148 8.83647 37.3353 9.52302 37.3353C9.83509 37.3353 10.1472 37.2728 10.3968 37.2104C10.584 37.148 10.8337 37.0856 11.0209 37.0232C11.2706 37.4601 11.5202 37.8346 11.8947 38.1466C13.0806 39.3325 14.7033 39.9566 16.763 39.9566H18.2609L15.2026 41.2049L17.5119 42.3283C18.3857 42.7652 19.3843 43.2021 20.3829 43.5766L20.0709 44.388L20.8822 44.7624C20.9447 44.8249 22.505 45.5114 25.0639 45.6362H26.9363C29.4953 45.5114 31.0556 44.8249 31.118 44.7624L31.9294 44.388L31.6173 43.5766C32.6784 43.2021 33.7394 42.7028 34.5508 42.2659L36.8601 41.1425L33.8018 39.8942H35.2997C37.3594 39.8942 39.0445 39.2701 40.168 38.0842C40.48 37.7722 40.7921 37.3353 41.0417 36.9608C41.229 37.0232 41.4162 37.0856 41.6659 37.148C41.9155 37.2104 42.2276 37.2728 42.5397 37.2728C43.2262 37.2728 43.7879 37.148 43.7879 37.148L45.5979 36.6487L44.7865 34.9636C44.7865 34.9011 44.3497 33.9025 44.849 32.4046C44.9738 32.0301 45.0986 31.6556 45.161 31.2812C45.4731 31.3436 45.8476 31.406 46.2221 31.406C48.4065 31.406 49.4051 29.9081 49.5924 29.5336L50.4662 27.9733L48.8434 27.2867C47.72 26.7874 47.1583 25.7264 46.971 24.7278C49.0931 24.6029 50.2789 22.793 50.591 21.7319ZM26.0001 7.0648C24.2526 7.0648 22.9419 7.62652 22.6922 8.31307L26.0001 9.62375L29.308 8.31307C29.0584 7.62652 27.7477 7.0648 26.0001 7.0648ZM26.0626 41.829H26.0001C24.9391 41.829 23.5036 41.6418 22.8171 41.3921L21.9433 43.7014C22.505 43.8887 24.3774 44.2631 26.0001 44.2631C27.6229 44.2631 29.5577 43.8887 30.057 43.7014L29.2456 41.3921C28.5591 41.6418 27.1236 41.829 26.0626 41.829Z" fill="white"/>
<path d="M32.4298 39.5826C31.8057 39.9571 30.4326 40.4564 29.6212 40.7061L30.3077 42.5785C31.556 42.204 32.617 41.8295 33.4908 41.3926L31.9929 40.9557L32.4298 39.5826ZM19.6351 39.5826L20.072 40.9557L18.6364 41.455C19.5102 41.8919 20.5088 42.2664 21.8195 42.6409L22.5061 40.7685C21.6323 40.4564 20.2592 39.9571 19.6351 39.5826ZM26.0012 4.88084C27.3119 4.88084 28.6226 5.19291 29.6212 5.75463C29.6836 5.44256 29.8084 5.06808 29.9957 4.6936L29.6212 4.75602L29.2467 4.81843L29.0595 4.44395L28.5602 3.38292L27.624 3.88223L27.2495 4.06947L26.9998 3.7574L26.0012 2.75879L25.065 3.7574L24.753 4.00706L24.3785 3.81982L23.4423 3.32051L22.943 4.38154L22.7557 4.75602L22.3812 4.6936L22.0068 4.63119C22.194 5.00567 22.3188 5.38015 22.3812 5.69222C23.4423 5.19291 24.6905 4.88084 26.0012 4.88084ZM46.0359 17.1139C46.2231 17.1763 46.348 17.1763 46.5352 17.1763C47.2842 17.1763 47.9707 16.677 48.2204 16.1777C48.2204 16.1777 46.8473 16.1152 45.4118 14.6173C44.9749 14.118 44.4756 13.9932 44.0387 13.9932C43.3521 13.9932 42.9152 14.3677 42.9152 14.3677C44.7252 15.2415 45.0373 16.7394 46.0359 17.1139ZM5.46724 17.1763C5.65448 17.1763 5.84172 17.1763 5.96654 17.1139C6.96516 16.8018 7.33964 15.2415 9.08721 14.3053C9.08721 14.3053 8.5879 13.9308 7.96377 13.9308C7.52688 13.9308 7.02757 14.0556 6.59068 14.5549C5.15517 16.0528 3.78208 16.1152 3.78208 16.1152C4.03173 16.677 4.71828 17.1763 5.46724 17.1763ZM46.5352 23.2304H46.5976C48.47 23.2304 49.0941 21.2331 49.0941 21.2331H49.0317C48.7197 21.2331 45.9111 21.1707 43.9762 18.6742C42.6656 17.0514 41.667 15.6159 39.5449 15.0542L39.3577 14.9918L39.2953 14.8046C39.2328 14.4925 39.4825 14.1804 39.9194 13.8684C42.7904 11.996 40.8556 9.62425 40.8556 9.62425C40.8556 9.62425 40.0442 11.5591 38.2342 11.5591H38.1094C37.9222 11.5591 37.6725 11.5591 37.4853 11.4967L37.1732 11.4342C37.1732 11.4342 37.6725 9.99873 36.4242 8.68805C35.488 7.68944 34.3022 7.56461 33.6781 7.56461C33.366 7.56461 33.1163 7.62703 33.1163 7.62703C33.7405 8.4384 34.1774 9.81149 33.4908 10.6853C32.8667 11.4342 31.3064 11.4342 31.3064 12.5577C31.3064 12.9946 31.7432 13.5563 32.4922 14.0556C34.8015 15.4911 37.1108 17.4259 38.047 20.0473C39.2328 23.2928 37.9222 25.4148 35.9874 26.6631C35.9874 26.6631 36.6115 27.2248 37.4853 27.2872H37.9846C39.857 27.2872 40.7932 26.4134 40.7932 26.4134C40.7932 26.4134 40.6059 27.5993 39.6697 28.7227C38.7959 29.7213 37.6101 30.3455 35.8625 30.3455C35.8625 30.3455 35.8001 31.1568 36.6115 31.9058C37.1108 32.3427 38.2966 32.5299 38.2966 32.5299C38.2966 32.5299 36.1122 32.9668 35.8625 36.1499C35.7377 37.8975 35.3008 38.5216 35.3008 38.5216H35.3632C40.4187 38.5216 40.2939 34.2151 40.2939 34.2151C40.2939 34.2151 40.6683 35.5258 42.0414 35.8378C42.2287 35.9003 42.4159 35.9003 42.5407 35.9003C42.9776 35.9003 43.4145 35.7754 43.4145 35.7754C43.4145 35.7754 42.6656 34.2151 43.4145 32.0306C44.0387 30.2206 43.9138 28.91 43.9138 28.91C43.9138 28.91 44.6004 29.9086 46.2855 29.971C47.6586 29.971 48.2828 28.91 48.2828 28.91C44.9125 27.5369 45.2245 22.9807 45.2245 22.9807C45.2245 22.9807 45.6614 23.2304 46.5352 23.2304ZM45.5366 27.9114C44.1635 27.2248 43.2897 25.4772 43.1025 24.7907C42.8528 28.3482 41.1677 30.7824 39.108 33.1541C38.047 34.4023 37.6725 35.5882 37.6725 35.5882C37.6725 35.5882 37.8597 34.2151 38.7959 33.1541C40.6683 30.9072 42.4783 28.0362 42.6032 24.7907C42.6656 22.4814 42.1039 20.6714 41.1677 19.1111C41.667 20.6714 41.6045 22.6686 39.857 24.4786C39.857 24.4786 43.2897 20.3593 38.4839 16.0528C36.5491 14.4301 34.427 13.4315 33.366 12.7449C37.298 14.0556 39.2328 12.6201 39.2328 12.6201C37.9846 13.6811 36.3618 13.6811 35.3632 13.5563C35.6129 13.6811 35.9249 13.8059 36.237 13.9932C39.5449 15.8032 42.5407 18.799 43.0401 22.8559V22.7935C43.789 26.9127 45.5366 27.9114 45.5366 27.9114ZM13.7682 32.4051C13.7682 32.4051 14.9541 32.2803 15.4534 31.781C16.2647 31.0944 16.2023 30.2206 16.2023 30.2206C14.4548 30.2206 13.2689 29.5965 12.3951 28.5979C11.4589 27.4745 11.2717 26.2886 11.2717 26.2886C11.2717 26.2886 12.2079 27.1624 14.0803 27.1624H14.5796C15.4534 27.1 16.0775 26.5383 16.0775 26.5383C14.1427 25.29 12.832 23.1679 14.0179 19.9225C14.9541 17.3011 17.2634 15.3663 19.5726 13.9308C20.3216 13.4315 20.7585 12.9322 20.7585 12.4329C20.7585 11.3718 19.1982 11.3094 18.574 10.5605C17.8251 9.68667 18.3244 8.31357 18.9485 7.5022C18.9485 7.5022 18.7613 7.43979 18.3868 7.43979C17.7002 7.43979 16.5768 7.62703 15.6406 8.56323C14.3923 9.87391 14.8916 11.3094 14.8916 11.3094L14.5172 11.4967C14.3299 11.5591 14.1427 11.5591 13.893 11.5591H13.7682C11.9582 11.5591 11.1468 9.62425 11.1468 9.62425C11.1468 9.62425 9.21204 11.996 12.083 13.8684C12.5824 14.1804 12.7696 14.4925 12.7072 14.8046L12.6448 15.0542L12.4575 15.1166C10.3979 15.6783 9.33686 17.1139 8.02618 18.7366C6.09137 21.2331 3.34518 21.2955 2.9707 21.2955C2.9707 21.2955 3.59484 23.2928 5.46724 23.2928H5.52965C6.40344 23.2928 6.84033 22.9183 6.84033 22.9183C6.84033 22.9183 7.1524 27.412 3.78208 28.8476C3.78208 28.8476 4.40621 29.9086 5.7793 29.9086C7.46446 29.9086 8.15101 28.8476 8.15101 28.8476C8.15101 28.8476 8.02618 30.1582 8.65032 31.9682C9.39927 34.1527 8.65032 35.713 8.65032 35.713C8.65032 35.713 9.0248 35.8378 9.5241 35.8378C9.71134 35.8378 9.89858 35.8378 10.0234 35.7754C11.4589 35.4634 11.771 34.1527 11.771 34.1527C11.771 34.1527 11.6462 38.4592 16.7016 38.4592H16.764C16.764 38.4592 16.3272 37.8351 16.2023 36.0875C15.9527 32.9044 13.7682 32.4051 13.7682 32.4051ZM12.9568 33.2165C10.9596 30.8448 9.21204 28.4107 8.96238 24.8531C8.77514 25.4772 7.90136 27.2872 6.52826 27.9738C6.52826 27.9738 8.27584 26.9127 9.02479 22.9183V22.9807C9.5241 18.8614 12.5199 15.928 15.8278 14.118C16.1399 13.9308 16.3896 13.8059 16.7016 13.6811C15.703 13.8684 14.0803 13.8684 12.832 12.7449C12.832 12.7449 14.7668 14.1804 18.6989 12.8697C17.6378 13.5563 15.5158 14.5549 13.581 16.1777C8.71273 20.4218 12.2079 24.6035 12.2079 24.6035C10.4603 22.7935 10.3979 20.8587 10.8972 19.2359C9.961 20.7338 9.39927 22.6062 9.46169 24.9155C9.58651 28.0986 11.3965 30.9072 13.2689 33.2165C14.2051 34.3399 14.3923 35.6506 14.3923 35.6506C14.3923 35.6506 14.0179 34.4648 12.9568 33.2165Z" fill="white"/>
<path d="M22.3185 16.614C22.3809 16.6764 22.5057 16.8013 22.5682 16.9261L22.6306 16.9885C22.693 17.1133 22.7554 17.1757 22.8178 17.3006C22.8178 17.3006 22.8178 17.363 22.8802 17.363C22.9426 17.4878 23.0675 17.6126 23.1299 17.7375C23.8788 18.9857 25.0023 19.7347 26.0633 19.7347C27.1243 19.7347 28.2478 18.9857 28.9967 17.7375C29.0591 17.6126 29.184 17.4878 29.2464 17.363C29.2464 17.363 29.2464 17.3006 29.3088 17.3006C29.3712 17.1757 29.4336 17.1133 29.5584 16.9885L29.6209 16.9261C29.6833 16.8013 29.8081 16.7388 29.8705 16.614L29.9329 16.5516C30.3074 16.1771 30.7443 15.8651 31.306 15.7402L30.9315 15.6154L29.9329 14.9913L28.8719 14.3671L26.0633 15.9275L23.2547 14.3671L22.1937 14.9913L21.1951 15.6154L20.9454 15.7402C21.4447 15.9275 21.8816 16.1771 22.3185 16.614C22.2561 16.614 22.2561 16.614 22.3185 16.614ZM24.8774 16.4892H27.2492V17.3006C26.9995 16.9885 26.4378 17.0509 26.4378 17.0509V18.2368C26.4378 18.2368 26.4378 18.7985 26.6874 19.0481H25.564C25.7512 18.7985 25.8136 18.2368 25.8136 18.2368V17.0509C25.8136 17.0509 25.2519 16.9885 25.0023 17.3006V16.4892H24.8774ZM25.8136 14.9289V10.123L22.7554 9.06201L23.5668 13.6806L25.8136 14.9289ZM25.1271 11.3089V12.0579L25.0023 11.9954C25.0023 11.9954 24.7526 11.933 24.3781 11.621C23.754 11.1217 23.754 10.6848 23.754 10.6848L25.1271 11.3089ZM28.4974 13.743L29.3088 9.12443L26.2505 10.1855V14.9913L28.4974 13.743ZM26.9371 11.3089L28.3102 10.7472C28.3102 10.7472 28.3102 11.1841 27.686 11.6834C27.3116 11.9954 27.1243 12.0579 27.0619 12.0579L26.9371 12.1203V11.3089ZM21.5071 25.976C21.8192 26.1008 22.1313 26.1008 22.3185 26.1008V26.0384C22.3185 25.976 22.3809 25.9136 22.3809 25.8512C22.4433 25.6015 22.4433 25.2895 22.4433 25.1022C22.3185 25.0398 22.1313 24.915 22.0688 24.6653C21.944 24.4157 21.8192 24.2909 21.5695 24.2909C21.2575 24.2909 20.9454 24.4781 20.8206 24.5405C20.6958 25.2895 21.1326 25.8512 21.5071 25.976ZM28.1854 23.4795C27.6236 24.1036 26.5002 25.1646 26.4378 25.2271L26.3754 25.2895L22.8802 25.2271C22.8802 25.6015 22.8178 25.8512 22.7554 26.1008V26.2257L26.9371 26.9746C27.374 26.6626 28.5598 25.7888 28.9967 25.4767C28.6847 24.9774 28.6222 24.4157 28.6847 23.9788C28.4974 23.7916 28.3726 23.6043 28.1854 23.4795Z" fill="white"/>
<path d="M28.6842 19.2362C27.8729 20.0476 27.1239 20.3597 26.4373 20.4221H25.6884C25.5636 20.4221 25.4387 20.4221 25.3139 20.3597C25.2515 20.5469 25.1891 20.9214 25.3763 21.2959C25.5011 21.6079 25.8132 21.8576 26.2501 22.0448L26.3749 22.1073V22.2945C26.3749 22.3569 26.4373 23.3555 27.4984 23.6676C27.6856 23.4803 27.8729 23.2931 27.9353 23.1683C27.6856 22.6066 27.8104 22.1073 28.1849 21.7952C28.1849 21.8576 27.9977 23.1683 29.1211 23.6676L29.3084 23.73L29.2459 23.9172C29.2459 23.9797 28.8715 25.2903 30.1821 25.7272L30.4318 25.7896L30.307 26.0393C30.307 26.1017 29.8077 27.2876 30.9935 27.9117H33.6149V25.8521C32.6787 25.7272 32.3042 24.9783 32.1794 24.479C31.7425 24.4165 31.4304 24.2293 31.1808 23.9172C30.619 23.2307 31.1183 22.5441 31.1183 22.4817C31.1183 22.4817 31.1183 23.1683 31.5552 23.6052C31.7425 23.7924 31.9921 23.9797 32.429 23.9797H32.6163V24.1669C32.6163 24.2293 32.7411 25.1655 33.6149 25.2903V21.1086C33.6149 20.4845 33.8021 19.798 34.0518 19.1738H28.6842V19.2362ZM21.6939 21.1711L21.6315 23.8548L21.9436 23.9172L22.6925 21.3583L22.3181 20.5469L21.6939 21.1711ZM29.9325 33.4665H29.9949C30.4318 33.5913 30.5566 35.2765 31.368 35.4013H31.5552C31.8049 35.4013 31.9297 35.2765 32.0545 35.1516C32.0545 35.1516 31.6177 34.5275 31.368 34.0906C30.9311 33.5289 30.619 32.8423 29.8701 32.8423H29.8077C29.558 32.8423 29.4332 32.9672 29.4332 32.9672C29.1211 32.7799 28.8715 32.7175 28.5594 32.7175C28.0601 32.7175 27.748 32.9048 27.5608 32.9048L25.8756 32.7175C25.626 32.7175 25.3763 32.4055 25.3139 32.343V32.1558C25.2515 30.7827 24.1905 30.1586 23.816 30.1586C23.816 30.1586 23.8784 29.9089 23.7536 29.7841L23.3791 30.221L22.1308 29.5969L23.0046 30.5955L22.2557 31.4068C22.1932 31.5317 22.1932 31.6565 22.1932 31.6565L22.5053 31.9686L22.8798 31.7189H23.4415C23.6287 31.7189 23.7536 31.6565 23.7536 31.5317C23.6912 32.031 23.2543 32.9048 23.5663 33.6537L23.816 34.153L22.3181 33.9658L21.6315 35.1516C21.4443 35.5261 21.3819 35.963 21.5691 36.2127L21.8188 36.5247C21.8188 36.5247 22.1932 36.1503 22.2557 35.9006L22.1308 35.7758C22.006 35.6509 22.006 35.5885 22.0684 35.4637L22.5053 34.7147L24.2529 35.1516L24.3153 34.9644C24.4401 34.7772 24.6274 34.7147 24.8146 34.7147H25.0643C25.3763 34.7772 25.938 34.8396 26.4373 34.8396C26.9991 34.8396 27.6232 34.7147 27.9353 34.4027C28.5594 35.3389 29.8701 35.5261 29.7453 35.963L29.4332 37.5858C29.6828 37.5858 29.8701 37.5858 30.0573 37.5233L30.3694 35.8382C30.4318 35.6509 30.4318 35.4013 30.4318 35.4013C30.307 35.2765 29.9949 35.0268 29.8077 34.6523C29.558 34.2154 29.6828 33.9658 29.4956 33.4041C29.6828 33.5913 29.7453 33.4665 29.9325 33.4665ZM23.3167 31.0948C23.2543 31.0948 23.1919 31.0324 23.1919 30.9075C23.1919 30.8451 23.2543 30.7827 23.3791 30.7827C23.4415 30.7827 23.5039 30.8451 23.5039 30.9699C23.4415 31.0324 23.3791 31.0948 23.3167 31.0948Z" fill="white"/>
<path d="M20.8841 34.9631C20.8841 34.9631 21.4459 34.7135 21.5083 34.5262L21.4459 34.339C21.3834 34.2142 21.3834 34.0893 21.5083 34.0269L22.1324 33.59L23.1934 33.7773C23.1934 33.7773 23.0062 33.5276 23.0062 33.2156L22.0076 33.0283L21.0714 33.59C20.6345 33.9021 20.6345 34.4014 20.7593 34.7135L20.8841 34.9631ZM28.3737 37.7093H28.9979C28.9979 37.7093 29.5596 36.149 29.5596 36.0866C29.2475 35.9617 28.6234 35.5873 28.3737 35.4624C28.561 35.7121 28.9355 35.9617 28.873 36.2114L28.3737 37.7093Z" fill="white"/>
<path d="M33.4894 28.3473H18.5102V33.9645C18.5102 36.2738 20.1954 37.7093 22.6295 37.7093C24.6891 37.7093 25.2509 37.7717 25.9998 38.5207C26.4991 38.0214 26.936 37.7717 27.8722 37.7093V37.6469L28.3715 36.2114C28.3715 36.149 27.5602 35.2752 27.5602 35.2752C27.2481 35.4 26.9984 35.4 26.5615 35.4C26.1246 35.4 25.6253 35.3376 25.0636 35.2752H24.8764C24.814 35.2752 24.814 35.2752 24.814 35.3376L24.7516 35.4624L24.5643 35.7745L24.2522 35.7121L22.8167 35.4L22.6295 35.6497V35.7121L22.8167 35.8993L22.7543 36.149C22.6295 36.461 22.3174 36.8355 22.1926 36.9603L21.8181 37.3348L21.5061 36.8979L21.2564 36.5859C21.0068 36.2738 20.9443 35.8369 21.0692 35.4L20.6947 35.5872L20.5074 35.2128L20.3826 34.9631C20.133 34.4638 20.2578 33.7773 20.8195 33.3404L22.0054 32.7162L23.1288 32.9035C23.1288 32.7786 23.1912 32.4042 23.2536 32.3417H23.1912L22.5671 32.5914L21.943 32.1545C21.943 32.1545 21.6933 31.9049 21.943 31.7176L22.5047 30.8438L21.0068 28.9714L23.316 29.9076L23.4409 29.7204L23.7529 29.3459L24.1274 29.658C24.2522 29.7828 24.3147 29.8452 24.3147 29.97C24.9388 30.2197 26.0622 30.9687 26.1871 32.1545H25.7502C25.8126 32.2793 25.875 32.2793 25.9374 32.2793L27.5602 32.4666C27.6226 32.4666 27.6226 32.4666 27.685 32.4042C27.8722 32.3417 28.1843 32.2169 28.5588 32.2169C28.8708 32.2169 29.1205 32.2793 29.4326 32.4042C29.5574 32.3417 29.6822 32.3417 29.807 32.3417H29.8694C30.7432 32.3417 31.1801 33.0283 31.5546 33.5276C31.617 33.59 31.6794 33.7148 31.7418 33.7773C32.0539 34.2141 32.4284 34.8383 32.4908 34.9007L32.678 35.2128L32.4284 35.4624C32.2412 35.6497 31.9915 35.8993 31.5546 35.8993H31.2425C31.1801 35.8993 31.0553 35.8369 30.9929 35.8369C30.9929 35.8993 30.9929 36.0241 30.9305 36.0865L30.6184 37.5845C32.366 37.1476 33.427 35.8369 33.427 33.9645L33.4894 28.3473ZM18.5102 27.9104H30.1815C29.6198 27.2863 29.6198 26.5373 29.7446 26.038C29.5574 25.9756 29.4326 25.8508 29.3077 25.7259C28.8708 26.038 27.4353 27.099 27.1233 27.3487L27.0608 27.4111L22.5047 26.5997H22.0054C21.943 26.787 21.7557 26.9742 21.5685 26.9742H21.5061C21.3812 26.9742 21.2564 26.9118 21.194 26.787C21.1316 26.6621 21.0692 26.5997 21.1316 26.4749V26.3501C20.6323 26.038 20.1954 25.289 20.445 24.4777V24.4153L20.5074 24.3528C20.5074 24.3528 20.5699 24.2904 20.6947 24.228L20.3826 24.1656C20.2578 24.1656 20.1954 24.0408 20.1954 23.9159C20.1954 23.7911 20.3202 23.7287 20.445 23.7287L21.2564 23.8535L21.3188 21.0449L22.5047 19.7967L23.2536 21.357L22.5047 24.0408L23.1912 24.1656C23.316 24.1656 23.3785 24.2904 23.3785 24.4153C23.3785 24.5401 23.2536 24.6025 23.1288 24.6025H23.0664L22.5047 24.5401V24.6025C22.5671 24.7273 22.6919 24.7897 22.7543 24.8521L26.2495 24.9146L27.1233 24.0408C26.2495 23.7287 25.9374 22.9797 25.875 22.4804C25.3757 22.2932 25.0636 21.9811 24.8764 21.5442C24.6267 21.0449 24.7516 20.5456 24.814 20.296C24.3771 20.1087 23.8778 19.7967 23.3785 19.2974H18.1357C18.3854 19.9215 18.5726 20.5456 18.5726 21.2322V27.9104H18.5102Z" fill="#FCE527"/>
<path d="M23.3154 30.7822C23.253 30.7822 23.1282 30.8446 23.1282 30.9071C23.1282 30.9695 23.1906 31.0943 23.253 31.0943C23.3154 31.0943 23.4403 31.0319 23.4403 30.9695C23.5027 30.8446 23.4403 30.7822 23.3154 30.7822ZM33.4888 41.018L32.615 40.6435L32.8647 39.7697L33.1143 38.7711C33.1143 38.7711 31.6164 39.5825 29.4319 40.2066C28.8078 40.3939 28.3709 40.4563 28.3709 40.4563V41.2053C28.3709 41.2053 27.2475 41.3925 26.0616 41.3925C24.8758 41.3925 23.7523 41.2053 23.7523 41.2053V40.5187C23.7523 40.5187 23.3154 40.4563 22.6913 40.2691C20.5068 39.6449 19.0089 38.8335 19.0089 38.8335L19.2586 39.8322L19.5082 40.7059L18.6344 41.018L17.6982 41.3925C18.8217 41.9542 20.3196 42.7032 21.6927 43.0777L21.3806 43.9514C21.3806 43.9514 23.1282 44.7628 26.124 44.7628C29.0575 44.7628 30.8675 43.9514 30.8675 43.9514L30.5554 43.0777C31.9285 42.7032 33.4888 41.8918 34.5498 41.3925L33.4888 41.018ZM18.6344 41.3925L20.0699 40.8932L19.6331 39.5201C20.2572 39.8946 21.6303 40.3939 22.4417 40.6435L21.7551 42.5159C20.5068 42.2663 19.5082 41.8294 18.6344 41.3925ZM25.9992 44.2635C24.3765 44.2635 22.4417 43.889 21.9423 43.7018L22.7537 41.3925C23.4403 41.5797 24.8758 41.8294 25.9368 41.8294H25.9992C27.0602 41.8294 28.4957 41.6421 29.1823 41.3925L30.1185 43.7018C29.5568 43.889 27.6844 44.2635 25.9992 44.2635ZM30.3057 42.5783L29.6192 40.7059C30.4306 40.4563 31.8037 39.8946 32.4902 39.5825L31.9909 40.9556L33.4264 41.4549C32.5526 41.8294 31.554 42.2663 30.3057 42.5783Z" fill="black"/>
<path d="M26.001 5.44201C27.7485 5.44201 29.184 6.00373 29.933 6.62786C29.933 6.62786 30.1827 5.25477 30.9316 4.0065L29.4961 4.19374L28.7472 2.63341L27.3116 3.38237L25.9386 2.00928L24.5655 3.38237L23.2548 2.63341L22.5058 4.19374L21.0703 4.0065C21.8817 5.25477 22.0689 6.62786 22.0689 6.62786C22.8803 6.00373 24.2534 5.44201 26.001 5.44201ZM22.4434 4.75546L22.8179 4.81788L23.0051 4.4434L23.5044 3.38237L24.4406 3.88168L24.8151 4.06892L25.0648 3.75685L26.0634 2.75824L26.9996 3.75685L27.3116 4.0065L27.6861 3.81926L28.6223 3.31996L29.1216 4.38098L29.3089 4.75546L29.6834 4.69305L30.0578 4.63064C29.8706 5.00512 29.7458 5.3796 29.6834 5.69166C28.6847 5.12994 27.4365 4.81788 26.0634 4.81788C24.7527 4.81788 23.442 5.12994 22.5058 5.69166C22.4434 5.3796 22.3186 5.00512 22.1313 4.63064L22.4434 4.75546ZM46.5974 23.8539C48.8442 23.8539 49.6556 21.5446 49.6556 21.4198L49.9053 20.6084H49.0315C48.7194 20.6084 46.2229 20.546 44.4753 18.2992L44.3505 18.1119C43.1646 16.614 42.1036 15.2409 40.1064 14.6168C40.1688 14.5544 40.2312 14.4919 40.356 14.4295C41.4171 13.743 41.9788 12.9316 42.166 11.933C42.4157 10.4975 41.4795 9.31164 41.4171 9.24922L40.7929 8.43785L40.4184 9.37405C40.4184 9.43646 39.7319 10.9344 38.3588 10.9344H37.9843C38.0467 10.2478 37.9219 9.24922 36.9857 8.31302C35.8623 7.12717 34.4892 7.00234 33.8026 7.00234C33.4282 7.00234 33.1785 7.06476 33.1161 7.06476L32.1799 7.252L32.7416 8.00096C33.1785 8.62509 33.6154 9.68611 33.1161 10.3102C32.9288 10.4975 32.6168 10.6223 32.3047 10.8096C31.6806 11.1216 30.8068 11.4961 30.8068 12.5571C30.8068 13.2437 31.3061 13.9302 32.3047 14.5544C35.1133 16.3019 36.8609 18.1743 37.6098 20.234C38.7957 23.3546 37.2354 25.1646 35.7999 26.1008L35.1133 26.5377L35.675 27.0994C35.7374 27.1618 36.4864 27.786 37.485 27.9108H38.0467C38.7333 27.9108 39.295 27.786 39.7319 27.6611C39.6071 27.9108 39.4198 28.098 39.2326 28.3477C38.3588 29.3463 37.3602 29.7832 35.8623 29.7832H35.3005L35.2381 30.3449C35.2381 30.4697 35.1757 31.4684 36.1743 32.3421C36.2992 32.467 36.4864 32.5918 36.6736 32.6542C35.9871 33.2783 35.363 34.277 35.2381 36.0869C35.1133 37.5849 34.8012 38.1466 34.7388 38.1466L34.1147 39.0828H35.2381C37.0481 39.0828 38.4836 38.5835 39.4198 37.5849C39.9816 37.0231 40.2936 36.3366 40.5433 35.7125C40.8553 35.9621 41.2922 36.2118 41.7915 36.3366C41.9788 36.399 42.2284 36.399 42.4781 36.399C42.9774 36.399 43.4143 36.2742 43.4767 36.2742L44.1632 36.0869L43.8512 35.4004C43.8512 35.338 43.227 34.0273 43.8512 32.1549C44.1008 31.3435 44.2881 30.5946 44.3505 30.0329C44.7874 30.2825 45.4115 30.4697 46.1605 30.4697C47.908 30.4697 48.657 29.1591 48.7194 29.0967L49.0939 28.4725L48.4698 28.2229C46.4101 27.3491 45.9108 25.0398 45.8484 23.7915C46.0356 23.8539 46.2229 23.8539 46.4725 23.8539H46.5974ZM48.2825 28.7846C48.2825 28.7846 47.6584 29.8456 46.2853 29.8456C44.6001 29.8456 43.9136 28.7846 43.9136 28.7846C43.9136 28.7846 44.0384 30.0953 43.4143 31.9053C42.6653 34.0897 43.4143 35.6501 43.4143 35.6501C43.4143 35.6501 43.0398 35.7749 42.5405 35.7749C42.3533 35.7749 42.166 35.7749 42.0412 35.7125C40.6057 35.4004 40.2936 34.0897 40.2936 34.0897C40.2936 34.0897 40.4184 38.3962 35.363 38.3962H35.3005C35.3005 38.3962 35.7374 37.7721 35.8623 36.0245C36.1119 32.8415 38.2964 32.4046 38.2964 32.4046C38.2964 32.4046 37.1105 32.2797 36.6112 31.7804C35.7999 31.0939 35.8623 30.2201 35.8623 30.2201C37.6098 30.2201 38.7957 29.596 39.6695 28.5973C40.6057 27.4739 40.7929 26.2881 40.7929 26.2881C40.7929 26.2881 39.8567 27.1618 37.9843 27.1618H37.485C36.6112 27.0994 35.9871 26.5377 35.9871 26.5377C37.9219 25.2894 39.2326 23.1674 38.0467 19.9219C37.1105 17.3005 34.8012 15.3657 32.492 13.9302C31.8054 13.4933 31.3685 12.9316 31.3685 12.4947C31.3685 11.4337 32.9288 11.3713 33.553 10.6223C34.3019 9.74853 33.8026 8.37544 33.1785 7.56406C33.1785 7.56406 33.3657 7.50165 33.7402 7.50165C34.4268 7.50165 35.5502 7.68889 36.4864 8.62509C37.7347 9.93577 37.2354 11.3713 37.2354 11.3713L37.5474 11.4337C37.7347 11.4961 37.9219 11.4961 38.1716 11.4961H38.2964C40.1064 11.4961 40.9178 9.56129 40.9178 9.56129C40.9178 9.56129 42.8526 11.933 39.9815 13.8054C39.4822 14.1175 39.295 14.4295 39.3574 14.7416L39.4198 14.9288L39.6071 14.9912C41.6667 15.553 42.7277 16.9885 44.0384 18.6112C45.9732 21.1077 48.7194 21.1702 49.0939 21.1702H49.1563C49.1563 21.1702 48.5322 23.1674 46.6598 23.1674H46.5974C45.7236 23.1674 45.2867 22.7929 45.2867 22.7929C45.2867 22.7929 44.9122 27.4115 48.2825 28.7846ZM42.6653 14.8664C43.5391 15.3033 43.976 15.9274 44.4129 16.4892C44.8498 16.9885 45.2243 17.4878 45.8484 17.7374C46.0981 17.7998 46.2853 17.8623 46.535 17.8623C47.4711 17.8623 48.4073 17.3005 48.7818 16.4892L49.1563 15.6778L48.2825 15.6154C48.2201 15.6154 47.0967 15.4906 45.8484 14.2423C45.3491 13.743 44.725 13.4309 44.0384 13.4309C43.227 13.4309 42.6029 13.8678 42.5405 13.8678L41.7915 14.3671L42.6653 14.8664ZM44.1008 13.9302C44.5377 13.9302 45.037 14.055 45.4739 14.5544C46.9094 16.0523 48.2825 16.1147 48.2825 16.1147C48.0329 16.6764 47.3463 17.1133 46.5974 17.1133C46.4101 17.1133 46.2229 17.1133 46.0981 17.0509C45.0994 16.7388 44.725 15.1785 42.9774 14.2423C42.915 14.3047 43.4143 13.9302 44.1008 13.9302ZM43.0398 22.8553C42.5405 18.7985 39.5447 15.8026 36.2367 13.9926C35.9247 13.8054 35.675 13.6806 35.363 13.5557C36.3616 13.743 37.9843 13.743 39.2326 12.6195C39.2326 12.6195 37.2978 14.055 33.3657 12.7444C34.4268 13.4309 36.5488 14.4295 38.4836 16.0523C43.3519 20.2964 39.8567 24.4781 39.8567 24.4781C41.6043 22.6681 41.6667 20.7333 41.1674 19.1105C42.1036 20.6084 42.6653 22.4808 42.6029 24.7901C42.4781 28.0356 40.6681 30.9066 38.7957 33.1535C37.8595 34.277 37.6723 35.5876 37.6723 35.5876C37.6723 35.5876 38.0467 34.4018 39.1078 33.1535C41.105 30.7818 42.8526 28.3477 43.1022 24.7901C43.2895 25.4143 44.1632 27.2243 45.5363 27.9108C45.5363 27.9108 43.7888 26.9122 43.0398 22.8553Z" fill="black"/>
<path d="M17.2602 38.0837C17.2602 38.0837 16.8857 37.522 16.8233 36.0241C16.6985 34.2141 16.0119 33.2155 15.3254 32.5913C15.5126 32.5289 15.6999 32.4041 15.8247 32.2793C16.8233 31.4055 16.7609 30.3444 16.7609 30.282L16.6985 29.7203H16.1367C14.6388 29.7203 13.5778 29.221 12.7664 28.2848C12.5792 28.0352 12.3919 27.8479 12.2671 27.5983C12.704 27.7231 13.3281 27.8479 13.9523 27.8479H14.514C15.575 27.7855 16.2616 27.1614 16.324 27.0365L16.8857 26.4748L16.1992 26.0379C14.7012 25.1017 13.2033 23.2917 14.3892 20.1711C15.1381 18.1114 16.8857 16.239 19.6943 14.4915C20.6305 13.8673 21.1922 13.1808 21.1922 12.4942C21.1922 11.4332 20.3184 11.0587 19.6943 10.7467C19.3822 10.6218 19.0702 10.4346 18.8829 10.2474C18.3836 9.68564 18.8205 8.5622 19.2574 7.93807L19.8191 7.18911L18.8829 7.00187C18.8829 7.00187 18.6333 6.93945 18.1964 6.93945C17.5098 6.93945 16.1367 7.12669 15.0133 8.25013C14.0771 9.18633 13.9523 10.2474 14.0147 10.8715H13.6402C12.2671 10.8715 11.5806 9.37357 11.5806 9.31116L11.2061 8.37496L10.582 9.18633C10.5195 9.24875 9.58335 10.3722 9.833 11.8701C9.95783 12.8687 10.582 13.6801 11.643 14.3666C11.7678 14.4291 11.8302 14.4915 11.8926 14.5539C9.89541 15.178 8.83439 16.6135 7.64853 18.049L7.4613 18.2363C5.77614 20.608 3.2796 20.6704 2.96754 20.6704H2.09375L2.3434 21.4818C2.3434 21.6066 3.15478 23.9159 5.40166 23.9159H5.52648C5.77614 23.9159 5.96338 23.8535 6.15062 23.8535C6.02579 25.1017 5.5889 27.411 3.52926 28.2848L2.90512 28.5345L3.2796 29.1586C3.2796 29.1586 4.02856 30.4693 5.77614 30.4693C6.5251 30.4693 7.14923 30.282 7.58612 30.0324C7.64853 30.5941 7.77336 31.3431 8.08543 32.1544C8.70956 34.0268 8.14784 35.3999 8.08543 35.3999L7.77336 36.0865L8.45991 36.2737C8.52232 36.2737 8.95921 36.3985 9.45852 36.3985C9.70817 36.3985 9.89541 36.3985 10.1451 36.3361C10.7068 36.2113 11.0813 35.9616 11.3933 35.712C11.5806 36.2737 11.8926 36.9603 12.5168 37.5844C13.5154 38.583 14.8885 39.0823 16.6985 39.0823H17.8219L17.2602 38.0837ZM16.6985 38.3958C11.643 38.3958 11.7678 34.0892 11.7678 34.0892C11.7678 34.0892 11.3933 35.3999 10.0202 35.712C9.833 35.7744 9.64576 35.7744 9.52093 35.7744C9.08404 35.7744 8.64715 35.6496 8.64715 35.6496C8.64715 35.6496 9.39611 34.0892 8.64715 31.9048C8.02302 30.0948 8.14784 28.7841 8.14784 28.7841C8.14784 28.7841 7.4613 29.7827 5.77614 29.8451C4.40304 29.8451 3.77891 28.7841 3.77891 28.7841C7.14923 27.411 6.83716 22.8548 6.83716 22.8548C6.83716 22.8548 6.40027 23.1669 5.52648 23.2293H5.46407C3.59167 23.2293 2.96754 21.2321 2.96754 21.2321H3.02995C3.34202 21.2321 6.15062 21.1697 8.08543 18.6732C9.39611 17.0504 10.3947 15.6149 12.5168 15.0532L12.704 14.9908L12.7664 14.8035C12.8288 14.4915 12.5792 14.1794 12.1423 13.8673C9.27128 11.9949 11.2061 9.62323 11.2061 9.62323C11.2061 9.62323 12.0175 11.558 13.8275 11.558H13.9523C14.1395 11.558 14.3892 11.558 14.5764 11.4956L14.8885 11.4332C14.8885 11.4332 14.3892 9.99771 15.6374 8.68703C16.5736 7.68841 17.7595 7.56359 18.3836 7.56359C18.6957 7.56359 18.9453 7.626 18.9453 7.626C18.3212 8.43737 17.8843 9.81047 18.5709 10.6843C19.195 11.4332 20.7553 11.4332 20.7553 12.5567C20.7553 12.9935 20.3184 13.5553 19.5695 14.0546C17.2602 15.4901 14.9509 17.4249 14.0147 20.0463C12.8288 23.2917 14.1395 25.4138 16.0743 26.6621C16.0743 26.6621 15.4502 27.2238 14.5764 27.2862H14.0771C12.2047 27.2862 11.2685 26.4124 11.2685 26.4124C11.2685 26.4124 11.4557 27.5983 12.3919 28.7217C13.2657 29.7203 14.4516 30.3444 16.1992 30.3444C16.1992 30.3444 16.2616 31.1558 15.4502 31.9048C14.9509 32.3417 13.765 32.5289 13.765 32.5289C13.765 32.5289 15.9495 32.9658 16.1992 36.1489C16.324 37.834 16.7609 38.3958 16.6985 38.3958ZM5.46407 17.7994C5.71372 17.7994 5.96338 17.737 6.15062 17.6745C6.77475 17.4873 7.21164 16.988 7.58612 16.4263C8.02301 15.8646 8.52232 15.3028 9.33369 14.8035L10.2075 14.3666L9.39611 13.8049C9.3337 13.7425 8.70956 13.368 7.89819 13.368C7.21164 13.368 6.58751 13.6177 6.0882 14.1794C4.83994 15.4901 3.7165 15.5525 3.65408 15.5525L2.84271 15.6149L3.21719 16.4263C3.59167 17.1752 4.52787 17.7994 5.46407 17.7994ZM6.58751 14.6163C7.0244 14.117 7.52371 13.9922 7.9606 13.9922C8.58473 13.9922 9.08404 14.3666 9.08404 14.3666C7.33647 15.3028 6.96199 16.8008 5.96338 17.1752C5.77614 17.2377 5.65131 17.2377 5.46407 17.2377C4.71511 17.2377 4.02856 16.7383 3.77891 16.239C3.77891 16.1766 5.152 16.0518 6.58751 14.6163ZM9.45852 24.7897C9.33369 22.4804 9.95783 20.6704 10.894 19.1101C10.3947 20.6704 10.4571 22.6676 12.2047 24.4776C12.2047 24.4776 8.77197 20.3583 13.5778 16.0518C15.5126 14.4291 17.6347 13.4304 18.6957 12.7439C14.7637 14.0546 12.8288 12.6191 12.8288 12.6191C14.0771 13.6801 15.6999 13.6801 16.6985 13.5553C16.4488 13.6801 16.1367 13.8049 15.8247 13.9922C12.5168 15.8021 9.52094 18.798 9.02163 22.8548V22.7924C8.27267 26.8493 6.5251 27.8479 6.5251 27.8479C7.89819 27.1614 8.77198 25.4138 8.95921 24.7272C9.20887 28.2848 10.894 30.7189 12.9537 33.0906C14.0147 34.3389 14.3892 35.5248 14.3892 35.5248C14.3892 35.5248 14.2019 34.1517 13.2657 33.0906C11.3933 30.9062 9.58335 28.0976 9.45852 24.7897Z" fill="black"/>
<path d="M24.8744 16.4901V17.3014C25.1865 16.9894 25.6858 17.0518 25.6858 17.0518V18.2376C25.6858 18.2376 25.6858 18.7994 25.4361 19.049H26.5596C26.3723 18.7994 26.3099 18.2376 26.3099 18.2376V17.0518C26.3099 17.0518 26.8716 16.9894 27.1213 17.3014V16.4901H24.8744ZM24.3751 11.6842C24.7496 11.9963 24.9992 12.0587 24.9992 12.0587L25.1241 12.1211V11.3722L23.751 10.8105C23.751 10.748 23.751 11.1849 24.3751 11.6842ZM27.683 11.6842C28.3071 11.1849 28.3071 10.748 28.3071 10.748L26.9341 11.3098V12.0587L27.0589 11.9963C27.0589 11.9963 27.3085 11.9339 27.683 11.6842Z" fill="black"/>
<path d="M30.1816 8.5624C30.1816 7.37654 28.2468 6.37793 26.0624 6.37793C23.8779 6.37793 21.9431 7.43896 21.9431 8.5624L22.0055 8.87446L22.8793 13.8675L22.0055 14.3668L19.6962 15.6151C19.6962 15.6151 19.1969 15.8648 18.9472 16.052C18.0735 16.6761 17.8862 17.4875 18.3855 17.862C18.5104 17.1754 19.0721 16.4265 20.1331 16.4265C20.8821 16.4265 21.4438 16.801 21.9431 17.4251C22.0679 17.5499 22.1927 17.7372 22.2552 17.9244L22.6296 18.4861H16.8252C17.2621 19.3599 17.6366 20.2337 17.6366 21.2323V34.027C17.6366 37.1477 20.0083 38.5832 22.6296 38.5832C24.6269 38.5832 24.8765 38.5208 26 39.5818C27.1234 38.4584 27.373 38.5832 29.3703 38.5832C31.9292 38.5832 34.3633 37.0853 34.3633 34.027V21.1699C34.3633 20.1713 34.7378 19.2975 35.1747 18.4237H29.3703L29.7448 17.862C29.8696 17.6747 29.9944 17.5499 30.0568 17.3627C30.4937 16.801 31.1178 16.3641 31.8668 16.3641C32.9278 16.3641 33.4895 17.113 33.6144 17.7996C34.1137 17.4251 33.9264 16.5513 33.0527 15.9896C32.803 15.8023 32.3037 15.5527 32.3037 15.5527L30.1192 14.3044L29.2454 13.8051L30.1192 8.81205L30.1816 8.5624ZM22.7545 9.12412L25.8127 10.1851V14.991L23.5658 13.7427L22.7545 9.12412ZM23.3786 19.2351C23.8779 19.7344 24.3772 20.0464 24.8141 20.2337C24.7517 20.4833 24.6893 20.9826 24.8765 21.482C25.0638 21.8564 25.3758 22.1685 25.8751 22.4182C25.9375 22.9175 26.2496 23.6664 27.1234 23.9785L26.2496 24.8523L22.7545 24.7899C22.692 24.7274 22.5672 24.665 22.5048 24.5402V24.4778L23.0665 24.5402H23.1289C23.2538 24.5402 23.3162 24.4778 23.3786 24.353C23.3786 24.2281 23.3162 24.1033 23.1914 24.1033L22.5048 23.9785L23.2538 21.2947L22.5048 19.7344L21.319 20.9826L21.2565 23.7912L20.4452 23.6664C20.3203 23.6664 20.1955 23.7288 20.1955 23.8537C20.1955 23.9785 20.2579 24.1033 20.3828 24.1033L20.6948 24.1657C20.57 24.2281 20.5076 24.2906 20.5076 24.2906L20.3828 24.353V24.4154C20.1955 25.2268 20.6324 25.9133 21.0693 26.2878V26.4126C21.0693 26.5374 21.0693 26.6623 21.1317 26.7247C21.1941 26.8495 21.319 26.9119 21.4438 26.9119H21.5062C21.6934 26.9119 21.8807 26.7871 21.9431 26.5374H22.4424L26.9986 27.3488L27.061 27.2864C27.4355 27.0367 28.8086 26.0381 29.2454 25.6636C29.3703 25.7885 29.4951 25.8509 29.6823 25.9757C29.5575 26.475 29.4951 27.224 30.1192 27.8481H18.5104V21.1699C18.5104 20.5458 18.3231 19.8592 18.0735 19.2351H23.3786ZM28.9958 25.414C28.5589 25.7261 27.373 26.5998 26.9362 26.9119L22.7545 26.163V26.0381C22.8169 25.8509 22.8793 25.5388 22.8793 25.1643L26.3744 25.2268L26.4368 25.1643C26.4993 25.1019 27.6227 24.0409 28.1844 23.4168C28.3092 23.604 28.4965 23.7288 28.6837 23.9161C28.6837 24.353 28.6837 24.9147 28.9958 25.414ZM22.0679 24.665C22.1927 24.8523 22.3176 24.9771 22.4424 25.1019C22.4424 25.2892 22.4424 25.6012 22.38 25.8509C22.38 25.9133 22.38 25.9757 22.3176 26.0381V26.1005C22.1303 26.1005 21.7558 26.1005 21.5062 25.9757C21.1941 25.8509 20.6948 25.2268 20.8196 24.6026C20.9445 24.5402 21.319 24.353 21.5686 24.353C21.8183 24.353 21.9431 24.4154 22.0679 24.665ZM21.631 23.8537L21.6934 21.1699L22.3176 20.5458L22.692 21.3571L21.9431 23.9161L21.631 23.8537ZM28.9958 37.7094H28.3717L28.871 36.2115C28.9334 36.0243 28.5589 35.7122 28.3717 35.4625C28.6213 35.5874 29.2454 35.9618 29.5575 36.0867C29.4951 36.1491 28.9958 37.7094 28.9958 37.7094ZM30.5561 35.9618L30.2441 37.647C30.0568 37.647 29.8072 37.7094 29.6199 37.7094L29.932 36.0867C30.0568 35.5874 28.7461 35.4625 28.122 34.5263C27.8099 34.9008 27.2482 34.9632 26.6241 34.9632C26.0624 34.9632 25.5631 34.9008 25.251 34.8384H25.0013C24.8141 34.8384 24.6269 34.9008 24.502 35.0881L24.3772 35.2753L22.6296 34.776L22.1927 35.525C22.1303 35.6498 22.1303 35.7122 22.2552 35.837L22.38 35.9618C22.3176 36.2115 21.9431 36.586 21.9431 36.586L21.6934 36.2739C21.5062 36.0243 21.5062 35.5874 21.7558 35.2129L22.4424 34.027L23.9403 34.2143L23.6907 33.715C23.3786 33.0284 23.8779 32.1546 23.8779 31.5929C23.8779 31.7177 23.6907 31.7802 23.5658 31.7802H23.0041L22.6296 32.0298L22.3176 31.7177C22.2552 31.6553 22.2552 31.5305 22.38 31.4681L23.1289 30.6567L22.2552 29.6581L23.5034 30.2822L23.8779 29.8453C24.0027 29.9702 23.9403 30.2198 23.9403 30.2198C24.3148 30.2198 25.3758 30.844 25.4382 32.217V32.4043C25.5006 32.5291 25.7503 32.7788 26 32.7788L27.6851 32.966C27.8724 32.966 28.2468 32.7788 28.6837 32.7788C28.9334 32.7788 29.2454 32.8412 29.5575 33.0284C29.5575 33.0284 29.6823 32.9036 29.932 32.9036H29.9944C30.7434 32.9036 31.0554 33.5901 31.4923 34.1519C31.8044 34.5888 32.1789 35.2129 32.1789 35.2129C32.054 35.4001 31.8668 35.4625 31.6796 35.4625H31.4923C30.681 35.3377 30.5561 33.6526 30.1192 33.5277H30.0568C29.932 33.5277 29.8696 33.6526 29.8696 33.6526C30.0568 34.2143 29.932 34.4639 30.1816 34.9008C30.3689 35.2129 30.681 35.4625 30.8058 35.6498C30.6185 35.525 30.5561 35.7746 30.5561 35.9618ZM21.4438 34.4015L21.5062 34.5888C21.4438 34.776 20.8821 35.0256 20.8821 35.0256L20.7572 34.7136C20.6324 34.4015 20.6324 33.9022 21.0693 33.5901L22.0055 33.0284L23.0041 33.2157C23.0041 33.5277 23.1914 33.7774 23.1914 33.7774L22.1303 33.5901L21.5062 34.027C21.4438 34.0894 21.4438 34.2767 21.4438 34.4015ZM30.681 37.5846L30.993 36.0867C30.993 36.0243 31.0554 35.8994 31.0554 35.837C31.1178 35.8994 31.2427 35.8994 31.3051 35.8994H31.6172C32.054 35.8994 32.3037 35.6498 32.4909 35.4625L32.7406 35.2129L32.5534 34.9008C32.5534 34.9008 32.1165 34.2143 31.8044 33.7774C31.742 33.715 31.6796 33.5901 31.6172 33.5277C31.2427 33.0284 30.8058 32.3419 29.932 32.3419H29.8696C29.7448 32.3419 29.6199 32.4043 29.4951 32.4043C29.2454 32.2795 28.9334 32.217 28.6213 32.217C28.2468 32.217 27.9348 32.3419 27.7475 32.4043C27.6851 32.4667 27.6227 32.4667 27.5603 32.4667L25.9375 32.2795C25.9375 32.2795 25.8751 32.217 25.7503 32.1546L26.1248 32.0298C26 30.844 24.8765 30.095 24.2524 29.8453C24.2524 29.7205 24.19 29.5957 24.0651 29.5333L23.6907 29.2212L23.3786 29.5957L23.2538 29.7205L20.9445 28.7843L22.4424 30.6567L21.8807 31.5305C21.6934 31.7802 21.8807 31.9674 21.8807 31.9674L22.5048 32.4043L23.1289 32.1546H23.1914C23.1914 32.2795 23.1289 32.6539 23.0665 32.7164L22.0055 32.5915L20.8196 33.2157C20.1955 33.6526 20.1331 34.4015 20.3828 34.8384L20.5076 35.0881L20.6948 35.4625L21.0693 35.2753C20.9445 35.7122 21.0069 36.2115 21.2565 36.4612L21.5062 36.7732L21.8183 37.2101L22.1927 36.8356C22.3176 36.7108 22.6296 36.3363 22.7545 36.0243L22.8169 35.7746L22.6296 35.5874V35.525L22.8169 35.2129L24.2524 35.525L24.5644 35.5874L24.7517 35.2753L24.8141 35.1505C24.8141 35.0881 24.8141 35.0881 24.8765 35.0881H25.0638C25.6255 35.2129 26.1248 35.2129 26.5617 35.2129C26.9986 35.2129 27.2482 35.2129 27.5603 35.0881C27.5603 35.0881 28.3092 35.9618 28.3717 36.0243L27.8724 37.4598V37.5222C26.9986 37.5846 26.5617 37.7718 26 38.3336C25.251 37.5846 24.6893 37.5222 22.6296 37.5222C20.1955 37.5222 18.5104 36.0867 18.5104 33.7774V28.1602H33.4896V33.7774C33.4896 35.837 32.4285 37.1477 30.681 37.5846ZM33.9264 19.2351C33.6768 19.8592 33.4896 20.4833 33.4896 21.1699V25.3516C32.6158 25.2268 32.4909 24.2281 32.4909 24.2281V24.0409H32.3037C31.9292 23.9785 31.6796 23.8537 31.4299 23.6664C30.993 23.2295 30.993 22.543 30.993 22.543C30.993 22.6054 30.4937 23.2295 31.0554 23.9785C31.3051 24.2906 31.6172 24.4778 32.054 24.5402C32.1789 25.0395 32.5534 25.7885 33.4896 25.9133V27.9729H30.8682C29.6823 27.2864 30.1816 26.163 30.1816 26.1005L30.3065 25.8509L30.1192 25.6636C28.8086 25.1643 29.183 23.9161 29.183 23.8537L29.2454 23.6664L29.0582 23.604C27.9972 23.1047 28.122 21.794 28.122 21.7316C27.8099 21.9813 27.6851 22.543 27.8724 23.1047C27.7475 23.2295 27.5603 23.4168 27.4355 23.604C26.3744 23.2919 26.3744 22.2309 26.3744 22.2309V22.0437L26.2496 21.9813C25.8127 21.794 25.5006 21.6068 25.3758 21.2323C25.1886 20.8578 25.251 20.4833 25.3134 20.2961C25.4382 20.2961 25.5631 20.3585 25.6879 20.3585H26.4368C27.1234 20.2961 27.8724 19.984 28.6837 19.1727H33.9264V19.2351ZM29.8696 14.991L30.8682 15.6151L31.1178 15.7399C30.5561 15.9272 30.1192 16.1768 29.7448 16.5513L29.6823 16.6137C29.6199 16.6761 29.4951 16.801 29.4327 16.9258C29.4327 16.9258 29.4327 16.9882 29.3703 16.9882C29.3079 17.113 29.2454 17.1754 29.1206 17.3003C29.1206 17.3003 29.1206 17.3627 29.0582 17.3627C28.9958 17.4875 28.871 17.6123 28.8086 17.7372C28.0596 18.9854 26.9362 19.7344 25.8751 19.7344C24.8141 19.7344 23.6907 18.9854 22.9417 17.7372C22.8793 17.6123 22.7545 17.4875 22.692 17.3627L22.6296 17.3003C22.5672 17.1754 22.5048 17.113 22.4424 16.9882L22.38 16.9258C22.3176 16.801 22.1927 16.7385 22.1303 16.6137L22.0679 16.5513C21.6934 16.1768 21.2565 15.8648 20.6948 15.7399L20.9445 15.6151L21.9431 14.991L23.0041 14.3668L25.8127 15.9272L28.6213 14.3668L29.8696 14.991ZM28.4965 13.7427L26.2496 14.9286V10.1227L29.3079 9.0617L28.4965 13.7427ZM26 9.62342L22.692 8.31274C23.0041 7.6262 24.2524 7.06448 26 7.06448C27.7475 7.06448 29.0582 7.6262 29.3079 8.31274L26 9.62342Z" fill="black"/>
</svg>
