<svg width="32" height="46" viewBox="0 0 32 46" fill="none" xmlns="http://www.w3.org/2000/svg">
<path d="M16.0038 0.63623C19.2341 0.63623 20.2491 2.83269 21.1007 5.02572C21.4585 5.95698 29.8529 27.7495 30.1053 28.4036C30.1725 28.5861 30.1271 28.8856 29.8312 28.994C29.5334 29.1008 25.1718 30.7085 24.9303 30.7946C24.6888 30.8824 24.4182 30.755 24.3311 30.5261C24.2403 30.3006 22.4299 25.5496 22.2265 25.0194H9.78461C9.58851 25.5496 7.75635 30.3109 7.67464 30.5261C7.59112 30.7447 7.33145 30.8927 7.07361 30.7946C6.81576 30.6982 2.43785 29.0904 2.17637 28.994C1.92579 28.9011 1.81139 28.6308 1.89855 28.4036C2.20724 27.5877 10.4746 6.14461 10.8959 5.02572C11.7166 2.8654 12.7662 0.63623 16.0038 0.63623ZM1.23397 39.6304C0.97249 39.6304 0.763672 39.8369 0.763672 40.0883V45.1818C0.763672 45.4331 0.97249 45.6362 1.23397 45.6362H30.7608C31.0278 45.6362 31.2366 45.4331 31.2366 45.1818V40.0883C31.2366 39.8369 31.0278 39.6304 30.7608 39.6304H1.23397ZM15.9747 7.75237L11.7693 19.7245H20.2491L16.0292 7.75237H15.9747Z" fill="#EE2A23"/>
</svg>
