<svg width="265" height="265" viewBox="0 0 265 265" fill="none" xmlns="http://www.w3.org/2000/svg">
<circle opacity="0.5" cx="132.472" cy="132.81" r="97.1547" transform="rotate(-27.6571 132.472 132.81)" stroke="#FFD160"/>
<path opacity="0.5" d="M134.35 43.8543C158.217 45.7676 181.167 55.177 197.662 70.0551C214.151 84.9269 224.184 105.251 222.277 129.037C218.027 182.047 173.257 223.43 120.295 219.184C95.7207 217.214 76.7784 203.542 64.4599 184.181C52.1363 164.812 46.4529 139.759 48.4297 115.1C51.9117 71.6674 90.8837 40.3697 134.35 43.8543Z" stroke="#D55258"/>
<path d="M135.492 54.1461C178.79 57.6172 218.807 88.2858 215.336 131.584C211.479 179.698 170.836 217.292 122.722 213.434C77.9955 209.849 53.8015 163.648 57.3872 118.922C60.5538 79.4219 95.9918 50.9795 135.492 54.1461Z" fill="#F8B0B8"/>
<g clip-path="url(#clip0_380_1164)">
<path d="M132.468 199.88C117.511 199.88 103.448 194.001 92.8702 183.338C82.2999 172.668 76.4717 158.482 76.4717 143.387C76.4717 134.249 78.6865 125.169 82.8749 117.128C86.9284 109.351 92.8276 102.533 99.9266 97.4062C100.871 96.7259 102.184 96.9407 102.866 97.9003C103.547 98.8599 103.327 100.178 102.376 100.865C95.8092 105.606 90.3501 111.914 86.6019 119.104C82.7258 126.537 80.6814 134.93 80.6814 143.387C80.6814 157.344 86.0694 170.463 95.8518 180.33C105.634 190.198 118.639 195.633 132.475 195.633C146.311 195.633 159.316 190.198 169.099 180.33C178.881 170.463 184.269 157.344 184.269 143.387C184.269 134.93 182.225 126.537 178.349 119.104C174.6 111.907 169.141 105.598 162.575 100.865C161.631 100.185 161.411 98.8527 162.085 97.9003C162.759 96.9479 164.08 96.7259 165.024 97.4062C172.123 102.526 178.022 109.351 182.076 117.128C186.264 125.162 188.479 134.242 188.479 143.387C188.479 158.475 182.651 172.661 172.08 183.331C161.51 194.001 147.44 199.873 132.482 199.873L132.468 199.88Z" fill="white"/>
<path d="M134.15 89.2069C132.418 83.4566 128.798 78.4869 124.134 74.799C119.1 70.8175 113.258 69.0774 107.408 66.7501C106.4 75.866 104.938 87.4453 109.602 95.8237C112.314 100.7 116.658 104.603 121.833 106.809C123.708 107.603 125.646 108.162 127.612 108.463C127.974 108.52 128.308 108.542 128.634 108.549C126.249 99.354 121.947 90.6677 116.083 83.2275C115.672 82.7119 115.757 81.9528 116.275 81.5375C116.786 81.1222 117.539 81.2081 117.95 81.7308C124.077 89.4933 128.549 98.5735 131.005 108.176C132.077 107.775 132.858 107.117 133.391 106.494C137.7 101.467 134.193 89.3286 134.157 89.1997L134.15 89.2069Z" fill="white"/>
<path d="M158.428 65.7404C158.428 65.7404 154.098 67.5879 153.715 67.7526C148.312 70.1587 141.675 73.331 139.289 79.0168C137.685 82.8479 137.181 87.3021 137.806 92.2503C137.827 92.3935 137.841 92.5439 137.856 92.6943C138.054 94.3986 138.324 96.7403 140.283 97.929C140.354 97.9719 140.425 98.0149 140.503 98.0507C140.908 91.348 143.556 84.7957 148.099 79.6613C148.547 79.16 149.327 79.1028 149.846 79.5324C150.364 79.9621 150.428 80.7211 149.981 81.2296C145.721 86.0417 143.265 92.2074 142.96 98.4947C143.407 98.4517 143.897 98.3515 144.429 98.1653C147.162 97.22 149.739 95.5372 152.309 93.0237C152.628 92.7158 152.941 92.3864 153.232 92.057C159.947 84.6597 158.428 65.7404 158.428 65.7404Z" fill="white"/>
<path d="M132.468 192.511C119.633 192.511 107.565 187.47 98.4922 178.311C89.4198 169.159 84.415 156.986 84.415 144.039C84.415 136.197 86.3176 128.406 89.9096 121.51C93.3881 114.836 98.4496 108.986 104.548 104.589C105.023 104.245 105.676 104.36 106.017 104.832C106.358 105.312 106.244 105.971 105.776 106.314C99.9475 110.518 95.106 116.118 91.7766 122.498C88.3408 129.094 86.5234 136.541 86.5234 144.039C86.5234 156.42 91.301 168.056 99.983 176.814C108.658 185.565 120.201 190.392 132.475 190.392C144.749 190.392 156.285 185.572 164.967 176.814C173.642 168.064 178.426 156.42 178.426 144.039C178.426 136.541 176.609 129.086 173.173 122.498C169.844 116.118 165.002 110.518 159.174 106.314C158.698 105.971 158.592 105.312 158.933 104.832C159.273 104.352 159.926 104.245 160.402 104.589C166.493 108.986 171.555 114.836 175.04 121.51C178.632 128.406 180.535 136.197 180.535 144.039C180.535 156.986 175.537 169.159 166.458 178.311C157.378 187.463 145.317 192.511 132.482 192.511H132.468Z" fill="white"/>
<path d="M105.279 151.772V132.867H102.155V130.282C103.036 130.175 103.873 129.838 104.668 129.273C105.463 128.707 106.038 128.012 106.386 127.203H108.949V151.772H105.279Z" fill="white"/>
<path d="M125.17 146.172C125.17 147.805 124.602 149.187 123.459 150.326C122.323 151.464 120.953 152.03 119.363 152.03C117.773 152.03 116.367 151.457 115.239 150.319C114.103 149.173 113.542 147.798 113.542 146.172V132.774C113.542 131.142 114.11 129.752 115.253 128.614C116.389 127.468 117.766 126.902 119.37 126.902C120.975 126.902 122.359 127.475 123.488 128.628C124.616 129.774 125.177 131.163 125.177 132.781V146.18L125.17 146.172ZM121.365 132.696C121.365 132.108 121.159 131.607 120.74 131.185C120.329 130.769 119.825 130.554 119.242 130.554C118.66 130.554 118.163 130.762 117.759 131.185C117.354 131.6 117.148 132.108 117.148 132.696V146.115C117.148 146.702 117.354 147.204 117.759 147.626C118.163 148.042 118.66 148.256 119.242 148.256C119.825 148.256 120.321 148.049 120.74 147.626C121.152 147.211 121.365 146.702 121.365 146.115V132.696Z" fill="white"/>
<path d="M141.334 146.172C141.334 147.805 140.766 149.187 139.623 150.326C138.487 151.464 137.117 152.03 135.527 152.03C133.937 152.03 132.531 151.457 131.403 150.319C130.267 149.173 129.706 147.798 129.706 146.172V132.774C129.706 131.142 130.274 129.752 131.417 128.614C132.553 127.468 133.93 126.902 135.534 126.902C137.139 126.902 138.523 127.475 139.652 128.628C140.78 129.774 141.341 131.163 141.341 132.781V146.18L141.334 146.172ZM137.529 132.696C137.529 132.108 137.323 131.607 136.904 131.185C136.493 130.769 135.989 130.554 135.407 130.554C134.824 130.554 134.327 130.762 133.923 131.185C133.518 131.6 133.312 132.108 133.312 132.696V146.115C133.312 146.702 133.518 147.204 133.923 147.626C134.327 148.042 134.824 148.256 135.407 148.256C135.989 148.256 136.486 148.049 136.904 147.626C137.316 147.211 137.529 146.702 137.529 146.115V132.696Z" fill="white"/>
<path d="M151.323 136.24C151.323 137.078 151.024 137.794 150.421 138.396C149.818 138.997 149.101 139.298 148.277 139.298C147.454 139.298 146.715 138.997 146.119 138.396C145.523 137.794 145.225 137.078 145.225 136.24V129.23C145.225 128.377 145.523 127.654 146.119 127.053C146.715 126.451 147.432 126.15 148.277 126.15C149.122 126.15 149.839 126.451 150.435 127.06C151.032 127.669 151.33 128.392 151.33 129.222V136.233L151.323 136.24ZM148.547 152.188H146.389L158.819 126.208H160.956L148.547 152.188ZM147.113 136.204C147.113 136.519 147.219 136.784 147.432 136.999C147.645 137.214 147.908 137.322 148.22 137.322C148.533 137.322 148.795 137.214 149.008 136.999C149.221 136.784 149.328 136.519 149.328 136.204V129.194C149.328 128.879 149.221 128.614 149.008 128.399C148.795 128.184 148.533 128.077 148.22 128.077C147.908 128.077 147.645 128.184 147.432 128.399C147.219 128.614 147.113 128.879 147.113 129.194V136.204ZM159.096 138.768C159.941 138.768 160.651 139.069 161.24 139.677C161.829 140.286 162.12 141.009 162.12 141.84V148.851C162.12 149.703 161.822 150.419 161.226 151.006C160.629 151.593 159.919 151.887 159.089 151.887C158.258 151.887 157.527 151.593 156.931 150.999C156.334 150.405 156.036 149.689 156.036 148.851V141.84C156.036 140.988 156.334 140.265 156.931 139.663C157.527 139.062 158.244 138.761 159.089 138.761L159.096 138.768ZM160.147 141.804C160.147 141.489 160.04 141.224 159.827 141.009C159.614 140.795 159.352 140.687 159.039 140.687C158.727 140.687 158.464 140.795 158.251 141.009C158.038 141.224 157.932 141.489 157.932 141.804V148.815C157.932 149.13 158.038 149.395 158.251 149.61C158.464 149.825 158.727 149.932 159.039 149.932C159.352 149.932 159.614 149.825 159.827 149.61C160.04 149.395 160.147 149.13 160.147 148.815V141.804Z" fill="white"/>
<path d="M108.132 157.58C108.736 157.58 109.254 157.759 109.673 158.124C110.099 158.489 110.305 158.926 110.305 159.442V163.688C110.305 164.204 110.092 164.648 109.666 165.006C109.24 165.371 108.729 165.55 108.125 165.55C107.522 165.55 107.011 165.371 106.585 165.006C106.166 164.641 105.953 164.204 105.953 163.688V159.442C105.953 158.926 106.166 158.482 106.592 158.124C107.018 157.759 107.529 157.58 108.125 157.58H108.132ZM108.878 159.42C108.878 159.234 108.8 159.077 108.651 158.948C108.502 158.819 108.31 158.754 108.097 158.754C107.884 158.754 107.692 158.819 107.536 158.948C107.38 159.077 107.302 159.234 107.302 159.42V163.681C107.302 163.867 107.38 164.025 107.536 164.154C107.692 164.283 107.877 164.347 108.097 164.347C108.317 164.347 108.502 164.283 108.651 164.154C108.8 164.025 108.878 163.867 108.878 163.681V159.42Z" fill="white"/>
<path d="M117.262 157.68C118.029 157.68 118.589 157.859 118.944 158.217C119.257 158.532 119.413 158.969 119.413 159.535V160.666C119.413 161.218 119.171 161.683 118.682 162.063L119.697 165.457H118.213L117.383 162.528H116.467V165.457H115.097V157.68H117.262ZM118.078 159.556C118.078 159.105 117.816 158.883 117.297 158.883H116.474V161.375H117.297C117.517 161.375 117.702 161.311 117.851 161.175C118 161.039 118.078 160.881 118.078 160.695V159.556Z" fill="white"/>
<path d="M126.391 165.557C125.788 165.557 125.269 165.378 124.851 165.013C124.425 164.648 124.219 164.211 124.219 163.703V159.456C124.219 158.941 124.432 158.497 124.858 158.139C125.284 157.773 125.795 157.594 126.398 157.594C127.002 157.594 127.513 157.773 127.939 158.139C128.357 158.504 128.57 158.941 128.57 159.456V160.344H127.151V159.435C127.151 159.248 127.073 159.091 126.916 158.955C126.76 158.826 126.576 158.754 126.356 158.754C126.135 158.754 125.951 158.819 125.802 158.955C125.653 159.091 125.575 159.248 125.575 159.435V163.695C125.575 163.882 125.653 164.039 125.802 164.168C125.951 164.297 126.143 164.361 126.356 164.361C126.568 164.361 126.76 164.297 126.916 164.168C127.073 164.039 127.151 163.882 127.151 163.695V162.17H126.391V160.989H128.577V163.71C128.577 164.225 128.365 164.662 127.939 165.027C127.513 165.385 127.002 165.564 126.405 165.564L126.391 165.557Z" fill="white"/>
<path d="M134.839 163.674L134.505 165.464H133.078L134.626 157.687H136.514L138.04 165.464H136.599L136.28 163.674H134.846H134.839ZM135.556 159.463L135.045 162.528H136.06L135.549 159.463H135.556Z" fill="white"/>
<path d="M144.301 157.673L146.119 162.908V157.673H147.489V165.457H146.019L144.131 160.473V165.457H142.761V157.673H144.301Z" fill="white"/>
<path d="M153.665 165.457H152.295V157.68H153.665V165.457Z" fill="white"/>
<path d="M160.622 165.557C160.019 165.557 159.501 165.378 159.082 165.013C158.656 164.648 158.45 164.211 158.45 163.703V159.456C158.45 158.941 158.663 158.497 159.089 158.139C159.515 157.773 160.026 157.594 160.63 157.594C161.233 157.594 161.744 157.773 162.17 158.139C162.589 158.504 162.802 158.941 162.802 159.456V160.344H161.382V159.435C161.382 159.248 161.304 159.091 161.148 158.955C160.992 158.826 160.807 158.754 160.587 158.754C160.367 158.754 160.182 158.819 160.033 158.955C159.884 159.091 159.806 159.248 159.806 159.435V163.695C159.806 163.882 159.884 164.039 160.033 164.168C160.182 164.297 160.374 164.361 160.587 164.361C160.8 164.361 160.992 164.297 161.148 164.168C161.304 164.039 161.382 163.882 161.382 163.695V162.621H162.802V163.71C162.802 164.225 162.589 164.662 162.163 165.027C161.737 165.385 161.226 165.564 160.63 165.564L160.622 165.557Z" fill="white"/>
</g>
<defs>
<clipPath id="clip0_380_1164">
<rect width="112" height="134.14" fill="white" transform="translate(76.4717 65.7404)"/>
</clipPath>
</defs>
</svg>
