<svg width="264" height="265" viewBox="0 0 264 265" fill="none" xmlns="http://www.w3.org/2000/svg">
<circle opacity="0.5" cx="132.174" cy="132.547" r="97.1547" transform="rotate(-27.6571 132.174 132.547)" stroke="#FFD160"/>
<path opacity="0.5" d="M134.053 43.591C157.919 45.5043 180.869 54.9137 197.365 69.7918C213.853 84.6636 223.886 104.988 221.979 128.774C217.729 181.784 172.959 223.167 119.997 218.921C95.4229 216.951 76.4805 203.279 64.1621 183.918C51.8384 164.549 46.155 139.496 48.1319 114.837C51.6138 71.4041 90.5858 40.1064 134.053 43.591Z" stroke="#D55258"/>
<path d="M135.194 53.8828C178.492 57.3539 218.509 88.0224 215.038 131.321C211.181 179.435 170.538 217.028 122.424 213.171C77.6976 209.586 53.5037 163.385 57.0893 118.659C60.2559 79.1586 95.694 50.7162 135.194 53.8828Z" fill="#F8B0B8"/>
<g clip-path="url(#clip0_380_1172)">
<path d="M133.84 103.446L131.578 110.413H124.253L130.178 114.725L127.915 121.691L133.84 117.39L139.765 121.691L137.503 114.725L143.427 110.413H136.103L133.84 103.446Z" fill="white"/>
<path d="M117.6 109.382L115.897 114.602H110.409L114.856 117.838L113.153 123.058L117.6 119.832L122.046 123.058L120.344 117.838L124.79 114.602H119.302L117.6 109.382Z" fill="white"/>
<path d="M104.272 138.088C104.272 140.149 105.952 141.829 108.013 141.829C110.074 141.829 111.754 140.16 111.754 138.088C111.754 136.016 110.074 134.347 108.013 134.347C105.952 134.347 104.272 136.016 104.272 138.088Z" fill="white"/>
<path d="M104.866 121.49L103.735 124.973H100.072L103.029 127.123L101.898 130.606L104.866 128.456L107.823 130.606L106.691 127.123L109.659 124.973H105.997L104.866 121.49Z" fill="white"/>
<path d="M150.08 109.382L148.389 114.602H142.89L147.336 117.838L145.634 123.058L150.08 119.832L154.526 123.058L152.835 117.838L157.282 114.602H151.782L150.08 109.382Z" fill="white"/>
<path d="M163.945 124.973L162.814 121.49L161.683 124.973H158.021L160.989 127.123L159.857 130.606L162.814 128.456L165.782 130.606L164.651 127.123L167.608 124.973H163.945Z" fill="white"/>
<path d="M116.502 160.118C116.502 160.118 116.771 160.746 117.107 161.507C117.443 162.28 118.552 162.896 119.604 162.896H148.097C149.139 162.896 150.259 162.269 150.595 161.507L151.2 160.118C146.518 159.088 140.47 158.472 133.862 158.472C127.254 158.472 121.195 159.088 116.524 160.118H116.502Z" fill="white"/>
<path d="M155.938 138.088C155.938 140.149 157.617 141.829 159.678 141.829C161.739 141.829 163.419 140.16 163.419 138.088C163.419 136.016 161.75 134.347 159.678 134.347C157.606 134.347 155.938 136.016 155.938 138.088Z" fill="white"/>
<path d="M151.95 158.338L158.345 143.542C156.9 143.184 155.68 142.277 154.907 141.056C152.667 142.669 149.923 143.621 146.955 143.621C143.214 143.621 139.82 138.12 137.356 135.678C136.393 136.451 135.172 136.91 133.851 136.91C132.529 136.91 131.308 136.451 130.345 135.678C127.881 138.12 124.488 143.621 120.747 143.621C117.779 143.621 115.035 142.669 112.795 141.056C112.022 142.277 110.801 143.184 109.356 143.542L115.752 158.338L116.11 158.259C121.083 157.173 127.377 156.568 133.851 156.568C140.324 156.568 146.63 157.173 151.592 158.259L151.95 158.338Z" fill="white"/>
<path d="M133.84 133.029C135.901 133.029 137.581 131.349 137.581 129.288C137.581 127.227 135.901 125.547 133.84 125.547C131.78 125.547 130.1 127.227 130.1 129.288C130.1 131.349 131.768 133.029 133.84 133.029Z" fill="white"/>
<path d="M133 190C102.122 190 77 164.878 77 134C77 103.122 102.122 78 133 78C163.878 78 189 103.122 189 134C189 164.878 163.878 190 133 190ZM133 80.1952C103.331 80.1952 79.1952 104.331 79.1952 134C79.1952 163.669 103.331 187.805 133 187.805C162.669 187.805 186.805 163.669 186.805 134C186.805 104.331 162.669 80.1952 133 80.1952Z" fill="white"/>
<path d="M133 175.787C109.962 175.787 91.2129 157.038 91.2129 134C91.2129 110.962 109.962 92.2128 133 92.2128C156.038 92.2128 174.787 110.962 174.787 134C174.787 157.038 156.038 175.787 133 175.787ZM133 93.3104C110.566 93.3104 92.3105 111.566 92.3105 134C92.3105 156.434 110.566 174.69 133 174.69C155.434 174.69 173.69 156.434 173.69 134C173.69 111.566 155.434 93.3104 133 93.3104Z" fill="white"/>
<path d="M129.987 83.2192L132.608 84.5632L134.691 82.48L134.232 85.392L136.864 86.736L133.952 87.1952L133.492 90.1072L132.148 87.4752L129.236 87.9344L131.32 85.8512L129.987 83.2192Z" fill="white"/>
<path d="M113.399 87.4528L116.323 87.8448L117.599 85.1792L118.126 88.08L121.049 88.472L118.462 89.872L118.988 92.7728L116.849 90.7456L114.262 92.1456L115.539 89.48L113.399 87.4528Z" fill="white"/>
<path d="M99.8584 96.088L102.748 95.528L103.106 92.5936L104.54 95.1696L107.43 94.6096L105.425 96.7712L106.858 99.3472L104.182 98.104L102.177 100.266L102.535 97.3312L99.8584 96.088Z" fill="white"/>
<path d="M89.3867 108.285L91.9515 106.829L91.3579 103.95L93.5419 105.933L96.1067 104.488L94.8859 107.165L97.0587 109.158L94.1243 108.822L92.9035 111.51L92.3211 108.621L89.3867 108.285Z" fill="white"/>
<path d="M83.1035 123.886L85.0635 121.68L83.5739 119.138L86.2731 120.325L88.2331 118.118L87.9419 121.053L90.6523 122.229L87.7627 122.867L87.4827 125.802L85.9819 123.259L83.1035 123.886Z" fill="white"/>
<path d="M82.8123 141.526L83.9211 138.794L81.6699 136.89L84.6043 137.102L85.7243 134.37L86.4299 137.226L89.3643 137.438L86.8667 138.995L87.5723 141.862L85.3099 139.958L82.8123 141.526Z" fill="white"/>
<path d="M88.3562 157.318L88.513 154.373L85.7578 153.32L88.6026 152.558L88.7482 149.613L90.361 152.077L93.2058 151.304L91.3578 153.611L92.9706 156.075L90.2154 155.022L88.3562 157.318Z" fill="white"/>
<path d="M97.8316 170.019L97.0364 167.174L94.0908 167.051L96.5436 165.416L95.7484 162.582L98.0556 164.408L100.508 162.773L99.4892 165.539L101.808 167.365L98.8508 167.253L97.8316 170.019Z" fill="white"/>
<path d="M110.88 179.696L109.222 177.254L106.389 178.072L108.203 175.742L106.534 173.301L109.312 174.309L111.115 171.968L111.025 174.925L113.803 175.922L110.969 176.739L110.88 179.696Z" fill="white"/>
<path d="M127.242 184.702L124.879 182.944L122.471 184.646L123.423 181.846L121.049 180.088L124.006 180.122L124.946 177.333L125.82 180.144L128.777 180.189L126.369 181.891L127.242 184.702Z" fill="white"/>
<path d="M144.872 183.347L142.049 182.474L140.358 184.882L140.313 181.925L137.502 181.051L140.291 180.11L140.246 177.154L142.016 179.517L144.816 178.576L143.102 180.984L144.872 183.347Z" fill="white"/>
<path d="M159.869 176.616L156.912 176.706L156.094 179.539L155.097 176.762L152.141 176.862L154.47 175.048L153.473 172.27L155.915 173.928L158.245 172.125L157.427 174.958L159.869 176.616Z" fill="white"/>
<path d="M171.785 166.2L169.019 167.219L169.142 170.165L167.316 167.846L164.55 168.877L166.185 166.424L164.359 164.106L167.193 164.901L168.828 162.448L168.951 165.405L171.785 166.2Z" fill="white"/>
<path d="M180.477 152.346L178.181 154.194L179.233 156.949L176.758 155.336L174.462 157.195L175.235 154.339L172.76 152.738L175.705 152.581L176.478 149.736L177.531 152.491L180.477 152.346Z" fill="white"/>
<path d="M183.993 135.411L182.425 137.92L184.329 140.171L181.462 139.466L179.905 141.963L179.703 139.029L176.836 138.323L179.569 137.203L179.356 134.269L181.26 136.52L183.993 135.411Z" fill="white"/>
<path d="M181.159 118.186L180.521 121.064L183.063 122.565L180.129 122.845L179.501 125.734L178.314 123.024L175.38 123.315L177.586 121.355L176.41 118.645L178.953 120.146L181.159 118.186Z" fill="white"/>
<path d="M173.442 103.894L173.767 106.818L176.657 107.411L173.98 108.632L174.305 111.566L172.322 109.382L169.634 110.614L171.09 108.038L169.097 105.866L171.986 106.459L173.442 103.894Z" fill="white"/>
<path d="M162.119 92.6384L163.363 95.3152L166.286 94.968L164.124 96.9728L165.367 99.6496L162.791 98.216L160.63 100.221L161.201 97.32L158.625 95.8864L161.548 95.5392L162.119 92.6384Z" fill="white"/>
<path d="M147.347 85.1567L149.374 87.2847L152.04 86.0079L150.64 88.6063L152.667 90.7455L149.766 90.2079L148.366 92.8063L147.974 89.8831L145.073 89.3567L147.739 88.0799L147.347 85.1567Z" fill="white"/>
<path d="M129.976 83.2192L132.608 84.5632L134.691 82.48L134.232 85.392L136.864 86.736L133.952 87.1952L133.492 90.1072L132.148 87.4752L129.236 87.9344L131.32 85.8512L129.976 83.2192Z" fill="white"/>
</g>
<defs>
<clipPath id="clip0_380_1172">
<rect width="112" height="112" fill="white" transform="translate(77 78)"/>
</clipPath>
</defs>
</svg>
