<svg width="264" height="265" viewBox="0 0 264 265" fill="none" xmlns="http://www.w3.org/2000/svg">
<circle opacity="0.5" cx="132.174" cy="132.199" r="97.1547" transform="rotate(-27.6571 132.174 132.199)" stroke="#FFD160"/>
<path opacity="0.5" d="M134.053 43.2432C157.919 45.1565 180.869 54.5659 197.365 69.444C213.853 84.3158 223.886 104.64 221.979 128.426C217.729 181.436 172.959 222.819 119.997 218.573C95.4229 216.603 76.4805 202.931 64.1621 183.57C51.8384 164.201 46.155 139.148 48.1319 114.489C51.6138 71.0563 90.5858 39.7586 134.053 43.2432Z" stroke="#D55258"/>
<path d="M135.194 53.535C178.492 57.0061 218.509 87.6747 215.038 130.973C211.181 179.087 170.538 216.681 122.424 212.823C77.6976 209.238 53.5037 163.037 57.0893 118.311C60.2559 78.8108 95.694 50.3684 135.194 53.535Z" fill="#F8B0B8"/>
<g clip-path="url(#clip0_380_1180)">
<path d="M164.641 179.927C139.396 197.578 104.628 191.413 86.9843 166.158C69.3403 140.902 75.5022 106.12 100.747 88.4689C125.993 70.8177 160.76 76.9821 178.404 102.238C196.048 127.493 189.886 162.275 164.641 179.927Z" stroke="white" stroke-width="3" stroke-linecap="round" stroke-linejoin="round" stroke-dasharray="6 6"/>
<path d="M180.154 120.875C185.098 141.146 177.507 163.272 159.382 175.944" stroke="white" stroke-width="6" stroke-linecap="round" stroke-linejoin="round"/>
<path d="M83.2927 138.547C82.9882 123.305 89.3383 108.069 101.928 97.5181" stroke="white" stroke-width="4" stroke-linecap="round" stroke-linejoin="round"/>
<path fill-rule="evenodd" clip-rule="evenodd" d="M129.104 172.627C127.67 172.317 126.225 172.078 124.824 171.619C116.293 168.849 110.214 161.173 109.5 152.234C108.775 143.156 113.574 134.583 121.718 130.539C122.621 130.091 122.859 129.576 122.859 128.623C122.825 116.66 122.825 104.691 122.848 92.728C122.853 88.6129 125.738 85.0737 129.718 84.1654C135.221 82.9082 140.503 87.0344 140.541 92.7224C140.591 99.9281 140.553 107.139 140.553 114.345C140.553 119.246 140.553 124.148 140.541 129.05C140.541 129.664 140.702 130.008 141.3 130.312C148.779 134.184 153.109 140.276 153.878 148.7C154.902 159.91 146.914 170.738 134.789 172.499C134.623 172.521 134.457 172.582 134.291 172.627H129.104ZM137.341 112.085C137.341 105.771 137.353 99.4573 137.336 93.1434C137.325 90.2578 135.625 87.9538 133.156 87.3722C129.292 86.4695 126.048 89.1279 126.042 93.2098C126.042 105.838 126.031 118.465 126.064 131.093C126.064 131.935 125.782 132.306 125.012 132.589C116.935 135.541 111.775 143.937 112.744 152.489C113.968 163.283 123.816 170.832 134.607 169.259C145.148 167.72 152.55 157.252 150.374 146.834C148.94 139.972 144.893 135.22 138.388 132.6C137.585 132.279 137.314 131.874 137.314 131.021C137.347 124.707 137.33 118.393 137.33 112.08L137.341 112.085Z" fill="white"/>
<path fill-rule="evenodd" clip-rule="evenodd" d="M149.411 100.831C148.747 100.831 148.088 100.809 147.424 100.837C146.77 100.864 146.488 100.632 146.505 99.9393C146.571 97.1091 146.1 97.5688 148.83 97.5245C149.749 97.5079 150.673 97.5411 151.592 97.5189C152.201 97.5023 152.5 97.7239 152.484 98.3663C152.423 101.274 152.838 100.765 150.186 100.837C149.926 100.842 149.666 100.837 149.411 100.837V100.825V100.831Z" fill="white"/>
<path fill-rule="evenodd" clip-rule="evenodd" d="M149.494 94.4395C148.802 94.4395 148.115 94.4173 147.423 94.445C146.781 94.4727 146.482 94.2512 146.499 93.5533C146.571 90.7508 146.095 91.1773 148.824 91.133C149.715 91.1164 150.607 91.1496 151.498 91.133C152.168 91.1164 152.5 91.3379 152.483 92.0745C152.422 94.8604 152.81 94.3841 150.18 94.4395C149.953 94.4395 149.721 94.4395 149.494 94.4395Z" fill="white"/>
<path fill-rule="evenodd" clip-rule="evenodd" d="M149.51 103.91C150.169 103.91 150.833 103.91 151.492 103.91C151.692 103.91 151.963 103.86 152.079 103.966C152.898 104.708 152.339 105.683 152.45 106.547C152.516 107.089 152.085 107.2 151.647 107.2C150.18 107.206 148.719 107.206 147.252 107.211C146.703 107.211 146.499 106.945 146.504 106.408C146.554 103.428 146.083 103.96 148.901 103.905C149.101 103.905 149.305 103.905 149.505 103.905L149.51 103.91Z" fill="white"/>
<path fill-rule="evenodd" clip-rule="evenodd" d="M149.51 113.503C148.763 113.503 148.016 113.486 147.263 113.503C146.698 113.52 146.504 113.265 146.51 112.722C146.543 109.848 146.144 110.329 148.818 110.296C149.737 110.285 150.662 110.318 151.581 110.285C152.262 110.263 152.489 110.556 152.483 111.21C152.461 113.935 152.738 113.459 150.285 113.497C150.025 113.497 149.765 113.497 149.51 113.497V113.503Z" fill="white"/>
<path fill-rule="evenodd" clip-rule="evenodd" d="M149.521 119.9C148.774 119.9 148.021 119.883 147.274 119.9C146.72 119.917 146.504 119.673 146.51 119.125C146.543 116.206 146.144 116.743 148.813 116.693C149.732 116.677 150.656 116.71 151.581 116.682C152.184 116.666 152.489 116.859 152.483 117.513C152.456 120.393 152.804 119.845 150.214 119.9C149.981 119.9 149.754 119.9 149.521 119.9Z" fill="white"/>
<path fill-rule="evenodd" clip-rule="evenodd" d="M149.488 123.09C150.236 123.09 150.989 123.101 151.736 123.09C152.245 123.079 152.489 123.295 152.478 123.805C152.478 123.832 152.478 123.86 152.478 123.893C152.461 126.801 152.799 126.253 150.236 126.303C149.256 126.319 148.276 126.291 147.296 126.303C146.759 126.314 146.504 126.103 146.51 125.538C146.565 122.547 146.122 123.173 148.796 123.09C149.029 123.085 149.256 123.09 149.488 123.09Z" fill="white"/>
<path fill-rule="evenodd" clip-rule="evenodd" d="M130.105 116.222C130.105 108.612 130.105 100.997 130.105 93.3871C130.105 93.016 130.116 92.6283 130.216 92.2794C130.421 91.5704 131.168 91.1384 131.91 91.2381C132.685 91.3433 133.239 91.9194 133.261 92.7834C133.3 94.1957 133.283 95.608 133.283 97.0203C133.283 111.121 133.283 125.217 133.272 139.318C133.272 139.938 133.311 140.381 134.08 140.581C138.482 141.7 141.349 145.084 141.776 149.614C142.252 154.665 138.864 159.013 134.423 160.198C129.574 161.494 124.491 159.157 122.498 154.732C119.847 148.844 122.98 142.226 129.23 140.603C130.011 140.398 130.122 140.005 130.122 139.318C130.105 131.619 130.111 123.921 130.111 116.222H130.105Z" fill="white"/>
</g>
<path d="M90.0559 86.8351C100.764 75.9836 116.11 69.9036 132.452 71.5627" stroke="white" stroke-width="4" stroke-linecap="round" stroke-linejoin="round"/>
<defs>
<clipPath id="clip0_380_1180">
<rect width="121" height="112" fill="white" transform="translate(67.6738 78.1951)"/>
</clipPath>
</defs>
</svg>
