<svg width="265" height="264" viewBox="0 0 265 264" fill="none" xmlns="http://www.w3.org/2000/svg">
<circle opacity="0.5" cx="132.472" cy="132.136" r="97.1547" transform="rotate(-27.6571 132.472 132.136)" stroke="#FFD160"/>
<path opacity="0.5" d="M134.35 43.1804C158.217 45.0937 181.167 54.5031 197.662 69.3811C214.151 84.2529 224.184 104.577 222.277 128.363C218.027 181.373 173.257 222.756 120.295 218.51C95.7207 216.54 76.7784 202.868 64.4599 183.507C52.1363 164.138 46.4529 139.085 48.4297 114.426C51.9117 70.9934 90.8837 39.6957 134.35 43.1804Z" stroke="#D55258"/>
<path d="M135.492 53.4721C178.79 56.9433 218.807 87.6118 215.336 130.91C211.479 179.024 170.836 216.618 122.722 212.76C77.9955 209.175 53.8015 162.974 57.3872 118.248C60.5538 78.748 95.9918 50.3055 135.492 53.4721Z" fill="#F8B0B8"/>
<g clip-path="url(#clip0_380_1176)">
<path d="M103.737 145.69C100.765 143.814 100.366 141.644 100.372 140.603C103.515 142.761 103.828 144.717 103.737 145.69Z" fill="white"/>
<path d="M99.7912 145.418C100.232 144.622 100.397 143.802 100.281 142.979C100.144 142.021 99.6543 141.271 99.3713 140.913C99.2983 140.821 99.2831 140.698 99.3257 140.588C99.4961 140.163 99.7608 139.306 99.6238 138.348C99.5082 137.524 99.1218 136.784 98.4768 136.144C97.6614 135.333 96.3744 135.048 94.8593 135.342C92.5652 135.786 90.4507 137.393 89.5684 139.348C89.5684 139.443 89.5805 139.627 89.611 139.841C89.684 140.352 89.8361 140.717 90.0247 140.842C90.5602 141.188 90.7032 141.874 90.7276 142.033C90.7276 142.036 90.7276 142.039 90.7276 142.042C90.7276 142.042 90.7306 142.063 90.7306 142.066C90.7306 142.073 90.7306 142.082 90.7306 142.088C90.758 142.324 90.7549 142.835 90.3655 143.285C90.2164 143.459 90.1708 143.851 90.2438 144.362C90.2742 144.576 90.3168 144.757 90.3412 144.846C91.7316 146.477 94.2082 147.426 96.5327 147.206C98.0691 147.062 99.2253 146.425 99.7821 145.418H99.7912ZM97.7375 137.818C97.6766 137.751 96.2953 136.239 93.7883 137.509C93.6271 137.592 93.4323 137.524 93.3502 137.362C93.335 137.328 93.3228 137.295 93.3198 137.261C93.3015 137.126 93.3684 136.989 93.4962 136.921C96.4688 135.418 98.2091 137.365 98.2273 137.383C98.346 137.518 98.3308 137.726 98.1969 137.846C98.063 137.965 97.8561 137.95 97.7375 137.815V137.818Z" fill="white"/>
<path d="M169.985 117.47C173.338 116.426 175.234 117.534 176.016 118.214C172.343 119.206 170.661 118.174 169.985 117.47Z" fill="white"/>
<path d="M172.761 114.636C173.074 115.493 173.585 116.151 174.282 116.598C175.094 117.118 175.979 117.231 176.433 117.25C176.548 117.256 176.652 117.323 176.707 117.427C176.917 117.834 177.391 118.593 178.204 119.114C178.9 119.561 179.71 119.75 180.613 119.674C181.757 119.579 182.81 118.783 183.574 117.436C184.733 115.398 184.9 112.735 184 110.788C183.927 110.73 183.78 110.617 183.601 110.501C183.169 110.222 182.795 110.1 182.576 110.167C181.964 110.351 181.359 110.014 181.219 109.928C181.216 109.928 181.213 109.925 181.21 109.922L181.191 109.91C181.185 109.907 181.179 109.901 181.173 109.898C180.978 109.763 180.595 109.429 180.51 108.839C180.476 108.612 180.209 108.321 179.777 108.043C179.597 107.927 179.433 107.844 179.348 107.801C177.212 107.801 174.881 109.074 173.533 110.99C172.642 112.258 172.368 113.552 172.764 114.636H172.761ZM179.831 118.021C179.923 118.021 181.961 117.948 182.636 115.208C182.679 115.034 182.856 114.927 183.032 114.969C183.069 114.979 183.099 114.994 183.129 115.012C183.245 115.086 183.306 115.226 183.269 115.367C182.466 118.618 179.865 118.676 179.837 118.676C179.658 118.676 179.512 118.532 179.509 118.352C179.509 118.171 179.652 118.024 179.831 118.021Z" fill="white"/>
<path d="M112.263 98.6035L110.589 99.0014C110.492 99.0259 110.41 99.0932 110.367 99.185C110.324 99.2769 110.327 99.384 110.373 99.4728L111.149 100.966C111.231 101.126 111.429 101.19 111.587 101.104C111.605 101.095 111.624 101.083 111.642 101.067L113.333 99.8615C116.181 99.2065 118.865 100.146 120.508 102.368C122.096 104.517 121.128 107.725 121.119 107.755C121.077 107.896 121.128 108.046 121.25 108.126L122.072 108.667C122.166 108.729 122.281 108.738 122.385 108.692C124.296 107.819 125.653 105.184 125.61 102.429C125.604 101.995 125.564 101.572 125.491 101.165C125.068 98.7627 123.526 96.865 121.134 95.858C115.259 93.3879 112.707 97.7128 112.256 98.6035H112.263ZM115.634 97.7281C115.691 97.7281 121.357 97.6822 122.933 103.054C122.939 103.069 122.942 103.088 122.945 103.103C122.966 103.259 122.869 103.412 122.714 103.458C122.54 103.51 122.361 103.412 122.309 103.238C120.87 98.3403 115.698 98.3801 115.646 98.3801C115.466 98.3831 115.317 98.2393 115.314 98.0587C115.311 97.8781 115.454 97.7281 115.634 97.725V97.7281Z" fill="white"/>
<path d="M174.892 160.52L175.434 158.879C175.464 158.784 175.452 158.677 175.394 158.595C175.34 158.512 175.248 158.457 175.148 158.451L173.478 158.331C173.298 158.319 173.143 158.454 173.131 158.634C173.131 158.656 173.131 158.68 173.131 158.702L173.262 160.783C172.318 163.565 170.119 165.371 167.371 165.61C164.718 165.843 162.515 163.33 162.494 163.305C162.4 163.195 162.242 163.161 162.111 163.223L161.222 163.642C161.122 163.688 161.052 163.786 161.037 163.896C160.772 165.99 162.287 168.533 164.642 169.947C165.013 170.171 165.391 170.357 165.774 170.51C168.031 171.407 170.444 171.086 172.553 169.565C177.728 165.83 175.407 161.377 174.892 160.523V160.52ZM173.864 163.865C173.837 163.914 170.898 168.787 165.524 167.318C165.509 167.312 165.491 167.306 165.476 167.3C165.333 167.235 165.254 167.073 165.296 166.917C165.342 166.742 165.521 166.638 165.695 166.687C170.593 168.028 173.277 163.578 173.304 163.532C173.395 163.376 173.596 163.324 173.751 163.415C173.907 163.507 173.958 163.709 173.864 163.865Z" fill="white"/>
<path d="M137.129 159.99C133.064 157.499 128.878 161.111 127.746 162.216L140.698 170.204C141.477 168.306 142.737 163.428 137.129 159.99ZM133.572 160.97C133.667 160.817 133.868 160.768 134.02 160.863L135.069 161.515C135.152 161.564 135.203 161.646 135.218 161.735C135.231 161.812 135.218 161.894 135.176 161.965C135.082 162.118 134.881 162.167 134.729 162.072L133.679 161.42C133.527 161.325 133.478 161.123 133.572 160.97ZM132.188 163.379L131.138 162.727C130.986 162.632 130.938 162.43 131.032 162.277C131.126 162.124 131.327 162.075 131.479 162.17L132.529 162.822C132.611 162.874 132.663 162.953 132.678 163.042C132.69 163.118 132.678 163.201 132.635 163.272C132.541 163.425 132.34 163.474 132.188 163.379ZM136.679 163.219C136.773 163.066 136.974 163.017 137.126 163.112L138.176 163.767C138.258 163.819 138.31 163.899 138.325 163.988C138.337 164.064 138.325 164.147 138.282 164.217C138.188 164.37 137.987 164.419 137.835 164.324L136.785 163.672C136.633 163.578 136.585 163.376 136.679 163.223V163.219ZM135.641 165.641L134.592 164.986C134.44 164.891 134.391 164.689 134.485 164.536C134.58 164.383 134.78 164.334 134.932 164.428L135.982 165.08C136.064 165.132 136.116 165.212 136.131 165.301C136.143 165.377 136.131 165.46 136.089 165.53C135.994 165.683 135.794 165.732 135.641 165.637V165.641ZM137.942 166.4L138.991 167.052C139.073 167.104 139.125 167.183 139.14 167.272C139.152 167.348 139.14 167.431 139.098 167.502C139.003 167.655 138.803 167.704 138.65 167.609L137.601 166.957C137.449 166.862 137.4 166.66 137.494 166.507C137.589 166.354 137.789 166.305 137.942 166.4Z" fill="white"/>
<path d="M127.874 161.144C129.636 159.635 133.585 156.988 137.494 159.384C140.248 161.071 141.571 163.235 141.961 165.411C142.219 166.85 142.07 168.291 141.66 169.61C142.475 168.025 142.761 166.192 142.445 164.416C141.65 159.996 137.431 157.049 133.037 157.848C130.95 158.227 129.094 159.43 127.877 161.147L127.874 161.144Z" fill="white"/>
<path d="M95.4398 103.265C90.6813 103.081 88.7736 108.285 88.3203 109.803L103.499 110.437C103.262 108.398 101.999 103.519 95.4398 103.262V103.265ZM92.805 105.861C92.8141 105.68 92.9662 105.539 93.1457 105.548L94.3779 105.607C94.4723 105.61 94.5574 105.656 94.6153 105.726C94.6639 105.787 94.6913 105.864 94.6883 105.949C94.6791 106.13 94.527 106.271 94.3475 106.262L93.1153 106.203C92.9358 106.194 92.7958 106.041 92.805 105.861ZM92.7624 108.643L91.5302 108.585C91.3506 108.576 91.2107 108.423 91.2198 108.242C91.2289 108.061 91.3811 107.921 91.5606 107.93L92.7928 107.988C92.8902 107.994 92.9723 108.037 93.0301 108.107C93.0788 108.168 93.1092 108.245 93.1031 108.331C93.094 108.511 92.9419 108.652 92.7624 108.643ZM96.6081 106.304C96.6172 106.124 96.7693 105.983 96.9489 105.992L98.1811 106.05C98.2784 106.053 98.3606 106.099 98.4184 106.17C98.4671 106.231 98.4944 106.308 98.4914 106.393C98.4823 106.574 98.3302 106.715 98.1506 106.705L96.9184 106.647C96.7389 106.638 96.599 106.485 96.6081 106.304ZM96.8728 108.928L95.6406 108.869C95.4611 108.86 95.3211 108.707 95.3302 108.527C95.3394 108.346 95.4915 108.208 95.671 108.214L96.9032 108.273C97.0006 108.276 97.0827 108.322 97.1405 108.392C97.1892 108.453 97.2166 108.53 97.2136 108.615C97.2044 108.796 97.0523 108.937 96.8728 108.928ZM99.249 108.465L100.481 108.524C100.579 108.527 100.661 108.573 100.719 108.643C100.767 108.704 100.795 108.781 100.792 108.866C100.782 109.047 100.63 109.188 100.451 109.179L99.2186 109.12C99.0391 109.111 98.8991 108.958 98.9082 108.778C98.9174 108.597 99.0695 108.456 99.249 108.465Z" fill="white"/>
<path d="M87.9131 108.805C88.7224 106.626 90.8887 102.377 95.4646 102.555C98.6866 102.68 100.889 103.92 102.283 105.631C103.205 106.76 103.774 108.095 104.051 109.445C103.996 107.66 103.357 105.919 102.222 104.523C99.3894 101.049 94.278 100.544 90.8248 103.394C89.1849 104.746 88.1474 106.705 87.9131 108.805Z" fill="white"/>
<path d="M115.436 163.669C115.573 163.74 115.649 163.896 115.622 164.049C115.321 165.638 115.433 166.779 115.95 167.446C116.27 167.86 116.757 168.086 117.393 168.123C117.469 168.126 117.542 168.129 117.605 168.126L117.517 169.718C117.508 169.898 117.645 170.051 117.825 170.063C118.004 170.073 118.156 169.935 118.168 169.754L118.257 168.163C118.32 168.172 118.394 168.178 118.47 168.181C119.105 168.218 119.614 168.043 119.976 167.673C120.563 167.07 120.8 165.947 120.675 164.334C120.663 164.178 120.754 164.034 120.901 163.979C121.031 163.93 124.138 162.705 124.153 159.286C124.165 156.838 122.662 155.708 119.13 155.509C118.969 155.5 118.804 155.494 118.637 155.488C118.454 155.473 118.29 155.46 118.126 155.451C114.593 155.252 112.978 156.207 112.719 158.644C112.357 162.044 115.308 163.605 115.436 163.673V163.669ZM118.999 163.229C119.008 163.088 119.102 162.969 119.239 162.932C119.355 162.901 122.063 162.133 121.905 159.935C121.892 159.755 122.026 159.599 122.206 159.586C122.221 159.586 122.233 159.586 122.248 159.586C122.41 159.596 122.543 159.724 122.556 159.889C122.705 161.943 120.828 163.1 119.641 163.495L119.568 164.811C119.559 164.992 119.404 165.129 119.224 165.12C119.045 165.111 118.908 164.955 118.917 164.774L119.002 163.229H118.999Z" fill="white"/>
<path d="M110.053 89.3997C110.19 89.4701 110.266 89.6262 110.239 89.7793C109.938 91.3678 110.05 92.5095 110.568 93.1767C110.887 93.5899 111.374 93.8164 112.01 93.8501C112.086 93.8532 112.159 93.8562 112.223 93.8532L112.134 95.4448C112.125 95.6253 112.262 95.7784 112.442 95.7906C112.621 95.7998 112.773 95.6621 112.786 95.4815L112.874 93.8899C112.938 93.8991 113.011 93.9052 113.087 93.9083C113.723 93.945 114.231 93.7705 114.593 93.4002C115.18 92.7972 115.417 91.6739 115.293 90.0609C115.28 89.9048 115.372 89.7609 115.518 89.7058C115.649 89.6568 118.755 88.4325 118.77 85.0136C118.782 82.565 117.279 81.4356 113.747 81.2366C113.586 81.2274 113.421 81.2213 113.254 81.2152C113.072 81.1999 112.907 81.1877 112.743 81.1785C109.211 80.9795 107.595 81.9345 107.336 84.3709C106.974 87.7714 109.926 89.3324 110.053 89.3997ZM113.616 88.959C113.625 88.8182 113.72 88.6988 113.857 88.6621C113.972 88.6315 116.68 87.8632 116.522 85.6656C116.51 85.485 116.643 85.3289 116.823 85.3166C116.838 85.3166 116.85 85.3166 116.866 85.3166C117.027 85.3258 117.161 85.4544 117.173 85.6197C117.322 87.6734 115.445 88.8304 114.258 89.2253L114.185 90.5414C114.176 90.722 114.021 90.8597 113.841 90.8505C113.662 90.8414 113.525 90.6853 113.534 90.5047L113.619 88.959H113.616Z" fill="white"/>
<path d="M98.7113 133.573C99.3289 133.683 99.8157 133.769 100.126 134.121C103.585 138.072 105.94 136.471 106.196 136.279C106.208 136.269 106.217 136.26 106.229 136.254C106.238 136.248 106.248 136.242 106.26 136.233C106.372 136.147 109.01 134.063 105.73 129.597C105.456 129.223 105.52 128.767 105.612 128.137C105.758 127.118 105.955 125.725 104.553 124.045C102.377 121.44 99.7031 122.979 97.8837 124.363C97.759 124.458 97.6342 124.556 97.5186 124.648C97.3878 124.742 97.26 124.837 97.1352 124.932C95.3158 126.316 93.1131 128.483 95.0085 131.299C96.2468 133.135 97.6707 133.392 98.7113 133.576V133.573ZM97.9963 127.972C98.0206 127.286 98.3097 126.649 98.7478 126.319C99.2102 125.967 99.9617 125.863 100.658 126.052C101.097 126.172 101.888 126.515 102.277 127.454C103.077 129.395 103.369 130.65 102.499 131.311C101.723 131.902 100.506 131.479 98.8847 130.053C98.2944 129.533 97.9689 128.774 97.9993 127.972H97.9963Z" fill="white"/>
<path d="M128.455 108.459C127.384 109.065 126.341 109.999 125.607 111.434C125.656 111.434 125.705 111.446 125.75 111.471L130.886 114.327L128.477 108.615C128.455 108.563 128.452 108.508 128.455 108.456V108.459Z" fill="white"/>
<path d="M125.035 117.482C124.971 117.501 124.907 117.498 124.85 117.479C125.269 118.857 126.173 119.922 127.18 120.727C127.189 120.684 127.208 120.641 127.238 120.601L130.709 115.906L125.035 117.482Z" fill="white"/>
<path d="M125.355 111.979C124.963 112.916 124.692 114.039 124.613 115.395C124.579 115.946 124.622 116.46 124.719 116.941C124.728 116.931 124.738 116.919 124.75 116.91C124.783 116.882 124.82 116.864 124.865 116.852L131.008 115.144L125.437 112.043C125.407 112.025 125.38 112.003 125.358 111.979H125.355Z" fill="white"/>
<path d="M130.001 123.132C127.835 122.269 123.63 119.983 123.904 115.352C124.095 112.089 125.385 109.889 127.126 108.511C128.276 107.602 129.624 107.054 130.984 106.797C129.195 106.815 127.439 107.425 126.018 108.548C122.483 111.345 121.868 116.512 124.646 120.069C125.966 121.758 127.908 122.851 130.001 123.129V123.132Z" fill="white"/>
<path d="M127.579 120.984C128.887 121.908 130.266 122.429 130.932 122.646L131.349 115.94L127.686 120.895C127.655 120.935 127.622 120.965 127.579 120.987V120.984Z" fill="white"/>
<path d="M128.908 108.386L131.37 114.223L131.793 107.406C131.047 107.48 129.922 107.682 128.771 108.233C128.829 108.266 128.881 108.318 128.908 108.386Z" fill="white"/>
<path d="M162.15 172.889C161.003 172.451 159.622 172.243 158.055 172.595C158.085 172.635 158.109 172.677 158.119 172.729L159.229 178.527L162.043 173.005C162.068 172.956 162.107 172.916 162.153 172.889H162.15Z" fill="white"/>
<path d="M153.072 176.032C153.017 175.995 152.98 175.943 152.956 175.888C152.177 177.094 151.943 178.475 151.973 179.769C152.013 179.748 152.058 179.736 152.104 179.733L157.912 179.402L153.072 176.032Z" fill="white"/>
<path d="M157.477 172.751C156.509 173.048 155.478 173.559 154.395 174.367C153.954 174.694 153.588 175.056 153.284 175.441C153.299 175.441 153.315 175.441 153.327 175.441C153.369 175.45 153.409 175.466 153.445 175.493L158.688 179.142L157.48 172.855C157.474 172.818 157.474 172.785 157.48 172.754L157.477 172.751Z" fill="white"/>
<path d="M151.946 183.488C151.216 181.263 150.263 176.549 153.972 173.795C156.583 171.851 159.09 171.435 161.256 171.897C162.686 172.203 163.97 172.892 165.035 173.776C163.872 172.408 162.284 171.441 160.516 171.064C156.117 170.128 151.778 172.965 150.847 177.391C150.403 179.494 150.814 181.691 151.946 183.488Z" fill="white"/>
<path d="M152.031 180.238C152.162 181.841 152.652 183.237 152.914 183.892L158.299 179.913L152.171 180.262C152.123 180.262 152.077 180.256 152.034 180.241L152.031 180.238Z" fill="white"/>
<path d="M162.494 173.192L159.619 178.833L165.09 174.789C164.557 174.26 163.678 173.522 162.522 172.987C162.534 173.054 162.525 173.124 162.491 173.192H162.494Z" fill="white"/>
<path d="M93.8429 114.832C93.773 114.997 93.8521 115.19 94.0164 115.26L96.067 116.12C96.0701 116.212 96.0761 116.298 96.0853 116.38L93.1279 116.273C92.9484 116.267 92.7963 116.408 92.7902 116.589C92.7841 116.769 92.9241 116.922 93.1036 116.928L96.1126 117.035C96.1126 117.06 96.1126 117.084 96.1126 117.109L94.4545 118.076C94.2993 118.168 94.2445 118.367 94.3358 118.523C94.4271 118.679 94.6249 118.734 94.78 118.642L96.1583 117.837C96.2313 118.321 96.4078 118.829 96.7911 119.187C97.1623 119.533 97.6613 119.68 98.2728 119.625C100.18 119.453 109.661 117.632 112.509 116.968C112.779 116.904 112.989 116.69 113.069 116.39C113.151 116.074 113.069 115.75 112.846 115.545C112.728 115.435 112.576 115.364 112.405 115.337C109.421 114.875 99.9492 113.711 98.0538 113.681C97.4088 113.672 96.9067 113.874 96.5599 114.284C96.2861 114.608 96.1552 115.018 96.0974 115.416L94.2689 114.648C94.1046 114.578 93.9129 114.657 93.8429 114.826V114.832ZM106.621 115.597C106.716 115.591 106.801 115.624 106.865 115.683C106.923 115.738 106.962 115.814 106.968 115.9L107.078 117.458C107.09 117.638 106.956 117.795 106.777 117.807C106.597 117.819 106.442 117.684 106.43 117.504L106.323 115.946C106.311 115.765 106.445 115.609 106.625 115.597H106.621ZM104.388 114.688C104.483 114.682 104.568 114.715 104.632 114.774C104.689 114.829 104.729 114.905 104.735 114.991L104.845 116.549C104.857 116.729 104.723 116.885 104.543 116.898C104.364 116.91 104.209 116.775 104.197 116.595L104.087 115.037C104.075 114.856 104.209 114.7 104.388 114.688ZM99.5385 118.948C99.359 118.961 99.2038 118.826 99.1917 118.645L99.0821 117.087C99.07 116.907 99.2038 116.751 99.3833 116.739C99.4777 116.732 99.5628 116.766 99.6267 116.824C99.6845 116.879 99.7241 116.956 99.7302 117.042L99.8397 118.6C99.8519 118.78 99.718 118.936 99.5385 118.948ZM100.975 114.78C101.069 114.774 101.154 114.807 101.218 114.865C101.276 114.92 101.315 114.997 101.321 115.083L101.431 116.641C101.443 116.821 101.309 116.977 101.13 116.99C100.95 117.002 100.795 116.867 100.783 116.687L100.673 115.129C100.661 114.948 100.795 114.792 100.975 114.78Z" fill="white"/>
<path d="M187.887 134.148C187.948 133.98 187.86 133.79 187.693 133.729L185.606 132.967C185.596 132.875 185.587 132.789 185.575 132.71L188.532 132.673C188.712 132.673 188.855 132.523 188.852 132.342C188.852 132.162 188.703 132.018 188.523 132.021L185.514 132.058C185.514 132.033 185.514 132.009 185.514 131.984L187.127 130.937C187.276 130.84 187.322 130.637 187.224 130.484C187.127 130.331 186.926 130.289 186.774 130.387L185.435 131.256C185.341 130.778 185.14 130.276 184.738 129.937C184.352 129.609 183.847 129.487 183.238 129.569C181.343 129.833 171.96 132.107 169.146 132.909C168.878 132.985 168.677 133.212 168.613 133.512C168.546 133.83 168.647 134.151 168.875 134.344C168.997 134.448 169.152 134.512 169.325 134.531C172.328 134.849 181.842 135.556 183.741 135.492C184.386 135.47 184.878 135.244 185.204 134.819C185.463 134.482 185.575 134.066 185.612 133.665L187.474 134.344C187.644 134.405 187.83 134.32 187.89 134.148H187.887ZM175.088 133.998C174.993 134.01 174.905 133.98 174.838 133.925C174.777 133.873 174.735 133.799 174.726 133.714L174.543 132.162C174.522 131.981 174.65 131.819 174.829 131.798C175.009 131.776 175.17 131.905 175.191 132.085L175.374 133.637C175.395 133.815 175.267 133.98 175.088 134.001V133.998ZM177.36 134.8C177.269 134.812 177.178 134.782 177.114 134.724C177.053 134.672 177.01 134.598 177.001 134.512L176.819 132.961C176.798 132.78 176.925 132.618 177.105 132.596C177.281 132.575 177.446 132.704 177.467 132.884L177.649 134.436C177.671 134.617 177.543 134.779 177.363 134.8H177.36ZM182 130.31C182.18 130.289 182.341 130.417 182.362 130.598L182.545 132.15C182.566 132.33 182.438 132.492 182.259 132.514C182.164 132.526 182.076 132.495 182.012 132.44C181.952 132.388 181.909 132.315 181.9 132.229L181.717 130.677C181.696 130.497 181.824 130.334 182.003 130.313L182 130.31ZM180.765 134.543C180.671 134.555 180.582 134.525 180.518 134.467C180.458 134.415 180.415 134.341 180.406 134.255L180.223 132.704C180.202 132.523 180.33 132.361 180.509 132.339C180.689 132.318 180.85 132.446 180.871 132.627L181.054 134.179C181.075 134.359 180.947 134.522 180.768 134.543H180.765Z" fill="white"/>
<path d="M124.995 135.957C124.719 136.223 124.265 136.738 124.204 137.331C124.168 137.671 124.271 137.996 124.497 138.268C124.71 138.522 124.965 138.672 125.257 138.706C125.805 138.773 126.316 138.415 126.654 138.179C126.711 138.14 126.784 138.088 126.836 138.057C126.882 138.075 126.94 138.1 126.994 138.121C127.496 138.332 128.543 138.773 129.864 138.932C132.045 139.196 133.968 138.589 135.577 137.133C138.894 134.124 138.459 131.449 138.042 129.453C138.316 129.227 138.808 128.749 138.894 128.171C138.942 127.849 138.857 127.537 138.647 127.268C138.419 126.974 138.133 126.805 137.801 126.763C137.278 126.698 136.764 126.98 136.387 127.188C136.323 127.222 136.262 127.255 136.207 127.283C135.775 127.014 134.522 126.31 132.86 126.108C130.725 125.851 128.774 126.499 127.061 128.042C124.387 130.451 123.639 133.325 124.999 135.957H124.995ZM136.116 130.081C136.158 130.068 136.204 130.062 136.25 130.068C136.374 130.084 136.484 130.169 136.524 130.298C136.73 130.986 136.627 131.883 136.621 131.923C136.6 132.104 136.438 132.229 136.259 132.208C136.079 132.186 135.955 132.024 135.976 131.844C135.976 131.834 136.067 131.042 135.903 130.488C135.851 130.313 135.949 130.133 136.119 130.081H136.116ZM129.441 136.554C129.623 136.588 133.925 137.362 135.702 133.123C135.76 132.985 135.9 132.909 136.04 132.924C136.07 132.927 136.098 132.936 136.128 132.948C136.292 133.019 136.371 133.212 136.301 133.377C134.321 138.115 129.368 137.209 129.319 137.197C129.142 137.163 129.027 136.992 129.06 136.814C129.094 136.637 129.267 136.517 129.441 136.554Z" fill="white"/>
<path d="M140.749 89.7701C140.473 90.0363 140.019 90.5506 139.958 91.1443C139.922 91.4841 140.025 91.8085 140.25 92.0809C140.463 92.335 140.719 92.485 141.011 92.5186C141.559 92.586 142.07 92.2279 142.408 91.9922C142.465 91.9524 142.538 91.9004 142.59 91.8698C142.636 91.8881 142.694 91.9126 142.748 91.934C143.25 92.1452 144.297 92.586 145.617 92.7451C147.799 93.0084 149.722 92.4023 151.331 90.9454C154.648 87.9366 154.212 85.2615 153.796 83.2659C154.069 83.0394 154.562 82.5619 154.648 81.9834C154.696 81.6621 154.611 81.3499 154.401 81.0805C154.173 80.7867 153.887 80.6183 153.555 80.5755C153.032 80.5112 152.518 80.7928 152.141 81.0009C152.077 81.0346 152.016 81.0683 151.961 81.0989C151.529 80.8295 150.275 80.1255 148.614 79.9235C146.478 79.6664 144.528 80.3153 142.815 81.8579C140.141 84.2668 139.395 87.1408 140.752 89.7731L140.749 89.7701ZM151.87 83.8934C151.912 83.8811 151.958 83.875 152.004 83.8811C152.128 83.8964 152.238 83.9821 152.277 84.1107C152.484 84.7994 152.381 85.6962 152.375 85.7359C152.354 85.9165 152.192 86.042 152.013 86.0206C151.833 85.9992 151.709 85.837 151.73 85.6564C151.73 85.6472 151.821 84.8544 151.657 84.3004C151.605 84.129 151.702 83.9454 151.873 83.8934H151.87ZM145.195 90.3669C145.377 90.4006 149.679 91.175 151.456 86.9358C151.514 86.798 151.654 86.7215 151.794 86.7368C151.824 86.7399 151.852 86.7491 151.882 86.7613C152.046 86.8317 152.125 87.0245 152.055 87.1898C150.075 91.9279 145.121 91.0219 145.073 91.0097C144.896 90.976 144.781 90.8046 144.814 90.6271C144.848 90.4495 145.021 90.3302 145.195 90.3669Z" fill="white"/>
<path d="M135.371 169.724C135.331 169.708 133.475 168.916 132.051 169.711C131.485 170.027 131.056 170.559 130.764 171.294C130.706 171.285 130.649 171.291 130.591 171.312C128.787 172.065 126.477 170.321 125.425 169.393C125.997 169.39 126.818 169.225 127.679 168.509C128.053 168.196 128.434 167.783 128.802 167.232C128.899 167.088 128.866 166.889 128.726 166.785C128.65 166.727 126.818 165.42 124.466 168.613C124.415 168.683 124.345 168.91 124.326 168.952C123.143 171.612 126.377 174.768 127.052 175.386C126.636 175.512 125.851 175.793 125.303 176.249C125.123 176.399 124.984 176.555 124.889 176.711C124.378 177.572 124.156 178.732 126.404 180.822C128.799 183.047 131.431 180.905 131.458 180.883C131.467 180.877 131.476 180.868 131.482 180.865C131.488 180.862 131.583 180.795 131.726 180.675C132.599 179.947 134.482 178.003 133.101 175.649C133.086 175.625 131.686 173.265 130.128 172.993C129.645 172.907 129.203 173.039 128.778 173.39C128.367 173.733 127.977 174.284 127.624 175.025C127.615 175.013 127.606 175.004 127.594 174.994C127.557 174.964 124.278 172.071 124.771 169.684C125.729 170.575 128.294 172.68 130.533 172.022C130.497 172.175 130.463 172.335 130.436 172.503C132.158 173.06 133.496 175.319 133.557 175.42C133.795 175.821 133.947 176.213 134.041 176.589C134.64 176.491 136.995 175.943 137.312 173.329C137.643 170.593 135.392 169.733 135.371 169.724ZM128.041 167.18C126.909 168.668 125.753 168.781 125.2 168.729C126.529 167.058 127.557 167.046 128.041 167.18ZM126.529 177.44C126.529 177.492 126.517 178.56 127.907 179.439C128.06 179.537 128.105 179.739 128.011 179.892C127.993 179.922 127.968 179.947 127.941 179.968C127.834 180.057 127.682 180.069 127.561 179.993C125.823 178.897 125.875 177.467 125.878 177.409C125.887 177.229 126.039 177.088 126.219 177.097C126.398 177.106 126.535 177.259 126.529 177.44Z" fill="white"/>
<path d="M166.033 99.6318C165.996 99.6533 164.21 100.596 163.921 102.206C163.806 102.846 163.943 103.516 164.326 104.211C164.283 104.251 164.25 104.3 164.232 104.358C163.669 106.24 160.864 106.935 159.485 107.164C159.844 106.718 160.237 105.971 160.231 104.847C160.231 104.361 160.149 103.801 159.96 103.164C159.911 102.996 159.738 102.898 159.568 102.941C159.473 102.965 157.31 103.565 158.274 107.415C158.296 107.498 158.427 107.7 158.448 107.74C159.744 110.345 164.223 109.824 165.123 109.693C164.956 110.097 164.676 110.883 164.679 111.599C164.679 111.835 164.712 112.04 164.773 112.215C165.111 113.157 165.862 114.063 168.896 113.638C172.124 113.182 172.142 109.775 172.142 109.742C172.142 109.732 172.142 109.72 172.142 109.708C172.142 109.699 172.151 109.585 172.151 109.399C172.145 108.257 171.841 105.561 169.154 105.147C169.127 105.144 166.425 104.74 165.227 105.781C164.855 106.102 164.676 106.531 164.679 107.085C164.679 107.62 164.861 108.272 165.208 109.019C165.193 109.019 165.181 109.019 165.166 109.022C165.12 109.031 160.815 109.754 159.291 107.859C160.584 107.679 163.827 107.011 164.74 104.85C164.834 104.976 164.938 105.104 165.047 105.23C166.565 104.241 169.151 104.627 169.267 104.645C169.723 104.716 170.122 104.841 170.472 105.01C170.776 104.48 171.844 102.301 170.034 100.4C168.138 98.4075 166.051 99.6165 166.03 99.6288L166.033 99.6318ZM159.434 103.727C159.86 105.548 159.218 106.522 158.828 106.92C158.384 104.826 159.026 104.018 159.434 103.727ZM166.371 111.401C166.41 111.434 167.226 112.12 168.783 111.593C168.954 111.535 169.139 111.627 169.197 111.798C169.209 111.832 169.212 111.866 169.212 111.902C169.212 112.04 169.127 112.169 168.99 112.215C167.046 112.873 165.981 111.93 165.935 111.89C165.802 111.768 165.793 111.563 165.911 111.428C166.033 111.296 166.237 111.284 166.371 111.404V111.401Z" fill="white"/>
<path d="M105.079 147.857C104.897 147.87 100.552 148.191 98.3399 151.497C98.2578 151.622 98.2669 151.787 98.3704 151.901L100.184 153.912C99.5265 154.025 98.7872 154.316 98.0874 154.955C97.8897 155.136 97.6949 155.344 97.5063 155.583C96.7852 156.501 96.5205 157.554 96.7274 158.717C97.0012 160.263 98.0448 161.545 98.6655 161.925C98.7598 161.983 98.8602 162.047 98.9637 162.118C100.129 162.883 102.058 164.15 107.364 161.101C107.613 160.958 107.826 160.756 107.96 160.498C108.563 159.354 109.971 156.198 108.751 153.652C107.166 150.349 104.042 150.456 103.141 150.863L103.117 150.872C102.63 151.093 101.525 151.46 100.944 153.033C100.868 153.241 101.02 153.462 101.242 153.468C101.897 153.492 102.32 153.557 102.332 153.56C102.499 153.624 102.703 153.7 102.639 153.869C102.575 154.037 102.386 154.123 102.219 154.059C102.173 154.04 101.69 153.869 101.005 153.85C100.999 153.841 100.993 153.829 100.984 153.82L99.277 151.925C100.531 151.671 103.53 150.533 105.38 148.347C105.459 148.255 105.727 147.955 105.663 147.851C105.599 147.747 105.201 147.842 105.079 147.851V147.857ZM100.521 161.264C100.412 161.365 100.245 161.377 100.117 161.288C98.8237 160.385 98.0722 159.369 97.8897 158.273C97.6767 157.006 98.3156 156.112 98.343 156.073C98.4495 155.926 98.6533 155.895 98.7963 156.002C98.9424 156.109 98.9728 156.311 98.8693 156.458C98.8602 156.47 98.3643 157.187 98.5347 158.175C98.6929 159.087 99.3501 159.954 100.488 160.749C100.637 160.854 100.674 161.056 100.57 161.206C100.555 161.227 100.54 161.245 100.521 161.261V161.264ZM103.533 161.196C103.61 161.331 103.579 161.499 103.47 161.6C103.451 161.616 103.433 161.631 103.412 161.643C102.679 162.056 101.528 161.885 101.48 161.876C101.303 161.848 101.182 161.68 101.209 161.502C101.236 161.325 101.404 161.202 101.58 161.23C101.851 161.27 102.648 161.325 103.092 161.074C103.248 160.985 103.448 161.04 103.537 161.199L103.533 161.196Z" fill="white"/>
<path d="M180.539 138.853C180.357 138.865 176.012 139.186 173.8 142.492C173.718 142.617 173.73 142.783 173.831 142.896L175.644 144.907C174.987 145.02 174.247 145.311 173.548 145.951C173.35 146.131 173.155 146.339 172.967 146.578C172.242 147.496 171.981 148.549 172.188 149.712C172.462 151.258 173.505 152.54 174.126 152.92C174.22 152.978 174.321 153.042 174.424 153.113C175.589 153.878 177.518 155.145 182.824 152.097C183.074 151.953 183.287 151.751 183.418 151.494C184.02 150.349 185.429 147.193 184.209 144.647C182.624 141.344 179.499 141.451 178.598 141.858L178.574 141.868C178.087 142.088 176.983 142.455 176.402 144.028C176.326 144.237 176.478 144.457 176.7 144.463C177.354 144.488 177.777 144.552 177.789 144.555C177.956 144.619 178.16 144.696 178.096 144.864C178.032 145.032 177.844 145.118 177.676 145.054C177.631 145.035 177.147 144.864 176.462 144.846C176.456 144.837 176.45 144.824 176.441 144.815L174.731 142.92C175.985 142.666 178.985 141.528 180.835 139.342C180.914 139.251 181.181 138.951 181.117 138.847C181.054 138.743 180.655 138.837 180.533 138.847L180.539 138.853ZM175.982 152.259C175.872 152.36 175.705 152.372 175.577 152.283C174.284 151.38 173.533 150.364 173.35 149.269C173.137 148.001 173.776 147.108 173.8 147.068C173.907 146.921 174.111 146.89 174.254 146.997C174.4 147.105 174.43 147.307 174.327 147.453C174.317 147.466 173.822 148.182 173.992 149.174C174.15 150.086 174.807 150.952 175.945 151.748C176.091 151.852 176.131 152.054 176.027 152.204C176.012 152.225 175.997 152.244 175.979 152.262L175.982 152.259ZM178.994 152.192C179.07 152.326 179.039 152.495 178.93 152.596C178.912 152.611 178.893 152.626 178.872 152.638C178.139 153.052 176.989 152.88 176.94 152.871C176.764 152.844 176.642 152.675 176.669 152.498C176.697 152.32 176.864 152.198 177.041 152.225C177.311 152.265 178.108 152.32 178.553 152.069C178.708 151.98 178.909 152.035 178.997 152.192H178.994Z" fill="white"/>
<path d="M167.761 127.47C167.649 127.047 167.445 126.674 167.201 126.359C167.201 126.359 167.204 126.352 167.207 126.349C167.22 126.349 167.232 126.349 167.244 126.349C167.484 126.319 173.18 125.557 176.098 124.375C176.438 124.237 176.524 123.996 176.548 123.861C176.594 123.589 176.46 123.298 176.171 123.047C175.544 122.499 174.032 122.067 172.419 123.004C172.358 122.673 172.225 122.279 171.926 122.015C171.625 121.752 171.065 121.547 170.107 122.073C168.926 122.719 168.108 123.726 167.594 124.547C167.548 124.265 167.451 124.023 167.347 123.83C166.818 122.86 165.671 122.34 165.026 122.282C162.294 122.037 159.078 126.759 158.941 126.961C158.856 127.087 158.868 127.258 158.974 127.369C159.029 127.427 159.525 127.95 160.258 128.593C161.606 129.771 163.754 131.354 165.452 131.219C166.161 131.164 166.73 130.824 167.147 130.215C167.789 129.275 167.995 128.351 167.758 127.467L167.761 127.47Z" fill="white"/>
<path d="M173.621 127.463C175.727 128.412 177.327 127.482 177.841 126.674C177.997 126.429 177.997 126.27 177.972 126.245C177.966 126.242 177.948 126.227 177.893 126.218C175.313 125.762 169.508 126.267 167.661 126.447C167.932 126.784 168.361 127.268 168.918 127.757C169.837 128.559 170.798 129.113 171.778 129.398C172.21 129.523 172.785 129.615 173.062 129.334C173.408 128.982 173.256 128.131 173.177 127.858C173.141 127.736 173.177 127.604 173.275 127.519C173.369 127.433 173.506 127.414 173.621 127.466V127.463Z" fill="white"/>
<path d="M84.7583 131.51C84.8252 131.944 84.9864 132.333 85.1933 132.676C85.1933 132.676 85.1903 132.682 85.1873 132.682C85.1751 132.682 85.1629 132.679 85.1507 132.679C84.9073 132.685 79.1661 132.811 76.1358 133.665C75.7829 133.763 75.6703 133.995 75.6338 134.124C75.5577 134.39 75.6612 134.693 75.9198 134.975C76.4826 135.59 77.94 136.184 79.6438 135.431C79.6681 135.767 79.7564 136.174 80.0272 136.468C80.2979 136.762 80.8334 137.028 81.8405 136.612C83.0849 136.098 84.0068 135.189 84.6092 134.43C84.6244 134.718 84.6944 134.965 84.7765 135.167C85.1964 136.193 86.2795 136.836 86.9154 136.964C89.605 137.509 93.3168 133.169 93.475 132.985C93.5724 132.869 93.5785 132.697 93.4872 132.575C93.4385 132.511 93.0034 131.938 92.3432 131.216C91.1323 129.897 89.1699 128.088 87.4661 128.033C86.7572 128.011 86.1517 128.284 85.671 128.844C84.9317 129.707 84.6244 130.604 84.7643 131.51H84.7583Z" fill="white"/>
<path d="M78.935 130.87C76.9452 129.695 75.2536 130.442 74.6542 131.188C74.4747 131.415 74.4565 131.574 74.4778 131.599C74.4839 131.605 74.5021 131.62 74.5538 131.635C77.07 132.376 82.8933 132.511 84.7493 132.538C84.515 132.174 84.1438 131.645 83.6418 131.1C82.8173 130.2 81.9197 129.545 80.9766 129.153C80.5597 128.979 79.9999 128.826 79.6926 129.077C79.3093 129.389 79.3671 130.252 79.4188 130.53C79.4401 130.656 79.3884 130.784 79.2849 130.858C79.1815 130.931 79.0446 130.938 78.935 130.873V130.87Z" fill="white"/>
<path d="M134.263 151.313L133.435 149.771L131.527 151.552C131.473 151.604 131.403 151.635 131.33 151.641C131.247 151.65 131.162 151.628 131.092 151.576L129.033 150.077L127.341 151.987C127.231 152.109 127.052 152.136 126.912 152.054L124.67 150.725L124.189 152.409C124.165 152.492 124.113 152.562 124.037 152.608L122.625 153.474C123.705 154.463 125.117 154.87 126.827 154.683C127.812 154.576 128.643 154.291 129.072 154.12L129.206 155.369C129.224 155.549 129.385 155.678 129.565 155.659C129.744 155.641 129.872 155.479 129.854 155.298L129.714 154.01C130.103 154.083 131.065 154.221 132.172 154.102C133.882 153.915 135.172 153.214 136.018 152.017L134.454 151.472C134.372 151.445 134.305 151.387 134.263 151.31V151.313Z" fill="white"/>
<path d="M123.559 152.094H123.565L124.131 150.104C124.161 150 124.234 149.917 124.335 149.878C124.432 149.841 124.545 149.847 124.636 149.902L127.018 151.313L128.689 149.431C128.746 149.367 128.822 149.327 128.908 149.318L129.002 149.308C129.087 149.299 129.172 149.321 129.239 149.373L131.269 150.854L133.295 148.962C133.371 148.889 133.481 148.858 133.584 148.874C133.687 148.892 133.779 148.956 133.83 149.051L134.804 150.866L134.999 150.934C135.288 149.743 135.13 148.473 134.938 147.61C134.612 146.137 132.696 142.146 127.791 141.231C127.116 141.647 123.349 144.16 123.057 148.206C122.926 150.034 123.075 151.209 123.559 152.094ZM132.589 145.994C132.571 145.813 132.699 145.651 132.878 145.632C133.058 145.614 133.219 145.743 133.237 145.923L133.383 147.273C133.401 147.454 133.274 147.613 133.094 147.634C132.915 147.652 132.753 147.524 132.735 147.343L132.589 145.994ZM130.283 143.814C130.265 143.634 130.392 143.471 130.572 143.453C130.751 143.435 130.91 143.563 130.931 143.744L131.077 145.091C131.095 145.271 130.967 145.433 130.788 145.452C130.608 145.47 130.45 145.342 130.429 145.161L130.283 143.814ZM130.733 148.008C130.715 147.827 130.843 147.665 131.022 147.646C131.202 147.628 131.36 147.757 131.381 147.937L131.527 149.284C131.545 149.464 131.418 149.627 131.238 149.645C131.059 149.663 130.9 149.535 130.879 149.354L130.733 148.008ZM128.244 146.434C128.226 146.254 128.354 146.095 128.533 146.073C128.713 146.055 128.874 146.183 128.892 146.364L129.038 147.714C129.057 147.894 128.929 148.053 128.749 148.075C128.57 148.093 128.412 147.965 128.39 147.784L128.244 146.434ZM125.893 144.295C125.874 144.114 126.002 143.952 126.182 143.934C126.361 143.915 126.519 144.044 126.541 144.224L126.687 145.571C126.705 145.752 126.577 145.914 126.398 145.932C126.218 145.951 126.06 145.822 126.039 145.642L125.893 144.295ZM126.343 148.488C126.325 148.307 126.452 148.148 126.632 148.127C126.811 148.109 126.97 148.237 126.991 148.418L127.137 149.764C127.155 149.945 127.027 150.107 126.848 150.126C126.668 150.144 126.507 150.015 126.489 149.835L126.343 148.488ZM124.122 146.884C124.104 146.704 124.231 146.541 124.411 146.523C124.59 146.505 124.752 146.633 124.77 146.814L124.916 148.164C124.934 148.344 124.806 148.503 124.627 148.525C124.447 148.543 124.289 148.415 124.268 148.234L124.122 146.887V146.884Z" fill="white"/>
<path d="M126.608 89.5833L127.089 91.2668L129.331 89.9353C129.395 89.8955 129.471 89.8833 129.541 89.8894C129.623 89.8986 129.702 89.9353 129.76 90.0027L131.455 91.9095L133.511 90.4067C133.645 90.3087 133.825 90.321 133.946 90.4312L135.857 92.2095L136.682 90.6669C136.721 90.5903 136.791 90.5322 136.87 90.5046L138.434 89.9598C137.588 88.763 136.295 88.0621 134.585 87.8785C133.6 87.7714 132.726 87.8724 132.273 87.9458L132.407 86.697C132.425 86.5164 132.297 86.3573 132.118 86.3359C131.938 86.3175 131.777 86.446 131.759 86.6266L131.622 87.9152C131.257 87.7622 130.347 87.4194 129.24 87.3C127.53 87.1164 126.121 87.5234 125.041 88.5151L126.453 89.3813C126.526 89.4272 126.581 89.4976 126.605 89.5803L126.608 89.5833Z" fill="white"/>
<path d="M137.23 91.1107H137.22L136.25 92.9319C136.201 93.0267 136.11 93.091 136.003 93.1094C135.9 93.1247 135.794 93.0941 135.714 93.0206L133.688 91.1321L131.659 92.6135C131.589 92.6625 131.507 92.687 131.421 92.6778L131.327 92.6686C131.242 92.6595 131.163 92.6197 131.108 92.5554L129.438 90.673L127.059 92.0871C126.967 92.1422 126.858 92.1483 126.757 92.1116C126.66 92.0718 126.584 91.9891 126.553 91.8851L125.988 89.9017L125.811 89.7915C125.276 90.8934 125.163 92.1667 125.166 93.0512C125.172 94.5602 126.201 98.8698 130.801 100.813C131.549 100.55 135.76 98.9034 136.904 95.0101C137.418 93.2532 137.519 92.0718 137.233 91.1046L137.23 91.1107ZM127.116 95.1387C127.098 95.3193 126.937 95.4478 126.757 95.4295C126.578 95.4111 126.45 95.2489 126.468 95.0683L126.611 93.7185C126.63 93.5379 126.791 93.4093 126.97 93.4277C127.15 93.4461 127.278 93.6083 127.259 93.7858L127.116 95.1356V95.1387ZM128.911 97.7618C128.893 97.9393 128.732 98.0709 128.552 98.0525C128.373 98.0342 128.245 97.872 128.263 97.6914L128.406 96.3446C128.425 96.164 128.586 96.0355 128.765 96.0539C128.945 96.0722 129.073 96.2344 129.054 96.415L128.911 97.7618ZM129.359 93.5685C129.34 93.7491 129.179 93.8776 129 93.8593C128.82 93.8409 128.692 93.6787 128.711 93.4981L128.854 92.1514C128.872 91.9708 129.033 91.8422 129.213 91.8606C129.392 91.879 129.52 92.0412 129.502 92.2218L129.359 93.5685ZM131.458 95.6407C131.44 95.8212 131.278 95.9498 131.099 95.9314C130.919 95.9131 130.792 95.7508 130.81 95.5703L130.953 94.2205C130.971 94.0399 131.132 93.9113 131.312 93.9297C131.491 93.948 131.619 94.1103 131.601 94.2908L131.458 95.6407ZM133.305 98.2362C133.287 98.4168 133.125 98.5453 132.946 98.527C132.766 98.5086 132.638 98.3464 132.657 98.1658L132.8 96.8191C132.818 96.6385 132.979 96.5099 133.159 96.5283C133.338 96.5466 133.466 96.7089 133.448 96.8894L133.305 98.2362ZM133.752 94.0429C133.734 94.2235 133.573 94.3521 133.393 94.3337C133.214 94.3153 133.086 94.1531 133.104 93.9725L133.247 92.6258C133.265 92.4452 133.426 92.3166 133.606 92.335C133.785 92.3534 133.913 92.5156 133.895 92.6962L133.752 94.0429ZM135.584 96.0845C135.565 96.265 135.404 96.3936 135.225 96.3752C135.045 96.3569 134.917 96.1947 134.936 96.0141L135.079 94.6643C135.097 94.4837 135.258 94.3551 135.438 94.3735C135.617 94.3919 135.745 94.5541 135.727 94.7347L135.584 96.0814V96.0845Z" fill="white"/>
<path d="M141.632 127.812C141.882 129.309 142.834 130.31 143.406 130.791L141.918 131.556C141.802 131.617 141.732 131.739 141.742 131.871C141.751 132.003 141.839 132.116 141.961 132.156L143.324 132.621L143.728 133.539C143.771 133.637 143.859 133.707 143.966 133.729L144.942 133.916L145.7 135.146C145.767 135.256 145.892 135.314 146.019 135.299C146.147 135.281 146.251 135.192 146.287 135.07L146.759 133.472C147.346 133.925 148.535 134.65 150.06 134.555C151.645 134.457 153.139 133.509 154.499 131.733C155.856 130.068 156.452 128.449 156.273 126.925C156.057 125.101 154.788 123.959 154.252 123.555C154.161 123.484 153.154 122.689 152.777 122.392C152.409 122.095 151.432 121.305 151.344 121.229C151.313 121.201 151.277 121.174 151.24 121.143C150.659 120.678 149.333 119.821 147.626 120.004C146.108 120.17 144.675 121.119 143.372 122.817C141.955 124.556 141.37 126.233 141.632 127.809V127.812ZM152.086 124.638C152.168 124.537 152.305 124.501 152.424 124.553C152.442 124.559 152.682 124.614 153.133 124.975C154.164 125.798 155.564 127.635 153.376 130.674C152.491 131.902 151.496 132.599 150.416 132.749C149.08 132.933 147.948 132.214 147.392 131.77C147.072 131.516 147.039 131.43 147.029 131.421C146.935 131.317 146.932 131.158 147.017 131.048L152.086 124.638ZM150.349 122.683C150.799 123.044 150.903 123.267 150.912 123.279C150.988 123.387 150.988 123.53 150.906 123.634L145.782 130.114C145.694 130.224 145.539 130.258 145.414 130.188C145.405 130.181 145.313 130.169 144.997 129.915C144.446 129.474 143.503 128.535 143.381 127.188C143.281 126.083 143.74 124.932 144.751 123.769C147.227 120.907 149.32 121.859 150.349 122.683Z" fill="white"/>
<path d="M149.682 129.759C149.822 129.872 149.846 130.077 149.734 130.218L148.903 131.268C148.791 131.409 148.587 131.433 148.447 131.32C148.307 131.207 148.283 131.002 148.395 130.861L149.226 129.811C149.338 129.67 149.542 129.646 149.682 129.759Z" fill="white"/>
<path d="M152.627 129.395C152.767 129.508 152.792 129.713 152.679 129.854L151.849 130.904C151.736 131.045 151.532 131.069 151.392 130.956C151.252 130.843 151.228 130.638 151.341 130.497L152.171 129.447C152.284 129.306 152.488 129.282 152.627 129.395Z" fill="white"/>
<path d="M152.491 126.209C152.631 126.322 152.655 126.527 152.542 126.668L151.712 127.718C151.599 127.858 151.395 127.883 151.256 127.77C151.116 127.656 151.091 127.451 151.204 127.31L152.034 126.261C152.147 126.12 152.351 126.095 152.491 126.209Z" fill="white"/>
<path d="M149.174 123.555C149.314 123.668 149.339 123.873 149.226 124.014L148.395 125.064C148.283 125.205 148.079 125.229 147.939 125.116C147.799 125.003 147.775 124.798 147.887 124.657L148.718 123.607C148.831 123.466 149.034 123.442 149.174 123.555Z" fill="white"/>
<path d="M146.229 123.919C146.369 124.032 146.393 124.238 146.281 124.378L145.45 125.428C145.338 125.569 145.134 125.593 144.994 125.48C144.854 125.367 144.829 125.162 144.942 125.021L145.773 123.971C145.885 123.83 146.089 123.806 146.229 123.919Z" fill="white"/>
<path d="M146.366 127.109C146.506 127.222 146.53 127.427 146.417 127.568L145.587 128.617C145.474 128.758 145.27 128.783 145.131 128.67C144.991 128.556 144.966 128.351 145.079 128.21L145.909 127.161C146.022 127.02 146.226 126.995 146.366 127.109Z" fill="white"/>
<path d="M167.566 159.672C167.986 159.372 168.163 159.038 168.187 158.843C168.281 158.074 167.895 157.502 167.651 157.226C167.627 157.242 167.606 157.254 167.581 157.266C165.613 158.356 163.392 157.842 159.707 156.991C158.469 156.706 157.505 156.425 156.808 156.069C156.485 156.519 155.88 157.554 156.555 158.233C157 158.677 159.029 159.485 161.341 159.981C165.214 160.811 166.903 160.14 167.563 159.666L167.566 159.672Z" fill="white"/>
<path d="M167.238 156.642C167.323 156.596 167.399 156.544 167.472 156.492C167.49 156.477 167.509 156.464 167.53 156.455C168.117 156.024 168.327 155.473 168.321 155.096C168.312 154.61 168.196 154.331 168.062 154.007C168.056 153.991 168.05 153.973 168.041 153.958L168.905 153.413L168.704 154.83C168.631 154.995 168.704 155.188 168.869 155.265H168.875C168.875 155.265 168.887 155.274 168.893 155.277L169.806 155.69C169.933 155.748 170.089 155.714 170.183 155.61C170.429 155.335 170.438 154.389 170.216 152.948C170.116 152.293 169.845 151.879 169.413 151.72C168.847 151.512 168.181 151.836 167.758 152.115C167.785 151.61 167.868 150.918 168.108 150.419C168.184 150.26 168.227 149.997 168.22 149.715C168.214 149.32 168.096 148.326 167.177 147.619C166.1 146.792 164.287 146.67 161.935 147.267C156.735 148.589 156.157 149.917 156.172 150.802C156.172 150.826 156.172 150.851 156.172 150.875C156.181 151.031 156.321 151.249 156.455 151.46C156.653 151.769 156.878 152.118 156.884 152.531C156.884 152.534 156.884 152.559 156.884 152.565C156.878 153.168 156.601 153.511 156.4 153.762C156.251 153.945 156.178 154.04 156.181 154.178V154.202C156.2 155.148 157.094 155.656 159.866 156.296C163.502 157.138 165.507 157.6 167.238 156.642ZM160.52 149.581C160.511 149.553 160.508 149.526 160.508 149.498C160.508 149.351 160.599 149.216 160.745 149.177L162.062 148.806C162.236 148.757 162.415 148.858 162.464 149.033C162.513 149.207 162.412 149.388 162.239 149.437L160.922 149.807C160.748 149.856 160.569 149.755 160.52 149.581ZM166.407 149.767C166.386 149.712 165.978 148.693 163.623 149.167C163.447 149.204 163.276 149.088 163.24 148.91C163.237 148.889 163.234 148.871 163.234 148.852C163.234 148.696 163.34 148.558 163.495 148.525C166.477 147.922 167.007 149.498 167.025 149.565C167.08 149.737 166.982 149.92 166.812 149.976C166.641 150.028 166.462 149.936 166.407 149.767Z" fill="white"/>
<path d="M158.694 134.093C158.649 134.482 158.618 135.213 158.856 136.052C159.233 137.38 160.109 138.436 161.46 139.189C164.244 140.744 166.672 139.021 167.356 138.452L169.851 139.599C168.795 140.848 164.953 144.858 160.639 142.777C154.639 139.881 155.427 134.831 156.02 132.844L158.694 134.096V134.093ZM154.84 138.856C154.344 137.114 154.444 135.259 155.089 133.588C154.818 134.944 154.818 136.398 155.217 137.803C155.828 139.958 157.38 142.005 160.328 143.425C164.49 145.433 168.19 142.406 169.827 140.701C168.771 142.541 167.031 143.927 164.977 144.518C160.629 145.77 156.081 143.23 154.84 138.856Z" fill="white"/>
<path d="M83.6172 141.442C83.4103 141.773 83.0726 142.421 82.9296 143.282C82.7044 144.644 83.0452 145.975 83.9427 147.239C85.7956 149.844 88.7225 149.336 89.5835 149.115L91.3482 151.227C89.8635 151.901 84.6821 153.866 81.67 150.122C77.4835 144.919 80.3465 140.695 81.7308 139.156L83.6142 141.442H83.6172ZM78.1042 144.083C78.3993 142.296 79.2786 140.662 80.5747 139.431C79.7502 140.539 79.1325 141.852 78.8922 143.294C78.5271 145.504 79.0565 148.023 81.1132 150.578C84.0188 154.19 88.6495 153.049 90.8553 152.213C89.118 153.419 86.9548 153.921 84.8494 153.569C80.3891 152.825 77.3618 148.568 78.1042 144.08V144.083Z" fill="white"/>
<path d="M143.95 172.662L141.659 174.789L141.805 176.543C141.814 176.665 141.893 176.77 142.003 176.819C142.116 176.864 142.243 176.846 142.338 176.766L143.092 176.133L145.106 176.773C145.225 176.809 145.353 176.776 145.441 176.687L153.543 168.196C154.024 168.153 155.63 167.924 156.281 166.758C156.662 166.075 156.637 165.221 156.215 164.211C156.227 164.202 156.242 164.199 156.254 164.187L156.902 163.593C157.036 163.47 157.045 163.265 156.923 163.131C156.863 163.063 156.783 163.03 156.698 163.024C156.616 163.021 156.531 163.048 156.464 163.109L155.922 163.605C155.907 163.575 155.889 163.544 155.874 163.513C155.846 163.464 155.807 163.421 155.758 163.394C155.755 163.394 155.74 163.382 155.719 163.369L156.175 162.953C156.309 162.831 156.318 162.626 156.196 162.491C156.135 162.424 156.056 162.39 155.971 162.384C155.889 162.381 155.804 162.408 155.737 162.47L155.092 163.063C155.092 163.063 155.083 163.079 155.074 163.088C154.806 162.996 154.483 162.916 154.133 162.898C153.747 162.877 153.333 162.935 152.941 163.143C152.244 163.51 151.776 164.257 151.538 165.368C151.508 165.377 151.48 165.39 151.453 165.408L143.64 170.887C143.524 170.969 143.473 171.116 143.515 171.254L143.956 172.671L143.95 172.662ZM151.371 168.61C151.496 168.741 151.49 168.949 151.359 169.072L145.027 175.123C144.896 175.248 144.69 175.242 144.568 175.111C144.443 174.979 144.449 174.771 144.58 174.648L150.911 168.597C150.978 168.533 151.064 168.505 151.149 168.509C151.231 168.509 151.313 168.545 151.374 168.61H151.371ZM151.401 166.228C151.398 166.268 151.392 166.305 151.389 166.345L144.489 172.203L144.2 171.279L151.401 166.231V166.228Z" fill="white"/>
<path d="M173.971 99.4635L176.453 101.358L178.145 100.905C178.264 100.875 178.352 100.78 178.379 100.66C178.407 100.541 178.364 100.415 178.27 100.339L177.515 99.7023L177.786 97.5965C177.801 97.471 177.746 97.3516 177.643 97.2812L167.907 90.7526C167.779 90.2843 167.274 88.7325 166.017 88.2948C165.284 88.0377 164.451 88.2121 163.535 88.809C163.523 88.7967 163.517 88.7845 163.504 88.7753L162.811 88.2397C162.668 88.1295 162.464 88.157 162.354 88.3009C162.3 88.3713 162.278 88.46 162.29 88.5427C162.3 88.6253 162.342 88.7049 162.415 88.76L162.993 89.2069C162.966 89.2283 162.938 89.2497 162.911 89.2712C162.868 89.3079 162.835 89.3538 162.814 89.4089C162.814 89.415 162.808 89.4303 162.798 89.4517L162.312 89.0753C162.169 88.9651 161.965 88.9926 161.855 89.1365C161.801 89.2069 161.779 89.2956 161.791 89.3783C161.801 89.4609 161.843 89.5405 161.916 89.5956L162.61 90.1312C162.61 90.1312 162.628 90.1374 162.637 90.1435C162.595 90.4251 162.573 90.7587 162.616 91.1076C162.665 91.4933 162.795 91.8942 163.066 92.2462C163.547 92.8737 164.359 93.2043 165.491 93.244C165.506 93.2716 165.522 93.2991 165.546 93.3206L172.282 100.094C172.382 100.195 172.538 100.22 172.662 100.152L173.971 99.4666V99.4635ZM168.701 92.8278C168.807 92.6809 169.011 92.6503 169.157 92.7574L176.192 97.9638C176.338 98.0709 176.368 98.276 176.262 98.4198C176.155 98.5667 175.951 98.5973 175.805 98.4902L168.771 93.2869C168.698 93.2318 168.652 93.1522 168.64 93.0696C168.628 92.9869 168.646 92.9012 168.701 92.8308V92.8278ZM166.367 93.2165C166.407 93.2165 166.443 93.2104 166.483 93.2073L173.429 99.0106L172.574 99.4605L166.367 93.2196V93.2165Z" fill="white"/>
<path d="M149.576 111.838C149.497 112.046 149.42 112.267 149.35 112.49C149.317 112.597 149.338 112.711 149.408 112.796C149.463 112.867 151.103 113.485 151.103 113.485C150.406 115.973 152.259 118.857 155.387 120.038C158.648 121.269 162.074 120.194 163.03 117.642C163.982 115.089 162.105 112.01 158.843 110.776C156.869 110.029 154.806 110.023 153.357 110.896C151.62 111.942 151.474 112.567 151.331 112.87L150.181 112.435C150.513 112.304 152.475 110.972 152.868 110.623C154.109 109.518 155.104 108.147 155.536 107.048C155.572 106.953 155.417 106.883 155.32 106.855C155.28 106.846 151.708 106.133 149.579 111.835L149.576 111.838ZM159.564 118.832C159.616 118.921 159.619 119.022 159.585 119.111C159.561 119.178 159.512 119.239 159.442 119.279C158.752 119.68 157.9 119.622 157.863 119.619C157.684 119.607 157.55 119.447 157.562 119.267C157.574 119.086 157.733 118.952 157.909 118.964C157.918 118.964 158.603 119.007 159.117 118.71C159.272 118.621 159.473 118.673 159.561 118.829L159.564 118.832ZM153.099 116.387C153.111 116.408 154.082 117.96 156.859 118.679C157.033 118.725 157.139 118.903 157.094 119.077C157.094 119.089 157.088 119.102 157.085 119.111C157.027 119.264 156.862 119.356 156.698 119.313C153.634 118.52 152.585 116.794 152.542 116.72C152.451 116.564 152.499 116.365 152.655 116.273C152.81 116.182 153.008 116.23 153.099 116.387Z" fill="white"/>
<path d="M109.201 163.293C108.991 163.213 108.775 163.137 108.553 163.067C108.45 163.033 108.334 163.054 108.249 163.125C108.179 163.18 107.565 164.83 107.565 164.83C105.091 164.129 102.228 165.993 101.051 169.139C99.8274 172.42 100.895 175.867 103.433 176.828C105.97 177.786 109.031 175.897 110.257 172.616C111 170.63 111.006 168.554 110.138 167.098C109.098 165.35 108.477 165.203 108.176 165.059L108.608 163.902C108.739 164.236 110.062 166.21 110.409 166.605C111.508 167.854 112.871 168.854 113.963 169.289C114.057 169.326 114.127 169.17 114.155 169.072C114.164 169.032 114.873 165.439 109.204 163.296L109.201 163.293ZM102.249 173.342C102.161 173.394 102.061 173.397 101.972 173.363C101.905 173.338 101.845 173.29 101.805 173.219C101.407 172.524 101.464 171.667 101.467 171.631C101.48 171.45 101.638 171.315 101.814 171.328C101.994 171.34 102.128 171.499 102.115 171.676C102.115 171.686 102.073 172.374 102.368 172.892C102.456 173.048 102.404 173.25 102.249 173.338V173.342ZM104.68 166.837C104.659 166.85 103.116 167.826 102.401 170.621C102.356 170.795 102.179 170.902 102.006 170.856C101.994 170.856 101.982 170.85 101.972 170.847C101.82 170.789 101.732 170.624 101.772 170.458C102.56 167.376 104.276 166.32 104.349 166.277C104.504 166.185 104.702 166.234 104.793 166.391C104.884 166.547 104.835 166.746 104.68 166.837Z" fill="white"/>
<path d="M105.176 140.083C105.158 140.092 105.14 140.095 105.124 140.108C105.003 140.193 104.954 140.349 105.006 140.49C107.522 147.264 112.217 149.862 112.414 149.969C112.554 150.046 112.725 150.006 112.822 149.887C112.986 149.813 113.062 149.62 112.989 149.455C112.393 148.09 111.526 146.743 110.595 145.516C109.542 144.129 108.404 142.896 107.473 141.956C108.553 142.455 110.044 142.948 111.994 143.199L112.889 143.927C112.034 144.818 112.104 146.41 113.081 147.692C113.157 147.793 113.239 147.891 113.321 147.983C114.538 149.327 116.367 149.651 117.392 148.708C118.341 147.836 118.295 146.18 117.288 144.855C117.212 144.754 117.13 144.656 117.048 144.564C116.491 143.949 115.788 143.529 115.064 143.367C115.63 143.358 116.224 143.331 116.844 143.279C116.911 143.554 117.036 143.814 117.218 144.056C117.839 144.876 119.004 145.323 120.258 145.222C122.059 145.078 123.434 143.826 123.325 142.431C123.294 142.033 123.148 141.662 122.896 141.329C122.275 140.509 121.11 140.062 119.856 140.163C119.001 140.233 118.213 140.548 117.638 141.053C117.133 141.5 116.841 142.048 116.796 142.624C112.728 142.957 109.877 142.25 108.082 141.491C109.271 141.617 110.756 141.46 112.363 140.579C112.417 140.689 112.481 140.796 112.557 140.894C113.309 141.886 114.909 142.115 116.364 141.442C118.003 140.68 118.864 139.027 118.283 137.757C118.222 137.622 118.146 137.497 118.058 137.38C117.307 136.389 115.706 136.159 114.252 136.833C112.852 137.481 112.022 138.779 112.171 139.936C108.629 141.953 105.742 140.086 105.62 140.007C105.48 139.915 105.295 139.942 105.188 140.071C105.188 140.071 105.188 140.077 105.185 140.08L105.176 140.083ZM114.769 147.515C114.833 147.591 115.42 148.234 116.026 147.769C116.169 147.658 116.373 147.686 116.482 147.83C116.592 147.974 116.564 148.179 116.421 148.289C115.536 148.968 114.629 148.359 114.276 147.943C114.152 147.805 114.176 147.6 114.313 147.481C114.45 147.365 114.654 147.38 114.772 147.518L114.769 147.515ZM119.704 143.732C119.762 143.744 121.006 144.019 121.642 143.116C121.746 142.969 121.95 142.936 122.096 143.04C122.123 143.058 122.147 143.083 122.166 143.107C122.251 143.217 122.257 143.376 122.172 143.496C121.277 144.76 119.625 144.387 119.555 144.371C119.379 144.328 119.272 144.154 119.315 143.976C119.354 143.802 119.531 143.692 119.704 143.735V143.732ZM113.905 143.355C113.738 143.395 113.577 143.45 113.427 143.526L113.169 143.315C113.406 143.331 113.653 143.346 113.905 143.352V143.355ZM114.401 140.542C114.401 140.542 115.226 140.674 115.755 140.111C115.877 139.979 116.084 139.973 116.214 140.098C116.227 140.111 116.239 140.123 116.251 140.138C116.345 140.264 116.339 140.444 116.23 140.561C115.457 141.384 114.337 141.194 114.289 141.185C114.112 141.154 113.993 140.983 114.027 140.805C114.057 140.628 114.228 140.509 114.404 140.539L114.401 140.542Z" fill="white"/>
<path d="M144.447 95.0192C144.428 95.0284 144.41 95.0315 144.395 95.0437C144.273 95.1294 144.225 95.2855 144.276 95.4263C146.792 102.2 151.487 104.798 151.685 104.906C151.825 104.982 151.995 104.942 152.093 104.823C152.257 104.749 152.333 104.557 152.26 104.391C151.664 103.026 150.796 101.679 149.865 100.452C148.813 99.0656 147.675 97.8321 146.744 96.8924C147.824 97.3913 149.315 97.8841 151.265 98.1351L152.159 98.8636C151.305 99.7542 151.375 101.346 152.351 102.628C152.427 102.729 152.509 102.827 152.592 102.919C153.809 104.263 155.637 104.587 156.662 103.644C157.612 102.772 157.566 101.116 156.559 99.791C156.483 99.69 156.401 99.592 156.319 99.5002C155.762 98.885 155.059 98.4657 154.335 98.3034C154.901 98.2942 155.494 98.2667 156.115 98.2147C156.182 98.4901 156.306 98.7503 156.489 98.9921C157.11 99.8124 158.275 100.259 159.528 100.158C161.33 100.014 162.705 98.7625 162.595 97.3668C162.565 96.9689 162.419 96.5986 162.166 96.265C161.546 95.4447 160.38 94.9978 159.127 95.0988C158.272 95.1692 157.484 95.4845 156.909 95.9895C156.404 96.4364 156.112 96.9842 156.066 97.5597C151.998 97.8933 149.147 97.1862 147.352 96.4272C148.542 96.5527 150.027 96.3966 151.633 95.5151C151.688 95.6252 151.752 95.7324 151.828 95.8303C152.579 96.822 154.18 97.0516 155.634 96.3782C157.274 95.6161 158.135 93.9632 157.554 92.693C157.493 92.5583 157.417 92.4329 157.329 92.3165C156.577 91.3249 154.977 91.0953 153.523 91.7687C152.123 92.4176 151.292 93.7153 151.441 94.8723C147.9 96.8893 145.013 95.0223 144.891 94.9427C144.751 94.8509 144.565 94.8784 144.459 95.007C144.459 95.007 144.459 95.0131 144.456 95.0162L144.447 95.0192ZM154.04 102.451C154.104 102.527 154.691 103.17 155.296 102.705C155.439 102.595 155.643 102.622 155.753 102.766C155.862 102.91 155.835 103.115 155.692 103.225C154.806 103.905 153.9 103.296 153.547 102.879C153.422 102.742 153.446 102.536 153.583 102.417C153.72 102.301 153.924 102.316 154.043 102.454L154.04 102.451ZM158.975 98.6677C159.032 98.6799 160.277 98.9554 160.913 98.0524C161.016 97.9055 161.22 97.8719 161.366 97.9759C161.393 97.9943 161.415 98.0188 161.436 98.0433C161.521 98.1535 161.527 98.3126 161.442 98.432C160.548 99.6961 158.896 99.3227 158.826 99.3074C158.649 99.2645 158.543 99.0901 158.585 98.9125C158.625 98.7381 158.801 98.6279 158.975 98.6707V98.6677ZM153.176 98.2912C153.008 98.331 152.847 98.3861 152.698 98.4626L152.439 98.2514C152.68 98.2667 152.923 98.282 153.176 98.2881V98.2912ZM153.672 95.4783C153.672 95.4783 154.496 95.6099 155.026 95.0468C155.15 94.9151 155.354 94.909 155.485 95.0345C155.497 95.0468 155.509 95.059 155.521 95.0743C155.616 95.1998 155.61 95.3804 155.5 95.4967C154.727 96.32 153.608 96.1303 153.562 96.1211C153.386 96.0905 153.267 95.9191 153.297 95.7416C153.328 95.564 153.498 95.4447 153.675 95.4753L153.672 95.4783Z" fill="white"/>
<path d="M144.464 151.885C144.668 152.409 144.954 152.828 145.222 153.14C142.8 152.081 139.989 150.536 139.949 150.511C139.791 150.425 139.593 150.484 139.508 150.64C139.423 150.799 139.481 150.998 139.636 151.084C139.742 151.142 140.962 151.815 142.471 152.568C139.761 152.758 138.553 155.249 138.537 155.28C138.498 155.366 138.498 155.47 138.537 155.555C138.577 155.644 138.653 155.708 138.744 155.733C142.578 156.813 144.026 154.392 144.419 153.495C145.456 153.967 146.472 154.38 147.254 154.597C143.561 154.937 142.538 158.533 142.526 158.573C142.502 158.665 142.517 158.766 142.572 158.846C142.627 158.925 142.712 158.977 142.809 158.986C147.905 159.495 148.715 155.607 148.806 155.038C149.816 155.439 150.939 156.103 151.885 156.749C148.702 156.489 147.3 159.384 147.285 159.418C147.242 159.507 147.245 159.605 147.285 159.693C147.324 159.782 147.4 159.847 147.492 159.871C151.31 160.948 152.725 158.491 153.093 157.634C153.504 157.961 153.811 158.24 153.948 158.405C154.063 158.543 154.267 158.564 154.407 158.448C154.517 158.356 154.553 158.203 154.502 158.077C154.489 158.047 154.471 158.016 154.45 157.986C154.042 157.493 152.5 156.259 150.823 155.298C151.915 153.489 151.687 151.904 151.289 150.878C150.832 149.7 150.066 148.984 150.032 148.953C149.962 148.889 149.865 148.858 149.77 148.871C149.676 148.883 149.591 148.935 149.539 149.017C148.219 151.068 148.386 152.654 148.763 153.624C148.894 153.961 149.058 154.254 149.232 154.502C148.751 154.3 148.283 154.147 147.857 154.068C147.482 153.997 147.002 153.847 146.469 153.645C147.622 151.8 147.391 150.178 146.99 149.137C146.533 147.958 145.766 147.242 145.733 147.212C145.663 147.147 145.566 147.117 145.471 147.129C145.377 147.141 145.292 147.193 145.24 147.276C143.92 149.327 144.09 150.912 144.464 151.882V151.885Z" fill="white"/>
<path d="M139.751 151.57C139.654 151.322 139.359 151.203 139.091 151.31C138.823 151.414 138.686 151.702 138.781 151.95C138.875 152.198 139.173 152.314 139.441 152.21C139.709 152.106 139.846 151.818 139.751 151.57Z" fill="white"/>
<path d="M138.51 150.202C138.413 149.954 138.118 149.838 137.85 149.942C137.582 150.046 137.445 150.334 137.54 150.582C137.637 150.829 137.932 150.946 138.2 150.842C138.468 150.738 138.604 150.45 138.51 150.202Z" fill="white"/>
<path d="M139.465 149.829C139.563 150.077 139.858 150.196 140.126 150.089C140.393 149.985 140.53 149.697 140.436 149.449C140.339 149.201 140.043 149.082 139.776 149.189C139.508 149.293 139.371 149.581 139.465 149.829Z" fill="white"/>
<path d="M141.194 150.416C141.291 150.664 141.586 150.784 141.854 150.676C142.122 150.572 142.259 150.285 142.164 150.037C142.067 149.789 141.772 149.669 141.504 149.777C141.236 149.881 141.1 150.168 141.194 150.416Z" fill="white"/>
<path d="M84.2172 118.232C84.4211 118.756 84.707 119.175 84.9748 119.487C82.553 118.428 79.7417 116.882 79.7021 116.858C79.5439 116.772 79.3462 116.83 79.261 116.986C79.1758 117.146 79.2336 117.345 79.3888 117.43C79.4952 117.488 80.7153 118.162 82.2244 118.915C79.5135 119.105 78.3056 121.596 78.2904 121.627C78.2509 121.712 78.2509 121.816 78.2904 121.902C78.33 121.991 78.406 122.055 78.4973 122.083C82.3309 123.163 83.7791 120.742 84.1716 119.845C85.2091 120.317 86.2253 120.73 87.0072 120.947C83.3136 121.287 82.2913 124.883 82.2791 124.923C82.2548 125.015 82.27 125.116 82.3248 125.195C82.3795 125.275 82.4647 125.327 82.5621 125.336C87.6583 125.844 88.4676 121.957 88.5589 121.388C89.569 121.789 90.6917 122.453 91.6379 123.099C88.4554 122.839 87.0528 125.734 87.0376 125.768C86.995 125.857 86.9981 125.955 87.0376 126.043C87.0772 126.132 87.1532 126.196 87.2445 126.224C91.0628 127.301 92.4776 124.844 92.8457 123.986C93.2565 124.314 93.5638 124.593 93.7007 124.758C93.8163 124.896 94.0202 124.917 94.1601 124.801C94.2696 124.709 94.3062 124.556 94.2544 124.43C94.2423 124.4 94.224 124.369 94.2027 124.338C93.795 123.846 92.2525 122.612 90.576 121.651C91.6683 119.842 91.4401 118.257 91.0415 117.231C90.5852 116.053 89.8185 115.337 89.785 115.306C89.715 115.242 89.6177 115.211 89.5233 115.223C89.429 115.236 89.3438 115.288 89.2921 115.37C87.9717 117.421 88.139 119.007 88.5163 119.977C88.6471 120.314 88.8114 120.607 88.9848 120.855C88.5041 120.653 88.0356 120.5 87.6096 120.421C87.2354 120.35 86.7547 120.2 86.2222 119.998C87.3753 118.153 87.1441 116.53 86.7425 115.49C86.2861 114.311 85.5194 113.595 85.4859 113.565C85.416 113.5 85.3186 113.47 85.2243 113.482C85.13 113.494 85.0448 113.546 84.993 113.629C83.6726 115.68 83.843 117.265 84.2172 118.235V118.232Z" fill="white"/>
<path d="M79.5013 117.917C79.4039 117.669 79.1088 117.55 78.8411 117.657C78.5733 117.761 78.4364 118.049 78.5307 118.297C78.6251 118.544 78.9232 118.661 79.191 118.557C79.4587 118.453 79.5956 118.165 79.5013 117.917Z" fill="white"/>
<path d="M78.263 116.549C78.1657 116.301 77.8705 116.185 77.6028 116.289C77.3351 116.393 77.1981 116.68 77.2925 116.928C77.3898 117.176 77.6849 117.293 77.9527 117.188C78.2204 117.084 78.3573 116.797 78.263 116.549Z" fill="white"/>
<path d="M79.2182 116.175C79.3156 116.423 79.6107 116.543 79.8785 116.435C80.1462 116.331 80.2831 116.044 80.1888 115.796C80.0914 115.548 79.7963 115.428 79.5286 115.536C79.2608 115.64 79.1239 115.927 79.2182 116.175Z" fill="white"/>
<path d="M80.9438 116.763C81.0412 117.011 81.3363 117.13 81.6041 117.023C81.8718 116.919 82.0087 116.631 81.9144 116.384C81.817 116.136 81.5219 116.016 81.2542 116.123C80.9864 116.227 80.8495 116.515 80.9438 116.763Z" fill="white"/>
<path d="M118.606 128.673C118.828 129.251 119.163 130.439 119.138 131.066C119.102 132.003 118.788 132.863 118.277 133.57C118.719 133.916 119.811 134.62 121.734 134.981C122.223 134.164 123.863 130.886 120.879 127.647C120.371 128.076 119.26 128.498 118.603 128.67L118.606 128.673Z" fill="white"/>
<path d="M118.421 131.038C118.451 130.206 118.208 129.386 117.739 128.703C116.425 128.633 115.269 128.002 114.487 127.053C112.485 127.111 110.86 128.731 110.784 130.748C110.705 132.866 112.351 134.653 114.456 134.733C116.562 134.812 118.339 133.157 118.418 131.038H118.421ZM113.446 133.395L113.203 132.413L114.033 131.779L114.964 132.505L114.505 133.557L113.443 133.395H113.446Z" fill="white"/>
<path d="M114.021 126.365C113.629 125.658 113.413 124.84 113.446 123.974C113.483 122.992 113.832 122.095 114.386 121.37C113.982 121.207 113.559 121.115 113.114 121.1C111.009 121.021 109.232 122.676 109.153 124.795C109.101 126.172 109.798 127.476 110.948 128.198C111.666 127.213 112.765 126.527 114.024 126.365H114.021ZM110.133 124.981L110.27 124.363L110.909 124.241L111.231 124.911L110.683 125.37L110.133 124.981Z" fill="white"/>
<path d="M114.161 124.002C114.082 126.12 115.728 127.907 117.833 127.987C117.848 127.987 117.861 127.987 117.876 127.987C117.909 127.981 117.943 127.981 117.976 127.987C120.018 127.987 121.719 126.365 121.798 124.296C121.877 122.178 120.228 120.39 118.122 120.31C116.017 120.231 114.24 121.887 114.161 124.005V124.002ZM119.093 122.909L118.217 123.644L117.337 123.022L117.556 122.034L118.582 121.841L119.093 122.909Z" fill="white"/>
<path d="M119.795 181.18C120.017 181.759 120.352 182.946 120.328 183.574C120.291 184.51 119.978 185.37 119.467 186.078C119.908 186.423 121 187.127 122.923 187.489C123.413 186.671 125.053 183.393 122.068 180.155C121.56 180.583 120.45 181.006 119.792 181.177L119.795 181.18Z" fill="white"/>
<path d="M119.61 183.549C119.641 182.717 119.397 181.896 118.929 181.214C117.614 181.143 116.458 180.513 115.676 179.564C113.674 179.622 112.05 181.241 111.973 183.258C111.894 185.377 113.54 187.164 115.646 187.244C117.751 187.323 119.528 185.667 119.607 183.549H119.61ZM114.636 185.906L114.392 184.924L115.223 184.29L116.154 185.015L115.694 186.068L114.633 185.906H114.636Z" fill="white"/>
<path d="M115.211 178.875C114.818 178.168 114.602 177.351 114.636 176.485C114.672 175.502 115.022 174.606 115.576 173.88C115.171 173.718 114.748 173.626 114.304 173.611C112.198 173.531 110.422 175.187 110.343 177.305C110.291 178.683 110.988 179.987 112.138 180.709C112.856 179.723 113.954 179.038 115.214 178.875H115.211ZM111.322 177.492L111.459 176.874L112.098 176.751L112.421 177.422L111.873 177.881L111.322 177.492Z" fill="white"/>
<path d="M115.35 176.513C115.271 178.631 116.917 180.418 119.023 180.498C119.038 180.498 119.05 180.498 119.065 180.498C119.099 180.495 119.132 180.492 119.166 180.498C121.207 180.498 122.908 178.875 122.987 176.806C123.066 174.688 121.417 172.901 119.312 172.821C117.206 172.742 115.429 174.398 115.35 176.516V176.513ZM120.282 175.42L119.406 176.154L118.527 175.533L118.746 174.544L119.771 174.352L120.282 175.42Z" fill="white"/>
<path d="M139.52 104.079C139.839 104.612 140.11 105.086 140.341 105.515C141.105 105.426 144.297 104.964 145.24 103.338C145.596 102.723 145.587 102.019 145.209 101.178L145.173 101.113C144.616 100.382 143.998 100.039 143.293 100.066C141.44 100.14 139.55 102.702 139.088 103.369C139.228 103.592 139.371 103.825 139.52 104.076V104.079Z" fill="white"/>
<path d="M133.192 103.694C132.839 104.887 133.073 106.185 133.885 107.55C134.917 109.279 136.14 110.271 137.521 110.501C139.234 110.782 140.737 109.803 141.209 109.454C140.907 108.181 140.533 107.057 138.96 104.416C137.305 101.637 136.28 100.761 135.945 100.529C135.428 100.823 133.718 101.903 133.189 103.694H133.192ZM136.325 108.266C136.383 108.309 137.774 109.325 139.286 108.392C139.438 108.297 139.639 108.346 139.733 108.499C139.733 108.499 139.733 108.499 139.733 108.502C139.824 108.655 139.776 108.854 139.623 108.949C137.728 110.118 136.006 108.842 135.933 108.79C135.79 108.68 135.759 108.474 135.869 108.331C135.975 108.187 136.179 108.156 136.322 108.266H136.325Z" fill="white"/>
<path d="M140.038 182.662C140.357 183.197 140.628 183.669 140.859 184.097C141.623 184.008 144.814 183.546 145.757 181.921C146.113 181.306 146.104 180.602 145.727 179.76L145.69 179.696C145.134 178.964 144.516 178.621 143.81 178.649C141.957 178.719 140.068 181.284 139.605 181.951C139.745 182.175 139.888 182.408 140.038 182.658V182.662Z" fill="white"/>
<path d="M133.709 182.276C133.356 183.47 133.59 184.767 134.403 186.133C135.434 187.862 136.657 188.854 138.039 189.083C139.752 189.365 141.255 188.385 141.726 188.036C141.425 186.763 141.051 185.64 139.478 182.998C137.823 180.219 136.797 179.344 136.463 179.111C135.945 179.405 134.236 180.488 133.706 182.276H133.709ZM136.843 186.849C136.901 186.892 138.291 187.908 139.803 186.974C139.955 186.879 140.156 186.928 140.251 187.081C140.342 187.234 140.293 187.433 140.141 187.528C138.246 188.697 136.523 187.421 136.45 187.369C136.307 187.262 136.28 187.054 136.387 186.91C136.493 186.766 136.697 186.735 136.84 186.846L136.843 186.849Z" fill="white"/>
<path d="M141.541 141.044C141.708 141.139 141.775 141.347 141.693 141.525L140.963 143.095L141.574 143.652C142.067 143.269 143.543 142.611 145.995 144.044C148.974 145.785 150.605 145.58 151.572 145.277C152.144 145.097 153.434 144.096 153.82 142.602C154.161 141.277 153.714 139.942 152.482 138.638C151.167 137.246 149.162 136.97 147.714 136.989C144.416 137.031 140.862 138.568 139.822 139.615L139.779 140.056L141.535 141.041L141.541 141.044ZM147.985 143.162C148.094 143.208 150.687 144.252 151.846 142.054C151.931 141.895 152.126 141.834 152.287 141.92C152.314 141.932 152.336 141.95 152.357 141.972C152.46 142.07 152.491 142.229 152.421 142.363C151.271 144.546 148.852 144.237 147.735 143.768C147.571 143.698 147.492 143.508 147.559 143.34C147.629 143.174 147.818 143.095 147.982 143.162H147.985Z" fill="white"/>
<path d="M136.241 142.743L135.42 142.908C135.243 142.945 135.127 143.116 135.164 143.294C135.2 143.471 135.371 143.588 135.547 143.551L136.427 143.373C136.6 143.799 136.859 144.194 137.212 144.527C138.435 145.684 140.318 145.712 141.571 144.644L140.269 143.459C140.145 143.355 140.114 143.175 140.181 143.028L140.881 141.522L139.214 140.585C139.186 140.57 139.162 140.551 139.141 140.533C139.058 140.457 139.016 140.343 139.028 140.227L139.162 138.84C138.368 138.914 137.619 139.275 137.069 139.866C136.323 140.665 136.052 141.742 136.241 142.743Z" fill="white"/>
<path d="M95.952 94.9153C96.1194 95.0101 96.1863 95.2183 96.1042 95.3958L95.374 96.966L95.9855 97.523C96.4784 97.1404 97.954 96.4824 100.406 97.9148C103.385 99.6564 105.016 99.4513 105.983 99.1483C106.555 98.9677 107.845 97.9669 108.232 96.4732C108.572 95.1479 108.125 93.8134 106.893 92.5095C105.579 91.1168 103.574 90.8414 102.125 90.8597C98.8272 90.9026 95.2736 92.4391 94.233 93.4889L94.1904 93.9297L95.946 94.9153H95.952ZM102.396 97.0333C102.506 97.0792 105.098 98.123 106.257 95.9253C106.342 95.7662 106.537 95.7049 106.698 95.7906C106.726 95.8029 106.747 95.8212 106.768 95.8427C106.872 95.9406 106.902 96.0998 106.832 96.2345C105.682 98.4168 103.263 98.1076 102.147 97.6393C101.982 97.569 101.903 97.3792 101.97 97.2108C102.04 97.0456 102.229 96.966 102.393 97.0333H102.396Z" fill="white"/>
<path d="M90.6521 96.6171L89.8307 96.7824C89.6542 96.8191 89.5386 96.9905 89.5751 97.168C89.6116 97.3456 89.782 97.4619 89.9585 97.4251L90.8377 97.2476C91.0112 97.6731 91.2698 98.0679 91.6227 98.4015C92.8458 99.5585 94.7291 99.586 95.9826 98.5178L94.6804 97.3333C94.5557 97.2292 94.5253 97.0487 94.5922 96.9017L95.292 95.3958L93.6247 94.4592C93.5973 94.4439 93.5729 94.4256 93.5517 94.4072C93.4695 94.3307 93.4269 94.2174 93.4391 94.1011L93.5729 92.7146C92.7789 92.7881 92.0304 93.1492 91.4797 93.74C90.7343 94.5388 90.4635 95.6162 90.6521 96.6171Z" fill="white"/>
<path d="M112.691 107.008C112.588 107.106 112.536 107.247 112.551 107.388C112.554 107.425 112.563 107.461 112.575 107.498L113.166 109.151L111.797 109.76C111.614 109.843 111.514 110.035 111.529 110.234C111.529 110.234 111.663 111.156 111.66 111.11C113.059 111.612 117.462 113.329 118.18 114.663C118.84 115.891 118.454 116.619 118.247 117.011C118.189 117.118 118.146 117.201 118.125 117.289C118.098 117.342 118.009 117.461 117.952 117.544C117.672 117.932 117.431 118.266 117.684 118.535C117.924 118.792 118.256 118.679 119.372 117.966C120.462 117.268 121.149 116.2 121.307 114.96C121.359 114.541 121.353 114.112 121.289 113.684C121.11 112.472 120.477 111.244 119.436 110.127C117.31 107.841 114.018 107.106 112.858 106.913C112.874 106.889 112.697 107.021 112.697 107.021L112.691 107.008ZM113.044 110.253C114.145 110.669 116.741 111.691 117.091 112.193C117.121 112.236 117.139 112.285 117.145 112.334C117.164 112.453 117.115 112.576 117.011 112.649C116.865 112.753 116.662 112.717 116.558 112.57C116.345 112.313 114.45 111.483 112.816 110.865C112.648 110.801 112.563 110.614 112.627 110.443C112.691 110.274 112.877 110.188 113.047 110.253H113.044Z" fill="white"/>
<path d="M107.157 105.484C106.953 105.87 106.92 106.265 107.063 106.623C107.309 107.244 107.994 107.584 108.289 107.706C108.213 108.018 108.186 108.343 108.21 108.68C108.329 110.241 109.573 111.446 111.079 111.563L110.924 109.959C110.912 109.757 111.018 109.561 111.207 109.481L112.615 108.891L112.053 107.192C112.04 107.155 112.034 107.119 112.031 107.079C112.019 106.938 112.074 106.794 112.183 106.696L113.096 105.867C112.512 105.457 111.797 105.255 111.076 105.313C109.929 105.401 108.977 106.112 108.508 107.085C108.253 106.975 107.802 106.721 107.665 106.378C107.592 106.2 107.617 106.004 107.729 105.787C107.814 105.628 107.754 105.429 107.595 105.343C107.437 105.258 107.239 105.319 107.154 105.481L107.157 105.484Z" fill="white"/>
<path d="M124.596 79.4185C124.584 79.5624 124.642 79.7001 124.745 79.795C124.773 79.8195 124.803 79.8409 124.837 79.8593L126.376 80.6857L125.768 82.063C125.686 82.2467 125.74 82.4579 125.886 82.5956C125.886 82.5956 126.601 83.1863 126.568 83.1557C127.937 82.5803 132.346 80.8724 133.769 81.3744C135.081 81.8365 135.279 82.6354 135.388 83.067C135.419 83.1863 135.44 83.2751 135.485 83.3547C135.498 83.4128 135.516 83.5598 135.528 83.6608C135.58 84.1352 135.628 84.5453 135.991 84.5759C136.34 84.6035 136.511 84.2974 136.861 83.0119C137.201 81.757 136.998 80.502 136.283 79.4767C136.042 79.1308 135.75 78.8186 135.415 78.5431C134.472 77.7688 133.182 77.2882 131.667 77.1658C128.564 76.9117 125.64 78.5952 124.648 79.2379C124.642 79.2073 124.599 79.4246 124.599 79.4246L124.596 79.4185ZM127.027 81.5825C128.12 81.1448 130.724 80.147 131.32 80.2817C131.372 80.2939 131.418 80.3153 131.454 80.3459C131.545 80.4225 131.594 80.5479 131.567 80.6704C131.527 80.8448 131.354 80.9581 131.177 80.9183C130.849 80.8724 128.889 81.5396 127.268 82.1885C127.1 82.2559 126.912 82.1732 126.845 82.0049C126.778 81.8365 126.86 81.6468 127.027 81.5794V81.5825Z" fill="white"/>
<path d="M119.482 82.0355C119.592 82.4579 119.829 82.7732 120.173 82.9415C120.769 83.2354 121.506 83.0242 121.804 82.914C121.956 83.1956 122.154 83.4557 122.397 83.6884C123.529 84.7627 125.257 84.8147 126.447 83.8812L125.26 82.7977C125.117 82.6569 125.065 82.4396 125.153 82.2529L125.802 80.8633L124.25 79.9879C124.216 79.9695 124.186 79.945 124.159 79.9205C124.055 79.8226 124 79.6818 124.016 79.5349L124.137 78.3014C123.428 78.3932 122.768 78.7299 122.269 79.2594C121.478 80.1011 121.247 81.2703 121.554 82.308C121.293 82.3998 120.787 82.5161 120.459 82.3539C120.285 82.2712 120.173 82.1121 120.112 81.8733C120.066 81.6989 119.89 81.5917 119.717 81.6376C119.543 81.6836 119.437 81.8611 119.482 82.0355Z" fill="white"/>
<path d="M139.244 116.304C139.07 116.145 138.891 115.983 138.699 115.817C138.577 115.713 138.428 115.652 138.279 115.588C137.151 115.104 135.815 115.429 135.219 115.621C135.486 116.175 135.803 116.616 136.159 116.941C136.271 117.017 136.378 117.1 136.475 117.192C136.612 117.283 136.752 117.366 136.898 117.43C137.473 117.675 138.06 117.663 138.565 117.556L137.284 118.254C137.16 118.009 137.02 117.795 136.831 117.638C136.737 117.559 136.639 117.482 136.539 117.406C136.448 117.335 136.344 117.289 136.238 117.244C135.413 116.892 134.449 117.1 133.959 117.247C134.294 117.905 134.713 118.345 135.209 118.56C135.696 118.768 136.198 118.731 136.612 118.621L136.207 118.841C136.18 118.86 136.07 118.918 135.967 118.973C135.483 118.869 135.03 118.909 134.607 119.086C133.737 119.457 133.183 120.341 132.934 120.825C133.849 121.146 134.616 121.14 135.215 120.803C135.763 120.497 136.086 119.965 136.268 119.53C136.362 119.49 136.442 119.453 136.439 119.453L136.697 119.313C136.597 119.438 136.515 119.576 136.451 119.726C136.11 120.534 136.353 121.498 136.515 121.972C137.269 121.62 137.732 121.155 137.896 120.589C138.094 119.91 137.823 119.209 137.616 118.808L138.894 118.11C138.705 118.315 138.553 118.544 138.444 118.802C137.975 119.91 138.349 121.241 138.556 121.819C139.594 121.354 140.233 120.73 140.452 119.958C140.735 118.979 140.29 117.984 140.017 117.495L141.008 116.953C140.865 117.185 140.759 117.436 140.701 117.706C140.446 118.878 141.063 120.121 141.374 120.65C142.308 119.998 142.816 119.264 142.892 118.468C142.974 117.589 142.521 116.797 142.162 116.325L143.467 115.612C143.239 115.906 143.083 116.23 143.004 116.585C142.749 117.761 143.363 119 143.677 119.53C144.611 118.878 145.119 118.143 145.195 117.345C145.283 116.402 144.754 115.563 144.392 115.107L145.234 114.645C145.146 114.816 145.088 114.997 145.061 115.19C144.933 116.056 145.411 116.928 145.688 117.348C146.327 116.815 146.661 116.249 146.677 115.658C146.695 115.052 146.378 114.523 146.099 114.171L147.79 113.246C147.951 113.17 148.021 112.974 147.945 112.808C147.909 112.729 147.842 112.671 147.763 112.643C147.684 112.613 147.592 112.616 147.51 112.655L145.697 113.644C145.56 113.176 145.298 112.741 144.948 112.472C144.24 111.921 143.254 111.875 142.743 111.896C142.803 112.175 142.861 112.432 142.986 112.643C143.089 112.818 143.254 113.197 143.625 113.485C144.06 113.825 144.51 113.969 144.979 113.962C145.028 113.962 145.079 113.959 145.131 113.953L144.139 114.495C144.063 114.281 143.978 114.082 143.85 113.92C143.728 113.767 143.604 113.61 143.47 113.448C143.33 113.277 143.141 113.154 142.946 113.041C141.885 112.42 140.522 112.576 139.907 112.692C140.059 113.142 140.184 113.399 140.47 113.846C140.607 114.06 140.802 114.226 140.975 114.418C141.081 114.538 141.221 114.617 141.355 114.697C141.952 115.046 142.615 115.104 143.169 115.028L141.818 115.765C141.739 115.533 141.65 115.312 141.51 115.135C141.389 114.982 141.264 114.826 141.13 114.66C140.99 114.489 140.802 114.369 140.607 114.253C139.548 113.632 138.182 113.788 137.567 113.904C137.719 114.354 137.844 114.611 138.13 115.058C138.267 115.272 138.462 115.438 138.632 115.631C138.739 115.75 138.879 115.829 139.013 115.909C139.67 116.295 140.409 116.322 140.99 116.212L139.664 116.937C139.545 116.69 139.414 116.457 139.229 116.289L139.244 116.304Z" fill="white"/>
<path d="M91.7956 162.341C91.9203 162.139 92.0451 161.934 92.1668 161.714C92.2459 161.576 92.2763 161.414 92.3128 161.258C92.5745 160.052 92.0085 158.794 91.7104 158.24C91.2205 158.61 90.8494 159.002 90.5968 159.415C90.5451 159.54 90.4842 159.66 90.4112 159.776C90.3443 159.929 90.2926 160.082 90.2591 160.241C90.1283 160.854 90.2469 161.432 90.4477 161.913L89.5259 160.777C89.7419 160.609 89.9275 160.428 90.0431 160.214C90.1009 160.107 90.1587 159.996 90.2165 159.883C90.2682 159.779 90.2956 159.669 90.32 159.553C90.5116 158.671 90.1283 157.759 89.891 157.303C89.3098 157.756 88.9569 158.255 88.8443 158.784C88.7318 159.302 88.8626 159.791 89.0482 160.183L88.7561 159.825C88.7318 159.801 88.6557 159.703 88.5827 159.611C88.5918 159.115 88.4701 158.671 88.2176 158.289C87.6912 157.496 86.7268 157.113 86.2065 156.96C86.0635 157.927 86.2126 158.683 86.6507 159.21C87.0523 159.693 87.6304 159.914 88.0898 160.012C88.1476 160.098 88.1963 160.168 88.1963 160.168L88.3819 160.397C88.2389 160.321 88.0898 160.266 87.9316 160.232C87.0797 160.045 86.1821 160.468 85.7471 160.716C86.2339 161.395 86.7724 161.766 87.3566 161.824C88.0563 161.891 88.6892 161.496 89.0421 161.215L89.9609 162.347C89.7267 162.197 89.4711 162.09 89.2003 162.032C88.0289 161.775 86.7998 162.393 86.2734 162.708C86.9215 163.648 87.6517 164.159 88.4458 164.236C89.4528 164.331 90.3443 163.709 90.7702 163.345L91.4822 164.223C91.2297 164.125 90.965 164.067 90.6911 164.061C89.4985 164.028 88.4001 164.869 87.9407 165.276C88.7531 166.075 89.5654 166.442 90.3565 166.369C91.2297 166.286 91.9173 165.69 92.3128 165.249L93.2499 166.406C92.9213 166.234 92.5745 166.143 92.2124 166.13C91.0197 166.097 89.9214 166.935 89.462 167.342C90.2743 168.141 91.0836 168.509 91.8777 168.435C92.8148 168.346 93.5359 167.667 93.9132 167.223L94.5217 167.97C94.3361 167.915 94.1505 167.893 93.9557 167.899C93.0856 167.936 92.325 168.57 91.9659 168.922C92.6049 169.454 93.2225 169.678 93.8006 169.586C94.3939 169.491 94.8533 169.078 95.1454 168.738L96.3624 170.238C96.4689 170.385 96.6727 170.415 96.8187 170.308C96.8918 170.256 96.9344 170.18 96.9465 170.097C96.9617 170.011 96.9435 169.923 96.8887 169.849L95.5835 168.242C96.0155 168.022 96.3898 167.679 96.5875 167.284C96.9922 166.482 96.8522 165.5 96.7396 164.998C96.481 165.108 96.2376 165.215 96.0551 165.377C95.903 165.512 95.5622 165.745 95.3523 166.164C95.1028 166.657 95.045 167.131 95.1393 167.59C95.1484 167.639 95.1636 167.688 95.1758 167.74L94.4638 166.862C94.6586 166.749 94.835 166.626 94.9719 166.467C95.0997 166.317 95.2275 166.164 95.3614 166.002C95.5013 165.833 95.5865 165.622 95.6596 165.411C96.0672 164.248 95.6596 162.929 95.4314 162.341C95.0206 162.577 94.7924 162.748 94.4091 163.112C94.2265 163.287 94.1018 163.51 93.9436 163.715C93.8462 163.844 93.7945 163.997 93.7428 164.144C93.5146 164.799 93.5815 165.463 93.758 165.996L92.7874 164.799C93.0004 164.679 93.1982 164.548 93.3442 164.376C93.472 164.226 93.5998 164.073 93.7367 163.911C93.8766 163.743 93.9618 163.532 94.0349 163.317C94.4425 162.154 94.0349 160.835 93.8067 160.247C93.3959 160.483 93.1677 160.655 92.7844 161.022C92.6018 161.196 92.4771 161.42 92.3219 161.625C92.2246 161.753 92.1728 161.906 92.1211 162.053C91.8686 162.776 91.9781 163.51 92.1941 164.064L91.2388 162.889C91.4609 162.727 91.6617 162.555 91.7895 162.338L91.7956 162.341Z" fill="white"/>
</g>
<defs>
<clipPath id="clip0_380_1176">
<rect width="114.383" height="112" fill="white" transform="translate(74.4717 77.1321)"/>
</clipPath>
</defs>
</svg>
