<svg width="62" height="78" viewBox="0 0 62 78" fill="none" xmlns="http://www.w3.org/2000/svg">
<path fill-rule="evenodd" clip-rule="evenodd" d="M48.3718 56.6264C56.4506 51.0853 61.75 41.7865 61.75 31.25C61.75 14.2672 47.9828 0.5 31 0.5C14.0172 0.5 0.25 14.2672 0.25 31.25C0.25 41.7626 5.52534 51.0431 13.5732 56.5886C13.6234 56.6302 13.6767 56.6744 13.7329 56.7211C16.8028 59.2661 28.7847 69.1995 31.0007 77.5625C33.305 69.0736 45.4704 59.0172 48.3718 56.6264Z" fill="#F8B0B8"/>
<circle cx="31" cy="32" r="24.75" fill="#FFD160"/>
<path d="M15.6198 31.134C18.0552 31.134 20.1228 29.5373 20.7114 27.2491C20.7702 26.9989 20.6378 26.8444 20.3803 26.8444H18.5997C18.3863 26.8444 18.2686 26.9548 18.1729 27.1608C17.7462 28.1173 16.7676 28.6986 15.6198 28.6986C13.7436 28.6986 12.5369 27.3962 12.5369 25.4391C12.5369 23.4819 13.7436 22.1796 15.6198 22.1796C16.7676 22.1796 17.7536 22.7609 18.1729 23.7174C18.2612 23.9234 18.3863 24.0337 18.5997 24.0337H20.3803C20.6378 24.0337 20.7702 23.8645 20.7114 23.5923C20.0933 21.304 18.0332 19.7368 15.6198 19.7368C12.4265 19.7368 10.1162 22.2164 10.1162 25.4391C10.1162 28.6618 12.4265 31.1413 15.6198 31.1413" fill="black"/>
<path d="M15.6161 44.2558C18.0221 44.2558 20.0675 42.6592 20.6488 40.3709C20.7077 40.1208 20.5752 39.9663 20.3177 39.9663H18.5518C18.3458 39.9663 18.2207 40.0766 18.1324 40.2826C17.7131 41.2391 16.7418 41.8204 15.6087 41.8204C13.7546 41.8204 12.5626 40.5181 12.5626 38.5609C12.5626 36.6038 13.7546 35.3014 15.6087 35.3014C16.7418 35.3014 17.7131 35.8827 18.1324 36.8392C18.2207 37.0452 18.3385 37.1556 18.5518 37.1556H20.3177C20.5752 37.1556 20.7077 36.9864 20.6488 36.7141C20.0381 34.4259 18.0074 32.8587 15.6161 32.8587C12.467 32.8587 10.1787 35.3382 10.1787 38.5609C10.1787 41.7836 12.467 44.2632 15.6161 44.2632" fill="black"/>
<path d="M29.9557 19.9428H28.0206C27.741 19.9428 27.5792 20.0826 27.5792 20.3328V24.0632H24.0622V20.3328C24.0622 20.0826 23.9003 19.9428 23.6207 19.9428H21.6856C21.406 19.9428 21.2441 20.0826 21.2441 20.3328V30.5233C21.2441 30.7735 21.406 30.9132 21.6856 30.9132H23.6207C23.9003 30.9132 24.0622 30.7735 24.0622 30.5233V26.4765H27.5792V30.5233C27.5792 30.7735 27.7337 30.9132 28.0206 30.9132H29.9557C30.2353 30.9132 30.3972 30.7735 30.3972 30.5233V20.3328C30.3972 20.0826 30.2353 19.9428 29.9557 19.9428Z" fill="black"/>
<path d="M30.004 33.0647H28.0469C27.7599 33.0647 27.6054 33.2045 27.6054 33.4547V37.185H24.0443V33.4547C24.0443 33.2045 23.8824 33.0647 23.5954 33.0647H21.6383C21.3513 33.0647 21.1895 33.2045 21.1895 33.4547V43.6451C21.1895 43.8953 21.3513 44.0351 21.6383 44.0351H23.5954C23.8824 44.0351 24.0443 43.8953 24.0443 43.6451V39.5984H27.6054V43.6451C27.6054 43.8953 27.7673 44.0351 28.0469 44.0351H30.004C30.291 44.0351 30.4529 43.8953 30.4529 43.6451V33.4547C30.4529 33.2045 30.291 33.0647 30.004 33.0647Z" fill="black"/>
<path d="M36.002 31.1339C38.4963 31.1339 40.505 29.8831 40.505 27.5286V20.3328C40.505 20.0826 40.3505 19.9428 40.0709 19.9428H38.1652C37.8856 19.9428 37.7311 20.0826 37.7311 20.3328V27.3079C37.7311 28.1393 37.297 28.6838 35.9947 28.6838C34.6924 28.6838 34.2582 28.132 34.2582 27.3079V20.3328C34.2582 20.0826 34.1037 19.9428 33.8241 19.9428H31.9185C31.6389 19.9428 31.4844 20.0826 31.4844 20.3328V27.5286C31.4844 29.8831 33.493 31.1339 35.9873 31.1339" fill="black"/>
<path d="M34.7666 39.9589L35.9953 35.8018L37.2241 39.9589H34.7592H34.7666ZM41.0427 43.5936L37.7097 33.3884C37.6435 33.1677 37.4742 33.0573 37.2535 33.0573H34.7371C34.5164 33.0573 34.3472 33.1677 34.281 33.3884L30.9479 43.5936C30.8522 43.8732 30.992 44.0351 31.279 44.0351H33.2141C33.4348 44.0351 33.5893 43.9395 33.6555 43.704L34.0676 42.306H37.923L38.3351 43.704C38.4013 43.9395 38.5558 44.0351 38.7765 44.0351H40.7116C40.9912 44.0351 41.1384 43.8806 41.0427 43.5936Z" fill="black"/>
<path d="M45.4206 30.9133H48.0105C48.2386 30.9133 48.4005 30.8029 48.4667 30.5822L51.7483 20.377C51.8292 20.1121 51.6968 19.9355 51.4098 19.9355H49.4159C49.1878 19.9355 49.0259 20.0312 48.9597 20.2666L46.7082 28.007L44.4567 20.2666C44.3905 20.0312 44.2286 19.9355 44.0005 19.9355H42.014C41.7196 19.9355 41.5946 20.1047 41.6755 20.377L44.9571 30.5822C45.0233 30.8029 45.1851 30.9133 45.4132 30.9133" fill="black"/>
<path d="M45.3865 44.0351H48.0353C48.2708 44.0351 48.4326 43.9248 48.4989 43.704L51.8613 33.4988C51.9423 33.234 51.8098 33.0574 51.5155 33.0574H49.4774C49.2493 33.0574 49.0801 33.153 49.0139 33.3885L46.7109 41.1288L44.4079 33.3885C44.3417 33.153 44.1725 33.0574 43.9444 33.0574H41.9063C41.612 33.0574 41.4796 33.2266 41.5605 33.4988L44.923 43.704C44.9892 43.9248 45.1511 44.0351 45.3865 44.0351Z" fill="black"/>
</svg>
