<svg width="19" height="19" viewBox="0 0 19 19" fill="none" xmlns="http://www.w3.org/2000/svg">
<g clip-path="url(#clip0_412_1944)">
<path fill-rule="evenodd" clip-rule="evenodd" d="M12.4495 9.09046C13.6313 8.21143 14.4091 6.84295 14.4091 5.28468C14.4091 2.64761 12.2071 0.5 9.5 0.5C6.79293 0.5 4.59091 2.64761 4.59091 5.28468C4.59091 6.84295 5.36869 8.21143 6.55051 9.09046C3.03535 10.3391 0.5 13.7453 0.5 17.7508V18.5H18.5V17.7508C18.5 13.7453 15.9646 10.3391 12.4495 9.09046ZM6.10606 5.28468C6.10606 3.47669 7.63131 1.99834 9.5 1.99834C11.3687 1.99834 12.8939 3.47669 12.8939 5.28468C12.8939 7.09267 11.3687 8.57103 9.5 8.57103C7.63131 8.57103 6.10606 7.10266 6.10606 5.28468ZM9.5101 10.0694C5.62121 10.0694 2.41919 13.116 2.05556 17.0017H16.9646C16.5909 13.116 13.399 10.0694 9.5101 10.0694Z" fill="white"/>
</g>
<defs>
<clipPath id="clip0_412_1944">
<rect width="18" height="18" fill="white" transform="translate(0.5 0.5)"/>
</clipPath>
</defs>
</svg>
