<svg width="24" height="25" viewBox="0 0 24 25" fill="none" xmlns="http://www.w3.org/2000/svg">
<g id="24 / basic / globe">
<path id="icon" fill-rule="evenodd" clip-rule="evenodd" d="M12 1.42421C18.0751 1.42421 23 6.38301 23 12.5C23 18.617 18.0751 23.5758 12 23.5758C5.92487 23.5758 1 18.617 1 12.5C1 6.38301 5.92487 1.42421 12 1.42421ZM20.9212 13.7047C19.861 14.2599 18.4647 14.7242 16.8792 15.0443C16.6539 17.3622 16.1208 19.4083 15.3454 20.9153C18.3046 19.7215 20.4876 16.9913 20.9212 13.7047ZM14.9863 13.31C14.9953 13.0434 15 12.7732 15 12.5C15 7.44943 13.4064 3.43799 12 3.43799C10.5936 3.43799 9 7.44943 9 12.5C9 12.7889 9.00522 13.0745 9.01531 13.3561C9.95341 13.4548 10.9558 13.5069 12 13.5069C13.028 13.5069 14.0367 13.4339 14.9863 13.31ZM16.9962 12.9573C16.9987 12.8056 17 12.6531 17 12.5C17 9.14943 16.3944 6.12367 15.3454 4.08472C18.3216 5.28534 20.5128 8.04025 20.9285 11.3523C20.458 11.8841 18.9737 12.5158 16.9962 12.9573ZM9.17891 15.3972C10.076 15.4785 11.0209 15.5207 12 15.5207C12.9633 15.5207 13.9124 15.4657 14.8253 15.3637C14.3742 18.9861 13.127 21.562 12 21.562C10.8765 21.562 9.63347 19.0019 9.17891 15.3972ZM7.00555 13.054C6.4316 12.9387 5.89668 12.803 5.40826 12.6485C4.16782 12.2563 3.35719 11.7756 3.06565 11.3999C3.46628 8.06665 5.66412 5.29108 8.65455 4.08472C7.60556 6.12367 7 9.14943 7 12.5C7 12.6857 7.00186 12.8704 7.00555 13.054ZM7.12914 15.1288C7.35916 17.4119 7.88867 19.4266 8.65455 20.9153C5.74677 19.7423 3.58837 17.0856 3.10296 13.8752C4.14644 14.4224 5.52334 14.8478 7.12914 15.1288Z" fill="#451717"/>
</g>
</svg>
