<svg width="32" height="32" viewBox="0 0 32 32" fill="none" xmlns="http://www.w3.org/2000/svg">
<path d="M15.9999 30.3333C15.1065 30.3333 14.1999 30.1066 13.3999 29.6399L5.47988 25.0666C3.87988 24.1333 2.87988 22.4133 2.87988 20.56V11.44C2.87988 9.58667 3.87988 7.86666 5.47988 6.93333L13.3999 2.36C14.9999 1.42667 16.9865 1.42667 18.5999 2.36L26.5199 6.93333C28.1199 7.86666 29.1199 9.58667 29.1199 11.44V20.56C29.1199 22.4133 28.1199 24.1333 26.5199 25.0666L18.5999 29.6399C17.7999 30.1066 16.8932 30.3333 15.9999 30.3333ZM15.9999 3.66664C15.4532 3.66664 14.8932 3.81332 14.3999 4.09332L6.47988 8.66664C5.49322 9.23998 4.87988 10.2933 4.87988 11.44V20.56C4.87988 21.6933 5.49322 22.76 6.47988 23.3333L14.3999 27.9066C15.3865 28.48 16.6132 28.48 17.5999 27.9066L25.5199 23.3333C26.5065 22.76 27.1199 21.7066 27.1199 20.56V11.44C27.1199 10.3067 26.5065 9.23998 25.5199 8.66664L17.5999 4.09332C17.1065 3.81332 16.5465 3.66664 15.9999 3.66664Z" fill="#451717"/>
<path d="M16.0002 15.6668C13.7336 15.6668 11.8936 13.8267 11.8936 11.5601C11.8936 9.2934 13.7336 7.45346 16.0002 7.45346C18.2669 7.45346 20.1069 9.2934 20.1069 11.5601C20.1069 13.8267 18.2669 15.6668 16.0002 15.6668ZM16.0002 9.45346C14.8402 9.45346 13.8936 10.4001 13.8936 11.5601C13.8936 12.7201 14.8402 13.6668 16.0002 13.6668C17.1602 13.6668 18.1069 12.7201 18.1069 11.5601C18.1069 10.4001 17.1602 9.45346 16.0002 9.45346Z" fill="#451717"/>
<path d="M21.3337 23.2135C20.787 23.2135 20.3337 22.7601 20.3337 22.2135C20.3337 20.3735 18.387 18.8669 16.0003 18.8669C13.6137 18.8669 11.667 20.3735 11.667 22.2135C11.667 22.7601 11.2137 23.2135 10.667 23.2135C10.1203 23.2135 9.66699 22.7601 9.66699 22.2135C9.66699 19.2668 12.507 16.8669 16.0003 16.8669C19.4937 16.8669 22.3337 19.2668 22.3337 22.2135C22.3337 22.7601 21.8803 23.2135 21.3337 23.2135Z" fill="#451717"/>
</svg>
