<svg width="210" height="26" viewBox="0 0 210 26" fill="none" xmlns="http://www.w3.org/2000/svg">
<path d="M11.8487 25.2605C17.0919 25.2605 21.5431 21.8231 22.8103 16.8967C22.937 16.3582 22.6519 16.0255 22.0975 16.0255H18.2641C17.8047 16.0255 17.5512 16.2631 17.3453 16.7067C16.4266 18.7659 14.3198 20.0173 11.8487 20.0173C7.80935 20.0173 5.21152 17.2136 5.21152 13C5.21152 8.78644 7.80935 5.98266 11.8487 5.98266C14.3198 5.98266 16.4424 7.23407 17.3453 9.29334C17.5354 9.73687 17.8047 9.97446 18.2641 9.97446H22.0975C22.6519 9.97446 22.937 9.61012 22.8103 9.02403C21.4797 4.09764 17.0444 0.723633 11.8487 0.723633C4.97391 0.723633 0 6.06187 0 13C0 19.9381 4.97391 25.2764 11.8487 25.2764" fill="black"/>
<path d="M46.2229 1.16714H42.0569C41.4549 1.16714 41.1064 1.46811 41.1064 2.00669V10.0378H33.5347V2.00669C33.5347 1.46811 33.1862 1.16714 32.5843 1.16714H28.4182C27.8163 1.16714 27.4678 1.46811 27.4678 2.00669V23.9458C27.4678 24.4843 27.8163 24.7853 28.4182 24.7853H32.5843C33.1862 24.7853 33.5347 24.4843 33.5347 23.9458V15.2335H41.1064V23.9458C41.1064 24.4843 41.4391 24.7853 42.0569 24.7853H46.2229C46.8248 24.7853 47.1733 24.4843 47.1733 23.9458V2.00669C47.1733 1.46811 46.8248 1.16714 46.2229 1.16714Z" fill="black"/>
<path d="M62.3325 25.2605C67.7024 25.2605 72.0269 22.5676 72.0269 17.4987V2.00669C72.0269 1.46811 71.6942 1.16714 71.0923 1.16714H66.9896C66.3876 1.16714 66.055 1.46811 66.055 2.00669V17.0235C66.055 18.8134 65.1204 19.9856 62.3167 19.9856C59.5129 19.9856 58.5783 18.7976 58.5783 17.0235V2.00669C58.5783 1.46811 58.2457 1.16714 57.6437 1.16714H53.541C52.9391 1.16714 52.6064 1.46811 52.6064 2.00669V17.4987C52.6064 22.5676 56.9309 25.2605 62.3008 25.2605" fill="black"/>
<path d="M84.7622 24.7854H90.3381C90.8291 24.7854 91.1776 24.5477 91.3202 24.0725L98.385 2.10179C98.5593 1.53154 98.2741 1.15137 97.6564 1.15137H93.3636C92.8725 1.15137 92.5241 1.35729 92.3815 1.86418L87.5343 18.5284L82.6871 1.86418C82.5446 1.35729 82.1961 1.15137 81.705 1.15137H77.4281C76.7945 1.15137 76.5252 1.5157 76.6994 2.10179L83.7643 24.0725C83.9068 24.5477 84.2553 24.7854 84.7464 24.7854" fill="black"/>
<path d="M125.456 25.2605C130.636 25.2605 135.04 21.8231 136.291 16.8967C136.418 16.3582 136.133 16.0255 135.578 16.0255H131.776C131.333 16.0255 131.064 16.2631 130.874 16.7067C129.971 18.7659 127.88 20.0173 125.44 20.0173C121.448 20.0173 118.882 17.2136 118.882 13C118.882 8.78644 121.448 5.98266 125.44 5.98266C127.88 5.98266 129.971 7.23407 130.874 9.29334C131.064 9.73687 131.317 9.97446 131.776 9.97446H135.578C136.133 9.97446 136.418 9.61012 136.291 9.02403C134.976 4.09764 130.604 0.723633 125.456 0.723633C118.676 0.723633 113.75 6.06187 113.75 13C113.75 19.9381 118.676 25.2764 125.456 25.2764" fill="black"/>
<path d="M159.989 1.16714H155.775C155.157 1.16714 154.825 1.46811 154.825 2.00669V10.0378H147.158V2.00669C147.158 1.46811 146.809 1.16714 146.192 1.16714H141.978C141.36 1.16714 141.012 1.46811 141.012 2.00669V23.9458C141.012 24.4843 141.36 24.7853 141.978 24.7853H146.192C146.809 24.7853 147.158 24.4843 147.158 23.9458V15.2335H154.825V23.9458C154.825 24.4843 155.173 24.7853 155.775 24.7853H159.989C160.606 24.7853 160.955 24.4843 160.955 23.9458V2.00669C160.955 1.46811 160.606 1.16714 159.989 1.16714Z" fill="black"/>
<path d="M173.865 16.0097L176.51 7.05987L179.155 16.0097H173.849H173.865ZM187.377 23.8349L180.201 1.86418C180.058 1.38897 179.694 1.15137 179.219 1.15137H173.801C173.326 1.15137 172.962 1.38897 172.819 1.86418L165.644 23.8349C165.438 24.4369 165.739 24.7854 166.356 24.7854H170.522C170.998 24.7854 171.33 24.5794 171.473 24.0725L172.36 21.0628H180.66L181.547 24.0725C181.69 24.5794 182.023 24.7854 182.498 24.7854H186.664C187.266 24.7854 187.583 24.4527 187.377 23.8349Z" fill="black"/>
<path d="M196.01 24.7854H201.713C202.22 24.7854 202.568 24.5477 202.711 24.0725L209.95 2.10179C210.124 1.53154 209.839 1.15137 209.205 1.15137H204.817C204.326 1.15137 203.962 1.35729 203.819 1.86418L198.861 18.5284L193.903 1.86418C193.761 1.35729 193.396 1.15137 192.905 1.15137H188.518C187.884 1.15137 187.599 1.5157 187.773 2.10179L195.012 24.0725C195.155 24.5477 195.503 24.7854 196.01 24.7854Z" fill="black"/>
</svg>
