<svg width="74" height="25" viewBox="0 0 74 25" fill="none" xmlns="http://www.w3.org/2000/svg">
<path fill-rule="evenodd" clip-rule="evenodd" d="M68.0409 24.4801C68.0409 24.4801 67.5051 21.2187 67.3257 20.3986H59.596C59.3817 21.0393 58.3124 24.4801 58.3124 24.4801H52.0061L60.9495 3.15014C61.1718 2.51648 61.6034 1.97602 62.1735 1.61958C62.7436 1.26548 63.418 1.11406 64.0852 1.19327H68.7444L73.6366 24.4894H68.0455L68.0409 24.4801ZM64.9402 9.47507L64.5115 7.48557C64.2273 8.37316 63.6915 9.76161 63.7288 9.72433C63.7288 9.72433 61.8045 14.8774 61.3409 16.2286H66.3286C66.0793 15.0568 64.9402 9.47507 64.9402 9.47507ZM51.9688 6.56305C50.5601 5.92707 49.0244 5.62188 47.4797 5.67313C45.0918 5.67313 44.0225 6.66789 43.9852 7.66263C43.9852 8.76687 45.2689 9.47506 47.4051 10.542C50.8623 12.1728 52.4651 14.2042 52.4301 16.8693C52.3952 21.666 48.2974 24.79 41.9468 24.79C39.6564 24.7969 37.385 24.3753 35.2492 23.5483L36.0669 18.3229L36.8869 18.7143C38.6367 19.5739 40.5679 20.0026 42.5176 19.9584C43.2989 20.1098 44.1092 19.9607 44.7841 19.539C45.459 19.115 45.9477 18.4511 46.1518 17.6823C46.1518 16.6526 45.369 15.9048 43.0161 14.7679C40.7354 13.6684 37.7069 11.821 37.7419 8.47798C37.7791 3.96551 41.9468 0.790235 47.899 0.790235C49.7473 0.780916 51.5824 1.10476 53.3154 1.74773L52.4953 6.79599L51.9688 6.56305ZM25.4578 24.4801L29.2364 1.18395H35.2585L31.4822 24.4801H25.4578ZM10.9559 24.4801L5.58617 4.28C5.40446 4.17284 5.2111 4.07502 5.0224 3.97252H8.617L9.94488 4.90435L12.3817 8.63175L13.416 11.4879L13.8819 13.8478L14.5249 17.0463L20.4351 1.18395H26.8136L17.3344 24.4801H10.9466H10.9559Z" fill="#1470B0"/>
<path fill-rule="evenodd" clip-rule="evenodd" d="M8.23252 6.99329C7.50731 6.42486 6.72689 5.93096 5.9029 5.51861L5.56044 4.22804C3.85912 3.2263 2.04179 2.43656 0.148743 1.87745V1.15527H9.39965C9.95434 1.1576 10.4915 1.3486 10.9218 1.69804C11.3523 2.04749 11.6496 2.5344 11.7642 3.0772L13.7677 13.3438C12.2926 10.9303 10.4214 8.78476 8.23252 6.99329Z" fill="#FFB927"/>
</svg>
