<svg width="25" height="25" viewBox="0 0 25 25" fill="none" xmlns="http://www.w3.org/2000/svg">
<path fill-rule="evenodd" clip-rule="evenodd" d="M13.2954 0.790039C13.6137 0.790039 13.919 0.916038 14.144 1.14164C14.369 1.36604 14.4954 1.67204 14.4954 1.99004V9.19004C14.4954 9.50804 14.369 9.81404 14.144 10.0384C13.919 10.264 13.6137 10.39 13.2954 10.39C12.9772 10.39 12.6719 10.264 12.4469 10.0384C12.2219 9.81404 12.0954 9.50804 12.0954 9.19004V1.99004C12.0954 1.67204 12.2219 1.36604 12.4469 1.14164C12.6719 0.916038 12.9772 0.790039 13.2954 0.790039ZM16.8954 3.19004C17.2137 3.19004 17.519 3.31604 17.744 3.54164C17.969 3.76604 18.0954 4.07204 18.0954 4.39004V11.59C18.0954 11.908 17.969 12.214 17.744 12.4384C17.519 12.664 17.2137 12.79 16.8954 12.79C16.5772 12.79 16.2719 12.664 16.0469 12.4384C15.8219 12.214 15.6954 11.908 15.6954 11.59V4.39004C15.6954 4.07204 15.8219 3.76604 16.0469 3.54164C16.2719 3.31604 16.5772 3.19004 16.8954 3.19004ZM9.69545 3.19004C10.0137 3.19004 10.3189 3.31604 10.544 3.54164C10.769 3.76604 10.8954 4.07204 10.8954 4.39004V10.39C10.8954 10.708 10.769 11.014 10.544 11.2384C10.3189 11.464 10.0137 11.59 9.69545 11.59C9.37718 11.59 9.07196 11.464 8.84691 11.2384C8.62188 11.014 8.49545 10.708 8.49545 10.39V4.39004C8.49545 4.07204 8.62188 3.76604 8.84691 3.54164C9.07196 3.31604 9.37718 3.19004 9.69545 3.19004ZM6.09545 5.59004C6.41371 5.59004 6.71893 5.71604 6.94398 5.94164C7.16901 6.16604 7.29545 6.47204 7.29545 6.79004V11.59C7.29545 11.908 7.16901 12.214 6.94398 12.4384C6.71893 12.664 6.41371 12.79 6.09545 12.79C5.77718 12.79 5.47196 12.664 5.24691 12.4384C5.02188 12.214 4.89545 11.908 4.89545 11.59V6.79004C4.89545 6.47204 5.02188 6.16604 5.24691 5.94164C5.47196 5.71604 5.77718 5.59004 6.09545 5.59004Z" fill="#F3C4B7"/>
<path opacity="0.5" fill-rule="evenodd" clip-rule="evenodd" d="M15.6954 8.00317V6.77197H18.1086V8.00317H15.6954ZM14.4954 8.00317H12.0954V6.77197H14.4954V8.00317ZM8.49543 6.77197H10.8954V8.00317H8.49543V6.77197ZM4.90863 6.77197H7.29543V8.00317H4.90863V6.77197Z" fill="#D09889"/>
<path fill-rule="evenodd" clip-rule="evenodd" d="M20.4954 13.99V21.1072C19.7993 22.2316 18.8279 23.1604 17.673 23.8048C16.5182 24.4492 15.218 24.7876 13.8954 24.79H12.6954C10.6268 24.79 8.64281 23.968 7.18002 22.5052C5.71723 21.0424 4.89545 19.0588 4.89545 16.99V15.79C4.90478 15.1816 4.98944 14.5768 5.14746 13.99H20.4954Z" fill="#F3C4B7"/>
<path d="M24.0955 7.98999H0.095459V19.99H24.0955V7.98999Z" fill="#76A158"/>
<path d="M24.0955 7.98999H0.095459V9.18999H24.0955V7.98999Z" fill="#89AF6D"/>
<path opacity="0.7" d="M6.69543 16.3901C8.35229 16.3901 9.69543 15.0473 9.69543 13.3901C9.69543 11.7329 8.35229 10.3901 6.69543 10.3901C5.03858 10.3901 3.69543 11.7329 3.69543 13.3901C3.69543 15.0473 5.03858 16.3901 6.69543 16.3901Z" fill="#9FD17D"/>
<path fill-rule="evenodd" clip-rule="evenodd" d="M20.4955 19.9901V18.7901H24.0955V19.9901H20.4955ZM12.2647 19.9901H0.095459V18.7901H12.0955C12.0955 17.5169 12.6011 16.2965 13.5014 15.3965C14.4015 14.4953 15.6224 13.9901 16.8955 13.9901V11.5901C16.8955 11.2721 17.0219 10.9661 17.2469 10.7417C17.4719 10.5161 17.7772 10.3901 18.0955 10.3901C18.4137 10.3901 18.719 10.5161 18.944 10.7417C19.169 10.9661 19.2955 11.2721 19.2955 11.5901V14.6561C19.7426 14.9273 20.1429 15.2693 20.4811 15.6689V19.9901H12.2647Z" fill="#669248"/>
<path fill-rule="evenodd" clip-rule="evenodd" d="M20.4955 18.7901V21.1145H13.6747C13.3418 20.4317 13.2043 19.6697 13.2773 18.9137C13.3504 18.1565 13.6312 17.4353 14.0887 16.8281C14.5462 16.2221 15.1625 15.7529 15.8697 15.4745C16.5769 15.1961 17.3471 15.1193 18.0955 15.2513V11.5901C18.0955 11.2721 18.2219 10.9661 18.4469 10.7417C18.6719 10.5161 18.9772 10.3901 19.2955 10.3901C19.6137 10.3901 19.919 10.5161 20.144 10.7417C20.369 10.9661 20.4955 11.2721 20.4955 11.5901V18.7901Z" fill="#F3C4B7"/>
</svg>
