<svg width="64" height="24" viewBox="0 -7 64 24" fill="none" xmlns="http://www.w3.org/2000/svg">
<path d="M6.34973 8.76653V2.91052H9.77673V0.779526H0.428772V2.91052H3.85474V8.76653H6.34973ZM13.2697 0.779526H10.7747V8.76653H13.2697V0.779526ZM15.0958 0.779526V8.76653H17.3917V4.35352L21.6658 8.76653H23.7947V0.779526H21.4998V5.15952L17.3248 0.779526H15.0958ZM28.6987 5.74652L31.5767 8.76653H34.7867L30.7778 4.60551L34.6367 0.779526H31.6097L28.6987 3.78352H28.0338V0.779526H25.6218V8.76653H28.0338V5.74652H28.6987ZM39.7498 0.561523C36.5058 0.561523 34.5598 2.40753 34.5598 4.79053C34.5598 7.17253 36.5058 9.01852 39.7498 9.01852C42.9768 9.01852 44.9227 7.17253 44.9227 4.79053C44.9227 2.40753 42.9768 0.561523 39.7498 0.561523ZM39.7498 7.07253C38.1358 7.07253 37.1047 6.09853 37.1047 4.79053C37.1047 3.48153 38.1358 2.52452 39.7498 2.52452C41.3458 2.52452 42.3937 3.48153 42.3937 4.79053C42.3937 6.09853 41.3458 7.07253 39.7498 7.07253ZM54.0687 0.779526H46.0687V8.76653H48.4808V5.98152H53.7197V4.21951H48.4808V2.81052H54.0687V0.779526ZM63.1487 0.779526H55.1487V8.76653H57.5607V5.98152H62.7997V4.21951H57.5607V2.81052H63.1487V0.779526Z" fill="#333333"/>
</svg>
