<svg width="94" height="25" viewBox="0 0 94 25" fill="none" xmlns="http://www.w3.org/2000/svg">
<path fill-rule="evenodd" clip-rule="evenodd" d="M24.6526 24.78V10.533H24.0022L19.3643 24.78H13.8574H13.8414L9.21409 10.533H8.56911V24.78H0.636597V0.790655H8.56911C9.54734 0.777327 10.5042 1.07852 11.2985 1.64627C12.0955 2.21402 12.6899 3.02168 12.9937 3.95193L16.2537 15.0403H16.9387L20.2039 3.95193C20.5104 3.01901 21.1075 2.20869 21.9098 1.64094C22.7094 1.07053 23.6717 0.774662 24.6526 0.790655H32.5851V24.78H24.6526Z" fill="#52B461"/>
<path fill-rule="evenodd" clip-rule="evenodd" d="M53.8878 24.7794V10.5324H53.2827L48.2689 22.4871C47.9597 23.1694 47.4613 23.7505 46.8322 24.1583C46.2032 24.5635 45.4675 24.7794 44.7185 24.7794H37.9882V0.790039H45.9846V15.037H46.619L51.6968 3.06902L51.7367 2.9784C52.0565 2.32535 52.555 1.77362 53.1734 1.38979C53.7918 1.00329 54.5062 0.800695 55.2338 0.800695H61.9642V24.79H53.8931L53.8878 24.7794Z" fill="#52B461"/>
<path fill-rule="evenodd" clip-rule="evenodd" d="M84.7247 16.8208H75.3209V24.7799H67.3245V11.4338H93.8539C93.0303 13.1291 91.7242 14.5445 90.101 15.5014C88.4777 16.4609 86.6065 16.9194 84.7247 16.8208Z" fill="#52B461"/>
<path fill-rule="evenodd" clip-rule="evenodd" d="M93.7127 8.80247H79.2871C72.698 8.80247 67.2178 5.33735 66.0636 0.790039H84.7833C89.8211 0.790039 93.9046 3.76739 93.9046 7.43776C93.9046 7.89889 93.8406 8.35734 93.7127 8.80247Z" fill="url(#paint0_linear_154_470)"/>
<defs>
<linearGradient id="paint0_linear_154_470" x1="93.9286" y1="4.78826" x2="66.0236" y2="4.78826" gradientUnits="userSpaceOnUse">
<stop stop-color="#198ECA"/>
<stop offset="1" stop-color="#1DB5E4"/>
</linearGradient>
</defs>
</svg>
