<svg width="34" height="25" viewBox="0 0 34 25" fill="none" xmlns="http://www.w3.org/2000/svg">
<path fill-rule="evenodd" clip-rule="evenodd" d="M21.4288 24.79C28.0568 24.79 33.4288 19.418 33.4288 12.79C33.4288 6.16204 28.0568 0.790039 21.4288 0.790039C14.8008 0.790039 9.42877 6.16204 9.42877 12.79C9.42877 19.418 14.8008 24.79 21.4288 24.79ZM21.4288 17.4567C24.0061 17.4567 26.0954 15.3674 26.0954 12.79C26.0954 10.2127 24.0061 8.12337 21.4288 8.12337C18.8514 8.12337 16.7621 10.2127 16.7621 12.79C16.7621 15.3674 18.8514 17.4567 21.4288 17.4567Z" fill="#8A42F9"/>
<path d="M9.42879 4.79004H0.095459L5.07275 20.79H9.42879V4.79004Z" fill="#8A42F9"/>
</svg>
