<svg width="43" height="25" viewBox="0 0 43 25" fill="none" xmlns="http://www.w3.org/2000/svg">
<path d="M12.3081 24.79C18.7536 24.79 23.9796 19.417 23.9796 12.79C23.9796 6.16304 18.7536 0.790039 12.3081 0.790039C5.86261 0.790039 0.636597 6.16304 0.636597 12.79C0.636597 19.417 5.86261 24.79 12.3081 24.79Z" fill="#EC0020"/>
<path d="M30.9651 24.4612C37.4106 24.4612 42.6366 19.2352 42.6366 12.7897C42.6366 6.34417 37.4106 1.11816 30.9651 1.11816C24.5196 1.11816 19.2936 6.34417 19.2936 12.7897C19.2936 19.2352 24.5196 24.4612 30.9651 24.4612Z" fill="#FE9A0C"/>
<path fill-rule="evenodd" clip-rule="evenodd" d="M8.75458 15.7424H7.7226L8.66609 10.8854H8.64961L6.7206 15.7424H5.46509L5.43661 10.8854H5.42009L4.65361 15.7424H3.62158L4.75258 9.77686H6.3651L6.43559 14.4269H6.45358L8.28207 9.77686H9.87811L8.75458 15.7424ZM16.5246 12.4124C16.0671 12.3269 15.6021 12.2969 15.1386 12.3194C14.5791 12.3824 14.4576 12.5384 14.4216 12.7184C14.2941 13.3874 16.8396 12.7454 16.5306 14.2934C16.4301 14.7404 16.1736 15.1364 15.8076 15.4109C15.4416 15.6854 14.9901 15.8219 14.5326 15.7934C13.9746 15.8324 13.4136 15.7619 12.8826 15.5879L13.0326 14.7704C13.5516 14.8739 14.0811 14.9174 14.6106 14.9024C14.7786 14.9204 14.9496 14.8904 15.1011 14.8139C15.2526 14.7389 15.3801 14.6204 15.4671 14.4749C15.6081 13.7684 13.0671 14.2994 13.3761 12.7259C13.4766 12.3239 13.7226 11.9729 14.0676 11.7434C14.4126 11.5139 14.8311 11.4209 15.2406 11.4824C15.7206 11.4884 16.1976 11.5544 16.6611 11.6819L16.5216 12.4184L16.5246 12.4124ZM17.1081 12.2144L17.4861 10.6394H18.5166L18.2961 11.4284H18.9366L18.7866 12.2144H18.1461L17.6961 14.4929C17.6496 14.7419 17.6376 14.8364 18.0576 14.8364C18.1296 14.8364 18.2016 14.8289 18.2736 14.8169L18.1236 15.6659C17.9616 15.6659 17.7741 15.7784 17.6121 15.7784H17.4831C16.5921 15.7784 16.5051 15.3104 16.6161 14.7614L17.1171 12.2114L17.1081 12.2144ZM19.5936 14.0324C19.5546 14.1434 19.5441 14.2634 19.5636 14.3789C19.5831 14.4959 19.6341 14.6039 19.7076 14.6954C19.7826 14.7869 19.8786 14.8574 19.9896 14.9009C20.0991 14.9444 20.2176 14.9579 20.3346 14.9414C20.9706 14.9834 21.6036 14.8154 22.1346 14.4614L21.9711 15.2489C21.4311 15.6119 20.7846 15.7814 20.1366 15.7289C19.0356 15.7289 18.2961 15.1604 18.6366 13.4384C18.7101 12.8699 18.9801 12.3449 19.4001 11.9564C19.8216 11.5679 20.3661 11.3384 20.9376 11.3099C21.7116 11.3099 22.7031 11.9234 22.3176 13.8389L22.2831 14.0324H19.5831H19.5936ZM21.3651 13.2149C21.4011 13.1084 21.4131 12.9959 21.3996 12.8849C21.3861 12.7724 21.3486 12.6659 21.2886 12.5714C21.2301 12.4754 21.1491 12.3959 21.0546 12.3344C20.9601 12.2744 20.8536 12.2354 20.7426 12.2219C20.4936 12.2594 20.2641 12.3764 20.0886 12.5549C19.9116 12.7349 19.7976 12.9659 19.7646 13.2149H21.3651ZM22.9671 11.5034H23.9526L23.8026 12.1469H23.8191C23.9361 11.9114 24.1116 11.7119 24.3291 11.5664C24.5466 11.4194 24.8001 11.3339 25.0611 11.3159C25.1301 11.3159 25.2816 11.3474 25.3461 11.3549L24.9666 12.4469C24.8931 12.4349 24.8196 12.4303 24.7461 12.4333C24.4611 12.4168 24.1821 12.5129 23.9676 12.6989C23.7516 12.8864 23.6181 13.1489 23.5926 13.4324L23.1606 15.7814H22.1301L22.9626 11.5034H22.9671ZM29.1951 11.0534C28.8066 10.8269 28.3491 10.7504 27.9081 10.8404C27.4386 10.9229 27.0126 11.1644 26.7021 11.5259C26.3916 11.8859 26.2146 12.3434 26.2011 12.8189C26.1216 13.0004 26.0781 13.1954 26.0736 13.3919C26.0691 13.5899 26.1036 13.7879 26.1756 13.9709C26.2476 14.1554 26.3556 14.3234 26.4921 14.4659C26.6301 14.6084 26.7936 14.7224 26.9751 14.8019C27.2676 14.8709 27.5691 14.8784 27.8646 14.8274C28.1601 14.7764 28.4421 14.6654 28.6941 14.5019L28.4151 15.5309C28.1961 15.6779 27.9486 15.7769 27.6876 15.8204C27.4281 15.8639 27.1611 15.8534 26.9061 15.7874C25.4961 15.7004 24.6861 14.7644 25.0761 12.8054C25.1331 12.0239 25.4721 11.2904 26.0286 10.7414C26.5866 10.1909 27.3246 9.86236 28.1061 9.81586C28.3431 9.81286 28.5786 9.85936 28.7976 9.94936C29.0166 10.0409 29.2161 10.1759 29.3811 10.3454L29.1951 11.0579V11.0534ZM38.4951 15.7468H37.4871L37.5921 15.1019H37.5801C37.4361 15.3014 37.2456 15.4619 37.0266 15.5729C36.8061 15.6824 36.5631 15.7379 36.3171 15.7334C35.1516 15.7334 34.8831 14.6339 35.1171 13.4834C35.1516 12.9374 35.3766 12.4214 35.7531 12.0254C36.1311 11.6279 36.6366 11.3774 37.1796 11.3174C37.3956 11.2994 37.6116 11.3534 37.7931 11.4734C37.9746 11.5919 38.1111 11.7674 38.1801 11.9729H38.1981L38.5866 9.79036H39.6186L38.4936 15.7424L38.4951 15.7468ZM36.7476 14.8288C37.0506 14.7958 37.3311 14.6579 37.5426 14.4389C37.7526 14.2184 37.8801 13.9319 37.9011 13.6289C38.0346 12.9554 37.9881 12.2789 37.2831 12.2789C36.9726 12.3269 36.6891 12.4829 36.4836 12.7184C36.2766 12.9554 36.1596 13.2569 36.1536 13.5704C36.0546 14.0639 36.0891 14.8379 36.7536 14.8379L36.7476 14.8288ZM32.2731 14.7344C32.2731 14.7344 32.1741 15.1844 32.1516 15.4079L32.0991 15.7859H31.1841C31.1631 15.5669 31.1631 15.3464 31.1841 15.1274C31.0056 15.3164 30.7911 15.4664 30.5526 15.5699C30.3141 15.6719 30.0576 15.7258 29.7981 15.7273C29.6451 15.7438 29.4891 15.7199 29.3466 15.6599C29.2056 15.5984 29.0811 15.5039 28.9851 15.3809C28.8906 15.2594 28.8291 15.1154 28.8051 14.9639C28.7811 14.8109 28.7961 14.6549 28.8486 14.5094C28.9026 14.1614 29.0706 13.8419 29.3256 13.5989C29.5806 13.3559 29.9091 13.2044 30.2586 13.1684L31.2141 13.0183C31.3821 12.9928 31.5921 13.1114 31.6446 12.8684C31.6581 12.7904 31.6536 12.7094 31.6281 12.6329C31.6041 12.5564 31.5606 12.4874 31.5036 12.4319C31.4466 12.3764 31.3761 12.3359 31.2981 12.3149C31.2216 12.2924 31.1406 12.2909 31.0626 12.3074C30.5226 12.2879 29.9841 12.3808 29.4831 12.5818L29.7171 11.7644C30.2346 11.5334 30.8031 11.4389 31.3671 11.4899C31.5396 11.4509 31.7181 11.4524 31.8876 11.4974C32.0586 11.5409 32.2161 11.6249 32.3481 11.7434C32.4786 11.8604 32.5806 12.0074 32.6421 12.1724C32.7051 12.3374 32.7276 12.5144 32.7066 12.6899L32.2806 14.7253L32.2731 14.7344ZM31.4646 13.5794C31.2351 13.7099 30.9786 13.7864 30.7146 13.8044C30.5256 13.7999 30.3396 13.8598 30.1911 13.9753C30.0411 14.0923 29.9361 14.2559 29.8941 14.4404C29.8701 14.4989 29.8626 14.5634 29.8716 14.6264C29.8791 14.6879 29.9046 14.7479 29.9421 14.7989C29.9796 14.8499 30.0306 14.8889 30.0876 14.9159C30.1461 14.9414 30.2091 14.9519 30.2721 14.9459C30.5196 14.9474 30.7596 14.8664 30.9561 14.7164C31.1526 14.5664 31.2936 14.3549 31.3566 14.1164L31.4616 13.5794H31.4646ZM33.2286 11.5079H34.2141L34.0641 12.2309H34.0866C34.2021 11.9954 34.3776 11.7959 34.5951 11.6504C34.8141 11.5049 35.0661 11.4179 35.3271 11.4014C35.3976 11.4014 35.5491 11.4329 35.6136 11.4389L35.2341 12.5309C35.1606 12.5189 35.0871 12.5143 35.0136 12.5173C34.8771 12.5023 34.7391 12.5129 34.6071 12.5504C34.4766 12.5894 34.3536 12.6524 34.2456 12.7379C34.1391 12.8234 34.0491 12.9284 33.9831 13.0484C33.9171 13.1684 33.8751 13.3004 33.8601 13.4369L33.4281 15.7859H32.3976L33.2301 11.5079H33.2286ZM12.6546 14.7344C12.6546 14.7344 12.5556 15.1844 12.5316 15.4079L12.4791 15.7874H11.5641C11.5446 15.5684 11.5446 15.3464 11.5641 15.1274C11.3901 15.3254 11.1771 15.4859 10.9386 15.5999C10.7001 15.7124 10.4421 15.7754 10.1781 15.7859C10.0206 15.7949 9.86461 15.7649 9.72211 15.6989C9.57961 15.6329 9.45658 15.5309 9.36208 15.4064C9.26758 15.2804 9.20609 15.1333 9.18359 14.9773C9.15959 14.8213 9.17609 14.6639 9.22859 14.5154C9.28259 14.1674 9.45058 13.8479 9.70558 13.6049C9.96058 13.3619 10.2891 13.2119 10.6386 13.1744L11.5941 13.0244C11.6916 13.0229 11.7876 12.9914 11.8656 12.9314C11.9421 12.8714 11.9991 12.7874 12.0246 12.6929C12.1131 12.2264 11.7051 12.2984 11.4426 12.2924C10.9026 12.2744 10.3656 12.3674 9.86461 12.5669L10.0971 11.7494C10.6131 11.5199 11.1771 11.4254 11.7396 11.4749C11.9121 11.4359 12.0906 11.4374 12.2601 11.4824C12.4311 11.5259 12.5886 11.6099 12.7206 11.7284C12.8511 11.8454 12.9531 11.9924 13.0146 12.1574C13.0776 12.3224 13.1001 12.4994 13.0791 12.6749L12.6546 14.7359V14.7344ZM11.8446 13.5794C11.6151 13.7099 11.3586 13.7864 11.0946 13.8044C10.9056 13.7999 10.7196 13.8598 10.5696 13.9753C10.4196 14.0908 10.3146 14.2559 10.2726 14.4404C10.2486 14.4989 10.2411 14.5634 10.2501 14.6264C10.2576 14.6894 10.2831 14.7494 10.3206 14.7989C10.3581 14.8499 10.4091 14.8904 10.4676 14.9159C10.5246 14.9414 10.5891 14.9519 10.6521 14.9459C10.8996 14.9474 11.1396 14.8664 11.3361 14.7164C11.5311 14.5664 11.6721 14.3549 11.7351 14.1164L11.8401 13.5794H11.8446Z" fill="white"/>
<path fill-rule="evenodd" clip-rule="evenodd" d="M8.75458 15.7424H7.7226L8.66609 10.8854H8.64961L6.7206 15.7424H5.46509L5.43661 10.8854H5.42009L4.65361 15.7424H3.62158L4.75258 9.77686H6.3651L6.43559 14.4269H6.45358L8.28207 9.77686H9.87811L8.75458 15.7424ZM16.5246 12.4124C16.0671 12.3269 15.6021 12.2969 15.1386 12.3194C14.5791 12.3824 14.4576 12.5384 14.4216 12.7184C14.2941 13.3874 16.8396 12.7454 16.5306 14.2934C16.4301 14.7404 16.1736 15.1364 15.8076 15.4109C15.4416 15.6854 14.9901 15.8219 14.5326 15.7934C13.9746 15.8324 13.4136 15.7619 12.8826 15.5879L13.0326 14.7704C13.5516 14.8739 14.0811 14.9174 14.6106 14.9024C14.7786 14.9204 14.9496 14.8904 15.1011 14.8139C15.2526 14.7389 15.3801 14.6204 15.4671 14.4749C15.6081 13.7684 13.0671 14.2994 13.3761 12.7259C13.4766 12.3239 13.7226 11.9729 14.0676 11.7434C14.4126 11.5139 14.8311 11.4209 15.2406 11.4824C15.7206 11.4884 16.1976 11.5544 16.6611 11.6819L16.5216 12.4184L16.5246 12.4124ZM17.1081 12.2144L17.4861 10.6394H18.5166L18.2961 11.4284H18.9366L18.7866 12.2144H18.1461L17.6961 14.4929C17.6496 14.7419 17.6376 14.8364 18.0576 14.8364C18.1296 14.8364 18.2016 14.8289 18.2736 14.8169L18.1236 15.6659C17.9616 15.6659 17.7741 15.7784 17.6121 15.7784H17.4831C16.5921 15.7784 16.5051 15.3104 16.6161 14.7614L17.1171 12.2114L17.1081 12.2144ZM19.5936 14.0324C19.5546 14.1434 19.5441 14.2634 19.5636 14.3789C19.5831 14.4959 19.6341 14.6039 19.7076 14.6954C19.7826 14.7869 19.8786 14.8574 19.9896 14.9009C20.0991 14.9444 20.2176 14.9579 20.3346 14.9414C20.9706 14.9834 21.6036 14.8154 22.1346 14.4614L21.9711 15.2489C21.4311 15.6119 20.7846 15.7814 20.1366 15.7289C19.0356 15.7289 18.2961 15.1604 18.6366 13.4384C18.7101 12.8699 18.9801 12.3449 19.4001 11.9564C19.8216 11.5679 20.3661 11.3384 20.9376 11.3099C21.7116 11.3099 22.7031 11.9234 22.3176 13.8389L22.2831 14.0324H19.5831H19.5936ZM21.3651 13.2149C21.4011 13.1084 21.4131 12.9959 21.3996 12.8849C21.3861 12.7724 21.3486 12.6659 21.2886 12.5714C21.2301 12.4754 21.1491 12.3959 21.0546 12.3344C20.9601 12.2744 20.8536 12.2354 20.7426 12.2219C20.4936 12.2594 20.2641 12.3764 20.0886 12.5549C19.9116 12.7349 19.7976 12.9659 19.7646 13.2149H21.3651ZM22.9671 11.5034H23.9526L23.8026 12.1469H23.8191C23.9361 11.9114 24.1116 11.7119 24.3291 11.5664C24.5466 11.4194 24.8001 11.3339 25.0611 11.3159C25.1301 11.3159 25.2816 11.3474 25.3461 11.3549L24.9666 12.4469C24.8931 12.4349 24.8196 12.4303 24.7461 12.4333C24.4611 12.4168 24.1821 12.5129 23.9676 12.6989C23.7516 12.8864 23.6181 13.1489 23.5926 13.4324L23.1606 15.7814H22.1301L22.9626 11.5034H22.9671ZM29.1951 11.0534C28.8066 10.8269 28.3491 10.7504 27.9081 10.8404C27.4386 10.9229 27.0126 11.1644 26.7021 11.5259C26.3916 11.8859 26.2146 12.3434 26.2011 12.8189C26.1216 13.0004 26.0781 13.1954 26.0736 13.3919C26.0691 13.5899 26.1036 13.7879 26.1756 13.9709C26.2476 14.1554 26.3556 14.3234 26.4921 14.4659C26.6301 14.6084 26.7936 14.7224 26.9751 14.8019C27.2676 14.8709 27.5691 14.8784 27.8646 14.8274C28.1601 14.7764 28.4421 14.6654 28.6941 14.5019L28.4151 15.5309C28.1961 15.6779 27.9486 15.7769 27.6876 15.8204C27.4281 15.8639 27.1611 15.8534 26.9061 15.7874C25.4961 15.7004 24.6861 14.7644 25.0761 12.8054C25.1331 12.0239 25.4721 11.2904 26.0286 10.7414C26.5866 10.1909 27.3246 9.86236 28.1061 9.81586C28.3431 9.81286 28.5786 9.85936 28.7976 9.94936C29.0166 10.0409 29.2161 10.1759 29.3811 10.3454L29.1951 11.0579V11.0534ZM38.4951 15.7468H37.4871L37.5921 15.1019H37.5801C37.4361 15.3014 37.2456 15.4619 37.0266 15.5729C36.8061 15.6824 36.5631 15.7379 36.3171 15.7334C35.1516 15.7334 34.8831 14.6339 35.1171 13.4834C35.1516 12.9374 35.3766 12.4214 35.7531 12.0254C36.1311 11.6279 36.6366 11.3774 37.1796 11.3174C37.3956 11.2994 37.6116 11.3534 37.7931 11.4734C37.9746 11.5919 38.1111 11.7674 38.1801 11.9729H38.1981L38.5866 9.79036H39.6186L38.4936 15.7424L38.4951 15.7468ZM36.7476 14.8288C37.0506 14.7958 37.3311 14.6579 37.5426 14.4389C37.7526 14.2184 37.8801 13.9319 37.9011 13.6289C38.0346 12.9554 37.9881 12.2789 37.2831 12.2789C36.9726 12.3269 36.6891 12.4829 36.4836 12.7184C36.2766 12.9554 36.1596 13.2569 36.1536 13.5704C36.0546 14.0639 36.0891 14.8379 36.7536 14.8379L36.7476 14.8288ZM32.2731 14.7344C32.2731 14.7344 32.1741 15.1844 32.1516 15.4079L32.0991 15.7859H31.1841C31.1631 15.5669 31.1631 15.3464 31.1841 15.1274C31.0056 15.3164 30.7911 15.4664 30.5526 15.5699C30.3141 15.6719 30.0576 15.7258 29.7981 15.7273C29.6451 15.7438 29.4891 15.7199 29.3466 15.6599C29.2056 15.5984 29.0811 15.5039 28.9851 15.3809C28.8906 15.2594 28.8291 15.1154 28.8051 14.9639C28.7811 14.8109 28.7961 14.6549 28.8486 14.5094C28.9026 14.1614 29.0706 13.8419 29.3256 13.5989C29.5806 13.3559 29.9091 13.2044 30.2586 13.1684L31.2141 13.0183C31.3821 12.9928 31.5921 13.1114 31.6446 12.8684C31.6581 12.7904 31.6536 12.7094 31.6281 12.6329C31.6041 12.5564 31.5606 12.4874 31.5036 12.4319C31.4466 12.3764 31.3761 12.3359 31.2981 12.3149C31.2216 12.2924 31.1406 12.2909 31.0626 12.3074C30.5226 12.2879 29.9841 12.3808 29.4831 12.5818L29.7171 11.7644C30.2346 11.5334 30.8031 11.4389 31.3671 11.4899C31.5396 11.4509 31.7181 11.4524 31.8876 11.4974C32.0586 11.5409 32.2161 11.6249 32.3481 11.7434C32.4786 11.8604 32.5806 12.0074 32.6421 12.1724C32.7051 12.3374 32.7276 12.5144 32.7066 12.6899L32.2806 14.7253L32.2731 14.7344ZM31.4646 13.5794C31.2351 13.7099 30.9786 13.7864 30.7146 13.8044C30.5256 13.7999 30.3396 13.8598 30.1911 13.9753C30.0411 14.0923 29.9361 14.2559 29.8941 14.4404C29.8701 14.4989 29.8626 14.5634 29.8716 14.6264C29.8791 14.6879 29.9046 14.7479 29.9421 14.7989C29.9796 14.8499 30.0306 14.8889 30.0876 14.9159C30.1461 14.9414 30.2091 14.9519 30.2721 14.9459C30.5196 14.9474 30.7596 14.8664 30.9561 14.7164C31.1526 14.5664 31.2936 14.3549 31.3566 14.1164L31.4616 13.5794H31.4646ZM33.2286 11.5079H34.2141L34.0641 12.2309H34.0866C34.2021 11.9954 34.3776 11.7959 34.5951 11.6504C34.8141 11.5049 35.0661 11.4179 35.3271 11.4014C35.3976 11.4014 35.5491 11.4329 35.6136 11.4389L35.2341 12.5309C35.1606 12.5189 35.0871 12.5143 35.0136 12.5173C34.8771 12.5023 34.7391 12.5129 34.6071 12.5504C34.4766 12.5894 34.3536 12.6524 34.2456 12.7379C34.1391 12.8234 34.0491 12.9284 33.9831 13.0484C33.9171 13.1684 33.8751 13.3004 33.8601 13.4369L33.4281 15.7859H32.3976L33.2301 11.5079H33.2286ZM12.6546 14.7344C12.6546 14.7344 12.5556 15.1844 12.5316 15.4079L12.4791 15.7874H11.5641C11.5446 15.5684 11.5446 15.3464 11.5641 15.1274C11.3901 15.3254 11.1771 15.4859 10.9386 15.5999C10.7001 15.7124 10.4421 15.7754 10.1781 15.7859C10.0206 15.7949 9.86461 15.7649 9.72211 15.6989C9.57961 15.6329 9.45658 15.5309 9.36208 15.4064C9.26758 15.2804 9.20609 15.1333 9.18359 14.9773C9.15959 14.8213 9.17609 14.6639 9.22859 14.5154C9.28259 14.1674 9.45058 13.8479 9.70558 13.6049C9.96058 13.3619 10.2891 13.2119 10.6386 13.1744L11.5941 13.0244C11.6916 13.0229 11.7876 12.9914 11.8656 12.9314C11.9421 12.8714 11.9991 12.7874 12.0246 12.6929C12.1131 12.2264 11.7051 12.2984 11.4426 12.2924C10.9026 12.2744 10.3656 12.3674 9.86461 12.5669L10.0971 11.7494C10.6131 11.5199 11.1771 11.4254 11.7396 11.4749C11.9121 11.4359 12.0906 11.4374 12.2601 11.4824C12.4311 11.5259 12.5886 11.6099 12.7206 11.7284C12.8511 11.8454 12.9531 11.9924 13.0146 12.1574C13.0776 12.3224 13.1001 12.4994 13.0791 12.6749L12.6546 14.7359V14.7344ZM11.8446 13.5794C11.6151 13.7099 11.3586 13.7864 11.0946 13.8044C10.9056 13.7999 10.7196 13.8598 10.5696 13.9753C10.4196 14.0908 10.3146 14.2559 10.2726 14.4404C10.2486 14.4989 10.2411 14.5634 10.2501 14.6264C10.2576 14.6894 10.2831 14.7494 10.3206 14.7989C10.3581 14.8499 10.4091 14.8904 10.4676 14.9159C10.5246 14.9414 10.5891 14.9519 10.6521 14.9459C10.8996 14.9474 11.1396 14.8664 11.3361 14.7164C11.5311 14.5664 11.6721 14.3549 11.7351 14.1164L11.8401 13.5794H11.8446Z" fill="white"/>
</svg>
